<?xml version="1.0" encoding="utf-8"?>
<svg version="1.1" xmlns:xlink="http://www.w3.org/1999/xlink" width="23px" height="23px" xmlns="http://www.w3.org/2000/svg">
  <g transform="matrix(1 0 0 1 -645 -103 )">
    <path d="M 6.16887417218543 6.16887417218543  C 7.59835542773243 4.74098108157485  9.53665074132209 3.93963637595651  11.557119205298 3.94122516556291  C 13.5735082568019 3.93198802765592  15.5087171636746 4.73489385072013  16.9263245033113 6.16887417218543  C 19.8918264519649 9.14156691401642  19.8918264519649 13.9536317614803  16.9263245033113 16.9263245033113  C 13.9536317614803 19.8918264519649  9.14156691401642 19.8918264519649  6.16887417218543 16.9263245033113  C 3.20337222353182 13.9536317614803  3.20337222353182 9.14156691401642  6.16887417218543 6.16887417218543  Z M 19.6299668874172 3.46523178807947  C 17.4865222998333 1.32921495989865  14.5831590101695 0.130892847419507  11.557119205298 0.133278145695364  C 5.2514243177454 0.138248656367149  0.142283070175738 5.25141880962615  0.142283070175738 11.5571156561994  C 0.142283070175738 17.8663288579088  5.25691092806899 22.980956715802  11.5661241297784 22.980956715802  C 17.8753373314878 22.980956715802  22.989965189381 17.8663288579088  22.989965189381 11.5571156561994  C 22.989965189381 8.52045317326933  21.7809352027451 5.60874627174655  19.6299668874172 3.46523178807947  Z " fill-rule="nonzero" fill="#cccccc" stroke="none" transform="matrix(1 0 0 1 645 103 )" />
  </g>
</svg>