<?xml version="1.0" encoding="utf-8"?>
<svg version="1.1" xmlns:xlink="http://www.w3.org/1999/xlink" width="11px" height="13px" xmlns="http://www.w3.org/2000/svg">
  <g transform="matrix(1 0 0 1 -53 -206 )">
    <path d="M 7.61275862068965 12.0397727272727  L 1.46034482758621 12.0397727272727  C 1.19848567895954 12.0397727272727  0.986206896551724 11.8330859995668  1 11.578125  L 1 1.421875  C 0.986206896551724 1.16691400043323  1.19848567895954 0.960227272727273  1.46034482758621 0.960227272727273  L 9.52068965517241 0.960227272727273  C 9.78241379310345 0.960227272727273  9.9948275862069 1.16704545454545  9.9948275862069 1.421875  C 9.9948275862069 1.67683599956677  10.2071063686147 1.88352272727273  10.4689655172414 1.88352272727273  C 10.730824665868 1.88352272727273  10.9431034482759 1.67683599956677  10.9431034482759 1.421875  C 10.9431034482759 0.656992001299683  10.3062671010524 0.0369318181818188  9.52068965517241 0.0369318181818182  L 1.46034482758621 0.0369318181818182  C 0.674767381706199 0.0369318181818182  0.0379310344827586 0.656992001299682  0 1.421875  L 0 11.578125  C 0.0379310344827586 12.3430079987003  0.674767381706199 12.9630681818182  1.46034482758621 12.9630681818182  L 7.61275862068965 12.9630681818182  C 7.87461776931632 12.9630681818182  8.08689655172414 12.7563814541122  8.08689655172414 12.5014204545455  C 8.08689655172414 12.2464594549787  7.87461776931632 12.0397727272727  7.61275862068965 12.0397727272727  Z " fill-rule="nonzero" fill="#ffffff" stroke="none" transform="matrix(1 0 0 1 53 206 )" />
  </g>
</svg>