<?xml version="1.0" encoding="utf-8"?>
<svg version="1.1" xmlns:xlink="http://www.w3.org/1999/xlink" width="11px" height="8px" xmlns="http://www.w3.org/2000/svg">
  <g transform="matrix(1 0 0 1 -55 -208 )">
    <path d="M 4.1341059602649 0.862068965517242  C 4.38556010960839 0.862068965517242  4.58940397350993 0.669088254237411  4.58940397350993 0.431034482758621  C 4.58940397350993 0.192980711279831  4.38556010960839 0  4.1341059602649 0  L 0.491721854304636 0  C 0.240267704961146 0  0.0364238410596026 0.192980711279831  0.0364238410596026 0.431034482758621  C 0.0364238410596026 0.669088254237411  0.240267704961146 0.862068965517242  0.491721854304636 0.862068965517242  L 4.1341059602649 0.862068965517242  Z M 3.67880794701987 3.44827586206897  C 3.93026209636336 3.44827586206897  4.1341059602649 3.25529515078914  4.1341059602649 3.01724137931035  C 4.1341059602649 2.77918760783155  3.93026209636336 2.58620689655172  3.67880794701987 2.58620689655172  L 0.491721854304636 2.58620689655172  C 0.240267704961146 2.58620689655172  0.0364238410596026 2.77918760783155  0.0364238410596026 3.01724137931035  C 0.0364238410596026 3.25529515078914  0.240267704961146 3.44827586206897  0.491721854304636 3.44827586206897  L 3.67880794701987 3.44827586206897  Z M 2.31291390728477 5.60344827586207  L 0.491721854304636 5.60344827586207  C 0.240267704961146 5.60344827586207  0.0364238410596026 5.7964289871419  0.0364238410596026 6.03448275862069  C 0.0364238410596026 6.27253653009948  0.240267704961146 6.46551724137931  0.491721854304636 6.46551724137931  L 2.31291390728477 6.46551724137931  C 2.56436805662826 6.46551724137931  2.7682119205298 6.27253653009948  2.7682119205298 6.03448275862069  C 2.7682119205298 5.7964289871419  2.56436805662826 5.60344827586207  2.31291390728477 5.60344827586207  Z M 10.9635761589404 6.25  C 10.9635761589404 5.53583868556363  10.3520445672358 4.95689655172414  9.5976821192053 4.95689655172414  L 8.65612582781457 4.95689655172414  C 9.0012417218543 4.0448275862069  9.5976821192053 2.36594827586207  9.5976821192053 2.1551724137931  C 9.5976821192053 0.964903556399151  8.57846279969758 0  7.32119205298013 0  C 6.06392130626268 0  5.04470198675497 0.964903556399151  5.04470198675497 2.1551724137931  C 5.04470198675497 2.42543103448276  5.61154801324503 4.0375  5.97942880794702 4.95689655172414  L 5.04470198675497 4.95689655172414  C 4.2903395387245 4.95689655172414  3.67880794701987 5.53583868556363  3.67880794701987 6.25  L 3.67880794701987 6.68103448275862  C 3.67880794701987 7.39519579719499  4.2903395387245 7.97413793103448  5.04470198675497 7.97413793103448  L 9.5976821192053 7.97413793103448  C 10.3520445672358 7.97413793103448  10.9635761589404 7.39519579719499  10.9635761589404 6.68103448275862  L 10.9635761589404 6.25  Z M 6.9578642384106 4.95689655172414  C 6.84403973509934 4.68534482758621  6.63915562913907 4.15862068965517  6.44565397350993 3.63060344827586  C 6.17019867549669 2.87931034482759  5.95529801324503 2.21724137931035  5.95529801324503 2.1551724137931  C 5.95529801324503 1.44101106081925  6.56682960494966 0.862068926979756  7.32119205298013 0.862068926979756  C 8.0755545010106 0.862068926979756  8.68708609271523 1.44101106081925  8.68708609271523 2.15517237525562  C 8.68708609271523 2.24008620689655  7.94449503311258 4.28965517241379  7.68634105960265 4.95689655172414  L 6.9578642384106 4.95689655172414  Z M 10.0529801324503 6.25  L 10.0529801324503 6.68103448275862  C 10.0529801324503 6.91908825423741  9.84913626854879 7.11206896551724  9.5976821192053 7.11206896551724  L 5.04470198675497 7.11206896551724  C 4.79324783741148 7.11206896551724  4.58940397350993 6.91908825423741  4.58940397350993 6.68103448275862  L 4.58940397350993 6.25  C 4.58940397350993 6.01194622852121  4.79324783741148 5.81896551724138  5.04470198675497 5.81896551724138  L 9.5976821192053 5.81896551724138  C 9.84913626854879 5.81896551724138  10.0529801324503 6.01194622852121  10.0529801324503 6.25  Z " fill-rule="nonzero" fill="#ffffff" stroke="none" transform="matrix(1 0 0 1 55 208 )" />
  </g>
</svg>