<?xml version="1.0" encoding="utf-8"?>
<svg version="1.1" xmlns:xlink="http://www.w3.org/1999/xlink" width="15px" height="8px" xmlns="http://www.w3.org/2000/svg">
  <g transform="matrix(1 0 0 1 -62 -658 )">
    <path d="M 14.5653409090909 7.82574257425743  C 14.3892045454545 7.94191419141915  14.1647727272727 8.00000000000001  13.8920454545455 8  L 12.5454545454545 8  L 10.3636363636364 8  L 7.77272727272727 8  L 5.11363636363636 8  L 2.76136363636364 8  L 1.09090909090909 8  C 0.818181818181818 8  0.596590909090909 7.94191419141914  0.426136363636363 7.82574257425743  C 0.255681818181817 7.70957095709571  0.139204545454545 7.56171617161716  0.0767045454545447 7.38217821782178  C 0.0142045454545449 7.2026402640264  0.0113636363636357 7.0046204620462  0.0681818181818175 6.78811881188119  C 0.124999999999999 6.57161716171617  0.249999999999999 6.35775577557756  0.443181818181818 6.14653465346535  C 0.863636363636363 5.72409240924093  1.30681818181818 5.28052805280528  1.77272727272727 4.81584158415842  C 2.23863636363636 4.35115511551155  2.71590909090909 3.88118811881188  3.20454545454545 3.40594059405941  L 4.63636363636364 1.98019801980198  C 5.125 1.50495049504951  5.59090909090909 1.04554455445545  6.03409090909091 0.601980198019804  C 6.23863636363637 0.401320132013204  6.48295454545455 0.253465346534655  6.76704545454546 0.15841584158416  C 7.05113636363636 0.0633663366336654  7.34375 0.0184818481848202  7.64488636363637 0.0237623762376252  C 7.94602272727273 0.0290429042904308  8.24147727272728 0.089768976897692  8.53125 0.205940594059408  C 8.82102272727273 0.322112211221125  9.07386363636364 0.485808580858089  9.28977272727273 0.697029702970299  C 10.0738636363636 1.45742574257426  10.8920454545455 2.28118811881188  11.7443181818182 3.16831683168317  C 12.5965909090909 4.05544554455446  13.4886363636364 5.00594059405941  14.4204545454545 6.01980198019802  C 14.6363636363636 6.26270627062707  14.7840909090909 6.50297029702971  14.8636363636364 6.74059405940594  C 14.9431818181818 6.97821782178218  14.9573863636364 7.18943894389439  14.90625 7.37425742574258  C 14.8551136363636 7.55907590759077  14.7414772727273 7.70957095709571  14.5653409090909 7.82574257425743  Z " fill-rule="nonzero" fill="#999999" stroke="none" transform="matrix(1 0 0 1 62 658 )" />
  </g>
</svg>