<?xml version="1.0" encoding="utf-8"?>
<svg version="1.1" xmlns:xlink="http://www.w3.org/1999/xlink" width="18px" height="19px" preserveAspectRatio="xMidYMin meet" viewBox="980 584  16 19" xmlns="http://www.w3.org/2000/svg">
  <path d="M 869.5 514  L 869.5 545  A 5 5 0 0 0 874.5 550.5 L 983 550.5  A 5 5 0 0 1 988.5 555.5 L 988.5 592  " stroke-width="1" stroke="#0054cc" fill="none" />
  <path d="M 869.5 513  A 3 3 0 0 0 866.5 516 A 3 3 0 0 0 869.5 519 A 3 3 0 0 0 872.5 516 A 3 3 0 0 0 869.5 513 Z M 982.2 591  L 988.5 597  L 994.8 591  L 982.2 591  Z " fill-rule="nonzero" fill="#0054cc" stroke="none" />
</svg>