<?xml version="1.0" encoding="utf-8"?>
<svg version="1.1" xmlns:xlink="http://www.w3.org/1999/xlink" width="19px" height="18px" preserveAspectRatio="xMinYMid meet" viewBox="1044 1665  19 16" xmlns="http://www.w3.org/2000/svg">
  <defs>
    <mask fill="white" id="clip71">
      <path d="M 1315.5 1665  L 1346.5 1665  L 1346.5 1687  L 1315.5 1687  Z M 1041 1664  L 1621 1664  L 1621 1687  L 1041 1687  Z " fill-rule="evenodd" />
    </mask>
  </defs>
  <path d="M 1611 1678.5  L 1333.5 1678.5  A 2.5 2.5 0 0 1 1331.5 1676 A 2.5 2.5 0 0 0 1329 1673.5 L 1055 1673.5  " stroke-width="1" stroke="#0054cc" fill="none" mask="url(#clip71)" />
  <path d="M 1609 1675.5  A 3 3 0 0 0 1606 1678.5 A 3 3 0 0 0 1609 1681.5 A 3 3 0 0 0 1612 1678.5 A 3 3 0 0 0 1609 1675.5 Z M 1056 1667.2  L 1050 1673.5  L 1056 1679.8  L 1056 1667.2  Z " fill-rule="nonzero" fill="#0054cc" stroke="none" mask="url(#clip71)" />
</svg>