<?xml version="1.0" encoding="utf-8"?>
<svg version="1.1" xmlns:xlink="http://www.w3.org/1999/xlink" width="18px" height="18px" preserveAspectRatio="xMinYMid meet" viewBox="979 1320  18 16" xmlns="http://www.w3.org/2000/svg">
  <defs>
    <mask fill="white" id="clip77">
      <path d="M 972.5 1344  L 1003.5 1344  L 1003.5 1366  L 972.5 1366  Z M 972.5 1316  L 1003.5 1316  L 1003.5 1394  L 972.5 1394  Z " fill-rule="evenodd" />
    </mask>
  </defs>
  <path d="M 988.5 1344  L 988.5 1326  M 988.5 1366  L 988.5 1380  " stroke-width="1" stroke="#0054cc" fill="none" />
  <path d="M 988.5 1325  A 3 3 0 0 0 985.5 1328 A 3 3 0 0 0 988.5 1331 A 3 3 0 0 0 991.5 1328 A 3 3 0 0 0 988.5 1325 Z M 982.2 1379  L 988.5 1385  L 994.8 1379  L 982.2 1379  Z " fill-rule="nonzero" fill="#0054cc" stroke="none" mask="url(#clip77)" />
</svg>