<?xml version="1.0" encoding="utf-8"?>
<svg version="1.1" xmlns:xlink="http://www.w3.org/1999/xlink" width="16px" height="15px" xmlns="http://www.w3.org/2000/svg">
  <g transform="matrix(1 0 0 1 -137 -271 )">
    <path d="M 15.9696969637784 4.52380951799665  L 0.0606060546875 4.52380951799665  L 0.0606060546875 1.73363094656808  C 0.0611931622522212 1.22021228649133  0.484822218677892 0.804148042445894  1.00757576349432 0.803571428571428  L 3.09090909090909 0.803571428571428  L 3.09090909090909 1.91964285714286  C 3.09090909090909 2.12510593532199  3.26049820214658 2.2916666695731  3.46969697265625 2.2916666695731  C 3.67889574316592 2.2916666695731  3.84848485440341 2.12510593532199  3.84848485440341 1.91964285714286  L 3.84848485440341 0.803571428571428  L 7.63636363636364 0.803571428571428  L 7.63636363636364 1.91964285714286  C 7.63636363636364 2.12510593532199  7.80595274760113 2.2916666695731  8.0151515181108 2.2916666695731  C 8.22435028862046 2.2916666695731  8.39393939985795 2.12510593532199  8.39393939985795 1.91964285714286  L 8.39393939985795 0.803571428571428  L 12.1818181818182 0.803571428571428  L 12.1818181818182 1.91964285714286  C 12.1818181818182 2.12510593532199  12.3514072930557 2.2916666695731  12.5606060635653 2.2916666695731  C 12.769804834075 2.2916666695731  12.9393939453125 2.12510593532199  12.9393939453125 1.91964285714286  L 12.9393939453125 0.803571428571428  L 15.0227272727273 0.803571428571428  C 15.5454808106097 0.804148052054057  15.9691098562325 1.22021229329072  15.9696969637784 1.73363094656808  L 15.9696969637784 4.52380951799665  Z M 8.39393939985795 0.803571428571428  L 8.39393939985795 0.431547624860491  C 8.39393939985795 0.226084546681355  8.22435028862046 0.059523812430245  8.0151515181108 0.059523812430245  C 7.80595274760113 0.059523812430245  7.63636363636363 0.226084546681355  7.63636363636363 0.431547624860491  L 7.63636363636363 0.803571428571428  L 8.39393939985795 0.803571428571428  Z M 3.84848485440341 0.803571428571428  L 3.84848485440341 0.431547624860491  C 3.84848485440341 0.226084546681355  3.67889574316591 0.0595238124302454  3.46969697265625 0.0595238124302454  C 3.26049820214658 0.0595238124302454  3.09090909090909 0.226084546681355  3.09090909090909 0.431547624860491  L 3.09090909090909 0.803571428571428  L 3.84848485440341 0.803571428571428  Z M 12.9393939453125 0.803571428571428  L 12.9393939453125 0.431547624860491  C 12.9393939453125 0.226084546681355  12.769804834075 0.059523812430245  12.5606060635653 0.059523812430245  C 12.3514072930557 0.059523812430245  12.1818181818182 0.226084546681355  12.1818181818182 0.431547624860491  L 12.1818181818182 0.803571428571428  L 12.9393939453125 0.803571428571428  Z M 0.0606060546874997 5.26785714285714  L 15.9696969637784 5.26785714285714  L 15.9696969637784 14.0104166608538  C 15.9691098660153 14.5238353209414  15.5454808175327 14.939899572788  15.0227272727273 15  L 1.00757576349432 15  C 0.484822211754878 14.9398995823962  0.0611931524693626 14.5238353277407  0.0606060546874997 14.0104166608538  L 0.0606060546874997 5.26785714285714  Z M 2.71212121803977 11.9642857142857  C 2.92131998364634 11.9642857142857  3.09090909090909 11.7977249839384  3.09090909090909 11.5922619105748  C 3.09090909090909 11.3867988372112  2.92131998364634 11.2202381068638  2.71212121803977 11.2202381068638  C 2.5029224524332 11.2202381068638  2.33333334517045 11.3867988372112  2.33333334517045 11.5922619105748  C 2.33333334517045 11.7977249839384  2.5029224524332 11.9642857142857  2.71212121803977 11.9642857142857  Z M 3.09090909090909 9.36011905343192  C 3.09090909090909 9.15465598006832  2.92131998364634 8.98809524972098  2.71212121803977 8.98809524972098  C 2.5029224524332 8.98809524972098  2.33333334517045 9.15465598006832  2.33333334517045 9.36011905343192  C 2.33333334517045 9.56558212679552  2.5029224524332 9.73214285714286  2.71212121803977 9.73214285714286  C 2.92131998364634 9.73214285714286  3.09090909090909 9.56558212679552  3.09090909090909 9.36011905343192  Z M 2.71212121803977 7.5  C 2.92131998364634 7.5  3.09090909090909 7.33343926965266  3.09090909090909 7.12797619628906  C 3.09090909090909 6.92251312292547  2.92131998364634 6.75595239257812  2.71212121803977 6.75595239257812  C 2.5029224524332 6.75595239257812  2.33333334517045 6.92251312292547  2.33333334517045 7.12797619628906  C 2.33333334517045 7.33343926965266  2.5029224524332 7.5  2.71212121803977 7.5  Z M 4.98484849076705 11.9642857142857  C 5.19404725637362 11.9642857142857  5.36363636363636 11.7977249839384  5.36363636363636 11.5922619105748  C 5.36363636363636 11.3867988372112  5.19404725637361 11.2202381068638  4.98484849076704 11.2202381068638  C 4.77564972516048 11.2202381068638  4.60606061789773 11.3867988372112  4.60606061789773 11.5922619105748  C 4.60606061789773 11.7977249839384  4.77564972516048 11.9642857142857  4.98484849076704 11.9642857142857  Z M 4.98484849076705 9.73214285714286  C 5.19404725637362 9.73214285714286  5.36363636363637 9.56558212679552  5.36363636363636 9.36011905343192  C 5.36363636363636 9.15465598006832  5.19404725637361 8.98809524972098  4.98484849076704 8.98809524972098  C 4.77564972516048 8.98809524972098  4.60606061789773 9.15465598006832  4.60606061789773 9.36011905343192  C 4.60606061789773 9.56558212679552  4.77564972516048 9.73214285714286  4.98484849076704 9.73214285714286  Z M 4.98484849076705 7.5  C 5.19404725637362 7.5  5.36363636363636 7.33343926965266  5.36363636363636 7.12797619628906  C 5.36363636363636 6.92251312292547  5.19404725637361 6.75595239257812  4.98484849076704 6.75595239257812  C 4.77564972516048 6.75595239257812  4.60606061789773 6.92251312292547  4.60606061789773 7.12797619628906  C 4.60606061789773 7.33343926965266  4.77564972516048 7.5  4.98484849076704 7.5  Z M 7.25757576349432 11.9642857142857  C 7.46677452910089 11.9642857142857  7.63636363636364 11.7977249839384  7.63636363636364 11.5922619105748  C 7.63636363636364 11.3867988372112  7.46677452910089 11.2202381068638  7.25757576349432 11.2202381068638  C 7.04837699788775 11.2202381068638  6.878787890625 11.3867988372112  6.878787890625 11.5922619105748  C 6.878787890625 11.7977249839384  7.04837699788775 11.9642857142857  7.25757576349432 11.9642857142857  Z M 7.63636363636364 9.36011905343192  C 7.63636363636364 9.15465598006832  7.46677452910089 8.98809524972098  7.25757576349432 8.98809524972098  C 7.04837699788775 8.98809524972098  6.878787890625 9.15465598006832  6.878787890625 9.36011905343192  C 6.878787890625 9.56558212679552  7.04837699788775 9.73214285714286  7.25757576349432 9.73214285714286  C 7.46677452910089 9.73214285714286  7.63636363636364 9.56558212679552  7.63636363636364 9.36011905343192  Z M 7.25757576349432 7.5  C 7.46677452910089 7.5  7.63636363636364 7.33343926965266  7.63636363636364 7.12797619628906  C 7.63636363636364 6.92251312292547  7.46677452910089 6.75595239257812  7.25757576349432 6.75595239257812  C 7.04837699788775 6.75595239257812  6.878787890625 6.92251312292547  6.878787890625 7.12797619628906  C 6.878787890625 7.33343926965266  7.04837699788775 7.5  7.25757576349432 7.5  Z M 10.6666666725852 11.5922618931362  C 10.6666666725852 11.3867988197726  10.4970775653225 11.2202380894252  10.2878787997159 11.2202380894252  L 9.53030303622159 11.2202380894252  C 9.32110426571192 11.2202380894252  9.15151515447443 11.3867988236763  9.15151515447443 11.5922619018555  C 9.15151515447443 11.7977249800346  9.32110426571192 11.9642857142857  9.53030303622159 11.9642857142857  L 10.2878787819602 11.9642857142857  C 10.4970775653225 11.9642857142857  10.6666666725852 11.7977249839384  10.6666666725852 11.5922619105748  Z M 10.6666666725852 9.3601190359933  C 10.6666666725852 9.15465596262971  10.4970775653225 8.98809523228236  10.2878787997159 8.98809523228236  L 9.53030303622159 8.98809523228236  C 9.32110426571192 8.98809523228236  9.15151515447443 9.15465596653347  9.15151515447443 9.36011904471261  C 9.15151515447443 9.56558212289174  9.32110426571192 9.73214285714285  9.53030303622159 9.73214285714285  L 10.2878787819602 9.73214285714285  C 10.4970775653225 9.73214285714286  10.6666666725852 9.56558212679552  10.6666666725852 9.36011905343192  Z M 10.6666666725852 7.12797617885045  C 10.6666666725852 6.92251310548685  10.4970775653225 6.75595237513951  10.2878787997159 6.75595237513951  L 9.53030303622159 6.75595237513951  C 9.32110426571192 6.75595237513951  9.15151515447443 6.92251310939062  9.15151515447443 7.12797618756975  C 9.15151515447443 7.33343926574889  9.32110426571192 7.5  9.53030303622159 7.5  L 10.2878787819602 7.5  C 10.4970775653225 7.5  10.6666666725852 7.33343926965266  10.6666666725852 7.12797619628906  Z M 13.6969696910511 9.3601190359933  C 13.6969696910511 9.15465596262971  13.5273805837884 8.98809523228236  13.3181818181818 8.98809523228236  L 12.5606060546875 8.98809523228236  C 12.3514072841778 8.98809523228236  12.1818181729403 9.15465596653347  12.1818181729403 9.36011904471261  C 12.1818181729403 9.56558212289174  12.3514072841778 9.73214285714285  12.5606060546875 9.73214285714285  L 13.3181818181818 9.73214285714285  C 13.5273805837884 9.73214285714285  13.6969696910511 9.56558212679551  13.6969696910511 9.36011905343192  Z M 13.3181818181818 7.5  C 13.5273805837884 7.5  13.6969696910511 7.33343926965266  13.6969696910511 7.12797619628906  C 13.6969696910511 6.92251310548685  13.5273805837884 6.75595237513951  13.3181818181818 6.75595237513951  L 12.5606060546875 6.75595237513951  C 12.3514072841778 6.75595237513951  12.1818181729403 6.92251310939062  12.1818181729403 7.12797618756975  C 12.1818181729403 7.33343926574889  12.3514072841778 7.5  12.5606060546875 7.5  L 13.3181818181818 7.5  Z " fill-rule="nonzero" fill="#ffffff" stroke="none" transform="matrix(1 0 0 1 137 271 )" />
  </g>
</svg>