<?xml version="1.0" encoding="utf-8"?>
<svg version="1.1" xmlns:xlink="http://www.w3.org/1999/xlink" width="406px" height="46px" xmlns="http://www.w3.org/2000/svg">
  <defs>
    <filter x="117px" y="65px" width="406px" height="46px" filterUnits="userSpaceOnUse" id="filter277">
      <feOffset dx="0" dy="0" in="SourceAlpha" result="shadowOffsetInner" />
      <feGaussianBlur stdDeviation="1.5" in="shadowOffsetInner" result="shadowGaussian" />
      <feComposite in2="shadowGaussian" operator="atop" in="SourceAlpha" result="shadowComposite" />
      <feColorMatrix type="matrix" values="0 0 0 0 0  0 0 0 0 0.474509803921569  0 0 0 0 0.996078431372549  0 0 0 0.8 0  " in="shadowComposite" />
    </filter>
    <g id="widget278">
      <path d="M 120.5 71  A 2.5 2.5 0 0 1 123 68.5 L 517 68.5  A 2.5 2.5 0 0 1 519.5 71 L 519.5 105  A 2.5 2.5 0 0 1 517 107.5 L 123 107.5  A 2.5 2.5 0 0 1 120.5 105 L 120.5 71  Z " fill-rule="nonzero" fill="#ffffff" stroke="none" />
      <path d="M 120.5 71  A 2.5 2.5 0 0 1 123 68.5 L 517 68.5  A 2.5 2.5 0 0 1 519.5 71 L 519.5 105  A 2.5 2.5 0 0 1 517 107.5 L 123 107.5  A 2.5 2.5 0 0 1 120.5 105 L 120.5 71  Z " stroke-width="1" stroke="#0079fe" fill="none" />
    </g>
  </defs>
  <g transform="matrix(1 0 0 1 -117 -65 )">
    <use xlink:href="#widget278" filter="url(#filter277)" />
    <use xlink:href="#widget278" />
  </g>
</svg>