<?xml version="1.0" encoding="utf-8"?>
<svg version="1.1" xmlns:xlink="http://www.w3.org/1999/xlink" width="18px" height="18px" preserveAspectRatio="xMinYMid meet" viewBox="975 508  18 16" xmlns="http://www.w3.org/2000/svg">
  <path d="M 984.5 514  L 984.5 535  A 5 5 0 0 1 979.5 540.5 L 882 540.5  A 5 5 0 0 0 877.5 545.5 L 877.5 572  " stroke-width="1" stroke="#0054cc" fill="none" />
  <path d="M 984.5 513  A 3 3 0 0 0 981.5 516 A 3 3 0 0 0 984.5 519 A 3 3 0 0 0 987.5 516 A 3 3 0 0 0 984.5 513 Z M 871.2 571  L 877.5 577  L 883.8 571  L 871.2 571  Z " fill-rule="nonzero" fill="#0054cc" stroke="none" />
</svg>