<?xml version="1.0" encoding="utf-8"?>
<svg version="1.1" xmlns:xlink="http://www.w3.org/1999/xlink" width="10px" height="37px" preserveAspectRatio="xMidYMin meet" viewBox="1171 425  8 37" xmlns="http://www.w3.org/2000/svg">
  <path d="M 877.5 412  L 877.5 425  A 5 5 0 0 0 882.5 430.5 L 1170 430.5  A 5 5 0 0 1 1175.5 435.5 L 1175.5 457  " stroke-width="1" stroke="#0054cc" fill="none" />
  <path d="M 877.5 411  A 3 3 0 0 0 874.5 414 A 3 3 0 0 0 877.5 417 A 3 3 0 0 0 880.5 414 A 3 3 0 0 0 877.5 411 Z M 1169.2 456  L 1175.5 462  L 1181.8 456  L 1169.2 456  Z " fill-rule="nonzero" fill="#0054cc" stroke="none" />
</svg>