<?xml version="1.0" encoding="utf-8"?>
<svg version="1.1" xmlns:xlink="http://www.w3.org/1999/xlink" width="165px" height="10px" preserveAspectRatio="xMinYMid meet" viewBox="1720 1310  165 8" xmlns="http://www.w3.org/2000/svg">
  <defs>
    <mask fill="white" id="clip44">
      <path d="M 1704.5 1787  L 1735.5 1787  L 1735.5 1809  L 1704.5 1809  Z M 908 1305  L 1883 1305  L 1883 1809  L 908 1809  Z " fill-rule="evenodd" />
    </mask>
  </defs>
  <path d="M 1721 1314.5  L 1875 1314.5  A 5 5 0 0 1 1880.5 1319.5 L 1880.5 1793  A 5 5 0 0 1 1875.5 1798.5 L 922 1798.5  " stroke-width="1" stroke="#0054cc" fill="none" mask="url(#clip44)" />
  <path d="M 1723 1311.5  A 3 3 0 0 0 1720 1314.5 A 3 3 0 0 0 1723 1317.5 A 3 3 0 0 0 1726 1314.5 A 3 3 0 0 0 1723 1311.5 Z M 923 1792.2  L 917 1798.5  L 923 1804.8  L 923 1792.2  Z " fill-rule="nonzero" fill="#0054cc" stroke="none" mask="url(#clip44)" />
</svg>