<?xml version="1.0" encoding="utf-8"?>
<svg version="1.1" xmlns:xlink="http://www.w3.org/1999/xlink" width="10px" height="72px" preserveAspectRatio="xMidYMin meet" viewBox="1654 1471  8 72" xmlns="http://www.w3.org/2000/svg">
  <defs>
    <mask fill="white" id="clip52">
      <path d="M 1642.5 1494  L 1673.5 1494  L 1673.5 1516  L 1642.5 1516  Z M 1642.5 1462  L 1673.5 1462  L 1673.5 1547  L 1642.5 1547  Z " fill-rule="evenodd" />
    </mask>
  </defs>
  <path d="M 1658.5 1494  L 1658.5 1472  M 1658.5 1516  L 1658.5 1533  " stroke-width="1" stroke="#0054cc" fill="none" />
  <path d="M 1658.5 1471  A 3 3 0 0 0 1655.5 1474 A 3 3 0 0 0 1658.5 1477 A 3 3 0 0 0 1661.5 1474 A 3 3 0 0 0 1658.5 1471 Z M 1652.2 1532  L 1658.5 1538  L 1664.8 1532  L 1652.2 1532  Z " fill-rule="nonzero" fill="#0054cc" stroke="none" mask="url(#clip52)" />
</svg>