<?xml version="1.0" encoding="utf-8"?>
<svg version="1.1" xmlns:xlink="http://www.w3.org/1999/xlink" width="18px" height="18px" preserveAspectRatio="xMinYMid meet" viewBox="1584 1561  18 16" xmlns="http://www.w3.org/2000/svg">
  <defs>
    <mask fill="white" id="clip56">
      <path d="M 1252.5 1558  L 1283.5 1558  L 1283.5 1580  L 1252.5 1580  Z M 930 1558  L 1605 1558  L 1605 1580  L 930 1580  Z " fill-rule="evenodd" />
    </mask>
  </defs>
  <path d="M 1252.5 1569.5  L 944 1569.5  M 1283.5 1569.5  L 1595 1569.5  " stroke-width="1" stroke="#0054cc" fill="none" />
  <path d="M 1593 1566.5  A 3 3 0 0 0 1590 1569.5 A 3 3 0 0 0 1593 1572.5 A 3 3 0 0 0 1596 1569.5 A 3 3 0 0 0 1593 1566.5 Z M 945 1563.2  L 939 1569.5  L 945 1575.8  L 945 1563.2  Z " fill-rule="nonzero" fill="#0054cc" stroke="none" mask="url(#clip56)" />
</svg>