<?xml version="1.0" encoding="utf-8"?>
<svg version="1.1" xmlns:xlink="http://www.w3.org/1999/xlink" width="12px" height="12px" xmlns="http://www.w3.org/2000/svg">
  <g transform="matrix(1 0 0 1 -197 -29 )">
    <path d="M 8.68666666666667 4.71333333333333  C 8.48666666666666 4.65555555555556  8.36 4.61333333333333  8.30666666666667 4.58666666666667  C 8.15555555555556 4.51555555555556  8.08666666666667 4.42  8.1 4.3  C 8.11333333333334 4.18  8.16444444444445 4.08444444444444  8.25333333333333 4.01333333333333  C 8.28 3.99555555555556  8.36666666666667 3.92666666666667  8.51333333333333 3.80666666666667  C 8.66 3.68666666666667  8.84 3.54222222222222  9.05333333333333 3.37333333333333  C 8.68 2.94666666666667  8.23555555555556 2.61111111111111  7.72 2.36666666666667  C 7.20444444444445 2.12222222222222  6.64444444444445 2  6.04 2  C 5.48 2  4.95555555555556 2.10444444444444  4.46666666666667 2.31333333333333  C 3.97777777777778 2.52222222222222  3.55111111111111 2.80888888888889  3.18666666666667 3.17333333333333  C 2.82222222222222 3.53777777777778  2.53555555555556 3.96444444444444  2.32666666666667 4.45333333333333  C 2.11777777777778 4.94222222222222  2.01333333333333 5.46666666666667  2.01333333333333 6.02666666666667  C 2.01333333333333 6.57777777777778  2.11777777777778 7.09777777777778  2.32666666666667 7.58666666666667  C 2.53555555555556 8.07555555555555  2.82222222222222 8.50222222222222  3.18666666666667 8.86666666666666  C 3.55111111111111 9.23111111111111  3.97777777777778 9.51777777777778  4.46666666666667 9.72666666666667  C 4.95555555555555 9.93555555555555  5.48 10.04  6.04 10.04  C 6.50222222222222 10.04  6.94 9.96666666666667  7.35333333333333 9.82  C 7.76666666666667 9.67333333333333  8.14444444444445 9.46666666666667  8.48666666666667 9.2  C 8.82888888888889 8.93333333333333  9.12222222222222 8.62  9.36666666666667 8.26  C 9.61111111111111 7.9  9.79111111111111 7.50666666666667  9.90666666666667 7.08  C 9.96888888888889 6.87555555555555  10.0844444444444 6.70666666666667  10.2533333333333 6.57333333333333  C 10.4222222222222 6.44  10.6222222222222 6.37333333333333  10.8533333333333 6.37333333333333  C 11.1288888888889 6.37333333333333  11.3622222222222 6.47111111111111  11.5533333333333 6.66666666666666  C 11.7444444444444 6.86222222222222  11.84 7.09333333333333  11.84 7.36  C 11.84 7.48444444444444  11.8177777777778 7.60444444444444  11.7733333333333 7.72  C 11.5866666666667 8.34222222222222  11.3111111111111 8.91555555555555  10.9466666666667 9.44  C 10.5822222222222 9.96444444444445  10.1488888888889 10.4155555555556  9.64666666666667 10.7933333333333  C 9.14444444444444 11.1711111111111  8.58666666666667 11.4666666666667  7.97333333333333 11.68  C 7.36 11.8933333333333  6.71555555555556 12  6.04 12  C 5.21333333333333 12  4.43555555555556 11.8444444444444  3.70666666666667 11.5333333333333  C 2.97777777777778 11.2222222222222  2.34444444444444 10.7955555555556  1.80666666666667 10.2533333333333  C 1.26888888888889 9.71111111111111  0.842222222222223 9.07777777777778  0.526666666666667 8.35333333333333  C 0.211111111111111 7.62888888888889  0.0533333333333334 6.85333333333333  0.0533333333333336 6.02666666666667  C 0.053333333333334 5.2  0.211111111111112 4.42222222222222  0.526666666666667 3.69333333333333  C 0.842222222222222 2.96444444444445  1.26888888888889 2.33111111111111  1.80666666666667 1.79333333333333  C 2.34444444444445 1.25555555555556  2.97777777777778 0.82888888888889  3.70666666666667 0.513333333333334  C 4.43555555555556 0.197777777777778  5.21333333333333 0.0400000000000001  6.04 0.0400000000000003  C 6.95555555555556 0.0400000000000005  7.80444444444444 0.228888888888889  8.58666666666667 0.606666666666667  C 9.36888888888889 0.984444444444445  10.0355555555556 1.49777777777778  10.5866666666667 2.14666666666667  C 10.7911111111111 1.99555555555556  10.9622222222222 1.86444444444444  11.1 1.75333333333333  C 11.2377777777778 1.64222222222222  11.3244444444444 1.57333333333333  11.36 1.54666666666667  C 11.4133333333333 1.50222222222222  11.4711111111111 1.46888888888889  11.5333333333333 1.44666666666667  C 11.5955555555556 1.42444444444444  11.6533333333333 1.42444444444444  11.7066666666667 1.44666666666667  C 11.76 1.46888888888889  11.8066666666667 1.51555555555556  11.8466666666667 1.58666666666667  C 11.8866666666667 1.65777777777778  11.9155555555556 1.76444444444445  11.9333333333333 1.90666666666667  C 11.9422222222222 1.98666666666667  11.9511111111111 2.12222222222222  11.96 2.31333333333333  C 11.9688888888889 2.50444444444445  11.9777777777778 2.72666666666667  11.9866666666667 2.98  C 11.9955555555556 3.23333333333333  12 3.49555555555556  12 3.76666666666667  C 12 4.03777777777778  11.9955555555556 4.29333333333333  11.9866666666667 4.53333333333333  C 11.9777777777778 4.83555555555556  11.9066666666667 5.05333333333333  11.7733333333333 5.18666666666667  C 11.7022222222222 5.25777777777778  11.5955555555556 5.29777777777778  11.4533333333333 5.30666666666667  C 11.3111111111111 5.31555555555556  11.16 5.30222222222222  11 5.26666666666667  C 10.76 5.21333333333333  10.4955555555556 5.15555555555556  10.2066666666667 5.09333333333333  C 9.91777777777778 5.03111111111111  9.64222222222222 4.96666666666667  9.38 4.9  C 9.11777777777778 4.83333333333333  8.88666666666667 4.77111111111111  8.68666666666667 4.71333333333333  Z " fill-rule="nonzero" fill="#ffffff" stroke="none" transform="matrix(1 0 0 1 197 29 )" />
  </g>
</svg>