<?xml version="1.0" encoding="utf-8"?>
<svg version="1.1" xmlns:xlink="http://www.w3.org/1999/xlink" width="12px" height="12px" xmlns="http://www.w3.org/2000/svg">
  <g transform="matrix(1 0 0 1 -54 -267 )">
    <path d="M 11.9484662576687 1.69325153374233  C 11.9631901840491 1.87975460122699  11.8871165644172 2.05644171779141  11.720245398773 2.22331288343558  C 11.641717791411 2.31165644171779  11.5680981595092 2.39018404907976  11.4993865030675 2.45889570552147  L 11.3226993865031 2.63558282208589  C 11.2638036809816 2.69447852760736  11.2098159509202 2.74355828220859  11.160736196319 2.78282208588957  L 9.17300613496932 0.780368098159509  C 9.25153374233129 0.701840490797546  9.34969325153374 0.608588957055214  9.46748466257669 0.500613496932515  C 9.58527607361963 0.392638036809816  9.68343558282209 0.30920245398773  9.76196319018405 0.250306748466257  C 9.95828220858896 0.0932515337423312  10.1693251533742 0.0245398773006134  10.3950920245399 0.0441717791411041  C 10.6208588957055 0.063803680981595  10.8024539877301 0.107975460122699  10.9398773006135 0.176687116564417  C 11.0871165644172 0.25521472392638  11.2515337423313 0.392638036809816  11.4331288343558 0.588957055214724  C 11.6147239263804 0.785276073619632  11.7546012269939 0.991411042944785  11.8527607361963 1.20736196319018  C 11.9018404907975 1.34478527607362  11.9337423312883 1.50674846625767  11.9484662576687 1.69325153374233  Z M 3.56319018404908 6.39018404907976  L 6.09570552147239 3.85766871165644  L 8.37791411042945 1.57546012269939  L 10.3656441717791 3.56319018404908  C 9.53128834355828 4.39754601226994  8.77055214723926 5.15337423312883  8.08343558282209 5.83067484662577  C 7.78895705521473 6.11533742331289  7.50184049079755 6.39754601226994  7.22208588957055 6.67730061349693  C 6.94233128834356 6.95705521472393  6.68711656441718 7.20736196319019  6.45644171779141 7.42822085889571  C 6.22576687116564 7.64907975460123  6.03680981595092 7.83312883435583  5.88957055214724 7.98036809815951  L 5.62453987730061 8.24539877300614  C 5.55582822085889 8.31411042944785  5.47730061349693 8.38282208588957  5.38895705521472 8.45153374233129  C 5.30061349693251 8.52024539877301  5.20245398773006 8.57914110429448  5.09447852760736 8.62822085889571  C 4.98650306748466 8.67730061349694  4.83680981595092 8.73619631901841  4.64539877300613 8.80490797546012  C 4.45398773006135 8.87361963190184  4.25521472392638 8.9398773006135  4.04907975460123 9.00368098159509  C 3.84294478527607 9.06748466257669  3.64662576687117 9.12638036809816  3.4601226993865 9.18036809815951  C 3.27361963190184 9.23435582822086  3.13128834355828 9.26625766871166  3.03312883435583 9.2760736196319  C 2.84662576687117 9.29570552147239  2.74601226993865 9.27852760736197  2.73128834355828 9.22453987730061  C 2.71656441717791 9.17055214723927  2.7239263803681 9.05030674846626  2.75337423312883 8.8638036809816  C 2.76319018404908 8.76564417177915  2.78773006134969 8.62085889570552  2.82699386503068 8.42944785276074  C 2.86625766871166 8.23803680981595  2.90552147239264 8.04417177914111  2.94478527607362 7.8478527607362  C 2.9840490797546 7.65153374233129  3.02576687116564 7.46748466257669  3.06993865030675 7.2957055214724  C 3.11411042944785 7.1239263803681  3.15092024539877 7.0036809815951  3.18036809815951 6.93496932515338  C 3.22944785276074 6.82699386503068  3.28098159509203 6.73374233128835  3.33496932515338 6.65521472392638  C 3.38895705521472 6.57668711656442  3.46503067484663 6.48834355828221  3.56319018404908 6.39018404907976  Z M 10.7558282208589 6.02944785276074  C 10.8687116564417 6.00490797546012  10.9791411042945 5.99263803680982  11.0871165644172 5.99263803680982  C 11.2932515337423 5.99263803680982  11.4895705521472 6.04171779141104  11.6760736196319 6.1398773006135  C 11.8625766871166 6.23803680981595  11.9558282208589 6.43926380368098  11.9558282208589 6.74355828220859  L 11.9558282208589 10.0858895705521  C 11.9558282208589 10.360736196319  11.9042944785276 10.6134969325153  11.801226993865 10.8441717791411  C 11.6981595092025 11.0748466257669  11.558282208589 11.2760736196319  11.3815950920245 11.4478527607362  C 11.2049079754601 11.6196319018405  11.0036809815951 11.7521472392638  10.7779141104294 11.8453987730061  C 10.5521472392638 11.9386503067485  10.321472392638 11.9852760736196  10.0858895705521 11.9852760736196  L 1.86993865030675 11.9852760736196  C 1.63435582822086 11.9852760736196  1.40368098159509 11.9337423312883  1.17791411042945 11.8306748466258  C 0.952147239263804 11.7276073619632  0.753374233128835 11.5877300613497  0.58159509202454 11.4110429447853  C 0.409815950920245 11.2343558282209  0.269938650306749 11.0257668711656  0.161963190184049 10.7852760736196  C 0.0539877300613503 10.5447852760736  0 10.2871165644172  0 10.0122699386503  L 0 1.81104294478528  C 0 1.61472392638037  0.0539877300613498 1.41104294478528  0.161963190184049 1.2  C 0.269938650306749 0.988957055214724  0.409815950920246 0.797546012269939  0.58159509202454 0.625766871165645  C 0.753374233128835 0.45398773006135  0.947239263803682 0.311656441717792  1.16319018404908 0.19877300613497  C 1.37914110429448 0.0858895705521477  1.59509202453988 0.0294478527607367  1.81104294478528 0.0294478527607367  L 5.24171779141104 0.0294478527607367  C 5.51656441717791 0.0294478527607369  5.71042944785276 0.130061349693252  5.82331288343558 0.331288343558283  C 5.93619631901841 0.532515337423314  5.99263803680981 0.736196319018406  5.99263803680981 0.942331288343559  C 5.99263803680981 1.14846625766871  5.93619631901841 1.34723926380368  5.82331288343558 1.53865030674847  C 5.71042944785276 1.73006134969325  5.51656441717791 1.82576687116564  5.24171779141104 1.82576687116564  L 2.54723926380368 1.82576687116564  C 2.34110429447853 1.82576687116564  2.17423312883436 1.89693251533742  2.04662576687117 2.03926380368098  C 1.91901840490798 2.18159509202454  1.85521472392638 2.3558282208589  1.85521472392638 2.56196319018405  L 1.85521472392638 9.48220858895706  C 1.85521472392638 9.67852760736196  1.91901840490798 9.84294478527607  2.04662576687117 9.97546012269939  C 2.17423312883436 10.1079754601227  2.34110429447853 10.1742331288344  2.54723926380368 10.1742331288344  L 9.36441717791411 10.1742331288344  C 9.57055214723927 10.1742331288344  9.74723926380369 10.1079754601227  9.89447852760737 9.97546012269939  C 10.041717791411 9.84294478527607  10.1153374233129 9.67852760736196  10.1153374233129 9.48220858895706  L 10.1153374233129 6.74355828220859  C 10.1153374233129 6.60613496932515  10.1472392638037 6.48834355828221  10.2110429447853 6.39018404907976  C 10.2748466257669 6.2920245398773  10.3533742331288 6.21349693251534  10.4466257668712 6.15460122699386  C 10.5398773006135 6.09570552147239  10.6429447852761 6.05398773006135  10.7558282208589 6.02944785276074  Z " fill-rule="nonzero" fill="#ffffff" stroke="none" transform="matrix(1 0 0 1 54 267 )" />
  </g>
</svg>