<?xml version="1.0" encoding="utf-8"?>
<svg version="1.1" xmlns:xlink="http://www.w3.org/1999/xlink" width="11px" height="13px" xmlns="http://www.w3.org/2000/svg">
  <g transform="matrix(1 0 0 1 -50 -202 )">
    <path d="M 0.862103170340402 0  L 7.68253968680246 0  C 7.80246937282521 0  7.91906154253723 0.0392061813604799  8.01428571428571 0.11158333091877  L 8.06884921061198 0.158708330912125  L 10.7168154761905 2.78741667233836  C 10.8506131340853 2.92025634780113  10.9339096158445 3.09501699109872  10.9525297619048 3.28195833047176  L 10.956349210612 3.3621250013589  L 10.956349210612 5.9583333300944  C 10.9560152063192 6.25725277180329  10.7118241344134 6.49939915974246  10.4107146213958 6.49939915974246  C 10.1342964947104 6.49939915974246  9.90154634558345 6.29419545508291  9.86889880952381 6.02170833008547  L 9.86507936081659 5.9583333300944  L 9.86507936081659 4.33333333032352  L 7.40972221795945 4.33333333032352  C 6.98815272436043 4.33331323966457  6.63555995666066 4.01540393648281  6.59508928571429 3.59883333042708  L 6.59126983700707 3.52083333043808  L 6.59126983700707 1.08333333078176  L 1.13492063918341 1.08333333078176  L 1.13492063918341 11.9166666710512  L 4.40873016299293 11.9166666710512  C 4.6851451171588 11.9169772981781  4.91765960051918 12.1224381056784  4.95 12.3949583291869  L 4.95381944870722 12.4583333291779  C 4.95378295558424 12.7329446958836  4.74674711231861 12.9640788015586  4.47202380952381 12.9962083291021  L 4.40818452380952 13  L 0.862103170340402 13  C 0.440533676741383 12.999979909341  0.0879409090416096 12.6820706061593  0.0474702380952382 12.2655000001036  L 0 12.1875000001146  L 0 0.812500001718381  C 0.0436710272312945 0.393996468131817  0.363909336342316 0.0439680115192119  0.783531741768973 0.00379167273084278  L 0.862103170340402 0  Z M 7.68253968680246 3.2500000013747  L 9.63973214285714 3.2500000013747  L 7.68253968680246 1.3081250016485  L 7.68253968680246 3.2500000013747  Z " fill-rule="nonzero" fill="#ffffff" stroke="none" transform="matrix(1 0 0 1 50 202 )" />
  </g>
</svg>