<?xml version="1.0" encoding="utf-8"?>
<svg version="1.1" xmlns:xlink="http://www.w3.org/1999/xlink" width="23px" height="22px" xmlns="http://www.w3.org/2000/svg">
  <g transform="matrix(1 0 0 1 -1257 -130 )">
    <path d="M 22.9346590909091 10.9068147590362  C 22.9397638494318 10.156155873494  22.7891734730114 9.23724585843374  22.7228116122159 8.84638554216867  C 22.7177068536932 8.79979292168675  22.7126020951705 8.76096573795181  22.7049449573864 8.73766942771084  L 22.7049449573864 8.71696159638554  L 22.6947354403409 8.66001506024096  C 22.5135165127841 7.76440135542169  21.9290216619318 7.18717055722892  21.2015935724432 7.18717055722892  L 21.0816317471591 7.18717055722892  C 19.8411754261364 7.18717055722892  18.8355379971591 6.16213290662651  18.8355379971591 4.90930911144578  C 18.8355379971591 4.61939947289157  18.96826171875 4.20783132530121  19.0244140625 4.0628765060241  C 19.3766424005682 3.22938629518072  19.0014426491477 2.27941453313253  18.1310813210227 1.79536897590362  L 15.3923783735795 0.224162274096386  L 15.3413307883523 0.206042921686747  C 15.1371404474432 0.138742469879518  14.8997691761364 0.0584996234939759  14.6343217329545 0.0584996234939759  C 14.13916015625 0.0584996234939759  13.5827414772727 0.291462725903614  13.2381702769886 0.640907379518072  C 12.8068181818182 1.07318335843373  11.9313520951704 1.71771460843374  11.4106667258523 1.71771460843374  C 10.8925337357954 1.71771460843374  10.0145152698864 1.0757718373494  9.58316317471591 0.640907379518073  C 9.21562056107954 0.273343373493976  8.70769708806818 0.0584996234939764  8.18701171875 0.0584996234939764  C 7.91390713778409 0.0584996234939764  7.68419300426136 0.136153990963856  7.48000266335227 0.206042921686747  L 7.43405983664772 0.224162274096386  L 4.56263316761363 1.80054593373494  L 4.54476651278409 1.81089984939759  C 3.84796697443182 2.2535297439759  3.56465287642045 3.26821347891566  3.91943359375 4.07323042168675  L 3.92453835227272 4.0835843373494  L 3.92964311079545 4.09393825301205  C 3.98579545454545 4.22077371987952  4.15935724431818 4.65046121987952  4.15935724431818 5.0257906626506  C 4.15935724431818 6.28379141566265  3.14861505681818 7.30365210843374  1.91326349431818 7.30365210843374  L 1.79330166903409 7.30365210843374  C 1.03269264914772 7.30365210843374  0.463512073863633 7.87311746987952  0.30015980113636 8.78685052710844  L 0.289950284090906 8.83862010542169  L 0.289950284090906 8.85673945783133  C 0.289950284090906 8.88262424698795  0.279740767045451 8.91886295180723  0.27208362926136 8.96545557228916  C 0.208274147727269 9.35631588855422  0.0551313920454511 10.2778143825301  0.0551313920454511 11.031061746988  C 0.0551313920454511 11.7843091114458  0.205721768465906 12.7058076054217  0.27208362926136 13.0966679216867  C 0.277188387784088 13.1432605421687  0.282293146306815 13.1820877259036  0.289950284090906 13.2053840361446  L 0.289950284090906 13.2260918674699  L 0.30015980113636 13.2830384036145  C 0.481378728693179 14.1786521084337  1.06587357954545 14.7558829066265  1.79330166903409 14.7558829066265  L 1.85455877130681 14.7558829066265  C 3.09501509232954 14.7558829066265  4.10065252130682 15.7809205572289  4.10065252130682 17.0337443524096  C 4.10065252130682 17.3236539909639  3.96792879971591 17.7352221385542  3.91177645596591 17.8801769578313  C 3.57231001420454 18.6644860692771  3.89390980113636 19.6714043674699  4.64430930397727 20.1787462349398  L 4.66472833806818 20.1891001506024  L 7.37025035511363 21.7163027108434  L 7.42129794034091 21.734422063253  C 7.62548828125 21.8017225150602  7.85775479403409 21.8819653614458  8.12320223721591 21.8819653614458  C 8.68983043323863 21.8819653614458  9.20030628551136 21.6619446536145  9.51935369318181 21.2995576054217  C 9.54998224431818 21.2762612951807  9.58061079545454 21.2451995481928  9.61634410511363 21.2141378012048  C 9.94304865056818 20.9242281626506  10.8210671164773 20.1580384036145  11.4004572088068 20.1580384036145  C 11.8318093039773 20.1580384036145  12.5541326349432 20.6161991716868  13.2815607244318 21.3539156626506  C 13.6491033380682 21.7214796686747  14.1570268110795 21.9363234186747  14.6777121803977 21.9363234186747  C 15.0299405184659 21.9363234186747  15.290283203125 21.8379612198795  15.5863591974432 21.6904179216868  L 15.5965687144886 21.6852409638554  L 18.3710049715909 20.1295651355422  L 18.3812144886364 20.1192112198795  C 19.0780140269886 19.6765813253012  19.361328125 18.6618975903615  19.0065474076705 17.8568806475904  L 19.0014426491477 17.8465267319277  L 18.996337890625 17.8361728162651  C 18.9912331321023 17.8335843373494  18.7742808948864 17.3754235692771  18.8151189630682 16.9638554216868  L 18.8202237215909 16.9379706325301  L 18.8202237215909 16.9120858433735  C 18.8202237215909 15.6540850903615  19.8309659090909 14.6342243975904  21.0663174715909 14.6342243975904  L 21.1939364346591 14.6342243975904  C 21.9545454545455 14.6342243975904  22.5237260298295 14.0647590361446  22.6870783025568 13.1510259789157  L 22.6972878196023 13.0992564006024  L 22.6972878196023 13.0811370481928  C 22.702392578125 13.0604292168675  22.7074973366477 13.0293674698795  22.7151544744318 12.9879518072289  C 22.7815163352273 12.6074454066265  22.9346590909091 11.7195971385542  22.9346590909091 10.9068147590362  Z M 15.0452547940341 11  C 15.0452547940341 12.9905402861446  13.4551225142045 14.6031626506024  11.4923428622159 14.6031626506024  C 9.52956321022728 14.6031626506024  7.93943093039773 12.9905402861446  7.93943093039773 11  C 7.93943093039773 9.00945971385542  9.52956321022728 7.39683734939759  11.4923428622159 7.39683734939759  C 13.4551225142045 7.39683734939759  15.0452547940341 9.00945971385542  15.0452547940341 11  Z " fill-rule="nonzero" fill="#999999" stroke="none" transform="matrix(1 0 0 1 1257 130 )" />
  </g>
</svg>