<?xml version="1.0" encoding="utf-8"?>
<svg version="1.1" xmlns:xlink="http://www.w3.org/1999/xlink" width="406px" height="41px" xmlns="http://www.w3.org/2000/svg">
  <defs>
    <filter x="117px" y="675px" width="406px" height="41px" filterUnits="userSpaceOnUse" id="filter264">
      <feOffset dx="0" dy="0" in="SourceAlpha" result="shadowOffsetInner" />
      <feGaussianBlur stdDeviation="1.5" in="shadowOffsetInner" result="shadowGaussian" />
      <feComposite in2="shadowGaussian" operator="atop" in="SourceAlpha" result="shadowComposite" />
      <feColorMatrix type="matrix" values="0 0 0 0 0  0 0 0 0 0.474509803921569  0 0 0 0 0.996078431372549  0 0 0 0.8 0  " in="shadowComposite" />
    </filter>
    <g id="widget265">
      <path d="M 120.5 681  A 2.5 2.5 0 0 1 123 678.5 L 517 678.5  A 2.5 2.5 0 0 1 519.5 681 L 519.5 710  A 2.5 2.5 0 0 1 517 712.5 L 123 712.5  A 2.5 2.5 0 0 1 120.5 710 L 120.5 681  Z " fill-rule="nonzero" fill="#ffffff" stroke="none" />
      <path d="M 120.5 681  A 2.5 2.5 0 0 1 123 678.5 L 517 678.5  A 2.5 2.5 0 0 1 519.5 681 L 519.5 710  A 2.5 2.5 0 0 1 517 712.5 L 123 712.5  A 2.5 2.5 0 0 1 120.5 710 L 120.5 681  Z " stroke-width="1" stroke="#0079fe" fill="none" />
    </g>
  </defs>
  <g transform="matrix(1 0 0 1 -117 -675 )">
    <use xlink:href="#widget265" filter="url(#filter264)" />
    <use xlink:href="#widget265" />
  </g>
</svg>