<?xml version="1.0" encoding="utf-8"?>
<svg version="1.1" xmlns:xlink="http://www.w3.org/1999/xlink" width="16px" height="10px" xmlns="http://www.w3.org/2000/svg">
  <g transform="matrix(1 0 0 1 -372 -13 )">
    <path d="M 8.10035842489919 9.59064326685855  C 8.20071684979839 9.59064326685855  8.10035842489919 9.59064326685855  8.10035842489919 9.59064326685855  C 7.29749104334677 9.59064326685855  6.59498208669355 9.28362571700247  5.99283153729839 8.6695906352796  L 0.272401441532258 2.11988304893092  C -0.129032258064516 1.71052631578947  -0.0286738331653225 1.09649123406661  0.372759848790323 0.687134500925164  C 0.774193548387097 0.277777767783716  1.37634408014113 0.380116951069079  1.7777777797379 0.789473684210526  L 7.59856630040323 7.33918128854852  C 7.69892472530242 7.44152047183388  7.89964157510081 7.54385965511924  8.10035842489919 7.54385965511924  C 8.30107527469758 7.54385965511924  8.50179212449597 7.44152047183388  8.70250895665323 7.23684210526316  L 14.2222222202621 0.687134500925163  C 14.6236559198589 0.277777767783715  15.2258064516129 0.175438602487663  15.6272401512097 0.584795317639801  C 16.0286738508065 0.994152050781249  16.1290322580645 1.60818713250411  15.7275985584677 2.01754386564556  L 10.2078853125 8.56725146998355  C 9.70609320564516 9.28362573499178  9.00358423135081 9.59064328484786  8.10035842489919 9.59064326685855  Z " fill-rule="nonzero" fill="#cccccc" stroke="none" transform="matrix(1 0 0 1 372 13 )" />
  </g>
</svg>