<?xml version="1.0" encoding="utf-8"?>
<svg version="1.1" xmlns:xlink="http://www.w3.org/1999/xlink" width="306px" height="10px" preserveAspectRatio="xMinYMid meet" viewBox="1345 991  306 8" xmlns="http://www.w3.org/2000/svg">
  <defs>
    <mask fill="white" id="clip81">
      <path d="M 1334.5 984  L 1365.5 984  L 1365.5 1006  L 1334.5 1006  Z M 1041 984  L 1660 984  L 1660 1006  L 1041 1006  Z " fill-rule="evenodd" />
    </mask>
  </defs>
  <path d="M 1051 994.5  L 1349.5 994.5  A 0.5 0.5 0 0 1 1350.5 995 A 0.5 0.5 0 0 0 1351 995.5 L 1646 995.5  " stroke-width="1" stroke="#0054cc" fill="none" mask="url(#clip81)" />
  <path d="M 1053 991.5  A 3 3 0 0 0 1050 994.5 A 3 3 0 0 0 1053 997.5 A 3 3 0 0 0 1056 994.5 A 3 3 0 0 0 1053 991.5 Z M 1645 1001.8  L 1651 995.5  L 1645 989.2  L 1645 1001.8  Z " fill-rule="nonzero" fill="#0054cc" stroke="none" mask="url(#clip81)" />
</svg>