<?xml version="1.0" encoding="utf-8"?>
<svg version="1.1" xmlns:xlink="http://www.w3.org/1999/xlink" width="668px" height="10px" preserveAspectRatio="xMinYMid meet" viewBox="1050 1310  668 8" xmlns="http://www.w3.org/2000/svg">
  <defs>
    <mask fill="white" id="clip89">
      <path d="M 1403.5 1303  L 1434.5 1303  L 1434.5 1325  L 1403.5 1325  Z M 1041 1229  L 1722 1229  L 1722 1325  L 1041 1325  Z " fill-rule="evenodd" />
    </mask>
  </defs>
  <path d="M 1713.5 1239  L 1713.5 1309  A 5 5 0 0 1 1708.5 1314.5 L 1055 1314.5  " stroke-width="1" stroke="#0054cc" fill="none" mask="url(#clip89)" />
  <path d="M 1713.5 1238  A 3 3 0 0 0 1710.5 1241 A 3 3 0 0 0 1713.5 1244 A 3 3 0 0 0 1716.5 1241 A 3 3 0 0 0 1713.5 1238 Z M 1056 1308.2  L 1050 1314.5  L 1056 1320.8  L 1056 1308.2  Z " fill-rule="nonzero" fill="#0054cc" stroke="none" mask="url(#clip89)" />
</svg>