<?xml version="1.0" encoding="utf-8"?>
<svg version="1.1" xmlns:xlink="http://www.w3.org/1999/xlink" width="15px" height="14px" xmlns="http://www.w3.org/2000/svg">
  <g transform="matrix(1 0 0 1 -114 -29 )">
    <path d="M 1.91712097427693 2.624127625  L 9.95152838784076 2.62412761132813  C 10.2697227445562 2.62412761132813  10.5534460449219 2.6846128203125  10.8026982889378 2.80558323828125  C 11.0519505329538 2.92655365625  11.26673172062 3.07544032942708  11.4470418519365 3.2522432578125  C 11.627351983253 3.42904618619792  11.7652362034574 3.61980723763021  11.8606945125499 3.82452641210938  C 11.9561528216423 4.02924558658854  12.0038819761885 4.21070121809896  12.0038819761885 4.36889330664063  L 12.0038819761885 12.2552342773438  C 12.0038819761885 12.5250913684896  11.9428947234458 12.7670322135417  11.8209202179604 12.9810568125  C 11.6989457124751 13.1950814114583  11.5398485341174 13.3765370429688  11.3436286828873 13.5254237070313  C 11.1474088316572 13.6743103710938  10.9273244057513 13.7906280859375  10.6833754051695 13.8743768515625  C 10.4394264045878 13.9581256171875  10.1954773988115 13.9999999954427  9.95152838784076 13.9999999863281  L 2.10803758207281 13.9999999863281  C 1.90651448740858 13.9999999863281  1.68643006150266 13.9488201927083  1.44778430435505 13.8464606054688  C 1.20913854720745 13.7441010182292  0.986402499584443 13.6091724726563  0.779576161486038 13.44167496875  C 0.572749823387634 13.2741774648438  0.400394546833445 13.081090061849  0.262510331823472 12.8624127597656  C 0.124626116813498 12.6437354576823  0.0556840093085117 12.4227318040365  0.0556840093085117 12.1994017988281  L 0.0556840093085117 4.42472582617188  C 0.0556840093085117 4.22931206705729  0.108716402094416 4.02691924414063  0.214781187666224 3.81754735742188  C 0.320845973238033 3.60817547070313  0.458730193442488 3.41508806770834  0.628433848279589 3.2382851484375  C 0.79813750311669 3.06148222916667  0.994357354346743 2.91492191210938  1.21709340196975 2.79860419726563  C 1.43982944959275 2.68228648242188  1.67317197369515 2.624127625  1.91712097427693 2.624127625  Z M 3.04671092191656 11.3479561289062  L 9.01285504799701 11.3479561289062  C 9.28862348840592 11.3479561289062  9.5246176342254 11.2642073769531  9.72083748545545 11.0967098730469  C 9.9170573366855 10.9292123691406  10.0151672623005 10.7244931946615  10.0151672623005 10.4825523496094  C 10.0151672623005 10.2406115045573  9.9170573366855 10.0335659739583  9.72083748545545 9.8614157578125  C 9.5246176342254 9.68926554166667  9.28862348840592 9.60319043359375  9.01285504799701 9.60319043359375  L 3.04671092191656 9.60319043359375  C 2.77094248150765 9.60319043359375  2.53494833568816 9.68926554166667  2.33872848445811 9.8614157578125  C 2.14250863322806 10.0335659739583  2.04439870761303 10.2406115045573  2.04439870761303 10.4825523496094  C 2.04439870761303 10.7244931946615  2.14250863322806 10.9292123691406  2.33872848445811 11.0967098730469  C 2.53494833568816 11.2642073769531  2.77094248150765 11.3479561289062  3.04671092191656 11.3479561289062  Z M 3.04671092191656 7.85842472460937  L 9.01285504799701 7.85842472460938  C 9.28862348840592 7.85842472460938  9.5246176342254 7.77467597265625  9.72083748545545 7.60717846875  C 9.9170573366855 7.43968096484375  10.0151672623005 7.23496179036458  10.0151672623005 6.9930209453125  C 10.0151672623005 6.75108010026042  9.9170573366855 6.54403456966146  9.72083748545545 6.37188435351562  C 9.5246176342254 6.19973413736979  9.28862348840592 6.11365902929687  9.01285504799701 6.11365902929687  L 3.04671092191656 6.11365902929687  C 2.77094248150765 6.11365902929687  2.53494833568816 6.19973413736979  2.33872848445811 6.37188435351562  C 2.14250863322806 6.54403456966146  2.04439870761303 6.75108010026042  2.04439870761303 6.9930209453125  C 2.04439870761303 7.23496179036458  2.14250863322806 7.43968096484375  2.33872848445811 7.60717846875  C 2.53494833568816 7.77467597265625  2.77094248150765 7.85842472460937  3.04671092191656 7.85842472460937  Z M 5.2263422436004 0  L 11.8288750831117 0  C 12.2849536548371 0  12.7039095536902 0.11864406640625  13.0857427796709 0.35593219921875  C 13.4675760056516 0.59322033203125  13.799028455369 0.886340970703125  14.0801001288231 1.23529411523437  C 14.3611718022773 1.58424725976562  14.5812562281832 1.96111665039062  14.7403534065409 2.36590228710938  C 14.8994505848986 2.77068792382813  14.9789991740775 3.14057825065104  14.9789991740775 3.47557326757813  L 14.9789991740775 10.8873379726562  C 14.9789991740775 11.0827517317708  14.9127086830951 11.2618810117188  14.7801277011303 11.4247258125  C 14.6475467191656 11.5875706132813  14.4857979242852 11.7271518710938  14.2948813164894 11.8434695859375  C 14.1039647086935 11.9597873007813  13.897138380984 12.0528414726562  13.674402333361 12.1226321015625  C 13.451666285738 12.1924227304688  13.2448399580286 12.2273180449219  13.0539233502327 12.2273180449219  L 12.9902844757729 12.2273180449219  L 12.9902844757729 3.8943170546875  C 12.9054326431599 3.25224327604167  12.6773933572972 2.75905617057292  12.3061666181848 2.41475573828125  C 11.9349398790725 2.07045530598958  11.4417386292803 1.84712529622396  10.8265628688082 1.74476570898438  L 3.06262065221908 1.74476570898438  C 3.07322712869847 1.72615487825521  3.07853036693816 1.69358591992188  3.07853036693816 1.64705883398438  C 3.07853036693816 1.46095049023438  3.14216923620346 1.27018943880208  3.26944697473404 1.0747756796875  C 3.39672471326463 0.879361920572918  3.56377674638464 0.702558996744793  3.77060307409408 0.544366908203126  C 3.97742940180352 0.386174819661459  4.20812030938331 0.255898981770834  4.46267579683344 0.153539394531251  C 4.71723128428358 0.0511797981770837  4.97178676653923 0  5.2263422436004 0  Z " fill-rule="nonzero" fill="#ffffff" stroke="none" transform="matrix(1 0 0 1 114 29 )" />
  </g>
</svg>