<?xml version="1.0" encoding="utf-8"?>
<svg version="1.1" xmlns:xlink="http://www.w3.org/1999/xlink" width="18px" height="18px" preserveAspectRatio="xMinYMid meet" viewBox="914 1286  18 16" xmlns="http://www.w3.org/2000/svg">
  <defs>
    <mask fill="white" id="clip65">
      <path d="M 774.5 1283  L 805.5 1283  L 805.5 1305  L 774.5 1305  Z M 736 1194  L 935 1194  L 935 1305  L 736 1305  Z " fill-rule="evenodd" />
    </mask>
  </defs>
  <path d="M 925 1294.5  L 750 1294.5  A 5 5 0 0 1 745.5 1289.5 L 745.5 1208  " stroke-width="1" stroke="#0054cc" fill="none" mask="url(#clip65)" />
  <path d="M 923 1291.5  A 3 3 0 0 0 920 1294.5 A 3 3 0 0 0 923 1297.5 A 3 3 0 0 0 926 1294.5 A 3 3 0 0 0 923 1291.5 Z M 751.8 1209  L 745.5 1203  L 739.2 1209  L 751.8 1209  Z " fill-rule="nonzero" fill="#0054cc" stroke="none" mask="url(#clip65)" />
</svg>