<?xml version="1.0" encoding="utf-8"?>
<svg version="1.1" xmlns:xlink="http://www.w3.org/1999/xlink" width="19px" height="18px" preserveAspectRatio="xMinYMid meet" viewBox="1044 1776  19 16" xmlns="http://www.w3.org/2000/svg">
  <defs>
    <mask fill="white" id="clip75">
      <path d="M 1384.5 1773  L 1415.5 1773  L 1415.5 1795  L 1384.5 1795  Z M 1041 1700  L 1683 1700  L 1683 1795  L 1041 1795  Z " fill-rule="evenodd" />
    </mask>
  </defs>
  <path d="M 1674.5 1710  L 1674.5 1779  A 5 5 0 0 1 1669.5 1784.5 L 1055 1784.5  " stroke-width="1" stroke="#0054cc" fill="none" mask="url(#clip75)" />
  <path d="M 1674.5 1709  A 3 3 0 0 0 1671.5 1712 A 3 3 0 0 0 1674.5 1715 A 3 3 0 0 0 1677.5 1712 A 3 3 0 0 0 1674.5 1709 Z M 1056 1778.2  L 1050 1784.5  L 1056 1790.8  L 1056 1778.2  Z " fill-rule="nonzero" fill="#0054cc" stroke="none" mask="url(#clip75)" />
</svg>