<?xml version="1.0" encoding="utf-8"?>
<svg version="1.1" xmlns:xlink="http://www.w3.org/1999/xlink" width="18px" height="19px" preserveAspectRatio="xMidYMin meet" viewBox="1119 449  16 19" xmlns="http://www.w3.org/2000/svg">
  <path d="M 988.5 407  L 988.5 425  A 5 5 0 0 0 993.5 430.5 L 1122 430.5  A 5 5 0 0 1 1127.5 435.5 L 1127.5 457  " stroke-width="1" stroke="#0054cc" fill="none" />
  <path d="M 988.5 406  A 3 3 0 0 0 985.5 409 A 3 3 0 0 0 988.5 412 A 3 3 0 0 0 991.5 409 A 3 3 0 0 0 988.5 406 Z M 1121.2 456  L 1127.5 462  L 1133.8 456  L 1121.2 456  Z " fill-rule="nonzero" fill="#0054cc" stroke="none" />
</svg>