<?xml version="1.0" encoding="utf-8"?>
<svg version="1.1" xmlns:xlink="http://www.w3.org/1999/xlink" width="14px" height="16px" xmlns="http://www.w3.org/2000/svg">
  <g transform="matrix(1 0 0 1 -454 -272 )">
    <path d="M 7.36687630454009 0.0579710088315215  L 1.49685534591195 0.0579710088315218  C 0.689727469044811 0.0579710088315218  0.0293501105542456 0.710144921875  0 1.50724638247283  L 0 13.1014492697011  C 0.0293501105542456 13.8985507133152  0.689727469044812 14.5507246263587  1.49685534591195 14.5507246433424  L 6.50985325520833 14.5507246433424  L 7.11006289308176 13.9550724694293  L 7.93700209070362 13.1297101392663  L 7.05870020391117 12.2550724694293  L 6.03291404038915 11.2347826086957  L 7.05870020391117 10.214492747962  L 8.08888888315645 9.189855078125  L 9.13081761006289 8.15362318274457  L 10.1712788202634 9.189855078125  L 11.0356394187303 10.0485507302989  L 11.7693920278105 9.31811594769022  L 11.7693920278105 4.40579709578804  L 7.36687630454009 0.0579710088315215  Z M 6.63312369545991 5.1304347826087  L 6.63312369545991 1.14492753057065  L 10.6687630969929 5.1304347826087  L 6.63312369545991 5.1304347826087  Z M 11.0356394187303 12.1050724694293  L 9.13081761006289 10.210144921875  L 8.10062893081761 11.2347826086957  L 10.0054507394851 13.1297101392663  L 8.15199161998821 14.9753623131793  L 9.1814465408805 16  L 11.0356394187303 14.154347826087  L 12.8898322793829 16  L 13.9192872174725 14.9753623131793  L 12.0658280979756 13.1297101392663  L 13.9706498894458 11.2347826086957  L 12.9404612102005 10.210144921875  L 11.0356394187303 12.1050724694293  Z " fill-rule="nonzero" fill="#ffffff" stroke="none" transform="matrix(1 0 0 1 454 272 )" />
  </g>
</svg>