<?xml version="1.0" encoding="utf-8"?>
<svg version="1.1" xmlns:xlink="http://www.w3.org/1999/xlink" width="18px" height="18px" preserveAspectRatio="xMinYMid meet" viewBox="914 986  18 16" xmlns="http://www.w3.org/2000/svg">
  <defs>
    <mask fill="white" id="clip86">
      <path d="M 796.5 983  L 827.5 983  L 827.5 1005  L 796.5 1005  Z M 773 902  L 935 902  L 935 1005  L 773 1005  Z " fill-rule="evenodd" />
    </mask>
  </defs>
  <path d="M 925 994.5  L 787 994.5  A 5 5 0 0 1 782.5 989.5 L 782.5 916  " stroke-width="1" stroke="#0054cc" fill="none" mask="url(#clip86)" />
  <path d="M 923 991.5  A 3 3 0 0 0 920 994.5 A 3 3 0 0 0 923 997.5 A 3 3 0 0 0 926 994.5 A 3 3 0 0 0 923 991.5 Z M 788.8 917  L 782.5 911  L 776.2 917  L 788.8 917  Z " fill-rule="nonzero" fill="#0054cc" stroke="none" mask="url(#clip86)" />
</svg>