<?xml version="1.0" encoding="utf-8"?>
<svg version="1.1" xmlns:xlink="http://www.w3.org/1999/xlink" width="10px" height="25px" preserveAspectRatio="xMidYMin meet" viewBox="1709 1020  8 25" xmlns="http://www.w3.org/2000/svg">
  <path d="M 1713.5 1021  L 1713.5 1035  A 5 5 0 0 1 1708.5 1040.5 L 993 1040.5  A 5 5 0 0 0 988.5 1045.5 L 988.5 1070  " stroke-width="1" stroke="#0054cc" fill="none" />
  <path d="M 1713.5 1020  A 3 3 0 0 0 1710.5 1023 A 3 3 0 0 0 1713.5 1026 A 3 3 0 0 0 1716.5 1023 A 3 3 0 0 0 1713.5 1020 Z M 982.2 1069  L 988.5 1075  L 994.8 1069  L 982.2 1069  Z " fill-rule="nonzero" fill="#0054cc" stroke="none" />
</svg>