<?xml version="1.0" encoding="utf-8"?>
<svg version="1.1" xmlns:xlink="http://www.w3.org/1999/xlink" width="122px" height="10px" preserveAspectRatio="xMinYMid meet" viewBox="804 1517  122 8" xmlns="http://www.w3.org/2000/svg">
  <defs>
    <mask fill="white" id="clip96">
      <path d="M 793.5 1406  L 824.5 1406  L 824.5 1428  L 793.5 1428  Z M 793.5 1305  L 935 1305  L 935 1530  L 793.5 1530  Z " fill-rule="evenodd" />
    </mask>
  </defs>
  <path d="M 925 1521.5  L 814 1521.5  A 5 5 0 0 1 809.5 1516.5 L 809.5 1319  A 5 5 0 0 1 814.5 1314.5 L 921 1314.5  " stroke-width="1" stroke="#0054cc" fill="none" mask="url(#clip96)" />
  <path d="M 923 1518.5  A 3 3 0 0 0 920 1521.5 A 3 3 0 0 0 923 1524.5 A 3 3 0 0 0 926 1521.5 A 3 3 0 0 0 923 1518.5 Z M 920 1320.8  L 926 1314.5  L 920 1308.2  L 920 1320.8  Z " fill-rule="nonzero" fill="#0054cc" stroke="none" mask="url(#clip96)" />
</svg>