<?xml version="1.0" encoding="utf-8"?>
<svg version="1.1" xmlns:xlink="http://www.w3.org/1999/xlink" width="10px" height="55px" preserveAspectRatio="xMidYMin meet" viewBox="984 1552  8 55" xmlns="http://www.w3.org/2000/svg">
  <defs>
    <mask fill="white" id="clip101">
      <path d="M 972.5 1566  L 1003.5 1566  L 1003.5 1588  L 972.5 1588  Z M 972.5 1543  L 1003.5 1543  L 1003.5 1611  L 972.5 1611  Z " fill-rule="evenodd" />
    </mask>
  </defs>
  <path d="M 988.5 1566  L 988.5 1553  M 988.5 1588  L 988.5 1597  " stroke-width="1" stroke="#0054cc" fill="none" />
  <path d="M 988.5 1552  A 3 3 0 0 0 985.5 1555 A 3 3 0 0 0 988.5 1558 A 3 3 0 0 0 991.5 1555 A 3 3 0 0 0 988.5 1552 Z M 982.2 1596  L 988.5 1602  L 994.8 1596  L 982.2 1596  Z " fill-rule="nonzero" fill="#0054cc" stroke="none" mask="url(#clip101)" />
</svg>