<?xml version="1.0" encoding="utf-8"?>
<svg version="1.1" xmlns:xlink="http://www.w3.org/1999/xlink" width="14px" height="16px" xmlns="http://www.w3.org/2000/svg">
  <g transform="matrix(1 0 0 1 -232 -272 )">
    <path d="M 0 1.50811485252809  C 0.0199430238381407 0.680721972118455  0.689602583441182 0.0099875175561796  1.51566951372195 0  L 12.484330486278 0  C 13.3103974165588 0.0099875175561796  13.9800569761619 0.680721972118455  14 1.50811485252809  L 14 14.4918851474719  C 13.9800569761619 15.3192780278815  13.3103974165588 15.9900124824438  12.484330486278 16  L 1.51566951372195 16  C 0.689602583441181 15.9900124824438  0.0199430238381407 15.3192780278815  0 14.4918851474719  L 0 1.50811485252809  Z M 12.0131766401242 1  L 1.9868233598758 1  C 1.43611207664026 0.98377029494382  0.989672370457714 1.43092658990533  1 1.98252183988764  L 1 14.0174781601124  C 0.989672370457715 14.5690734100947  1.43611207664026 15.0162297050562  1.9868233598758 15  L 12.0131766401242 15  C 12.5638879233597 15.0162297050562  13.0103276295423 14.5690734100947  13 14.0174781601124  L 13 1.98252183988764  C 13.0103276295423 1.43092658990533  12.5638879233597 0.98377029494382  12.0131766401242 1  Z M 6.50142450921474 6.91136079705056  L 2.45299145883413 6.91136079705056  C 2.1776358137938 6.91136079705056  1.95441595928486 6.68778264421977  1.95441595928486 6.41198501580056  C 1.95441595928486 6.13618738738135  2.1776358137938 5.91260923455056  2.45299145883413 5.91260923455056  L 6.50142450921474 5.91260923455056  C 6.77678015425508 5.91260923455056  7.00000000876402 6.13618738738135  7.00000000876402 6.41198501580056  C 7.00000000876402 6.68778264421977  6.77678015425508 6.91136079705056  6.50142450921474 6.91136079705056  Z M 6.50142450921474 5.2259675386236  L 2.45299145883413 5.2259675386236  C 2.1776358137938 5.2259675386236  1.95441595928486 5.00238938579281  1.95441595928486 4.72659175737359  C 1.95441595928486 4.45079412895438  2.1776358137938 4.22721597612359  2.45299145883413 4.22721597612359  L 6.50142450921474 4.22721597612359  C 6.77678015425508 4.22721597612359  7.00000000876402 4.45079412895438  7.00000000876402 4.72659175737359  C 7.00000000876402 5.00238938579281  6.77678015425508 5.2259675386236  6.50142450921474 5.2259675386236  Z M 4.92841879757612 7.30836453651686  C 4.92704688411669 7.58318657655958  4.7042283566518 7.80524688682581  4.42984330679086 7.80524345154494  C 4.15448764906272 7.80524345154494  3.93126779847756 7.58166530264424  3.93126779847756 7.30586767907303  L 3.93126779847756 4.72908864115169  C 3.93126779847756 4.45329101273247  4.15448765298651 4.22971285990169  4.42984329802684 4.22971285990169  C 4.70519894306718 4.22971285990169  4.92841879757612 4.45329101273247  4.92841879757612 4.72908864115169  L 4.92841879757612 7.30836453651686  Z M 4.8262108223157 4.92883895716292  L 4.52955840845353 5.02621722261236  L 4.13319087540064 5.02621722261236  C 3.94639773195436 4.83266086384195  3.94639773195436 4.52564126045581  4.13319087540064 4.33208490168539  L 5.91310541115785 2.54681648525281  C 6.00575476445315 2.40897668296628  6.16078778524856 2.32632435071105  6.32668795319763 2.32632435071105  C 6.60204359339773 2.32632435071105  6.82526344398289 2.54990249961175  6.82526344398289 2.82570012318295  C 6.82526344398289 2.99250393081589  6.74211349126308 3.14829402636408  6.60363248447516 3.24094880617978  L 4.8262108223157 4.92883895716292  Z M 4.92343305038061 4.92883895716292  L 4.52955840845353 5.02621722261236  L 4.13319087540064 5.02621722261236  L 2.45299145883413 3.24094880617977  C 2.31717558887489 3.14786624066681  2.23596745081753 2.99365186735726  2.23596745081753 2.82881989656523  C 2.23596745081753 2.55302227299402  2.45918730140268 2.32944412409332  2.73454294160278 2.32944412409332  C 2.89911075859547 2.32944412409332  3.05307799348626 2.41078261229203  3.14601138822115 2.54681648525281  L 4.82621082231571 4.23470661867978  C 5.00590759455219 4.42027329189526  5.04521449808105 4.70091068735599  4.92343305038061 4.92883895716292  Z M 2.44551282051282 10.5343320926966  L 6.51388889473157 10.5343320926966  C 6.55023541475862 10.5260353373117  6.58739630244113 10.5218477001404  6.62467478438574 10.5218477001404  C 6.90003042458584 10.5218477001404  7.12325027517099 10.7454258490412  7.12325027517099 11.0212234726124  C 7.12325027517099 11.2970210961836  6.90003042458584 11.5205992450843  6.62467478438574 11.5205992450843  C 6.58739630244113 11.5205992450843  6.55023541475862 11.516411607913  6.51388889473157 11.5081148525281  L 2.44551282051282 11.5081148525281  C 2.17704107034968 11.5081148525281  1.95940171524439 11.2901261565639  1.95940171524439 11.0212234726124  C 1.95940171524439 10.7523207886608  2.17704107034968 10.5343320926966  2.44551282051282 10.5343320926966  Z M 2.05772318092656 12.9687890186095  C 2.05772318092656 12.7357429071224  2.21865699145407 12.5336815870233  2.44551282051282 12.4818976299157  L 10.9736467197516 12.4818976299157  C 11.0099932275752 12.4736008803459  11.0471541021944 12.4694132461376  11.0844325709506 12.4694132461376  C 11.3597882111507 12.4694132461376  11.5830080617359 12.6929913950383  11.5830080617359 12.9687890186095  C 11.5830080617359 13.2445866421808  11.3597882111507 13.4681647910815  11.0844325709506 13.4681647910815  C 11.0471541021944 13.4681647910815  11.0099932275752 13.4639771568732  10.9736467197516 13.4556804073034  L 2.44551282051282 13.4556804073034  C 2.21865699145407 13.4038964501958  2.05772318092656 13.2018351300967  2.05772318092656 12.9687890186095  Z " fill-rule="nonzero" fill="#ffffff" stroke="none" transform="matrix(1 0 0 1 232 272 )" />
  </g>
</svg>