<?xml version="1.0" encoding="utf-8"?>
<svg version="1.1" xmlns:xlink="http://www.w3.org/1999/xlink" width="16px" height="16px" xmlns="http://www.w3.org/2000/svg">
  <g transform="matrix(1 0 0 1 -320 -271 )">
    <path d="M 0.0634920572916667 8  C 0.0634920572916667 12.3831349144345  3.61686506696429 15.9365079427083  8 15.9365079427083  C 12.3831349144345 15.9365079427083  15.9365079427083 12.3831349330357  15.9365079427083 8  C 15.9365079427083 3.61686506696428  12.3831349144345 0.0634920572916667  8 0.0634920572916667  C 3.61686508556548 0.0634920572916667  0.0634920572916667 3.61686508556548  0.0634920572916667 8  Z M 4.42125702040034 10.9835048843616  C 4.42125702040034 10.8220501515806  4.48684370542798 10.6675216499612  4.60297619047619 10.5553571428571  L 7.40476190476191 7.75337300967262  L 7.40476190476191 4.42857142857143  C 7.40476190476191 4.0998305060531  7.67125907748167 3.83333333333333  8 3.83333333333333  C 8.32874092251833 3.83333333333333  8.59523809523809 4.0998305060531  8.59523809523809 4.42857142857143  L 8.59523809523809 8  C 8.59520438249673 8.15785405564215  8.5324698659589 8.30923051704913  8.42083333333333 8.42083333333333  L 5.44464285714286 11.3970238095238  C 5.3324783500388 11.513156294572  5.17794984841939 11.5787429795997  5.01649511563844 11.5787429795997  C 4.68775419312011 11.5787429795997  4.42125702040034 11.3122458068799  4.42125702040034 10.9835048843616  Z " fill-rule="nonzero" fill="#ffffff" stroke="none" transform="matrix(1 0 0 1 320 271 )" />
  </g>
</svg>