<?xml version="1.0" encoding="utf-8"?>
<svg version="1.1" xmlns:xlink="http://www.w3.org/1999/xlink" width="14px" height="16px" xmlns="http://www.w3.org/2000/svg">
  <g transform="matrix(1 0 0 1 -252 -205 )">
    <path d="M 7.65508643617021 15.005787037037  L 1.82660128546099 15.005787037037  C 1.38638630319149 15.005787037037  1.02820257092199 14.6346450617284  1 14.1784336419753  L 1 1.82156635802469  C 1.02820257092199 1.36535493827161  1.38638630319149 0.994212962962963  1.82660128546099 1  L 12.1875554078014 1  C 12.6277703900709 0.994212962962963  12.9859541223404 1.36535493827161  12.9859541223404 1.82156635802469  L 12.9859541223404 6.09702932098765  C 12.9859541376616 6.35271669439216  13.1943322416306 6.55999225635587  13.4513796542553 6.55999225635587  C 13.7084270777138 6.55999225635587  13.9168051861702 6.35271667757383  13.9168051861702 6.09702929339291  L 13.9168051861702 1.82156635802469  C 13.9168051861702 0.85474537037037  13.1410959663121 0.068287037037037  12.1875554078014 0  L 1.82660128546099 0  C 0.873060726950355 0.068287037037037  0.0973515070921986 0.85474537037037  0 1.82156635802469  L 0 14.1784336419753  C 0.0973515070921986 15.1452546296296  0.873060726950355 15.931712962963  1.82660128546099 15.931712962963  L 7.65508643617021 15.931712962963  C 7.91213385962869 15.931712962963  8.12051196808511 15.7244373841809  8.12051196808511 15.46875  C 8.12051196808511 15.2130626158191  7.91213385962869 15.005787037037  7.65508643617021 15.005787037037  Z " fill-rule="nonzero" fill="#ffffff" stroke="none" transform="matrix(1 0 0 1 252 205 )" />
  </g>
</svg>