<?xml version="1.0" encoding="utf-8"?>
<svg version="1.1" xmlns:xlink="http://www.w3.org/1999/xlink" width="16px" height="16px" xmlns="http://www.w3.org/2000/svg">
  <g transform="matrix(1 0 0 1 -512 -205 )">
    <path d="M 16 1.6  C 16 0.716344400270731  15.2836555997293 0  14.4 0  C 13.5163444002707 0  12.8 0.716344400270731  12.8 1.6  L 12.8 14.4  C 12.8 15.2836555997293  13.5163444002707 16  14.4 16  C 15.2836555997293 16  16 15.2836555997293  16 14.4  L 16 1.6  Z M 3.2 14.4  L 3.2 3.6  C 3.2 2.71634440027073  2.48365559972927 2  1.6 2  C 0.716344400270731 2  0 2.71634440027073  0 3.6  L 0 14.4  C 0 15.2836555997293  0.716344400270731 16  1.6 16  C 2.48365559972927 16  3.2 15.2836555997293  3.2 14.4  Z M 9.6 14.4  L 9.6 7.8  C 9.6 6.91634440027073  8.88365559972927 6.2  8 6.2  C 7.11634440027073 6.2  6.4 6.91634440027073  6.4 7.8  L 6.4 14.4  C 6.4 15.2836555997293  7.11634440027073 16  8 16  C 8.88365559972927 16  9.6 15.2836555997293  9.6 14.4  Z " fill-rule="nonzero" fill="#ffffff" stroke="none" transform="matrix(1 0 0 1 512 205 )" />
  </g>
</svg>