<?xml version="1.0" encoding="utf-8"?>
<svg version="1.1" xmlns:xlink="http://www.w3.org/1999/xlink" width="42px" height="44px" xmlns="http://www.w3.org/2000/svg">
  <defs>
    <mask fill="white" id="clip155">
      <path d="M 0 22  C 0 7.33333333333333  7 0  21 0  C 35 0  42 7.33333333333333  42 22  C 42 36.6666666666667  35 44  21 44  C 7 44  0 36.6666666666667  0 22  Z " fill-rule="evenodd" />
    </mask>
  </defs>
  <g transform="matrix(1 0 0 1 -291 -151 )">
    <path d="M 0 22  C 0 7.33333333333333  7 0  21 0  C 35 0  42 7.33333333333333  42 22  C 42 36.6666666666667  35 44  21 44  C 7 44  0 36.6666666666667  0 22  Z " fill-rule="nonzero" fill="#228efe" stroke="none" transform="matrix(1 0 0 1 291 151 )" />
    <path d="M 0 22  C 0 7.33333333333333  7 0  21 0  C 35 0  42 7.33333333333333  42 22  C 42 36.6666666666667  35 44  21 44  C 7 44  0 36.6666666666667  0 22  Z " stroke-width="2" stroke="#797979" fill="none" transform="matrix(1 0 0 1 291 151 )" mask="url(#clip155)" />
  </g>
</svg>