<?xml version="1.0" encoding="utf-8"?>
<svg version="1.1" xmlns:xlink="http://www.w3.org/1999/xlink" width="19px" height="25px" xmlns="http://www.w3.org/2000/svg">
  <defs>
    <mask fill="white" id="clip156">
      <path d="M 3.04053977272727 0.220454545454545  L 3.1825 0.217613636363635  L 4.07042613636364 0.225568181818182  L 4.05693181818182 1.93011363636364  L 3.15767045454545 1.92215909090909  C 2.43865187141593 1.92232252992623  1.84301921562734 2.50954324279038  1.79582386363637 3.26477272727273  L 2 3.35909090909091  L 2 21.7045454545455  C 1.7932614712713 22.4612021497162  2.3508132318973 23.0881031221567  3.06806818181818 23.1380681818182  L 3.15767045454545 23.1414772727273  L 12.076875 23.1414772727273  L 17 18.35625  L 17 3.34715909090909  C 17.20070014975 2.59046161387342  16.6382727707068 1.96837174169806  15.9205965909091 1.92443181818182  L 15.8309943181818 1.92215909090909  L 14.9430681818182 1.93011363636364  L 14.9295738636364 0.225568181818182  L 15.8175 0.217613636363635  C 17.4221645600788 0.204548033080852  18.7495994986383 1.52907193010839  18.8229545454545 3.21647727272727  L 18.8261931818182 3.34034090909091  L 18.8261931818182 19.1244318181818  L 12.6911363636364 24.8460227272727  L 3.15767045454545 24.8460227272727  C 1.5551550432221 24.8457969598402  0.238860784839672 23.513399555113  0.17596590909091 21.8278409090909  L 0.17380681818182 21.7045454545455  L 0.17380681818182 3.35909090909091  C 0.17380681818182 1.66590909090909  1.44713068181818 0.285227272727273  3.04053977272727 0.220454545454545  Z " fill-rule="evenodd" />
    </mask>
  </defs>
  <g transform="matrix(1 0 0 1 -303 -161 )">
    <path d="M 3.04053977272727 0.220454545454545  L 3.1825 0.217613636363635  L 4.07042613636364 0.225568181818182  L 4.05693181818182 1.93011363636364  L 3.15767045454545 1.92215909090909  C 2.43865187141593 1.92232252992623  1.84301921562734 2.50954324279038  1.79582386363637 3.26477272727273  L 2 3.35909090909091  L 2 21.7045454545455  C 1.7932614712713 22.4612021497162  2.3508132318973 23.0881031221567  3.06806818181818 23.1380681818182  L 3.15767045454545 23.1414772727273  L 12.076875 23.1414772727273  L 17 18.35625  L 17 3.34715909090909  C 17.20070014975 2.59046161387342  16.6382727707068 1.96837174169806  15.9205965909091 1.92443181818182  L 15.8309943181818 1.92215909090909  L 14.9430681818182 1.93011363636364  L 14.9295738636364 0.225568181818182  L 15.8175 0.217613636363635  C 17.4221645600788 0.204548033080852  18.7495994986383 1.52907193010839  18.8229545454545 3.21647727272727  L 18.8261931818182 3.34034090909091  L 18.8261931818182 19.1244318181818  L 12.6911363636364 24.8460227272727  L 3.15767045454545 24.8460227272727  C 1.5551550432221 24.8457969598402  0.238860784839672 23.513399555113  0.17596590909091 21.8278409090909  L 0.17380681818182 21.7045454545455  L 0.17380681818182 3.35909090909091  C 0.17380681818182 1.66590909090909  1.44713068181818 0.285227272727273  3.04053977272727 0.220454545454545  Z " fill-rule="nonzero" fill="#ffffff" stroke="none" transform="matrix(1 0 0 1 303 161 )" />
    <path d="M 3.04053977272727 0.220454545454545  L 3.1825 0.217613636363635  L 4.07042613636364 0.225568181818182  L 4.05693181818182 1.93011363636364  L 3.15767045454545 1.92215909090909  C 2.43865187141593 1.92232252992623  1.84301921562734 2.50954324279038  1.79582386363637 3.26477272727273  L 2 3.35909090909091  L 2 21.7045454545455  C 1.7932614712713 22.4612021497162  2.3508132318973 23.0881031221567  3.06806818181818 23.1380681818182  L 3.15767045454545 23.1414772727273  L 12.076875 23.1414772727273  L 17 18.35625  L 17 3.34715909090909  C 17.20070014975 2.59046161387342  16.6382727707068 1.96837174169806  15.9205965909091 1.92443181818182  L 15.8309943181818 1.92215909090909  L 14.9430681818182 1.93011363636364  L 14.9295738636364 0.225568181818182  L 15.8175 0.217613636363635  C 17.4221645600788 0.204548033080852  18.7495994986383 1.52907193010839  18.8229545454545 3.21647727272727  L 18.8261931818182 3.34034090909091  L 18.8261931818182 19.1244318181818  L 12.6911363636364 24.8460227272727  L 3.15767045454545 24.8460227272727  C 1.5551550432221 24.8457969598402  0.238860784839672 23.513399555113  0.17596590909091 21.8278409090909  L 0.17380681818182 21.7045454545455  L 0.17380681818182 3.35909090909091  C 0.17380681818182 1.66590909090909  1.44713068181818 0.285227272727273  3.04053977272727 0.220454545454545  Z " stroke-width="2" stroke="#797979" fill="none" transform="matrix(1 0 0 1 303 161 )" mask="url(#clip156)" />
  </g>
</svg>