<?xml version="1.0" encoding="utf-8"?>
<svg version="1.1" xmlns:xlink="http://www.w3.org/1999/xlink" width="13px" height="26px" xmlns="http://www.w3.org/2000/svg">
  <defs>
    <mask fill="white" id="clip157">
      <path d="M 2.7335546875 1.50196428571429  L 6.6101953125 1.50196428571429  L 6.6101953125 3.24303571428571  L 2.7335546875 3.24303571428571  L 2.7335546875 1.50196428571429  Z M 0.421484375000001 0.157276785714286  L 1.944921875 0.157276785714286  L 1.944921875 4.92142857142857  L 0.421484375000001 4.92142857142857  L 0.421484375000001 0.157276785714286  Z M 7.398828125 0.157276785714286  L 8.922265625 0.157276785714286  L 8.922265625 4.92142857142857  L 7.398828125 4.92142857142857  L 7.398828125 0.157276785714286  Z M 6.2359375 18.7786160714286  L 12.812109375 18.7786160714286  L 12.812109375 20.5196875  L 7.759375 20.5196875  L 7.759375 25.8508482142857  L 6.2359375 25.8508482142857  L 6.2359375 18.7786160714286  Z M 0.179257812499999 9.80803571428571  L 8.93546875 9.80803571428571  L 8.93546875 11.5491071428571  L 0.179257812499999 11.5491071428571  L 0.179257812499999 9.80803571428571  Z M 0.178750000000002 15.5553125  L 6.068359375 15.5553125  L 6.068359375 17.2963839285714  L 0.178750000000002 17.2963839285714  L 0.178750000000002 15.5553125  Z " fill-rule="evenodd" />
    </mask>
  </defs>
  <g transform="matrix(1 0 0 1 -308 -160 )">
    <path d="M 2.7335546875 1.50196428571429  L 6.6101953125 1.50196428571429  L 6.6101953125 3.24303571428571  L 2.7335546875 3.24303571428571  L 2.7335546875 1.50196428571429  Z M 0.421484375000001 0.157276785714286  L 1.944921875 0.157276785714286  L 1.944921875 4.92142857142857  L 0.421484375000001 4.92142857142857  L 0.421484375000001 0.157276785714286  Z M 7.398828125 0.157276785714286  L 8.922265625 0.157276785714286  L 8.922265625 4.92142857142857  L 7.398828125 4.92142857142857  L 7.398828125 0.157276785714286  Z M 6.2359375 18.7786160714286  L 12.812109375 18.7786160714286  L 12.812109375 20.5196875  L 7.759375 20.5196875  L 7.759375 25.8508482142857  L 6.2359375 25.8508482142857  L 6.2359375 18.7786160714286  Z M 0.179257812499999 9.80803571428571  L 8.93546875 9.80803571428571  L 8.93546875 11.5491071428571  L 0.179257812499999 11.5491071428571  L 0.179257812499999 9.80803571428571  Z M 0.178750000000002 15.5553125  L 6.068359375 15.5553125  L 6.068359375 17.2963839285714  L 0.178750000000002 17.2963839285714  L 0.178750000000002 15.5553125  Z " fill-rule="nonzero" fill="#ffffff" stroke="none" transform="matrix(1 0 0 1 308 160 )" />
    <path d="M 2.7335546875 1.50196428571429  L 6.6101953125 1.50196428571429  L 6.6101953125 3.24303571428571  L 2.7335546875 3.24303571428571  L 2.7335546875 1.50196428571429  Z " stroke-width="2" stroke="#797979" fill="none" transform="matrix(1 0 0 1 308 160 )" mask="url(#clip157)" />
    <path d="M 0.421484375000001 0.157276785714286  L 1.944921875 0.157276785714286  L 1.944921875 4.92142857142857  L 0.421484375000001 4.92142857142857  L 0.421484375000001 0.157276785714286  Z " stroke-width="2" stroke="#797979" fill="none" transform="matrix(1 0 0 1 308 160 )" mask="url(#clip157)" />
    <path d="M 7.398828125 0.157276785714286  L 8.922265625 0.157276785714286  L 8.922265625 4.92142857142857  L 7.398828125 4.92142857142857  L 7.398828125 0.157276785714286  Z " stroke-width="2" stroke="#797979" fill="none" transform="matrix(1 0 0 1 308 160 )" mask="url(#clip157)" />
    <path d="M 6.2359375 18.7786160714286  L 12.812109375 18.7786160714286  L 12.812109375 20.5196875  L 7.759375 20.5196875  L 7.759375 25.8508482142857  L 6.2359375 25.8508482142857  L 6.2359375 18.7786160714286  Z " stroke-width="2" stroke="#797979" fill="none" transform="matrix(1 0 0 1 308 160 )" mask="url(#clip157)" />
    <path d="M 0.179257812499999 9.80803571428571  L 8.93546875 9.80803571428571  L 8.93546875 11.5491071428571  L 0.179257812499999 11.5491071428571  L 0.179257812499999 9.80803571428571  Z " stroke-width="2" stroke="#797979" fill="none" transform="matrix(1 0 0 1 308 160 )" mask="url(#clip157)" />
    <path d="M 0.178750000000002 15.5553125  L 6.068359375 15.5553125  L 6.068359375 17.2963839285714  L 0.178750000000002 17.2963839285714  L 0.178750000000002 15.5553125  Z " stroke-width="2" stroke="#797979" fill="none" transform="matrix(1 0 0 1 308 160 )" mask="url(#clip157)" />
  </g>
</svg>