<?xml version="1.0" encoding="utf-8"?>
<svg version="1.1" xmlns:xlink="http://www.w3.org/1999/xlink" width="26px" height="26px" xmlns="http://www.w3.org/2000/svg">
  <defs>
    <mask fill="white" id="clip161">
      <path d="M 0.175948275862068 13  C 0.175948275862068 5.91724137931034  5.91780172413793 0.175948275862068  13 0.17594827586207  C 20.0827586206897 0.17594827586207  25.8240517241379 5.91780172413793  25.8240517241379 13  C 25.8240517241379 20.0827586206897  20.0821982758621 25.8240517241379  13 25.8240517241379  C 5.91724137931034 25.8240517241379  0.175948275862068 20.0821982758621  0.175948275862068 13  Z M 13 1.85698275862069  C 10.105557825091 1.85314820961548  7.32397464908261 2.97945315735664  5.24762931034483 4.99603448275862  L 4.99547413793104 5.24818965517241  C 2.97964285348992 7.3246643987872  1.85396479093612 10.1059879060866  1.85810344827586 13  C 1.85810344827586 19.1542672413793  6.84629310344828 24.1430172413793  13.0005603448276 24.1430172413793  C 19.1548275862069 24.1430172413793  24.1435775862069 19.1542672413793  24.1435775862069 13  C 24.1435775862069 6.84573275862069  19.1548275862069 1.85698275862069  13.0005603448276 1.85698275862069  Z " fill-rule="evenodd" />
    </mask>
  </defs>
  <g transform="matrix(1 0 0 1 -389 -160 )">
    <path d="M 0.175948275862068 13  C 0.175948275862068 5.91724137931034  5.91780172413793 0.175948275862068  13 0.17594827586207  C 20.0827586206897 0.17594827586207  25.8240517241379 5.91780172413793  25.8240517241379 13  C 25.8240517241379 20.0827586206897  20.0821982758621 25.8240517241379  13 25.8240517241379  C 5.91724137931034 25.8240517241379  0.175948275862068 20.0821982758621  0.175948275862068 13  Z M 13 1.85698275862069  C 10.105557825091 1.85314820961548  7.32397464908261 2.97945315735664  5.24762931034483 4.99603448275862  L 4.99547413793104 5.24818965517241  C 2.97964285348992 7.3246643987872  1.85396479093612 10.1059879060866  1.85810344827586 13  C 1.85810344827586 19.1542672413793  6.84629310344828 24.1430172413793  13.0005603448276 24.1430172413793  C 19.1548275862069 24.1430172413793  24.1435775862069 19.1542672413793  24.1435775862069 13  C 24.1435775862069 6.84573275862069  19.1548275862069 1.85698275862069  13.0005603448276 1.85698275862069  Z " fill-rule="nonzero" fill="#ffffff" stroke="none" transform="matrix(1 0 0 1 389 160 )" />
    <path d="M 0.175948275862068 13  C 0.175948275862068 5.91724137931034  5.91780172413793 0.175948275862068  13 0.17594827586207  C 20.0827586206897 0.17594827586207  25.8240517241379 5.91780172413793  25.8240517241379 13  C 25.8240517241379 20.0827586206897  20.0821982758621 25.8240517241379  13 25.8240517241379  C 5.91724137931034 25.8240517241379  0.175948275862068 20.0821982758621  0.175948275862068 13  Z " stroke-width="2" stroke="#797979" fill="none" transform="matrix(1 0 0 1 389 160 )" mask="url(#clip161)" />
    <path d="M 13 1.85698275862069  C 10.105557825091 1.85314820961548  7.32397464908261 2.97945315735664  5.24762931034483 4.99603448275862  L 4.99547413793104 5.24818965517241  C 2.97964285348992 7.3246643987872  1.85396479093612 10.1059879060866  1.85810344827586 13  C 1.85810344827586 19.1542672413793  6.84629310344828 24.1430172413793  13.0005603448276 24.1430172413793  C 19.1548275862069 24.1430172413793  24.1435775862069 19.1542672413793  24.1435775862069 13  C 24.1435775862069 6.84573275862069  19.1548275862069 1.85698275862069  13.0005603448276 1.85698275862069  Z " stroke-width="2" stroke="#797979" fill="none" transform="matrix(1 0 0 1 389 160 )" mask="url(#clip161)" />
  </g>
</svg>