<?xml version="1.0" encoding="utf-8"?>
<svg version="1.1" xmlns:xlink="http://www.w3.org/1999/xlink" width="22px" height="16px" xmlns="http://www.w3.org/2000/svg">
  <defs>
    <mask fill="white" id="clip167">
      <path d="M 1.73979591836735 0.181408450704224  L 20.2602040816327 0.181408450704224  C 21.1900712624702 0.181408450704224  21.9438775510204 0.938110281976122  21.9438775510204 1.87154929577465  L 21.9438775510204 14.3030985915493  C 21.9438775510204 15.2365376053478  21.1900712624702 15.9932394366197  20.2602040816327 15.9932394366197  L 1.73979591836735 15.9932394366197  C 0.80992873752979 15.9932394366197  0.056122448979595 15.2365376053478  0.056122448979595 14.3030985915493  L 0.056122448979595 1.87154929577465  C 0.056122448979595 0.938110281976122  0.80992873752979 0.181408450704224  1.73979591836735 0.181408450704224  Z M 18.7471428571429 4.65971830985916  L 3.25285714285714 4.65971830985916  C 2.66229674300045 4.65998827585669  2.17620820662044 5.12611373916953  2.14892857142857 5.71830985915493  L 2.14780612244898 5.76450704225352  C 2.14780612244898 6.32394366197183  2.5990306122449 6.77690140845071  3.15632653061225 7  L 18.6494897959184 7  C 19.2400501957751 6.77663144245317  19.7261387321551 6.31050597914034  19.7534183673469 5.71830985915493  L 19.7545408163265 5.67211267605634  C 19.7545408163265 5.11267605633803  19.3033163265306 4.65971830985916  18.7465816326531 4.65971830985916  Z " fill-rule="evenodd" />
    </mask>
  </defs>
  <g transform="matrix(1 0 0 1 -604 -167 )">
    <path d="M 1.73979591836735 0.181408450704224  L 20.2602040816327 0.181408450704224  C 21.1900712624702 0.181408450704224  21.9438775510204 0.938110281976122  21.9438775510204 1.87154929577465  L 21.9438775510204 14.3030985915493  C 21.9438775510204 15.2365376053478  21.1900712624702 15.9932394366197  20.2602040816327 15.9932394366197  L 1.73979591836735 15.9932394366197  C 0.80992873752979 15.9932394366197  0.056122448979595 15.2365376053478  0.056122448979595 14.3030985915493  L 0.056122448979595 1.87154929577465  C 0.056122448979595 0.938110281976122  0.80992873752979 0.181408450704224  1.73979591836735 0.181408450704224  Z M 18.7471428571429 4.65971830985916  L 3.25285714285714 4.65971830985916  C 2.66229674300045 4.65998827585669  2.17620820662044 5.12611373916953  2.14892857142857 5.71830985915493  L 2.14780612244898 5.76450704225352  C 2.14780612244898 6.32394366197183  2.5990306122449 6.77690140845071  3.15632653061225 7  L 18.6494897959184 7  C 19.2400501957751 6.77663144245317  19.7261387321551 6.31050597914034  19.7534183673469 5.71830985915493  L 19.7545408163265 5.67211267605634  C 19.7545408163265 5.11267605633803  19.3033163265306 4.65971830985916  18.7465816326531 4.65971830985916  Z " fill-rule="nonzero" fill="#ffffff" stroke="none" transform="matrix(1 0 0 1 604 167 )" />
    <path d="M 1.73979591836735 0.181408450704224  L 20.2602040816327 0.181408450704224  C 21.1900712624702 0.181408450704224  21.9438775510204 0.938110281976122  21.9438775510204 1.87154929577465  L 21.9438775510204 14.3030985915493  C 21.9438775510204 15.2365376053478  21.1900712624702 15.9932394366197  20.2602040816327 15.9932394366197  L 1.73979591836735 15.9932394366197  C 0.80992873752979 15.9932394366197  0.056122448979595 15.2365376053478  0.056122448979595 14.3030985915493  L 0.056122448979595 1.87154929577465  C 0.056122448979595 0.938110281976122  0.80992873752979 0.181408450704224  1.73979591836735 0.181408450704224  Z " stroke-width="2" stroke="#797979" fill="none" transform="matrix(1 0 0 1 604 167 )" mask="url(#clip167)" />
    <path d="M 18.7471428571429 4.65971830985916  L 3.25285714285714 4.65971830985916  C 2.66229674300045 4.65998827585669  2.17620820662044 5.12611373916953  2.14892857142857 5.71830985915493  L 2.14780612244898 5.76450704225352  C 2.14780612244898 6.32394366197183  2.5990306122449 6.77690140845071  3.15632653061225 7  L 18.6494897959184 7  C 19.2400501957751 6.77663144245317  19.7261387321551 6.31050597914034  19.7534183673469 5.71830985915493  L 19.7545408163265 5.67211267605634  C 19.7545408163265 5.11267605633803  19.3033163265306 4.65971830985916  18.7465816326531 4.65971830985916  Z " stroke-width="2" stroke="#797979" fill="none" transform="matrix(1 0 0 1 604 167 )" mask="url(#clip167)" />
  </g>
</svg>