<?xml version="1.0" encoding="utf-8"?>
<svg version="1.1" xmlns:xlink="http://www.w3.org/1999/xlink" width="14px" height="4px" xmlns="http://www.w3.org/2000/svg">
  <defs>
    <mask fill="white" id="clip168">
      <path d="M 12.2765322580645 0.00600000000000023  C 13.2118532053586 0.00600000000000023  13.9700806451613 0.67757287525381  13.9700806451613 1.506  L 13.9700806451613 3.9605  L 11.6826612903226 3.9605  L 11.6826612903226 2.742  C 11.6825528909706 2.21887994385254  11.2272624208589 1.78423399606119  10.6383064516129 1.745  L 10.5536290322581 1.742  L 3.44637096774195 1.742  C 2.82282366954589 1.742  2.31733870967743 2.18971525016921  2.31733870967743 2.742  L 2.31733870967743 3.9605  L 0.0299193548387146 3.9605  L 0.0299193548387146 1.5055  C 0.0299193548387146 0.67707287525381  0.788146794641403 0.00550000000000068  1.72346774193549 0.00550000000000068  L 12.2765322580645 0.00550000000000068  Z " fill-rule="evenodd" />
    </mask>
  </defs>
  <g transform="matrix(1 0 0 1 -608 -163 )">
    <path d="M 12.2765322580645 0.00600000000000023  C 13.2118532053586 0.00600000000000023  13.9700806451613 0.67757287525381  13.9700806451613 1.506  L 13.9700806451613 3.9605  L 11.6826612903226 3.9605  L 11.6826612903226 2.742  C 11.6825528909706 2.21887994385254  11.2272624208589 1.78423399606119  10.6383064516129 1.745  L 10.5536290322581 1.742  L 3.44637096774195 1.742  C 2.82282366954589 1.742  2.31733870967743 2.18971525016921  2.31733870967743 2.742  L 2.31733870967743 3.9605  L 0.0299193548387146 3.9605  L 0.0299193548387146 1.5055  C 0.0299193548387146 0.67707287525381  0.788146794641403 0.00550000000000068  1.72346774193549 0.00550000000000068  L 12.2765322580645 0.00550000000000068  Z " fill-rule="nonzero" fill="#ffffff" stroke="none" fill-opacity="0.596078431372549" transform="matrix(1 0 0 1 608 163 )" />
    <path d="M 12.2765322580645 0.00600000000000023  C 13.2118532053586 0.00600000000000023  13.9700806451613 0.67757287525381  13.9700806451613 1.506  L 13.9700806451613 3.9605  L 11.6826612903226 3.9605  L 11.6826612903226 2.742  C 11.6825528909706 2.21887994385254  11.2272624208589 1.78423399606119  10.6383064516129 1.745  L 10.5536290322581 1.742  L 3.44637096774195 1.742  C 2.82282366954589 1.742  2.31733870967743 2.18971525016921  2.31733870967743 2.742  L 2.31733870967743 3.9605  L 0.0299193548387146 3.9605  L 0.0299193548387146 1.5055  C 0.0299193548387146 0.67707287525381  0.788146794641403 0.00550000000000068  1.72346774193549 0.00550000000000068  L 12.2765322580645 0.00550000000000068  Z " stroke-width="2" stroke="#797979" fill="none" transform="matrix(1 0 0 1 608 163 )" mask="url(#clip168)" />
  </g>
</svg>