<?xml version="1.0" encoding="utf-8"?>
<svg version="1.1" xmlns:xlink="http://www.w3.org/1999/xlink" width="7px" height="6px" xmlns="http://www.w3.org/2000/svg">
  <defs>
    <mask fill="white" id="clip172">
      <path d="M 0.21875 0.224999999999997  L 6.89091666666667 0.224999999999997  L 6.89091666666667 2.025  L 0.21875 2.025  L 0.21875 0.224999999999997  Z M 0.21875 4.032  L 6.89091666666667 4.032  L 6.89091666666667 5.832  L 0.21875 5.832  L 0.21875 4.032  Z " fill-rule="evenodd" />
    </mask>
  </defs>
  <g transform="matrix(1 0 0 1 -721 -173 )">
    <path d="M 0.21875 0.224999999999997  L 6.89091666666667 0.224999999999997  L 6.89091666666667 2.025  L 0.21875 2.025  L 0.21875 0.224999999999997  Z M 0.21875 4.032  L 6.89091666666667 4.032  L 6.89091666666667 5.832  L 0.21875 5.832  L 0.21875 4.032  Z " fill-rule="nonzero" fill="#ffffff" stroke="none" transform="matrix(1 0 0 1 721 173 )" />
    <path d="M 0.21875 0.224999999999997  L 6.89091666666667 0.224999999999997  L 6.89091666666667 2.025  L 0.21875 2.025  L 0.21875 0.224999999999997  Z " stroke-width="2" stroke="#797979" fill="none" transform="matrix(1 0 0 1 721 173 )" mask="url(#clip172)" />
    <path d="M 0.21875 4.032  L 6.89091666666667 4.032  L 6.89091666666667 5.832  L 0.21875 5.832  L 0.21875 4.032  Z " stroke-width="2" stroke="#797979" fill="none" transform="matrix(1 0 0 1 721 173 )" mask="url(#clip172)" />
  </g>
</svg>