<?xml version="1.0" encoding="utf-8"?>
<svg version="1.1" xmlns:xlink="http://www.w3.org/1999/xlink" width="10px" height="11px" xmlns="http://www.w3.org/2000/svg">
  <defs>
    <mask fill="white" id="clip174">
      <path d="M 1.31188118811881 5.5  C 1.31188118811881 3.22575  2.97772277227723 1.375  5.02475247524752 1.375  C 7.07178217821782 1.375  8.73762376237624 3.22575  8.73762376237624 5.5  C 8.73762376237624 7.77425  7.07178217821782 9.625  5.02475247524752 9.625  C 2.97772277227723 9.625  1.31188118811881 7.77425  1.31188118811881 5.5  Z M 9.97524752475248 5.5  C 9.97524752475248 2.46125  7.75990099009901 0  5.02475247524752 0  C 2.28960396039604 0  0.0742574257425743 2.46125  0.0742574257425743 5.5  C 0.0742574257425743 8.53875  2.28960396039604 11  5.02475247524752 11  C 7.75990099009901 11  9.97524752475248 8.53875  9.97524752475248 5.5  Z " fill-rule="evenodd" />
    </mask>
  </defs>
  <g transform="matrix(1 0 0 1 -295 -277 )">
    <path d="M 1.31188118811881 5.5  C 1.31188118811881 3.22575  2.97772277227723 1.375  5.02475247524752 1.375  C 7.07178217821782 1.375  8.73762376237624 3.22575  8.73762376237624 5.5  C 8.73762376237624 7.77425  7.07178217821782 9.625  5.02475247524752 9.625  C 2.97772277227723 9.625  1.31188118811881 7.77425  1.31188118811881 5.5  Z M 9.97524752475248 5.5  C 9.97524752475248 2.46125  7.75990099009901 0  5.02475247524752 0  C 2.28960396039604 0  0.0742574257425743 2.46125  0.0742574257425743 5.5  C 0.0742574257425743 8.53875  2.28960396039604 11  5.02475247524752 11  C 7.75990099009901 11  9.97524752475248 8.53875  9.97524752475248 5.5  Z " fill-rule="nonzero" fill="#0086ee" stroke="none" transform="matrix(1 0 0 1 295 277 )" />
    <path d="M 1.31188118811881 5.5  C 1.31188118811881 3.22575  2.97772277227723 1.375  5.02475247524752 1.375  C 7.07178217821782 1.375  8.73762376237624 3.22575  8.73762376237624 5.5  C 8.73762376237624 7.77425  7.07178217821782 9.625  5.02475247524752 9.625  C 2.97772277227723 9.625  1.31188118811881 7.77425  1.31188118811881 5.5  Z " stroke-width="2" stroke="#797979" fill="none" transform="matrix(1 0 0 1 295 277 )" mask="url(#clip174)" />
    <path d="M 9.97524752475248 5.5  C 9.97524752475248 2.46125  7.75990099009901 0  5.02475247524752 0  C 2.28960396039604 0  0.0742574257425743 2.46125  0.0742574257425743 5.5  C 0.0742574257425743 8.53875  2.28960396039604 11  5.02475247524752 11  C 7.75990099009901 11  9.97524752475248 8.53875  9.97524752475248 5.5  Z " stroke-width="2" stroke="#797979" fill="none" transform="matrix(1 0 0 1 295 277 )" mask="url(#clip174)" />
  </g>
</svg>