<?xml version="1.0" encoding="utf-8"?>
<svg version="1.1" xmlns:xlink="http://www.w3.org/1999/xlink" width="17px" height="20px" xmlns="http://www.w3.org/2000/svg">
  <defs>
    <mask fill="white" id="clip176">
      <path d="M 8.5 18.75  L 1.98159509202454 18.75  C 1.62189104672074 18.7493122757127  1.33047185968614 18.4698927022619  1.32975460122699 18.125  L 1.32975460122699 1.875  C 1.32975460122699 1.53125  1.62308282208589 1.25  1.98159509202454 1.25  L 15.0184049079755 1.25  C 15.3769171779141 1.25  15.670245398773 1.53125  15.670245398773 1.875  L 15.670245398773 8.125  C 15.670245398773 8.47017796864425  15.9620843271808 8.75  16.3220858895706 8.75  C 16.6820874519603 8.75  16.9739263803681 8.47017796864425  16.9739263803681 8.125  L 16.9739263803681 1.875  C 16.9739263803681 0.839466094067262  16.0984095951446 0  15.0184049079755 0  L 1.98159509202454 0  C 0.901590404855427 0  0.0260736196319018 0.839466094067262  0.0260736196319018 1.875  L 0.0260736196319018 18.125  C 0.0260736196319018 19.1605339059327  0.901590404855427 20  1.98159509202454 20  L 8.5 20  C 8.86000156238971 20  9.15184049079755 19.7201779686442  9.15184049079755 19.375  C 9.15184049079755 19.0298220313558  8.86000156238971 18.75  8.5 18.75  Z " fill-rule="evenodd" />
    </mask>
  </defs>
  <g transform="matrix(1 0 0 1 -285 -266 )">
    <path d="M 8.5 18.75  L 1.98159509202454 18.75  C 1.62189104672074 18.7493122757127  1.33047185968614 18.4698927022619  1.32975460122699 18.125  L 1.32975460122699 1.875  C 1.32975460122699 1.53125  1.62308282208589 1.25  1.98159509202454 1.25  L 15.0184049079755 1.25  C 15.3769171779141 1.25  15.670245398773 1.53125  15.670245398773 1.875  L 15.670245398773 8.125  C 15.670245398773 8.47017796864425  15.9620843271808 8.75  16.3220858895706 8.75  C 16.6820874519603 8.75  16.9739263803681 8.47017796864425  16.9739263803681 8.125  L 16.9739263803681 1.875  C 16.9739263803681 0.839466094067262  16.0984095951446 0  15.0184049079755 0  L 1.98159509202454 0  C 0.901590404855427 0  0.0260736196319018 0.839466094067262  0.0260736196319018 1.875  L 0.0260736196319018 18.125  C 0.0260736196319018 19.1605339059327  0.901590404855427 20  1.98159509202454 20  L 8.5 20  C 8.86000156238971 20  9.15184049079755 19.7201779686442  9.15184049079755 19.375  C 9.15184049079755 19.0298220313558  8.86000156238971 18.75  8.5 18.75  Z " fill-rule="nonzero" fill="#0086ee" stroke="none" transform="matrix(1 0 0 1 285 266 )" />
    <path d="M 8.5 18.75  L 1.98159509202454 18.75  C 1.62189104672074 18.7493122757127  1.33047185968614 18.4698927022619  1.32975460122699 18.125  L 1.32975460122699 1.875  C 1.32975460122699 1.53125  1.62308282208589 1.25  1.98159509202454 1.25  L 15.0184049079755 1.25  C 15.3769171779141 1.25  15.670245398773 1.53125  15.670245398773 1.875  L 15.670245398773 8.125  C 15.670245398773 8.47017796864425  15.9620843271808 8.75  16.3220858895706 8.75  C 16.6820874519603 8.75  16.9739263803681 8.47017796864425  16.9739263803681 8.125  L 16.9739263803681 1.875  C 16.9739263803681 0.839466094067262  16.0984095951446 0  15.0184049079755 0  L 1.98159509202454 0  C 0.901590404855427 0  0.0260736196319018 0.839466094067262  0.0260736196319018 1.875  L 0.0260736196319018 18.125  C 0.0260736196319018 19.1605339059327  0.901590404855427 20  1.98159509202454 20  L 8.5 20  C 8.86000156238971 20  9.15184049079755 19.7201779686442  9.15184049079755 19.375  C 9.15184049079755 19.0298220313558  8.86000156238971 18.75  8.5 18.75  Z " stroke-width="2" stroke="#797979" fill="none" transform="matrix(1 0 0 1 285 266 )" mask="url(#clip176)" />
  </g>
</svg>