<?xml version="1.0" encoding="utf-8"?>
<svg version="1.1" xmlns:xlink="http://www.w3.org/1999/xlink" width="17px" height="20px" xmlns="http://www.w3.org/2000/svg">
  <defs>
    <mask fill="white" id="clip178">
      <path d="M 1.84538148148148 2.78496551724138  L 1.84538148148148 6.22717241379311  L 0.528825925925926 6.22717241379311  L 0.528825925925926 2.78496551724138  C 0.527755555555556 1.58910344827586  1.41188148148148 0.620689655172414  2.50258888888889 0.620689655172414  L 15.0184296296296 0.620689655172414  C 16.1102074074074 0.620689655172414  16.9943333333333 1.59027586206897  16.9943333333333 2.78496551724138  L 16.9943333333333 17.2150344827586  C 16.9943333333333 18.4108965517241  16.109137037037 19.3793103448276  15.0184296296296 19.3793103448276  L 2.50365925925926 19.3793103448276  C 1.41239777656952 19.3793103448276  0.527755555555556 18.4103310358062  0.527755555555556 17.2150344827586  L 0.527755555555556 14.3684137931034  L 1.84431111111111 14.3684137931034  L 1.84431111111111 17.2150344827586  C 1.84431111111111 17.6136551724138  2.13973333333333 17.9360689655172  2.50365925925926 18  L 15.0195 18  C 15.3834259259259 17.9360689655172  15.6777777777778 17.6136551724138  15.6777777777778 17.2150344827586  L 15.6777777777778 2.78496551724138  C 15.6777777777778 2.38674916831166  15.3830567778192 2.06393103448276  15.0195 2.06393103448276  C 15.0195 2.06393103448276  15.0195 2.06393103448276  15.0195 2  L 2.50365925925926 2  C 2.14010248144009 2.06393103448276  1.84538148148148 2.38674916831166  1.84538148148148 2.78496551724138  Z " fill-rule="evenodd" />
    </mask>
  </defs>
  <g transform="matrix(1 0 0 1 -287 -113 )">
    <path d="M 1.84538148148148 2.78496551724138  L 1.84538148148148 6.22717241379311  L 0.528825925925926 6.22717241379311  L 0.528825925925926 2.78496551724138  C 0.527755555555556 1.58910344827586  1.41188148148148 0.620689655172414  2.50258888888889 0.620689655172414  L 15.0184296296296 0.620689655172414  C 16.1102074074074 0.620689655172414  16.9943333333333 1.59027586206897  16.9943333333333 2.78496551724138  L 16.9943333333333 17.2150344827586  C 16.9943333333333 18.4108965517241  16.109137037037 19.3793103448276  15.0184296296296 19.3793103448276  L 2.50365925925926 19.3793103448276  C 1.41239777656952 19.3793103448276  0.527755555555556 18.4103310358062  0.527755555555556 17.2150344827586  L 0.527755555555556 14.3684137931034  L 1.84431111111111 14.3684137931034  L 1.84431111111111 17.2150344827586  C 1.84431111111111 17.6136551724138  2.13973333333333 17.9360689655172  2.50365925925926 18  L 15.0195 18  C 15.3834259259259 17.9360689655172  15.6777777777778 17.6136551724138  15.6777777777778 17.2150344827586  L 15.6777777777778 2.78496551724138  C 15.6777777777778 2.38674916831166  15.3830567778192 2.06393103448276  15.0195 2.06393103448276  C 15.0195 2.06393103448276  15.0195 2.06393103448276  15.0195 2  L 2.50365925925926 2  C 2.14010248144009 2.06393103448276  1.84538148148148 2.38674916831166  1.84538148148148 2.78496551724138  Z " fill-rule="nonzero" fill="#007aff" stroke="none" transform="matrix(1 0 0 1 287 113 )" />
    <path d="M 1.84538148148148 2.78496551724138  L 1.84538148148148 6.22717241379311  L 0.528825925925926 6.22717241379311  L 0.528825925925926 2.78496551724138  C 0.527755555555556 1.58910344827586  1.41188148148148 0.620689655172414  2.50258888888889 0.620689655172414  L 15.0184296296296 0.620689655172414  C 16.1102074074074 0.620689655172414  16.9943333333333 1.59027586206897  16.9943333333333 2.78496551724138  L 16.9943333333333 17.2150344827586  C 16.9943333333333 18.4108965517241  16.109137037037 19.3793103448276  15.0184296296296 19.3793103448276  L 2.50365925925926 19.3793103448276  C 1.41239777656952 19.3793103448276  0.527755555555556 18.4103310358062  0.527755555555556 17.2150344827586  L 0.527755555555556 14.3684137931034  L 1.84431111111111 14.3684137931034  L 1.84431111111111 17.2150344827586  C 1.84431111111111 17.6136551724138  2.13973333333333 17.9360689655172  2.50365925925926 18  L 15.0195 18  C 15.3834259259259 17.9360689655172  15.6777777777778 17.6136551724138  15.6777777777778 17.2150344827586  L 15.6777777777778 2.78496551724138  C 15.6777777777778 2.38674916831166  15.3830567778192 2.06393103448276  15.0195 2.06393103448276  C 15.0195 2.06393103448276  15.0195 2.06393103448276  15.0195 2  L 2.50365925925926 2  C 2.14010248144009 2.06393103448276  1.84538148148148 2.38674916831166  1.84538148148148 2.78496551724138  Z " stroke-width="2" stroke="#797979" fill="none" transform="matrix(1 0 0 1 287 113 )" mask="url(#clip178)" />
  </g>
</svg>