<?xml version="1.0" encoding="utf-8"?>
<svg version="1.1" xmlns:xlink="http://www.w3.org/1999/xlink" width="2px" height="3px" xmlns="http://www.w3.org/2000/svg">
  <defs>
    <mask fill="white" id="clip182">
      <path d="M 0.0375939825148783 1.46143727948952  C 0.0375939825148783 2.23595718618334  0.476108068018396 2.86382962679065  1.01704260602678 2.86382962679065  C 1.55797714403517 2.86382962679065  1.99649122953869 2.23595718618334  1.99649122953869 1.46143727948952  C 1.99649122953869 0.68653084647807  1.55797714403517 0.0586584058707606  1.01704260602679 0.0586584058707606  C 0.476108068018399 0.0586584058707606  0.0375939825148811 0.68653084647807  0.0375939825148811 1.4610507531719  Z " fill-rule="evenodd" />
    </mask>
  </defs>
  <g transform="matrix(1 0 0 1 -940 -123 )">
    <path d="M 0.0375939825148783 1.46143727948952  C 0.0375939825148783 2.23595718618334  0.476108068018396 2.86382962679065  1.01704260602678 2.86382962679065  C 1.55797714403517 2.86382962679065  1.99649122953869 2.23595718618334  1.99649122953869 1.46143727948952  C 1.99649122953869 0.68653084647807  1.55797714403517 0.0586584058707606  1.01704260602679 0.0586584058707606  C 0.476108068018399 0.0586584058707606  0.0375939825148811 0.68653084647807  0.0375939825148811 1.4610507531719  Z " fill-rule="nonzero" fill="#83d2ea" stroke="none" transform="matrix(1 0 0 1 940 123 )" />
    <path d="M 0.0375939825148783 1.46143727948952  C 0.0375939825148783 2.23595718618334  0.476108068018396 2.86382962679065  1.01704260602678 2.86382962679065  C 1.55797714403517 2.86382962679065  1.99649122953869 2.23595718618334  1.99649122953869 1.46143727948952  C 1.99649122953869 0.68653084647807  1.55797714403517 0.0586584058707606  1.01704260602679 0.0586584058707606  C 0.476108068018399 0.0586584058707606  0.0375939825148811 0.68653084647807  0.0375939825148811 1.4610507531719  Z " stroke-width="2" stroke="#797979" fill="none" transform="matrix(1 0 0 1 940 123 )" mask="url(#clip182)" />
  </g>
</svg>