<?xml version="1.0" encoding="utf-8"?>
<svg version="1.1" xmlns:xlink="http://www.w3.org/1999/xlink" width="35px" height="32px" xmlns="http://www.w3.org/2000/svg">
  <defs>
    <mask fill="white" id="clip185">
      <path d="M 28.709150643115 22.620664225108  C 31.8649402581942 21.0442443613033  34.0167356729628 17.9084858868516  34.0167356729628 14.2958008439663  C 34.0167356729628 9.09815531069735  29.5657979643143 4.88492936731499  24.0754674057188 4.88492936731499  C 23.9896256803507 4.88492936731499  23.905111404344 4.88897492727342  23.8205971283372 4.89122246058367  C 22.0873907455182 2.13394859557702  18.9081495250549 0.286026707894852  15.2727082074034 0.286026707894852  C 9.78193516568753 0.286026707894852  5.33055497391851 4.49880314461516  5.33055497391851 9.69689818454619  C 5.33055497391851 9.76387467719144  5.33453732200259 9.83040166317465  5.33586477136395 9.8973781558199  C 2.33361679908236 11.5169506591813  0.307044107402228 14.5717979344642  0.307044107402228 18.0775003917819  C 0.307044107402228 23.2746964183889  4.7579818160508 27.4874728551092  10.2487548577667 27.4874728551092  C 10.5607054576869 27.4874728551092  10.8695586757639 27.4726391352616  11.1744295457568 27.4452192288766  C 12.9983449682689 29.535425207403  15.7576697074212 30.8691114737014  18.84487443883 30.8691114737014  C 23.9205983135599 30.8691114737014  28.1038337343337 27.2685631106915  28.709150643115 22.620664225108  Z " fill-rule="evenodd" />
    </mask>
  </defs>
  <g transform="matrix(1 0 0 1 -288 -358 )">
    <path d="M 28.709150643115 22.620664225108  C 31.8649402581942 21.0442443613033  34.0167356729628 17.9084858868516  34.0167356729628 14.2958008439663  C 34.0167356729628 9.09815531069735  29.5657979643143 4.88492936731499  24.0754674057188 4.88492936731499  C 23.9896256803507 4.88492936731499  23.905111404344 4.88897492727342  23.8205971283372 4.89122246058367  C 22.0873907455182 2.13394859557702  18.9081495250549 0.286026707894852  15.2727082074034 0.286026707894852  C 9.78193516568753 0.286026707894852  5.33055497391851 4.49880314461516  5.33055497391851 9.69689818454619  C 5.33055497391851 9.76387467719144  5.33453732200259 9.83040166317465  5.33586477136395 9.8973781558199  C 2.33361679908236 11.5169506591813  0.307044107402228 14.5717979344642  0.307044107402228 18.0775003917819  C 0.307044107402228 23.2746964183889  4.7579818160508 27.4874728551092  10.2487548577667 27.4874728551092  C 10.5607054576869 27.4874728551092  10.8695586757639 27.4726391352616  11.1744295457568 27.4452192288766  C 12.9983449682689 29.535425207403  15.7576697074212 30.8691114737014  18.84487443883 30.8691114737014  C 23.9205983135599 30.8691114737014  28.1038337343337 27.2685631106915  28.709150643115 22.620664225108  Z " fill-rule="nonzero" fill="#d7f7e4" stroke="none" transform="matrix(1 0 0 1 288 358 )" />
    <path d="M 28.709150643115 22.620664225108  C 31.8649402581942 21.0442443613033  34.0167356729628 17.9084858868516  34.0167356729628 14.2958008439663  C 34.0167356729628 9.09815531069735  29.5657979643143 4.88492936731499  24.0754674057188 4.88492936731499  C 23.9896256803507 4.88492936731499  23.905111404344 4.88897492727342  23.8205971283372 4.89122246058367  C 22.0873907455182 2.13394859557702  18.9081495250549 0.286026707894852  15.2727082074034 0.286026707894852  C 9.78193516568753 0.286026707894852  5.33055497391851 4.49880314461516  5.33055497391851 9.69689818454619  C 5.33055497391851 9.76387467719144  5.33453732200259 9.83040166317465  5.33586477136395 9.8973781558199  C 2.33361679908236 11.5169506591813  0.307044107402228 14.5717979344642  0.307044107402228 18.0775003917819  C 0.307044107402228 23.2746964183889  4.7579818160508 27.4874728551092  10.2487548577667 27.4874728551092  C 10.5607054576869 27.4874728551092  10.8695586757639 27.4726391352616  11.1744295457568 27.4452192288766  C 12.9983449682689 29.535425207403  15.7576697074212 30.8691114737014  18.84487443883 30.8691114737014  C 23.9205983135599 30.8691114737014  28.1038337343337 27.2685631106915  28.709150643115 22.620664225108  Z " stroke-width="2" stroke="#797979" fill="none" transform="matrix(1 0 0 1 288 358 )" mask="url(#clip185)" />
  </g>
</svg>