<?xml version="1.0" encoding="utf-8"?>
<svg version="1.1" xmlns:xlink="http://www.w3.org/1999/xlink" width="35px" height="31px" xmlns="http://www.w3.org/2000/svg">
  <defs>
    <mask fill="white" id="clip187">
      <path d="M 33.851246985913 14.0402960503823  C 33.8499195365516 8.81277129062541  29.398981827903 4.57377327177065  23.9077663030667 4.57377327177065  C 23.822367060819 4.57377327177065  23.7378527848123 4.57784314398845  23.6533385088055 4.58010418410945  C 22.263499027459 2.35614512109176  19.9440025100382 0.720960905583035  17.2050319944268 0.159770747550307  C 19.3723143184114 0.715534409292631  21.1975571902849 2.06266211338569  22.3192519006362 3.85657134538877  C 22.3922616155111 3.85476251329197  23.3882911196535 5.61385172743161  23.4621858007693 5.61385172743161  C 28.1737460673654 5.61385172743161  30.365364962975 8.20862137029364  30.365364962975 12.6954293864102  C 30.365364962975 15.8138559212963  29.2224310628418 17.8013101876572  26.5139918825418 19.1629085485247  C 25.9949591822491 23.1762547633034  22.4046511428839 26.2842805136329  18.0497322713738 26.2842805136329  C 15.3992583798533 26.2842805136329  13.0319736854235 25.1338633000671  11.466910888377 23.3304576995558  C 11.2054033641886 23.3530681007658  10.940798458157 23.3652777174192  10.6730961702822 23.3652777174192  C 5.96109342056571 23.3652777174192  2.26016460108697 21.0825316112555  2.26016460108697 16.5966280111873  C 2.26016460108697 13.5745217854559  3.58318913124496 12.0867573858365  5.9911822727566 10.2937525698818  C 5.92702222029074 9.90711470919043  5.65931993241596 6.48570879809003  6.55180838637204 5.57405742130197  C 8.67218749958846 3.40662436130934  9.63281835409448 1.5453361337004  11.5297434914815 0.582585250177706  C 7.80669051598009 1.95051452338399  5.16462380374819 5.3881999233556  5.16462380374819 9.41692121095717  C 5.16462380374819 9.48339579051463  5.16860615183228 9.55258361821731  5.16993360119365 9.61905819777476  C 2.16680066267114 11.2488159169931  0.140670454111466 14.3202128173624  0.140670454111466 17.8469831981015  C 0.140670454111466 23.0754123739068  4.59160816276004 27.3153148088099  10.0823812044759 27.3153148088099  C 10.395216770637 27.3153148088099  10.7031850224731 27.2994875279629  11.0084983755865 27.2709984224383  C 12.8319713149782 29.3728613189218  15.59085357101 30.7154669427729  18.6793857517801 30.7154669427729  C 23.7542246602691 30.7154669427729  27.9379025641633 27.0923762528791  28.5427769898242 22.4156408665983  C 31.6990090880238 20.8297473257274  33.851246985913 17.6769529810021  33.851246985913 14.0402960503823  Z " fill-rule="evenodd" />
    </mask>
  </defs>
  <g transform="matrix(1 0 0 1 -288 -358 )">
    <path d="M 33.851246985913 14.0402960503823  C 33.8499195365516 8.81277129062541  29.398981827903 4.57377327177065  23.9077663030667 4.57377327177065  C 23.822367060819 4.57377327177065  23.7378527848123 4.57784314398845  23.6533385088055 4.58010418410945  C 22.263499027459 2.35614512109176  19.9440025100382 0.720960905583035  17.2050319944268 0.159770747550307  C 19.3723143184114 0.715534409292631  21.1975571902849 2.06266211338569  22.3192519006362 3.85657134538877  C 22.3922616155111 3.85476251329197  23.3882911196535 5.61385172743161  23.4621858007693 5.61385172743161  C 28.1737460673654 5.61385172743161  30.365364962975 8.20862137029364  30.365364962975 12.6954293864102  C 30.365364962975 15.8138559212963  29.2224310628418 17.8013101876572  26.5139918825418 19.1629085485247  C 25.9949591822491 23.1762547633034  22.4046511428839 26.2842805136329  18.0497322713738 26.2842805136329  C 15.3992583798533 26.2842805136329  13.0319736854235 25.1338633000671  11.466910888377 23.3304576995558  C 11.2054033641886 23.3530681007658  10.940798458157 23.3652777174192  10.6730961702822 23.3652777174192  C 5.96109342056571 23.3652777174192  2.26016460108697 21.0825316112555  2.26016460108697 16.5966280111873  C 2.26016460108697 13.5745217854559  3.58318913124496 12.0867573858365  5.9911822727566 10.2937525698818  C 5.92702222029074 9.90711470919043  5.65931993241596 6.48570879809003  6.55180838637204 5.57405742130197  C 8.67218749958846 3.40662436130934  9.63281835409448 1.5453361337004  11.5297434914815 0.582585250177706  C 7.80669051598009 1.95051452338399  5.16462380374819 5.3881999233556  5.16462380374819 9.41692121095717  C 5.16462380374819 9.48339579051463  5.16860615183228 9.55258361821731  5.16993360119365 9.61905819777476  C 2.16680066267114 11.2488159169931  0.140670454111466 14.3202128173624  0.140670454111466 17.8469831981015  C 0.140670454111466 23.0754123739068  4.59160816276004 27.3153148088099  10.0823812044759 27.3153148088099  C 10.395216770637 27.3153148088099  10.7031850224731 27.2994875279629  11.0084983755865 27.2709984224383  C 12.8319713149782 29.3728613189218  15.59085357101 30.7154669427729  18.6793857517801 30.7154669427729  C 23.7542246602691 30.7154669427729  27.9379025641633 27.0923762528791  28.5427769898242 22.4156408665983  C 31.6990090880238 20.8297473257274  33.851246985913 17.6769529810021  33.851246985913 14.0402960503823  Z " fill-rule="nonzero" fill="#6e6e96" stroke="none" transform="matrix(1 0 0 1 288 358 )" />
    <path d="M 33.851246985913 14.0402960503823  C 33.8499195365516 8.81277129062541  29.398981827903 4.57377327177065  23.9077663030667 4.57377327177065  C 23.822367060819 4.57377327177065  23.7378527848123 4.57784314398845  23.6533385088055 4.58010418410945  C 22.263499027459 2.35614512109176  19.9440025100382 0.720960905583035  17.2050319944268 0.159770747550307  C 19.3723143184114 0.715534409292631  21.1975571902849 2.06266211338569  22.3192519006362 3.85657134538877  C 22.3922616155111 3.85476251329197  23.3882911196535 5.61385172743161  23.4621858007693 5.61385172743161  C 28.1737460673654 5.61385172743161  30.365364962975 8.20862137029364  30.365364962975 12.6954293864102  C 30.365364962975 15.8138559212963  29.2224310628418 17.8013101876572  26.5139918825418 19.1629085485247  C 25.9949591822491 23.1762547633034  22.4046511428839 26.2842805136329  18.0497322713738 26.2842805136329  C 15.3992583798533 26.2842805136329  13.0319736854235 25.1338633000671  11.466910888377 23.3304576995558  C 11.2054033641886 23.3530681007658  10.940798458157 23.3652777174192  10.6730961702822 23.3652777174192  C 5.96109342056571 23.3652777174192  2.26016460108697 21.0825316112555  2.26016460108697 16.5966280111873  C 2.26016460108697 13.5745217854559  3.58318913124496 12.0867573858365  5.9911822727566 10.2937525698818  C 5.92702222029074 9.90711470919043  5.65931993241596 6.48570879809003  6.55180838637204 5.57405742130197  C 8.67218749958846 3.40662436130934  9.63281835409448 1.5453361337004  11.5297434914815 0.582585250177706  C 7.80669051598009 1.95051452338399  5.16462380374819 5.3881999233556  5.16462380374819 9.41692121095717  C 5.16462380374819 9.48339579051463  5.16860615183228 9.55258361821731  5.16993360119365 9.61905819777476  C 2.16680066267114 11.2488159169931  0.140670454111466 14.3202128173624  0.140670454111466 17.8469831981015  C 0.140670454111466 23.0754123739068  4.59160816276004 27.3153148088099  10.0823812044759 27.3153148088099  C 10.395216770637 27.3153148088099  10.7031850224731 27.2994875279629  11.0084983755865 27.2709984224383  C 12.8319713149782 29.3728613189218  15.59085357101 30.7154669427729  18.6793857517801 30.7154669427729  C 23.7542246602691 30.7154669427729  27.9379025641633 27.0923762528791  28.5427769898242 22.4156408665983  C 31.6990090880238 20.8297473257274  33.851246985913 17.6769529810021  33.851246985913 14.0402960503823  Z " stroke-width="2" stroke="#797979" fill="none" transform="matrix(1 0 0 1 288 358 )" mask="url(#clip187)" />
  </g>
</svg>