<?xml version="1.0" encoding="utf-8"?>
<svg version="1.1" xmlns:xlink="http://www.w3.org/1999/xlink" width="35px" height="32px" xmlns="http://www.w3.org/2000/svg">
  <defs>
    <mask fill="white" id="clip192">
      <path d="M 28.9687545680456 23.1428270837714  C 28.1917542085281 27.7035216769174  24.025775629452 31.0995445086952  19.1270450029038 31.0995445086952  C 16.2655066629266 31.0995445086952  13.568129560638 29.942963867244  11.6720893894918 27.9147898080803  C 11.4694321203238 27.9269264879556  11.2729696148422 27.9327700745622  11.0765071093605 27.9327700745622  C 5.57688440523554 27.9327700745622  1.10293757432335 23.6768409982852  1.10293757432335 18.4463814786867  C 1.10293757432335 15.1699274190138  2.89632166152412 12.1186761970273  5.80963052659443 10.3912220947742  C 5.92556110415342 5.25515897420589  10.3543746567793 1.110707550117  15.7814301291498 1.110707550117  C 19.139877013397 1.110707550117  22.3058437402466 2.75230587991881  24.1377238589269 5.41832989252957  C 29.5855760379587 5.4758667452718  33.9984601982482 9.7088709817843  33.9984601982482 14.904268981743  C 33.9984601982482 18.3259136932576  32.0802958710794 21.4522325278063  28.9687545680456 23.1428270837714  Z M 11.8853662535507 26.5473905421281  L 12.2189985263732 26.5172735957709  L 12.4406825697207 26.7712448598284  C 14.0924720583762 28.6650164270395  16.5296690858378 29.7510245225491  19.1266025197834 29.7510245225491  C 23.4881586381002 29.7510245225491  27.1762554470857 26.6822425407428  27.7054652591489 22.6124092225539  L 27.7519259867966 22.2550514262252  L 28.0705138335236 22.09592606786  C 30.9081580849963 20.6772830424343  32.6705683537652 17.9218072040759  32.6705683537652 14.9047184884051  C 32.6705683537652 10.4177429878351  28.7917613198639 6.76684987867564  24.0244481800906 6.76684987867564  C 23.9726776549975 6.76684987867564  23.9222345792657 6.76864790532384  23.8713490204135 6.76999642530998  L 23.4284234168388 6.78258261184735  L 23.2266511139117 6.46118534848253  C 21.6744203273585 3.99294426717318  18.8217316497904 2.45967704292511  15.7809876460293 2.45967704292511  C 11.0132320231355 2.45967704292511  7.13442498923423 6.11057015208455  7.13442498923423 10.5975456526546  L 7.14814196596831 11.1863993799383  L 6.78751822279816 11.3810357646054  C 4.09987574915948 12.8315937630365  2.42994445256541 15.5389723885558  2.42994445256541 18.4468309853487  C 2.42994445256541 22.9338064859188  6.30875148646673 26.5846995950782  11.07606462624 26.5846995950782  C 11.3375721504284 26.5846995950782  11.60217705646 26.5725629152029  11.8853662535507 26.5473905421281  Z " fill-rule="evenodd" />
    </mask>
  </defs>
  <g transform="matrix(1 0 0 1 -364 -357 )">
    <path d="M 28.9687545680456 23.1428270837714  C 28.1917542085281 27.7035216769174  24.025775629452 31.0995445086952  19.1270450029038 31.0995445086952  C 16.2655066629266 31.0995445086952  13.568129560638 29.942963867244  11.6720893894918 27.9147898080803  C 11.4694321203238 27.9269264879556  11.2729696148422 27.9327700745622  11.0765071093605 27.9327700745622  C 5.57688440523554 27.9327700745622  1.10293757432335 23.6768409982852  1.10293757432335 18.4463814786867  C 1.10293757432335 15.1699274190138  2.89632166152412 12.1186761970273  5.80963052659443 10.3912220947742  C 5.92556110415342 5.25515897420589  10.3543746567793 1.110707550117  15.7814301291498 1.110707550117  C 19.139877013397 1.110707550117  22.3058437402466 2.75230587991881  24.1377238589269 5.41832989252957  C 29.5855760379587 5.4758667452718  33.9984601982482 9.7088709817843  33.9984601982482 14.904268981743  C 33.9984601982482 18.3259136932576  32.0802958710794 21.4522325278063  28.9687545680456 23.1428270837714  Z M 11.8853662535507 26.5473905421281  L 12.2189985263732 26.5172735957709  L 12.4406825697207 26.7712448598284  C 14.0924720583762 28.6650164270395  16.5296690858378 29.7510245225491  19.1266025197834 29.7510245225491  C 23.4881586381002 29.7510245225491  27.1762554470857 26.6822425407428  27.7054652591489 22.6124092225539  L 27.7519259867966 22.2550514262252  L 28.0705138335236 22.09592606786  C 30.9081580849963 20.6772830424343  32.6705683537652 17.9218072040759  32.6705683537652 14.9047184884051  C 32.6705683537652 10.4177429878351  28.7917613198639 6.76684987867564  24.0244481800906 6.76684987867564  C 23.9726776549975 6.76684987867564  23.9222345792657 6.76864790532384  23.8713490204135 6.76999642530998  L 23.4284234168388 6.78258261184735  L 23.2266511139117 6.46118534848253  C 21.6744203273585 3.99294426717318  18.8217316497904 2.45967704292511  15.7809876460293 2.45967704292511  C 11.0132320231355 2.45967704292511  7.13442498923423 6.11057015208455  7.13442498923423 10.5975456526546  L 7.14814196596831 11.1863993799383  L 6.78751822279816 11.3810357646054  C 4.09987574915948 12.8315937630365  2.42994445256541 15.5389723885558  2.42994445256541 18.4468309853487  C 2.42994445256541 22.9338064859188  6.30875148646673 26.5846995950782  11.07606462624 26.5846995950782  C 11.3375721504284 26.5846995950782  11.60217705646 26.5725629152029  11.8853662535507 26.5473905421281  Z " fill-rule="nonzero" fill="#ccccde" stroke="none" transform="matrix(1 0 0 1 364 357 )" />
    <path d="M 28.9687545680456 23.1428270837714  C 28.1917542085281 27.7035216769174  24.025775629452 31.0995445086952  19.1270450029038 31.0995445086952  C 16.2655066629266 31.0995445086952  13.568129560638 29.942963867244  11.6720893894918 27.9147898080803  C 11.4694321203238 27.9269264879556  11.2729696148422 27.9327700745622  11.0765071093605 27.9327700745622  C 5.57688440523554 27.9327700745622  1.10293757432335 23.6768409982852  1.10293757432335 18.4463814786867  C 1.10293757432335 15.1699274190138  2.89632166152412 12.1186761970273  5.80963052659443 10.3912220947742  C 5.92556110415342 5.25515897420589  10.3543746567793 1.110707550117  15.7814301291498 1.110707550117  C 19.139877013397 1.110707550117  22.3058437402466 2.75230587991881  24.1377238589269 5.41832989252957  C 29.5855760379587 5.4758667452718  33.9984601982482 9.7088709817843  33.9984601982482 14.904268981743  C 33.9984601982482 18.3259136932576  32.0802958710794 21.4522325278063  28.9687545680456 23.1428270837714  Z " stroke-width="2" stroke="#797979" fill="none" transform="matrix(1 0 0 1 364 357 )" mask="url(#clip192)" />
    <path d="M 11.8853662535507 26.5473905421281  L 12.2189985263732 26.5172735957709  L 12.4406825697207 26.7712448598284  C 14.0924720583762 28.6650164270395  16.5296690858378 29.7510245225491  19.1266025197834 29.7510245225491  C 23.4881586381002 29.7510245225491  27.1762554470857 26.6822425407428  27.7054652591489 22.6124092225539  L 27.7519259867966 22.2550514262252  L 28.0705138335236 22.09592606786  C 30.9081580849963 20.6772830424343  32.6705683537652 17.9218072040759  32.6705683537652 14.9047184884051  C 32.6705683537652 10.4177429878351  28.7917613198639 6.76684987867564  24.0244481800906 6.76684987867564  C 23.9726776549975 6.76684987867564  23.9222345792657 6.76864790532384  23.8713490204135 6.76999642530998  L 23.4284234168388 6.78258261184735  L 23.2266511139117 6.46118534848253  C 21.6744203273585 3.99294426717318  18.8217316497904 2.45967704292511  15.7809876460293 2.45967704292511  C 11.0132320231355 2.45967704292511  7.13442498923423 6.11057015208455  7.13442498923423 10.5975456526546  L 7.14814196596831 11.1863993799383  L 6.78751822279816 11.3810357646054  C 4.09987574915948 12.8315937630365  2.42994445256541 15.5389723885558  2.42994445256541 18.4468309853487  C 2.42994445256541 22.9338064859188  6.30875148646673 26.5846995950782  11.07606462624 26.5846995950782  C 11.3375721504284 26.5846995950782  11.60217705646 26.5725629152029  11.8853662535507 26.5473905421281  Z " stroke-width="2" stroke="#797979" fill="none" transform="matrix(1 0 0 1 364 357 )" mask="url(#clip192)" />
  </g>
</svg>