<?xml version="1.0" encoding="utf-8"?>
<svg version="1.1" xmlns:xlink="http://www.w3.org/1999/xlink" width="33px" height="30px" xmlns="http://www.w3.org/2000/svg">
  <defs>
    <mask fill="white" id="clip193">
      <path d="M 32.3336070868413 13.5665229913439  C 32.3380770693846 8.64206513193504  28.1278005117904 4.64697353397836  22.9327867998932 4.64697353397836  C 22.850092122841 4.64697353397836  22.7727614248408 4.65061453794095  22.6918547408059 4.65243503992225  C 21.377679873057 2.55612700845855  19.1811304512481 1.01507208129047  16.5921165621319 0.486216255723644  C 18.6420505565185 1.00961057534659  20.3688048130199 2.27941070730137  21.42953167056 3.97020192243114  C 21.4983694017278 3.96838142044983  22.4410887201232 5.62640359991625  22.5108204477997 5.62640359991625  C 26.9678400417876 5.62640359991625  29.0405709471453 8.07224801178902  29.0405709471453 12.3008189888471  C 29.0405709471453 15.2404745631467  27.9588351716513 17.1128608509109  25.3984291708126 18.3976801242113  C 24.9067310910426 22.1802281158516  21.5104383545949 25.1071401762821  17.390902442631 25.1071401762821  C 14.884583230567 25.1071401762821  12.6442279798332 24.023486371915  11.1624287667081 22.3231375213834  C 10.9130037407885 22.3445284196636  10.6653667078861 22.3559065570467  10.4101307046601 22.3559065570467  C 5.95132311765483 22.3559065570467  2.45087978794677 20.2036180896581  2.45087978794677 15.9764124890861  C 2.45087978794677 13.1282371393466  3.70247490008859 11.7255403627571  5.98037800418667 10.0342940221321  C 5.91824524683392 9.66700774740535  5.6670322278969 6.44562949149997  6.51141193033827 5.58680768182302  C 8.51575210278252 3.54420445880758  9.42628754686568 1.78969567433241  11.2196445432632 0.882175436655768  C 7.69774529734698 2.17154596490949  5.19813105909803 5.41158436612317  5.19813105909803 9.2073309971278  C 5.19813105909803 9.27104856647319  5.20081304862405 9.33249050834199  5.20349503815007 9.39757345417336  C 2.36326813009681 10.9327117499022  0.44475162248514 13.8286752766507  0.44475162248514 17.1533670199947  C 0.44475162248514 22.0796453813849  4.65592217658801 26.0756472303322  9.85004189197655 26.0756472303322  C 10.1455077380929 26.0756472303322  10.4369505999202 26.0610832144818  10.7257114722215 26.034685935753  C 12.4506777357055 28.0167574678903  15.0611475410299 29.2820063448919  17.982281133118 29.2820063448919  C 22.7825953864362 29.2820063448919  26.7407649285847 25.8685651299597  27.3133696923896 21.4593093312579  C 30.2993180313565 19.9642220791176  32.3336070868413 16.9936179711359  32.3336070868413 13.5665229913439  Z " fill-rule="evenodd" />
    </mask>
  </defs>
  <g transform="matrix(1 0 0 1 -365 -358 )">
    <path d="M 32.3336070868413 13.5665229913439  C 32.3380770693846 8.64206513193504  28.1278005117904 4.64697353397836  22.9327867998932 4.64697353397836  C 22.850092122841 4.64697353397836  22.7727614248408 4.65061453794095  22.6918547408059 4.65243503992225  C 21.377679873057 2.55612700845855  19.1811304512481 1.01507208129047  16.5921165621319 0.486216255723644  C 18.6420505565185 1.00961057534659  20.3688048130199 2.27941070730137  21.42953167056 3.97020192243114  C 21.4983694017278 3.96838142044983  22.4410887201232 5.62640359991625  22.5108204477997 5.62640359991625  C 26.9678400417876 5.62640359991625  29.0405709471453 8.07224801178902  29.0405709471453 12.3008189888471  C 29.0405709471453 15.2404745631467  27.9588351716513 17.1128608509109  25.3984291708126 18.3976801242113  C 24.9067310910426 22.1802281158516  21.5104383545949 25.1071401762821  17.390902442631 25.1071401762821  C 14.884583230567 25.1071401762821  12.6442279798332 24.023486371915  11.1624287667081 22.3231375213834  C 10.9130037407885 22.3445284196636  10.6653667078861 22.3559065570467  10.4101307046601 22.3559065570467  C 5.95132311765483 22.3559065570467  2.45087978794677 20.2036180896581  2.45087978794677 15.9764124890861  C 2.45087978794677 13.1282371393466  3.70247490008859 11.7255403627571  5.98037800418667 10.0342940221321  C 5.91824524683392 9.66700774740535  5.6670322278969 6.44562949149997  6.51141193033827 5.58680768182302  C 8.51575210278252 3.54420445880758  9.42628754686568 1.78969567433241  11.2196445432632 0.882175436655768  C 7.69774529734698 2.17154596490949  5.19813105909803 5.41158436612317  5.19813105909803 9.2073309971278  C 5.19813105909803 9.27104856647319  5.20081304862405 9.33249050834199  5.20349503815007 9.39757345417336  C 2.36326813009681 10.9327117499022  0.44475162248514 13.8286752766507  0.44475162248514 17.1533670199947  C 0.44475162248514 22.0796453813849  4.65592217658801 26.0756472303322  9.85004189197655 26.0756472303322  C 10.1455077380929 26.0756472303322  10.4369505999202 26.0610832144818  10.7257114722215 26.034685935753  C 12.4506777357055 28.0167574678903  15.0611475410299 29.2820063448919  17.982281133118 29.2820063448919  C 22.7825953864362 29.2820063448919  26.7407649285847 25.8685651299597  27.3133696923896 21.4593093312579  C 30.2993180313565 19.9642220791176  32.3336070868413 16.9936179711359  32.3336070868413 13.5665229913439  Z " fill-rule="nonzero" fill="#6e6e96" stroke="none" transform="matrix(1 0 0 1 365 358 )" />
    <path d="M 32.3336070868413 13.5665229913439  C 32.3380770693846 8.64206513193504  28.1278005117904 4.64697353397836  22.9327867998932 4.64697353397836  C 22.850092122841 4.64697353397836  22.7727614248408 4.65061453794095  22.6918547408059 4.65243503992225  C 21.377679873057 2.55612700845855  19.1811304512481 1.01507208129047  16.5921165621319 0.486216255723644  C 18.6420505565185 1.00961057534659  20.3688048130199 2.27941070730137  21.42953167056 3.97020192243114  C 21.4983694017278 3.96838142044983  22.4410887201232 5.62640359991625  22.5108204477997 5.62640359991625  C 26.9678400417876 5.62640359991625  29.0405709471453 8.07224801178902  29.0405709471453 12.3008189888471  C 29.0405709471453 15.2404745631467  27.9588351716513 17.1128608509109  25.3984291708126 18.3976801242113  C 24.9067310910426 22.1802281158516  21.5104383545949 25.1071401762821  17.390902442631 25.1071401762821  C 14.884583230567 25.1071401762821  12.6442279798332 24.023486371915  11.1624287667081 22.3231375213834  C 10.9130037407885 22.3445284196636  10.6653667078861 22.3559065570467  10.4101307046601 22.3559065570467  C 5.95132311765483 22.3559065570467  2.45087978794677 20.2036180896581  2.45087978794677 15.9764124890861  C 2.45087978794677 13.1282371393466  3.70247490008859 11.7255403627571  5.98037800418667 10.0342940221321  C 5.91824524683392 9.66700774740535  5.6670322278969 6.44562949149997  6.51141193033827 5.58680768182302  C 8.51575210278252 3.54420445880758  9.42628754686568 1.78969567433241  11.2196445432632 0.882175436655768  C 7.69774529734698 2.17154596490949  5.19813105909803 5.41158436612317  5.19813105909803 9.2073309971278  C 5.19813105909803 9.27104856647319  5.20081304862405 9.33249050834199  5.20349503815007 9.39757345417336  C 2.36326813009681 10.9327117499022  0.44475162248514 13.8286752766507  0.44475162248514 17.1533670199947  C 0.44475162248514 22.0796453813849  4.65592217658801 26.0756472303322  9.85004189197655 26.0756472303322  C 10.1455077380929 26.0756472303322  10.4369505999202 26.0610832144818  10.7257114722215 26.034685935753  C 12.4506777357055 28.0167574678903  15.0611475410299 29.2820063448919  17.982281133118 29.2820063448919  C 22.7825953864362 29.2820063448919  26.7407649285847 25.8685651299597  27.3133696923896 21.4593093312579  C 30.2993180313565 19.9642220791176  32.3336070868413 16.9936179711359  32.3336070868413 13.5665229913439  Z " stroke-width="2" stroke="#797979" fill="none" transform="matrix(1 0 0 1 365 358 )" mask="url(#clip193)" />
  </g>
</svg>