<?xml version="1.0" encoding="utf-8"?>
<svg version="1.1" xmlns:xlink="http://www.w3.org/1999/xlink" width="14px" height="24px" xmlns="http://www.w3.org/2000/svg">
  <defs>
    <mask fill="white" id="clip194">
      <path d="M 13.8204693876745 0.932575844372357  C 7.02879597182332 4.92493668935711  0.117652113449518 3.11581284544302  0.117652113449518 3.11581284544302  C 0.117652113449518 3.11581284544302  4.93894819391823 4.08659552696975  4.93894819391823 8.94005380910804  C 4.93894819391823 8.94005380910804  6.23719366933078 17.1819214039357  1.21943508338041 23.0157200030026  L 12.8054131093526 23.0157200030026  C 12.6903674980345 22.8527850756765  2.68582414456555 9.10480923841544  13.8204693876745 0.932575844372357  Z " fill-rule="evenodd" />
    </mask>
  </defs>
  <g transform="matrix(1 0 0 1 -374 -374 )">
    <path d="M 13.8204693876745 0.932575844372357  C 7.02879597182332 4.92493668935711  0.117652113449518 3.11581284544302  0.117652113449518 3.11581284544302  C 0.117652113449518 3.11581284544302  4.93894819391823 4.08659552696975  4.93894819391823 8.94005380910804  C 4.93894819391823 8.94005380910804  6.23719366933078 17.1819214039357  1.21943508338041 23.0157200030026  L 12.8054131093526 23.0157200030026  C 12.6903674980345 22.8527850756765  2.68582414456555 9.10480923841544  13.8204693876745 0.932575844372357  Z " fill-rule="nonzero" fill="#ede3da" stroke="none" transform="matrix(1 0 0 1 374 374 )" />
    <path d="M 13.8204693876745 0.932575844372357  C 7.02879597182332 4.92493668935711  0.117652113449518 3.11581284544302  0.117652113449518 3.11581284544302  C 0.117652113449518 3.11581284544302  4.93894819391823 4.08659552696975  4.93894819391823 8.94005380910804  C 4.93894819391823 8.94005380910804  6.23719366933078 17.1819214039357  1.21943508338041 23.0157200030026  L 12.8054131093526 23.0157200030026  C 12.6903674980345 22.8527850756765  2.68582414456555 9.10480923841544  13.8204693876745 0.932575844372357  Z " stroke-width="2" stroke="#797979" fill="none" transform="matrix(1 0 0 1 374 374 )" mask="url(#clip194)" />
  </g>
</svg>