<?xml version="1.0" encoding="utf-8"?>
<svg version="1.1" xmlns:xlink="http://www.w3.org/1999/xlink" width="16px" height="24px" xmlns="http://www.w3.org/2000/svg">
  <defs>
    <mask fill="white" id="clip195">
      <path d="M 14.9656212062293 23.6897608615778  L 13.6869352907944 23.698408245989  L 0.894007796507432 23.698408245989  L 1.85063824239384 22.5633252606502  C 6.50765569169312 17.0358261199366  5.3516369335694 9.1284757641723  5.33950025369409 9.0497390534812  L 5.3308311966403 8.94050893460336  C 5.3308311966403 5.10289075802891  1.94903203995442 4.00103193384877  1.24510460718618 3.81397535527049  C 1.14757771533097 3.79121908050426  1.09729718441895 3.77756531564454  1.09729718441895 3.77756531564454  L 1.38250916148883 2.44632324182096  C 1.38250916148883 2.44632324182096  1.43972493804389 2.45724625370874  1.54245326413138 2.4845537834282  C 1.92215796308765 2.57102762753982  3.25675929651957 2.8422824227531  5.10803643035773 2.8422824227531  C 7.42614228654281 2.8422824227531  10.9119701278742 2.40809270021372  14.3583537596109 0.340002449460127  L 15.0583801167049 1.48828407416332  C 12.3731396942916 3.50039388899203  10.7802004606565 6.04226978037824  10.3233411539215 9.0442775475373  C 9.34937259392749 15.4483483922455  13.704273404902 21.8892844020749  14.2036110912006 22.6024660532481  L 14.9656212062293 23.6897608615778  Z M 6.63075630185702 8.88634900065979  C 6.73911951502948 9.64322269938409  7.60602522040909 16.6648988412473  3.69107905491475 22.3330317600161  L 12.4606971705349 22.3330317600161  C 11.0428728893866 19.9932315885539  8.18641859016074 14.4384249181209  9.03945380425427 8.8285480627536  C 9.3580416509813 6.73269515678522  10.1616632398682 4.84164872371277  11.4381818910397 3.17497915983519  C 9.02124878444131 3.9955704279049  6.77943063032962 4.20765890872602  5.10803643035773 4.20765890872602  C 4.95892864903244 4.20765890872602  4.81285503767596 4.20583840674473  4.67068250199371 4.20265252827745  C 5.71833804694498 5.18071721772937  6.61645235771826 6.66579170897255  6.63075630185702 8.88634900065979  Z " fill-rule="evenodd" />
    </mask>
  </defs>
  <g transform="matrix(1 0 0 1 -373 -374 )">
    <path d="M 14.9656212062293 23.6897608615778  L 13.6869352907944 23.698408245989  L 0.894007796507432 23.698408245989  L 1.85063824239384 22.5633252606502  C 6.50765569169312 17.0358261199366  5.3516369335694 9.1284757641723  5.33950025369409 9.0497390534812  L 5.3308311966403 8.94050893460336  C 5.3308311966403 5.10289075802891  1.94903203995442 4.00103193384877  1.24510460718618 3.81397535527049  C 1.14757771533097 3.79121908050426  1.09729718441895 3.77756531564454  1.09729718441895 3.77756531564454  L 1.38250916148883 2.44632324182096  C 1.38250916148883 2.44632324182096  1.43972493804389 2.45724625370874  1.54245326413138 2.4845537834282  C 1.92215796308765 2.57102762753982  3.25675929651957 2.8422824227531  5.10803643035773 2.8422824227531  C 7.42614228654281 2.8422824227531  10.9119701278742 2.40809270021372  14.3583537596109 0.340002449460127  L 15.0583801167049 1.48828407416332  C 12.3731396942916 3.50039388899203  10.7802004606565 6.04226978037824  10.3233411539215 9.0442775475373  C 9.34937259392749 15.4483483922455  13.704273404902 21.8892844020749  14.2036110912006 22.6024660532481  L 14.9656212062293 23.6897608615778  Z M 6.63075630185702 8.88634900065979  C 6.73911951502948 9.64322269938409  7.60602522040909 16.6648988412473  3.69107905491475 22.3330317600161  L 12.4606971705349 22.3330317600161  C 11.0428728893866 19.9932315885539  8.18641859016074 14.4384249181209  9.03945380425427 8.8285480627536  C 9.3580416509813 6.73269515678522  10.1616632398682 4.84164872371277  11.4381818910397 3.17497915983519  C 9.02124878444131 3.9955704279049  6.77943063032962 4.20765890872602  5.10803643035773 4.20765890872602  C 4.95892864903244 4.20765890872602  4.81285503767596 4.20583840674473  4.67068250199371 4.20265252827745  C 5.71833804694498 5.18071721772937  6.61645235771826 6.66579170897255  6.63075630185702 8.88634900065979  Z " fill-rule="nonzero" fill="#ccccde" stroke="none" transform="matrix(1 0 0 1 373 374 )" />
    <path d="M 14.9656212062293 23.6897608615778  L 13.6869352907944 23.698408245989  L 0.894007796507432 23.698408245989  L 1.85063824239384 22.5633252606502  C 6.50765569169312 17.0358261199366  5.3516369335694 9.1284757641723  5.33950025369409 9.0497390534812  L 5.3308311966403 8.94050893460336  C 5.3308311966403 5.10289075802891  1.94903203995442 4.00103193384877  1.24510460718618 3.81397535527049  C 1.14757771533097 3.79121908050426  1.09729718441895 3.77756531564454  1.09729718441895 3.77756531564454  L 1.38250916148883 2.44632324182096  C 1.38250916148883 2.44632324182096  1.43972493804389 2.45724625370874  1.54245326413138 2.4845537834282  C 1.92215796308765 2.57102762753982  3.25675929651957 2.8422824227531  5.10803643035773 2.8422824227531  C 7.42614228654281 2.8422824227531  10.9119701278742 2.40809270021372  14.3583537596109 0.340002449460127  L 15.0583801167049 1.48828407416332  C 12.3731396942916 3.50039388899203  10.7802004606565 6.04226978037824  10.3233411539215 9.0442775475373  C 9.34937259392749 15.4483483922455  13.704273404902 21.8892844020749  14.2036110912006 22.6024660532481  L 14.9656212062293 23.6897608615778  Z " stroke-width="2" stroke="#797979" fill="none" transform="matrix(1 0 0 1 373 374 )" mask="url(#clip195)" />
    <path d="M 6.63075630185702 8.88634900065979  C 6.73911951502948 9.64322269938409  7.60602522040909 16.6648988412473  3.69107905491475 22.3330317600161  L 12.4606971705349 22.3330317600161  C 11.0428728893866 19.9932315885539  8.18641859016074 14.4384249181209  9.03945380425427 8.8285480627536  C 9.3580416509813 6.73269515678522  10.1616632398682 4.84164872371277  11.4381818910397 3.17497915983519  C 9.02124878444131 3.9955704279049  6.77943063032962 4.20765890872602  5.10803643035773 4.20765890872602  C 4.95892864903244 4.20765890872602  4.81285503767596 4.20583840674473  4.67068250199371 4.20265252827745  C 5.71833804694498 5.18071721772937  6.61645235771826 6.66579170897255  6.63075630185702 8.88634900065979  Z " stroke-width="2" stroke="#797979" fill="none" transform="matrix(1 0 0 1 373 374 )" mask="url(#clip195)" />
  </g>
</svg>