<?xml version="1.0" encoding="utf-8"?>
<svg version="1.1" xmlns:xlink="http://www.w3.org/1999/xlink" width="6px" height="21px" xmlns="http://www.w3.org/2000/svg">
  <defs>
    <mask fill="white" id="clip196">
      <path d="M 5.97173718082942 20.0430611140303  C 5.97082692983877 20.0430611140303  -1.66435837972164 9.66860187186164  4.04246020614974 0.683539627919114  C 4.04246020614974 0.683539627919114  -3.48121935705622 10.1283418340135  2.30206031202962 20.0430611140303  L 5.97173718082942 20.0430611140303  Z " fill-rule="evenodd" />
    </mask>
  </defs>
  <g transform="matrix(1 0 0 1 -381 -376 )">
    <path d="M 5.97173718082942 20.0430611140303  C 5.97082692983877 20.0430611140303  -1.66435837972164 9.66860187186164  4.04246020614974 0.683539627919114  C 4.04246020614974 0.683539627919114  -3.48121935705622 10.1283418340135  2.30206031202962 20.0430611140303  L 5.97173718082942 20.0430611140303  Z " fill-rule="nonzero" fill="#6e6e96" stroke="none" transform="matrix(1 0 0 1 381 376 )" />
    <path d="M 5.97173718082942 20.0430611140303  C 5.97082692983877 20.0430611140303  -1.66435837972164 9.66860187186164  4.04246020614974 0.683539627919114  C 4.04246020614974 0.683539627919114  -3.48121935705622 10.1283418340135  2.30206031202962 20.0430611140303  L 5.97173718082942 20.0430611140303  Z " stroke-width="2" stroke="#797979" fill="none" transform="matrix(1 0 0 1 381 376 )" mask="url(#clip196)" />
  </g>
</svg>