<?xml version="1.0" encoding="utf-8"?>
<svg version="1.1" xmlns:xlink="http://www.w3.org/1999/xlink" width="51px" height="46px" xmlns="http://www.w3.org/2000/svg">
  <defs>
    <mask fill="white" id="clip198">
      <path d="M 42.4607732159077 33.8699312358134  C 41.3806518060099 40.7527902116413  35.130278909825 45.8995010212669  27.7694515238551 45.8995010212669  C 23.4441301758763 45.8995010212669  19.3720241034778 44.1266705181338  16.5431346966028 41.0247763196163  C 16.1861714956109 41.0502750172389  15.8336043931534 41.0628006932641  15.4915879271785 41.0628006932641  C 7.29813947879654 41.0628006932641  0.632774880965928 34.7216772055246  0.632774880965928 26.9275752988661  C 0.632774880965928 21.9875381436557  3.37154426788617 17.390167696848  7.8080869087849 14.8335877509975  C 7.86699462914563 7.08779916615029  14.5103787343043 0.803488566096382  22.6668999549975 0.803488566096382  C 27.7377996144076 0.803488566096382  32.5132814523072 3.31533395471417  35.2247950283143 7.38394193503096  C 35.2296307367021 7.38394193503096  35.2340268352365 7.38394193503096  35.2388625436243 7.38394193503096  C 43.4318713821528 7.38394193503096  50.0972359799834 13.7241707316258  50.0972359799834 21.517825292712  C 50.0972359799834 26.6694569036332  47.1804246024207 31.3710588687931  42.4607732159077 33.8699312358134  Z M 16.7554662558134 39.6608196695903  L 17.0864924754524 39.6312948618167  L 17.3076162317318 39.884492455754  C 19.8929617798021 42.8544197104349  23.7065772583789 44.557464304285  27.7694515238551 44.557464304285  C 34.5970321576044 44.557464304285  40.372626412076 39.7350790345967  41.2043682547812 33.3402740781779  L 41.2505272893922 32.9841870026054  L 41.5670463838677 32.8258266700015  C 46.0154584908093 30.5989404109562  48.7788460295221 26.265951197394  48.7788460295221 21.5173779471397  C 48.7788460295221 14.4636329626828  42.7051962944194 8.72553130644054  35.2393021534777 8.72553130644054  C 35.1606119897123 8.72553130644054  35.0832406555071 8.7282153798745  35.0054297114486 8.73045210773614  L 34.5201004332527 8.7429777837613  L 34.3200779499383 8.42402039069195  C 31.8885958505714 4.55090242548217  27.4234785691992 2.14463059193363  22.6673395648509 2.14463059193363  C 15.2014454239092 2.14463059193363  9.12691646909959 7.88317959374823  9.12691646909959 14.9369245782051  C 9.12691646909959 14.9852379000165  9.12867490851334 15.0339985674001  9.13087295778053 15.0823118892115  L 9.14318203367681 15.6249420684445  L 8.78490000312464 15.8190900468345  C 4.57036033821222 18.0969737011251  1.95204405113406 22.3530194762471  1.95204405113406 26.9271279532937  C 1.95204405113406 33.9813202833229  8.02613339609025 39.7203166307099  15.4920275370319 39.7203166307099  C 15.8991062613157 39.7203166307099  16.3242089895905 39.7001860799551  16.7554662558134 39.6608196695903  Z " fill-rule="evenodd" />
    </mask>
  </defs>
  <g transform="matrix(1 0 0 1 -331 -351 )">
    <path d="M 42.4607732159077 33.8699312358134  C 41.3806518060099 40.7527902116413  35.130278909825 45.8995010212669  27.7694515238551 45.8995010212669  C 23.4441301758763 45.8995010212669  19.3720241034778 44.1266705181338  16.5431346966028 41.0247763196163  C 16.1861714956109 41.0502750172389  15.8336043931534 41.0628006932641  15.4915879271785 41.0628006932641  C 7.29813947879654 41.0628006932641  0.632774880965928 34.7216772055246  0.632774880965928 26.9275752988661  C 0.632774880965928 21.9875381436557  3.37154426788617 17.390167696848  7.8080869087849 14.8335877509975  C 7.86699462914563 7.08779916615029  14.5103787343043 0.803488566096382  22.6668999549975 0.803488566096382  C 27.7377996144076 0.803488566096382  32.5132814523072 3.31533395471417  35.2247950283143 7.38394193503096  C 35.2296307367021 7.38394193503096  35.2340268352365 7.38394193503096  35.2388625436243 7.38394193503096  C 43.4318713821528 7.38394193503096  50.0972359799834 13.7241707316258  50.0972359799834 21.517825292712  C 50.0972359799834 26.6694569036332  47.1804246024207 31.3710588687931  42.4607732159077 33.8699312358134  Z M 16.7554662558134 39.6608196695903  L 17.0864924754524 39.6312948618167  L 17.3076162317318 39.884492455754  C 19.8929617798021 42.8544197104349  23.7065772583789 44.557464304285  27.7694515238551 44.557464304285  C 34.5970321576044 44.557464304285  40.372626412076 39.7350790345967  41.2043682547812 33.3402740781779  L 41.2505272893922 32.9841870026054  L 41.5670463838677 32.8258266700015  C 46.0154584908093 30.5989404109562  48.7788460295221 26.265951197394  48.7788460295221 21.5173779471397  C 48.7788460295221 14.4636329626828  42.7051962944194 8.72553130644054  35.2393021534777 8.72553130644054  C 35.1606119897123 8.72553130644054  35.0832406555071 8.7282153798745  35.0054297114486 8.73045210773614  L 34.5201004332527 8.7429777837613  L 34.3200779499383 8.42402039069195  C 31.8885958505714 4.55090242548217  27.4234785691992 2.14463059193363  22.6673395648509 2.14463059193363  C 15.2014454239092 2.14463059193363  9.12691646909959 7.88317959374823  9.12691646909959 14.9369245782051  C 9.12691646909959 14.9852379000165  9.12867490851334 15.0339985674001  9.13087295778053 15.0823118892115  L 9.14318203367681 15.6249420684445  L 8.78490000312464 15.8190900468345  C 4.57036033821222 18.0969737011251  1.95204405113406 22.3530194762471  1.95204405113406 26.9271279532937  C 1.95204405113406 33.9813202833229  8.02613339609025 39.7203166307099  15.4920275370319 39.7203166307099  C 15.8991062613157 39.7203166307099  16.3242089895905 39.7001860799551  16.7554662558134 39.6608196695903  Z " fill-rule="nonzero" fill="#ccccde" stroke="none" transform="matrix(1 0 0 1 331 351 )" />
    <path d="M 42.4607732159077 33.8699312358134  C 41.3806518060099 40.7527902116413  35.130278909825 45.8995010212669  27.7694515238551 45.8995010212669  C 23.4441301758763 45.8995010212669  19.3720241034778 44.1266705181338  16.5431346966028 41.0247763196163  C 16.1861714956109 41.0502750172389  15.8336043931534 41.0628006932641  15.4915879271785 41.0628006932641  C 7.29813947879654 41.0628006932641  0.632774880965928 34.7216772055246  0.632774880965928 26.9275752988661  C 0.632774880965928 21.9875381436557  3.37154426788617 17.390167696848  7.8080869087849 14.8335877509975  C 7.86699462914563 7.08779916615029  14.5103787343043 0.803488566096382  22.6668999549975 0.803488566096382  C 27.7377996144076 0.803488566096382  32.5132814523072 3.31533395471417  35.2247950283143 7.38394193503096  C 35.2296307367021 7.38394193503096  35.2340268352365 7.38394193503096  35.2388625436243 7.38394193503096  C 43.4318713821528 7.38394193503096  50.0972359799834 13.7241707316258  50.0972359799834 21.517825292712  C 50.0972359799834 26.6694569036332  47.1804246024207 31.3710588687931  42.4607732159077 33.8699312358134  Z " stroke-width="2" stroke="#797979" fill="none" transform="matrix(1 0 0 1 331 351 )" mask="url(#clip198)" />
    <path d="M 16.7554662558134 39.6608196695903  L 17.0864924754524 39.6312948618167  L 17.3076162317318 39.884492455754  C 19.8929617798021 42.8544197104349  23.7065772583789 44.557464304285  27.7694515238551 44.557464304285  C 34.5970321576044 44.557464304285  40.372626412076 39.7350790345967  41.2043682547812 33.3402740781779  L 41.2505272893922 32.9841870026054  L 41.5670463838677 32.8258266700015  C 46.0154584908093 30.5989404109562  48.7788460295221 26.265951197394  48.7788460295221 21.5173779471397  C 48.7788460295221 14.4636329626828  42.7051962944194 8.72553130644054  35.2393021534777 8.72553130644054  C 35.1606119897123 8.72553130644054  35.0832406555071 8.7282153798745  35.0054297114486 8.73045210773614  L 34.5201004332527 8.7429777837613  L 34.3200779499383 8.42402039069195  C 31.8885958505714 4.55090242548217  27.4234785691992 2.14463059193363  22.6673395648509 2.14463059193363  C 15.2014454239092 2.14463059193363  9.12691646909959 7.88317959374823  9.12691646909959 14.9369245782051  C 9.12691646909959 14.9852379000165  9.12867490851334 15.0339985674001  9.13087295778053 15.0823118892115  L 9.14318203367681 15.6249420684445  L 8.78490000312464 15.8190900468345  C 4.57036033821222 18.0969737011251  1.95204405113406 22.3530194762471  1.95204405113406 26.9271279532937  C 1.95204405113406 33.9813202833229  8.02613339609025 39.7203166307099  15.4920275370319 39.7203166307099  C 15.8991062613157 39.7203166307099  16.3242089895905 39.7001860799551  16.7554662558134 39.6608196695903  Z " stroke-width="2" stroke="#797979" fill="none" transform="matrix(1 0 0 1 331 351 )" mask="url(#clip198)" />
  </g>
</svg>