<?xml version="1.0" encoding="utf-8"?>
<svg version="1.1" xmlns:xlink="http://www.w3.org/1999/xlink" width="50px" height="44px" xmlns="http://www.w3.org/2000/svg">
  <defs>
    <mask fill="white" id="clip199">
      <path d="M 49.357037388078 20.0167221034093  C 49.357037388078 12.5197801379962  42.9795472835386 6.44311673407309  35.1123150053505 6.44311673407309  C 34.9905953961358 6.44311673407309  34.8688757869212 6.44852903726073  34.7475971907835 6.45168621412019  C 32.7559821356628 3.26248656080316  29.4329486014878 0.918057230023638  25.5088142435463 0.113879181393418  C 28.6139873177502 0.910389800507816  31.2291948635574 2.84213101322976  32.8358055025753 5.41387707789016  C 32.9403256017922 5.41117092629634  34.367884931603 7.93330421173672  34.4732870569737 7.93330421173672  C 41.2243152376174 7.93330421173672  44.3647693579704 11.6533606027081  44.3647693579704 18.0863339664843  C 44.3647693579704 22.5577984500064  42.7264057774183 25.4069250530334  38.8463727271633 27.3603154785059  C 38.1023836664927 33.1126917164362  32.9575251117899 37.5692723661924  26.718513113386 37.5692723661924  C 22.9213905215816 37.5692723661924  19.5291179343388 35.9207750202903  17.2865664384822 33.33143897027  C 16.9112643100704 33.3634617641302  16.5324340770437 33.3828558505526  16.1487527001715 33.3828558505526  C 9.39684249337398 33.3828558505526  4.09498328330743 30.1111185736241  4.09498328330743 23.6785962351136  C 4.09498328330743 19.3469495839388  5.9904574876716 17.2122470016804  9.44006177490672 14.64050093702  C 9.34789004184201 14.0839357592243  8.96509069112352 9.18129112175345  10.2427055748003 7.87421990193832  C 13.2812856743976 4.76665582170153  14.6576874872921 2.09748829966359  17.3756510800089 0.717350986815327  C 12.0411569022543 2.67885986706929  8.25594166352519 7.60766396994704  8.25594166352519 13.3821404458936  C 8.25594166352519 13.4791108780055  8.2607928073707 13.5756302848517  8.26343888583189 13.6735027674949  C 3.96091530794057 16.0089115929617  1.05728520986386 20.4149774129665  1.05728520986386 25.4705196154882  C 1.05728520986386 32.9670105556356  7.43477531440326 39.0450270353556  15.3020075925914 39.0450270353556  C 15.7505178917627 39.0450270353556  16.1915309686273 39.0229267973394  16.6285749278002 38.9836875992291  C 19.2415774082231 42.0001445758072  23.1952596423145 43.9219632326852  27.6195028294204 43.9219632326852  C 34.8904854276876 43.9219632326852  40.8842941553547 38.7279562736131  41.7522078906243 32.0243677504549  C 46.2743559807942 29.7498473358491  49.357037388078 25.22741699731  49.357037388078 20.0167221034093  Z " fill-rule="evenodd" />
    </mask>
  </defs>
  <g transform="matrix(1 0 0 1 -331 -352 )">
    <path d="M 49.357037388078 20.0167221034093  C 49.357037388078 12.5197801379962  42.9795472835386 6.44311673407309  35.1123150053505 6.44311673407309  C 34.9905953961358 6.44311673407309  34.8688757869212 6.44852903726073  34.7475971907835 6.45168621412019  C 32.7559821356628 3.26248656080316  29.4329486014878 0.918057230023638  25.5088142435463 0.113879181393418  C 28.6139873177502 0.910389800507816  31.2291948635574 2.84213101322976  32.8358055025753 5.41387707789016  C 32.9403256017922 5.41117092629634  34.367884931603 7.93330421173672  34.4732870569737 7.93330421173672  C 41.2243152376174 7.93330421173672  44.3647693579704 11.6533606027081  44.3647693579704 18.0863339664843  C 44.3647693579704 22.5577984500064  42.7264057774183 25.4069250530334  38.8463727271633 27.3603154785059  C 38.1023836664927 33.1126917164362  32.9575251117899 37.5692723661924  26.718513113386 37.5692723661924  C 22.9213905215816 37.5692723661924  19.5291179343388 35.9207750202903  17.2865664384822 33.33143897027  C 16.9112643100704 33.3634617641302  16.5324340770437 33.3828558505526  16.1487527001715 33.3828558505526  C 9.39684249337398 33.3828558505526  4.09498328330743 30.1111185736241  4.09498328330743 23.6785962351136  C 4.09498328330743 19.3469495839388  5.9904574876716 17.2122470016804  9.44006177490672 14.64050093702  C 9.34789004184201 14.0839357592243  8.96509069112352 9.18129112175345  10.2427055748003 7.87421990193832  C 13.2812856743976 4.76665582170153  14.6576874872921 2.09748829966359  17.3756510800089 0.717350986815327  C 12.0411569022543 2.67885986706929  8.25594166352519 7.60766396994704  8.25594166352519 13.3821404458936  C 8.25594166352519 13.4791108780055  8.2607928073707 13.5756302848517  8.26343888583189 13.6735027674949  C 3.96091530794057 16.0089115929617  1.05728520986386 20.4149774129665  1.05728520986386 25.4705196154882  C 1.05728520986386 32.9670105556356  7.43477531440326 39.0450270353556  15.3020075925914 39.0450270353556  C 15.7505178917627 39.0450270353556  16.1915309686273 39.0229267973394  16.6285749278002 38.9836875992291  C 19.2415774082231 42.0001445758072  23.1952596423145 43.9219632326852  27.6195028294204 43.9219632326852  C 34.8904854276876 43.9219632326852  40.8842941553547 38.7279562736131  41.7522078906243 32.0243677504549  C 46.2743559807942 29.7498473358491  49.357037388078 25.22741699731  49.357037388078 20.0167221034093  Z " fill-rule="nonzero" fill="#6e6e96" stroke="none" transform="matrix(1 0 0 1 331 352 )" />
    <path d="M 49.357037388078 20.0167221034093  C 49.357037388078 12.5197801379962  42.9795472835386 6.44311673407309  35.1123150053505 6.44311673407309  C 34.9905953961358 6.44311673407309  34.8688757869212 6.44852903726073  34.7475971907835 6.45168621412019  C 32.7559821356628 3.26248656080316  29.4329486014878 0.918057230023638  25.5088142435463 0.113879181393418  C 28.6139873177502 0.910389800507816  31.2291948635574 2.84213101322976  32.8358055025753 5.41387707789016  C 32.9403256017922 5.41117092629634  34.367884931603 7.93330421173672  34.4732870569737 7.93330421173672  C 41.2243152376174 7.93330421173672  44.3647693579704 11.6533606027081  44.3647693579704 18.0863339664843  C 44.3647693579704 22.5577984500064  42.7264057774183 25.4069250530334  38.8463727271633 27.3603154785059  C 38.1023836664927 33.1126917164362  32.9575251117899 37.5692723661924  26.718513113386 37.5692723661924  C 22.9213905215816 37.5692723661924  19.5291179343388 35.9207750202903  17.2865664384822 33.33143897027  C 16.9112643100704 33.3634617641302  16.5324340770437 33.3828558505526  16.1487527001715 33.3828558505526  C 9.39684249337398 33.3828558505526  4.09498328330743 30.1111185736241  4.09498328330743 23.6785962351136  C 4.09498328330743 19.3469495839388  5.9904574876716 17.2122470016804  9.44006177490672 14.64050093702  C 9.34789004184201 14.0839357592243  8.96509069112352 9.18129112175345  10.2427055748003 7.87421990193832  C 13.2812856743976 4.76665582170153  14.6576874872921 2.09748829966359  17.3756510800089 0.717350986815327  C 12.0411569022543 2.67885986706929  8.25594166352519 7.60766396994704  8.25594166352519 13.3821404458936  C 8.25594166352519 13.4791108780055  8.2607928073707 13.5756302848517  8.26343888583189 13.6735027674949  C 3.96091530794057 16.0089115929617  1.05728520986386 20.4149774129665  1.05728520986386 25.4705196154882  C 1.05728520986386 32.9670105556356  7.43477531440326 39.0450270353556  15.3020075925914 39.0450270353556  C 15.7505178917627 39.0450270353556  16.1915309686273 39.0229267973394  16.6285749278002 38.9836875992291  C 19.2415774082231 42.0001445758072  23.1952596423145 43.9219632326852  27.6195028294204 43.9219632326852  C 34.8904854276876 43.9219632326852  40.8842941553547 38.7279562736131  41.7522078906243 32.0243677504549  C 46.2743559807942 29.7498473358491  49.357037388078 25.22741699731  49.357037388078 20.0167221034093  Z " stroke-width="2" stroke="#797979" fill="none" transform="matrix(1 0 0 1 331 352 )" mask="url(#clip199)" />
  </g>
</svg>