<?xml version="1.0" encoding="utf-8"?>
<svg version="1.1" xmlns:xlink="http://www.w3.org/1999/xlink" width="42px" height="38px" xmlns="http://www.w3.org/2000/svg">
  <defs>
    <mask fill="white" id="clip204">
      <path d="M 35.649585962223 27.7052213008214  C 34.7216988586306 33.421502704283  29.5220797101735 37.6884464496656  23.4020956711718 37.6884464496656  C 19.8140000474089 37.6884464496656  16.4338714902594 36.2255972534441  14.0749939751182 33.6629088524279  C 13.7869374637025 33.6804738520131  13.516580277105 33.6894815441081  13.256400202278 33.6894815441081  C 6.4204784743814 33.6894815441081  0.858908133392846 28.3943097460858  0.858908133392846 21.8862522074772  C 0.858908133392846 17.7791949967801  3.12043936203415 13.9576816254934  6.78862443059928 11.8183547529404  C 6.87712105469012 5.38190836648666  12.4041777122832 0.172309643366521  19.1852315332435 0.172309643366521  C 23.3928035256423 0.172309643366521  27.3570098017913 2.24678113283581  29.6256207603598 5.61115413030338  C 36.4380908828723 5.63772682198352  41.9717847872723 10.9225397740966  41.9717847872723 17.4143834669343  C 41.9717847872723 21.6979914426925  39.5584818483152 25.6095817349289  35.649585962223 27.7052213008214  Z M 14.2966780184658 32.293739653994  L 14.6263279432041 32.2662661931044  L 14.8457995709494 32.5184815717633  C 16.9604264035999 34.9456042067502  20.0794899196814 36.3372926354216  23.4025381542923 36.3372926354216  C 28.9853476850626 36.3372926354216  33.7070850634292 32.3973281130861  34.3854116870854 27.1724163134045  L 34.4318724147331 26.8143605526298  L 34.7504602614601 26.654924402549  C 38.3859015791116 24.8331186763434  40.6443354259098 21.2921949138146  40.6443354259098 17.4139330823295  C 40.6443354259098 11.6503612953694  35.6783473650525 6.96185755994266  29.5747352015076 6.96185755994266  C 29.5105751490417 6.96185755994266  29.4477425459372 6.9641094829664  29.3849099428327 6.96591102138539  L 28.9163203182718 6.97852179031834  L 28.7145480153447 6.65784795173774  C 26.7269138382645 3.49119379575454  23.0755431282766 1.52391384221526  19.1852315332435 1.52391384221526  C 13.0811768865781 1.52391384221526  8.11518882572091 6.21286796224672  8.11518882572091 11.9759893646022  L 8.12846331933453 12.6168866571586  L 7.76916702552574 12.8114528064097  C 4.32532089903088 14.6715412240189  2.18635749475538 18.149411141883  2.18635749475538 21.8871529766867  C 2.18635749475538 27.6507247636469  7.15234555561261 32.3392284990736  13.256400202278 32.3392284990736  C 13.5772004646073 32.3392284990736  13.9174699842365 32.3243658071169  14.2966780184658 32.293739653994  Z " fill-rule="evenodd" />
    </mask>
  </defs>
  <g transform="matrix(1 0 0 1 -308 -356 )">
    <path d="M 35.649585962223 27.7052213008214  C 34.7216988586306 33.421502704283  29.5220797101735 37.6884464496656  23.4020956711718 37.6884464496656  C 19.8140000474089 37.6884464496656  16.4338714902594 36.2255972534441  14.0749939751182 33.6629088524279  C 13.7869374637025 33.6804738520131  13.516580277105 33.6894815441081  13.256400202278 33.6894815441081  C 6.4204784743814 33.6894815441081  0.858908133392846 28.3943097460858  0.858908133392846 21.8862522074772  C 0.858908133392846 17.7791949967801  3.12043936203415 13.9576816254934  6.78862443059928 11.8183547529404  C 6.87712105469012 5.38190836648666  12.4041777122832 0.172309643366521  19.1852315332435 0.172309643366521  C 23.3928035256423 0.172309643366521  27.3570098017913 2.24678113283581  29.6256207603598 5.61115413030338  C 36.4380908828723 5.63772682198352  41.9717847872723 10.9225397740966  41.9717847872723 17.4143834669343  C 41.9717847872723 21.6979914426925  39.5584818483152 25.6095817349289  35.649585962223 27.7052213008214  Z M 14.2966780184658 32.293739653994  L 14.6263279432041 32.2662661931044  L 14.8457995709494 32.5184815717633  C 16.9604264035999 34.9456042067502  20.0794899196814 36.3372926354216  23.4025381542923 36.3372926354216  C 28.9853476850626 36.3372926354216  33.7070850634292 32.3973281130861  34.3854116870854 27.1724163134045  L 34.4318724147331 26.8143605526298  L 34.7504602614601 26.654924402549  C 38.3859015791116 24.8331186763434  40.6443354259098 21.2921949138146  40.6443354259098 17.4139330823295  C 40.6443354259098 11.6503612953694  35.6783473650525 6.96185755994266  29.5747352015076 6.96185755994266  C 29.5105751490417 6.96185755994266  29.4477425459372 6.9641094829664  29.3849099428327 6.96591102138539  L 28.9163203182718 6.97852179031834  L 28.7145480153447 6.65784795173774  C 26.7269138382645 3.49119379575454  23.0755431282766 1.52391384221526  19.1852315332435 1.52391384221526  C 13.0811768865781 1.52391384221526  8.11518882572091 6.21286796224672  8.11518882572091 11.9759893646022  L 8.12846331933453 12.6168866571586  L 7.76916702552574 12.8114528064097  C 4.32532089903088 14.6715412240189  2.18635749475538 18.149411141883  2.18635749475538 21.8871529766867  C 2.18635749475538 27.6507247636469  7.15234555561261 32.3392284990736  13.256400202278 32.3392284990736  C 13.5772004646073 32.3392284990736  13.9174699842365 32.3243658071169  14.2966780184658 32.293739653994  Z " fill-rule="nonzero" fill="#ccccde" stroke="none" transform="matrix(1 0 0 1 308 356 )" />
    <path d="M 35.649585962223 27.7052213008214  C 34.7216988586306 33.421502704283  29.5220797101735 37.6884464496656  23.4020956711718 37.6884464496656  C 19.8140000474089 37.6884464496656  16.4338714902594 36.2255972534441  14.0749939751182 33.6629088524279  C 13.7869374637025 33.6804738520131  13.516580277105 33.6894815441081  13.256400202278 33.6894815441081  C 6.4204784743814 33.6894815441081  0.858908133392846 28.3943097460858  0.858908133392846 21.8862522074772  C 0.858908133392846 17.7791949967801  3.12043936203415 13.9576816254934  6.78862443059928 11.8183547529404  C 6.87712105469012 5.38190836648666  12.4041777122832 0.172309643366521  19.1852315332435 0.172309643366521  C 23.3928035256423 0.172309643366521  27.3570098017913 2.24678113283581  29.6256207603598 5.61115413030338  C 36.4380908828723 5.63772682198352  41.9717847872723 10.9225397740966  41.9717847872723 17.4143834669343  C 41.9717847872723 21.6979914426925  39.5584818483152 25.6095817349289  35.649585962223 27.7052213008214  Z " stroke-width="2" stroke="#797979" fill="none" transform="matrix(1 0 0 1 308 356 )" mask="url(#clip204)" />
    <path d="M 14.2966780184658 32.293739653994  L 14.6263279432041 32.2662661931044  L 14.8457995709494 32.5184815717633  C 16.9604264035999 34.9456042067502  20.0794899196814 36.3372926354216  23.4025381542923 36.3372926354216  C 28.9853476850626 36.3372926354216  33.7070850634292 32.3973281130861  34.3854116870854 27.1724163134045  L 34.4318724147331 26.8143605526298  L 34.7504602614601 26.654924402549  C 38.3859015791116 24.8331186763434  40.6443354259098 21.2921949138146  40.6443354259098 17.4139330823295  C 40.6443354259098 11.6503612953694  35.6783473650525 6.96185755994266  29.5747352015076 6.96185755994266  C 29.5105751490417 6.96185755994266  29.4477425459372 6.9641094829664  29.3849099428327 6.96591102138539  L 28.9163203182718 6.97852179031834  L 28.7145480153447 6.65784795173774  C 26.7269138382645 3.49119379575454  23.0755431282766 1.52391384221526  19.1852315332435 1.52391384221526  C 13.0811768865781 1.52391384221526  8.11518882572091 6.21286796224672  8.11518882572091 11.9759893646022  L 8.12846331933453 12.6168866571586  L 7.76916702552574 12.8114528064097  C 4.32532089903088 14.6715412240189  2.18635749475538 18.149411141883  2.18635749475538 21.8871529766867  C 2.18635749475538 27.6507247636469  7.15234555561261 32.3392284990736  13.256400202278 32.3392284990736  C 13.5772004646073 32.3392284990736  13.9174699842365 32.3243658071169  14.2966780184658 32.293739653994  Z " stroke-width="2" stroke="#797979" fill="none" transform="matrix(1 0 0 1 308 356 )" mask="url(#clip204)" />
  </g>
</svg>