<?xml version="1.0" encoding="utf-8"?>
<svg version="1.1" xmlns:xlink="http://www.w3.org/1999/xlink" width="41px" height="37px" xmlns="http://www.w3.org/2000/svg">
  <defs>
    <mask fill="white" id="clip205">
      <path d="M 40.110192914739 17.1024609682606  C 40.107527179695 10.9243036530219  34.8324818167093 5.91632047757591  28.325866863376 5.91632047757591  C 28.2245689317024 5.91632047757591  28.1250481567248 5.92039458483244  28.0241945142252 5.9231106563368  C 26.3772145461811 3.29531147587366  23.6283974265994 1.36373195769342  20.3828650104779 0.700557832046815  C 22.9508564362387 1.35694177893253  25.113656135305 2.94855968048436  26.4434136331081 5.06754813246508  C 26.5296057328655 5.06528473954478  27.7100820682022 7.14353211896016  27.7976070354816 7.14353211896016  C 33.3809890852282 7.14353211896016  35.9787478856475 10.2086188116244  35.9787478856475 15.5090323523726  C 35.9787478856475 19.1933833480297  34.623665904926 21.5409744849602  31.415453779421 23.1506995298744  C 30.8005575625953 27.8911496621415  26.5456001431297 31.563278336029  21.3851813870378 31.563278336029  C 18.244501215982 31.563278336029  15.4388150821275 30.2034318695154  13.583907780648 28.0708630600129  C 13.2737939371911 28.0984764536405  12.9601257803421 28.1143202040826  12.6429033101011 28.1143202040826  C 7.05907697118047 28.1143202040826  2.67394282373086 25.4177138788425  2.67394282373086 20.1182056952625  C 2.67394282373086 16.5488350599564  4.24139502962775 14.7897260823026  7.09417581592702 12.6707376303219  C 7.01820236717181 12.2112688675019  6.70142418610479 8.17201786194248  7.75883242024156 7.09554818904991  C 10.2712876992514 4.53474543902751  11.4100008522315 2.33563287766834  13.6576597835332 1.19805159592779  C 9.24586828564317 2.81456681960287  6.11451818724146 6.87554639719718  6.11451818724146 11.6336509942425  C 6.11451818724146 11.713775103621  6.11896107898154 11.7934465344154  6.12118252485157 11.8726652866257  C 2.56198195188108 13.7965492688769  0.161043255546978 17.4274841916151  0.161043255546978 21.5948432364633  C 0.161043255546978 27.7716425159499  5.4360886185327 32.7787203342277  11.942703571866 32.7787203342277  C 12.3132407429878 32.7787203342277  12.6780021548476 32.7606131908653  13.0396535424894 32.7298310471493  C 15.2006760848597 35.2141311164657  18.4706444055516 36.7985061606726  22.1302543318477 36.7985061606726  C 28.1441525912071 36.7985061606726  33.1010869056038 32.5202408627299  33.8199467891472 26.9952987442885  C 37.5599730559385 25.1207567276997  40.110192914739 21.3952119808932  40.110192914739 17.1024609682606  Z " fill-rule="evenodd" />
    </mask>
  </defs>
  <g transform="matrix(1 0 0 1 -309 -356 )">
    <path d="M 40.110192914739 17.1024609682606  C 40.107527179695 10.9243036530219  34.8324818167093 5.91632047757591  28.325866863376 5.91632047757591  C 28.2245689317024 5.91632047757591  28.1250481567248 5.92039458483244  28.0241945142252 5.9231106563368  C 26.3772145461811 3.29531147587366  23.6283974265994 1.36373195769342  20.3828650104779 0.700557832046815  C 22.9508564362387 1.35694177893253  25.113656135305 2.94855968048436  26.4434136331081 5.06754813246508  C 26.5296057328655 5.06528473954478  27.7100820682022 7.14353211896016  27.7976070354816 7.14353211896016  C 33.3809890852282 7.14353211896016  35.9787478856475 10.2086188116244  35.9787478856475 15.5090323523726  C 35.9787478856475 19.1933833480297  34.623665904926 21.5409744849602  31.415453779421 23.1506995298744  C 30.8005575625953 27.8911496621415  26.5456001431297 31.563278336029  21.3851813870378 31.563278336029  C 18.244501215982 31.563278336029  15.4388150821275 30.2034318695154  13.583907780648 28.0708630600129  C 13.2737939371911 28.0984764536405  12.9601257803421 28.1143202040826  12.6429033101011 28.1143202040826  C 7.05907697118047 28.1143202040826  2.67394282373086 25.4177138788425  2.67394282373086 20.1182056952625  C 2.67394282373086 16.5488350599564  4.24139502962775 14.7897260823026  7.09417581592702 12.6707376303219  C 7.01820236717181 12.2112688675019  6.70142418610479 8.17201786194248  7.75883242024156 7.09554818904991  C 10.2712876992514 4.53474543902751  11.4100008522315 2.33563287766834  13.6576597835332 1.19805159592779  C 9.24586828564317 2.81456681960287  6.11451818724146 6.87554639719718  6.11451818724146 11.6336509942425  C 6.11451818724146 11.713775103621  6.11896107898154 11.7934465344154  6.12118252485157 11.8726652866257  C 2.56198195188108 13.7965492688769  0.161043255546978 17.4274841916151  0.161043255546978 21.5948432364633  C 0.161043255546978 27.7716425159499  5.4360886185327 32.7787203342277  11.942703571866 32.7787203342277  C 12.3132407429878 32.7787203342277  12.6780021548476 32.7606131908653  13.0396535424894 32.7298310471493  C 15.2006760848597 35.2141311164657  18.4706444055516 36.7985061606726  22.1302543318477 36.7985061606726  C 28.1441525912071 36.7985061606726  33.1010869056038 32.5202408627299  33.8199467891472 26.9952987442885  C 37.5599730559385 25.1207567276997  40.110192914739 21.3952119808932  40.110192914739 17.1024609682606  Z " fill-rule="nonzero" fill="#6e6e96" stroke="none" transform="matrix(1 0 0 1 309 356 )" />
    <path d="M 40.110192914739 17.1024609682606  C 40.107527179695 10.9243036530219  34.8324818167093 5.91632047757591  28.325866863376 5.91632047757591  C 28.2245689317024 5.91632047757591  28.1250481567248 5.92039458483244  28.0241945142252 5.9231106563368  C 26.3772145461811 3.29531147587366  23.6283974265994 1.36373195769342  20.3828650104779 0.700557832046815  C 22.9508564362387 1.35694177893253  25.113656135305 2.94855968048436  26.4434136331081 5.06754813246508  C 26.5296057328655 5.06528473954478  27.7100820682022 7.14353211896016  27.7976070354816 7.14353211896016  C 33.3809890852282 7.14353211896016  35.9787478856475 10.2086188116244  35.9787478856475 15.5090323523726  C 35.9787478856475 19.1933833480297  34.623665904926 21.5409744849602  31.415453779421 23.1506995298744  C 30.8005575625953 27.8911496621415  26.5456001431297 31.563278336029  21.3851813870378 31.563278336029  C 18.244501215982 31.563278336029  15.4388150821275 30.2034318695154  13.583907780648 28.0708630600129  C 13.2737939371911 28.0984764536405  12.9601257803421 28.1143202040826  12.6429033101011 28.1143202040826  C 7.05907697118047 28.1143202040826  2.67394282373086 25.4177138788425  2.67394282373086 20.1182056952625  C 2.67394282373086 16.5488350599564  4.24139502962775 14.7897260823026  7.09417581592702 12.6707376303219  C 7.01820236717181 12.2112688675019  6.70142418610479 8.17201786194248  7.75883242024156 7.09554818904991  C 10.2712876992514 4.53474543902751  11.4100008522315 2.33563287766834  13.6576597835332 1.19805159592779  C 9.24586828564317 2.81456681960287  6.11451818724146 6.87554639719718  6.11451818724146 11.6336509942425  C 6.11451818724146 11.713775103621  6.11896107898154 11.7934465344154  6.12118252485157 11.8726652866257  C 2.56198195188108 13.7965492688769  0.161043255546978 17.4274841916151  0.161043255546978 21.5948432364633  C 0.161043255546978 27.7716425159499  5.4360886185327 32.7787203342277  11.942703571866 32.7787203342277  C 12.3132407429878 32.7787203342277  12.6780021548476 32.7606131908653  13.0396535424894 32.7298310471493  C 15.2006760848597 35.2141311164657  18.4706444055516 36.7985061606726  22.1302543318477 36.7985061606726  C 28.1441525912071 36.7985061606726  33.1010869056038 32.5202408627299  33.8199467891472 26.9952987442885  C 37.5599730559385 25.1207567276997  40.110192914739 21.3952119808932  40.110192914739 17.1024609682606  Z " stroke-width="2" stroke="#797979" fill="none" transform="matrix(1 0 0 1 309 356 )" mask="url(#clip205)" />
  </g>
</svg>