<?xml version="1.0" encoding="utf-8"?>
<svg version="1.1" xmlns:xlink="http://www.w3.org/1999/xlink" width="19px" height="31px" xmlns="http://www.w3.org/2000/svg">
  <defs>
    <mask fill="white" id="clip207">
      <path d="M 18.6286977711888 30.0358453874022  L 17.3041166486249 30.0485072120798  L 0.941643958130026 30.0485072120798  L 1.93564278080887 28.9207003997239  C 8.07708725115262 21.951270330747  6.56244382538509 11.9524987076515  6.54622997961416 11.8525607343032  L 6.53767267212394 11.7444830165193  C 6.53767267212394 6.80365814410546  1.99149047179762 5.39141248452753  1.05243857089803 5.15309885577391  C 0.927231650778086 5.12506195827348  0.862376267694373 5.10878246940226  0.862376267694373 5.10878246940226  L 1.15872933761856 3.78562179059183  C 1.15872933761856 3.78562179059183  1.23124125898299 3.79918803131784  1.36185279435991 3.83219921708448  C 1.85952778260645 3.94118135091679  3.62503543321861 4.2848594493091  6.07062383700027 4.2848594493091  C 9.12693376482021 4.2848594493091  13.7249101946926 3.73723553200238  18.2706420104142 1.12844744039015  L 18.9980131470822 2.26936828544782  C 15.4435778464109 4.81620387774461  13.3335259731665 8.03637721807581  12.726857910571 11.8412555336982  C 11.438307556387 19.9204040940629  17.1798104977145 28.0547220333801  17.8391735590656 28.9559726256116  L 18.6286977711888 30.0358453874022  Z M 7.88792571715846 11.6906702616394  C 8.02033879095437 12.5661449964915  9.21520914735083 21.5687023422735  3.86554081215406 28.6918831394785  L 16.0218716789074 28.6918831394785  C 14.2509594130382 25.9573812171386  10.2465898922238 18.8138510588445  11.3928187113074 11.626456722203  C 11.8382490854032 8.83316775671696  13.0124017499812 6.33426621498541  14.8954597824326 4.15733678648458  C 11.5274837081271 5.34347843396229  8.38064647475278 5.64103131388617  6.07017345239553 5.64103131388617  C 5.69500307664044 5.64103131388617  5.33604654665628 5.63334377747476  4.9937542470478 5.62022974477295  C 6.49533651927764 6.80818022434747  7.87171187138754 8.70971496611024  7.88792571715846 11.6906702616394  Z " fill-rule="evenodd" />
    </mask>
  </defs>
  <g transform="matrix(1 0 0 1 -319 -375 )">
    <path d="M 18.6286977711888 30.0358453874022  L 17.3041166486249 30.0485072120798  L 0.941643958130026 30.0485072120798  L 1.93564278080887 28.9207003997239  C 8.07708725115262 21.951270330747  6.56244382538509 11.9524987076515  6.54622997961416 11.8525607343032  L 6.53767267212394 11.7444830165193  C 6.53767267212394 6.80365814410546  1.99149047179762 5.39141248452753  1.05243857089803 5.15309885577391  C 0.927231650778086 5.12506195827348  0.862376267694373 5.10878246940226  0.862376267694373 5.10878246940226  L 1.15872933761856 3.78562179059183  C 1.15872933761856 3.78562179059183  1.23124125898299 3.79918803131784  1.36185279435991 3.83219921708448  C 1.85952778260645 3.94118135091679  3.62503543321861 4.2848594493091  6.07062383700027 4.2848594493091  C 9.12693376482021 4.2848594493091  13.7249101946926 3.73723553200238  18.2706420104142 1.12844744039015  L 18.9980131470822 2.26936828544782  C 15.4435778464109 4.81620387774461  13.3335259731665 8.03637721807581  12.726857910571 11.8412555336982  C 11.438307556387 19.9204040940629  17.1798104977145 28.0547220333801  17.8391735590656 28.9559726256116  L 18.6286977711888 30.0358453874022  Z M 7.88792571715846 11.6906702616394  C 8.02033879095437 12.5661449964915  9.21520914735083 21.5687023422735  3.86554081215406 28.6918831394785  L 16.0218716789074 28.6918831394785  C 14.2509594130382 25.9573812171386  10.2465898922238 18.8138510588445  11.3928187113074 11.626456722203  C 11.8382490854032 8.83316775671696  13.0124017499812 6.33426621498541  14.8954597824326 4.15733678648458  C 11.5274837081271 5.34347843396229  8.38064647475278 5.64103131388617  6.07017345239553 5.64103131388617  C 5.69500307664044 5.64103131388617  5.33604654665628 5.63334377747476  4.9937542470478 5.62022974477295  C 6.49533651927764 6.80818022434747  7.87171187138754 8.70971496611024  7.88792571715846 11.6906702616394  Z " fill-rule="nonzero" fill="#ccccde" stroke="none" transform="matrix(1 0 0 1 319 375 )" />
    <path d="M 18.6286977711888 30.0358453874022  L 17.3041166486249 30.0485072120798  L 0.941643958130026 30.0485072120798  L 1.93564278080887 28.9207003997239  C 8.07708725115262 21.951270330747  6.56244382538509 11.9524987076515  6.54622997961416 11.8525607343032  L 6.53767267212394 11.7444830165193  C 6.53767267212394 6.80365814410546  1.99149047179762 5.39141248452753  1.05243857089803 5.15309885577391  C 0.927231650778086 5.12506195827348  0.862376267694373 5.10878246940226  0.862376267694373 5.10878246940226  L 1.15872933761856 3.78562179059183  C 1.15872933761856 3.78562179059183  1.23124125898299 3.79918803131784  1.36185279435991 3.83219921708448  C 1.85952778260645 3.94118135091679  3.62503543321861 4.2848594493091  6.07062383700027 4.2848594493091  C 9.12693376482021 4.2848594493091  13.7249101946926 3.73723553200238  18.2706420104142 1.12844744039015  L 18.9980131470822 2.26936828544782  C 15.4435778464109 4.81620387774461  13.3335259731665 8.03637721807581  12.726857910571 11.8412555336982  C 11.438307556387 19.9204040940629  17.1798104977145 28.0547220333801  17.8391735590656 28.9559726256116  L 18.6286977711888 30.0358453874022  Z " stroke-width="2" stroke="#797979" fill="none" transform="matrix(1 0 0 1 319 375 )" mask="url(#clip207)" />
    <path d="M 7.88792571715846 11.6906702616394  C 8.02033879095437 12.5661449964915  9.21520914735083 21.5687023422735  3.86554081215406 28.6918831394785  L 16.0218716789074 28.6918831394785  C 14.2509594130382 25.9573812171386  10.2465898922238 18.8138510588445  11.3928187113074 11.626456722203  C 11.8382490854032 8.83316775671696  13.0124017499812 6.33426621498541  14.8954597824326 4.15733678648458  C 11.5274837081271 5.34347843396229  8.38064647475278 5.64103131388617  6.07017345239553 5.64103131388617  C 5.69500307664044 5.64103131388617  5.33604654665628 5.63334377747476  4.9937542470478 5.62022974477295  C 6.49533651927764 6.80818022434747  7.87171187138754 8.70971496611024  7.88792571715846 11.6906702616394  Z " stroke-width="2" stroke="#797979" fill="none" transform="matrix(1 0 0 1 319 375 )" mask="url(#clip207)" />
  </g>
</svg>