<?xml version="1.0" encoding="utf-8"?>
<svg version="1.1" xmlns:xlink="http://www.w3.org/1999/xlink" width="37px" height="33px" xmlns="http://www.w3.org/2000/svg">
  <defs>
    <mask fill="white" id="clip209">
      <path d="M 30.3146538335039 23.9495378760472  C 33.6510081676656 22.2724004257771  35.9287453405935 18.9444984222429  35.9287453405935 15.1083594035282  C 35.9287453405935 9.59016595374585  31.2189075975735 5.11794841911054  25.4092306497588 5.11794841911054  C 25.3210856417191 5.11794841911054  25.2316250365444 5.12152440514523  25.1421644313697 5.12420639467125  C 23.3055908310189 2.19681482702241  19.9438016189154 0.234939488740119  16.0974341287823 0.234939488740119  C 10.2877571809677 0.234939488740119  5.5796735674609 4.70805101988411  5.5796735674609 10.2253504731578  C 5.5796735674609 10.297317192106  5.58493595600058 10.3674959180368  5.5858130207572 10.439462636985  C 2.40908447229938 12.1604059161799  0.264222609998543 15.4029312531359  0.264222609998543 19.1255327152491  C 0.264222609998543 24.6455141580489  4.97186769112703 29.1177316926842  10.78198317132 29.1177316926842  C 11.1121980521854 29.1177316926842  11.438466141646 29.1002987607651  11.7594718425669 29.0712438742332  C 13.6890143071189 31.2928251982849  16.6105170114019 32.7080216715139  19.8780217621693 32.7080216715139  C 25.2478507345418 32.7080216715139  29.6743965611753 28.8843986039206  30.3146538335039 23.9495378760472  Z " fill-rule="evenodd" />
    </mask>
  </defs>
  <g transform="matrix(1 0 0 1 -360 -369 )">
    <path d="M 30.3146538335039 23.9495378760472  C 33.6510081676656 22.2724004257771  35.9287453405935 18.9444984222429  35.9287453405935 15.1083594035282  C 35.9287453405935 9.59016595374585  31.2189075975735 5.11794841911054  25.4092306497588 5.11794841911054  C 25.3210856417191 5.11794841911054  25.2316250365444 5.12152440514523  25.1421644313697 5.12420639467125  C 23.3055908310189 2.19681482702241  19.9438016189154 0.234939488740119  16.0974341287823 0.234939488740119  C 10.2877571809677 0.234939488740119  5.5796735674609 4.70805101988411  5.5796735674609 10.2253504731578  C 5.5796735674609 10.297317192106  5.58493595600058 10.3674959180368  5.5858130207572 10.439462636985  C 2.40908447229938 12.1604059161799  0.264222609998543 15.4029312531359  0.264222609998543 19.1255327152491  C 0.264222609998543 24.6455141580489  4.97186769112703 29.1177316926842  10.78198317132 29.1177316926842  C 11.1121980521854 29.1177316926842  11.438466141646 29.1002987607651  11.7594718425669 29.0712438742332  C 13.6890143071189 31.2928251982849  16.6105170114019 32.7080216715139  19.8780217621693 32.7080216715139  C 25.2478507345418 32.7080216715139  29.6743965611753 28.8843986039206  30.3146538335039 23.9495378760472  Z " fill-rule="nonzero" fill="#d7f7e4" stroke="none" transform="matrix(1 0 0 1 360 369 )" />
    <path d="M 30.3146538335039 23.9495378760472  C 33.6510081676656 22.2724004257771  35.9287453405935 18.9444984222429  35.9287453405935 15.1083594035282  C 35.9287453405935 9.59016595374585  31.2189075975735 5.11794841911054  25.4092306497588 5.11794841911054  C 25.3210856417191 5.11794841911054  25.2316250365444 5.12152440514523  25.1421644313697 5.12420639467125  C 23.3055908310189 2.19681482702241  19.9438016189154 0.234939488740119  16.0974341287823 0.234939488740119  C 10.2877571809677 0.234939488740119  5.5796735674609 4.70805101988411  5.5796735674609 10.2253504731578  C 5.5796735674609 10.297317192106  5.58493595600058 10.3674959180368  5.5858130207572 10.439462636985  C 2.40908447229938 12.1604059161799  0.264222609998543 15.4029312531359  0.264222609998543 19.1255327152491  C 0.264222609998543 24.6455141580489  4.97186769112703 29.1177316926842  10.78198317132 29.1177316926842  C 11.1121980521854 29.1177316926842  11.438466141646 29.1002987607651  11.7594718425669 29.0712438742332  C 13.6890143071189 31.2928251982849  16.6105170114019 32.7080216715139  19.8780217621693 32.7080216715139  C 25.2478507345418 32.7080216715139  29.6743965611753 28.8843986039206  30.3146538335039 23.9495378760472  Z " stroke-width="2" stroke="#797979" fill="none" transform="matrix(1 0 0 1 360 369 )" mask="url(#clip209)" />
  </g>
</svg>