<?xml version="1.0" encoding="utf-8"?>
<svg version="1.1" xmlns:xlink="http://www.w3.org/1999/xlink" width="18px" height="26px" xmlns="http://www.w3.org/2000/svg">
  <defs>
    <mask fill="white" id="clip212">
      <path d="M 17.1165563751151 0.388643124792819  C 9.15368070892119 4.87183612896229  1.04789563719546 2.8404593348315  1.04789563719546 2.8404593348315  C 1.04789563719546 2.8404593348315  6.70146454011386 3.9301056248871  6.70146454011386 9.379233534474  C 6.70146454011386 9.379233534474  8.22385932197365 18.633382980993  2.33954179292581 25.1833629219976  L 15.926403204842 25.1833629219976  C 15.7916860582261 24.9995887636584  4.05991616525164 9.56390415212225  17.1165563751151 0.388643124792819  Z " fill-rule="evenodd" />
    </mask>
  </defs>
  <g transform="matrix(1 0 0 1 -370 -387 )">
    <path d="M 17.1165563751151 0.388643124792819  C 9.15368070892119 4.87183612896229  1.04789563719546 2.8404593348315  1.04789563719546 2.8404593348315  C 1.04789563719546 2.8404593348315  6.70146454011386 3.9301056248871  6.70146454011386 9.379233534474  C 6.70146454011386 9.379233534474  8.22385932197365 18.633382980993  2.33954179292581 25.1833629219976  L 15.926403204842 25.1833629219976  C 15.7916860582261 24.9995887636584  4.05991616525164 9.56390415212225  17.1165563751151 0.388643124792819  Z " fill-rule="nonzero" fill="#ede3da" stroke="none" transform="matrix(1 0 0 1 370 387 )" />
    <path d="M 17.1165563751151 0.388643124792819  C 9.15368070892119 4.87183612896229  1.04789563719546 2.8404593348315  1.04789563719546 2.8404593348315  C 1.04789563719546 2.8404593348315  6.70146454011386 3.9301056248871  6.70146454011386 9.379233534474  C 6.70146454011386 9.379233534474  8.22385932197365 18.633382980993  2.33954179292581 25.1833629219976  L 15.926403204842 25.1833629219976  C 15.7916860582261 24.9995887636584  4.05991616525164 9.56390415212225  17.1165563751151 0.388643124792819  Z " stroke-width="2" stroke="#797979" fill="none" transform="matrix(1 0 0 1 370 387 )" mask="url(#clip212)" />
  </g>
</svg>