<?xml version="1.0" encoding="utf-8"?>
<svg version="1.1" xmlns:xlink="http://www.w3.org/1999/xlink" width="18px" height="27px" xmlns="http://www.w3.org/2000/svg">
  <defs>
    <mask fill="white" id="clip213">
      <path d="M 17.2662926630768 26.8455417850243  L 15.926403204842 26.8566725715948  L 0.823973893495906 26.8566725715948  L 1.82843586167663 25.7462653033285  C 7.42101794822158 19.562000284797  6.04198769738897 10.6858658420724  6.02787880703392 10.5968195495089  L 6.01877629712742 10.4908544613584  C 6.01877629712742 6.14049783817108  1.90717257236773 4.89429497374561  1.05517764512064 4.68281002890742  C 0.939575769308266 4.65787706698964  0.879499203925457 4.64318442871667  0.879499203925457 4.64318442871667  L 1.17897177984884 3.34043716851342  C 1.17897177984884 3.34043716851342  1.24633035315683 3.3529036494723  1.3673937349131 3.38273415748107  C 1.82206410474208 3.47979461637522  3.42956735422748 3.78344247401659  5.65695152834459 3.78344247401659  C 8.44322981071995 3.78344247401659  12.6340253716661 3.29724971662014  16.7779430065938 0.980265184119205  L 17.5129706815425 2.1031389333443  C 14.2788489117681 4.36090768129056  12.3586744469949 7.21528658941193  11.8070623466618 10.5865792258641  C 10.6332936942205 17.7583676289243  15.8672368904499 24.9818028816713  16.4680025442779 25.7818838203539  L 17.2662926630768 26.8455417850243  Z M 7.38460790859563 10.438317148746  C 7.50840204332384 11.2450765593708  8.57794695733594 19.1857796987164  3.77136660121604 25  L 14.6343019236164 25  C 12.9803758736079 23.0094275013909  9.42129450017186 16.7147450800807  10.4585255040159 10.3755395124887  C 10.8553949359387 7.95169942891166  11.8807926769044 5.77540803866095  13.5192444600718 3.87026260926594  C 10.5181469439034 4.86580016012531  7.72231102612624 5.11913686246833  5.65740665383992 5.11913686246833  C 5.38433135664534 5.11913686246833  5.12081369485257 5.11512977930297  4.86685366846161 5.10756084443508  C 6.19035860886465 6.18056866982464  7.36867851625927 7.85998174757129  7.38460790859563 10.438317148746  Z " fill-rule="evenodd" />
    </mask>
  </defs>
  <g transform="matrix(1 0 0 1 -370 -385 )">
    <path d="M 17.2662926630768 26.8455417850243  L 15.926403204842 26.8566725715948  L 0.823973893495906 26.8566725715948  L 1.82843586167663 25.7462653033285  C 7.42101794822158 19.562000284797  6.04198769738897 10.6858658420724  6.02787880703392 10.5968195495089  L 6.01877629712742 10.4908544613584  C 6.01877629712742 6.14049783817108  1.90717257236773 4.89429497374561  1.05517764512064 4.68281002890742  C 0.939575769308266 4.65787706698964  0.879499203925457 4.64318442871667  0.879499203925457 4.64318442871667  L 1.17897177984884 3.34043716851342  C 1.17897177984884 3.34043716851342  1.24633035315683 3.3529036494723  1.3673937349131 3.38273415748107  C 1.82206410474208 3.47979461637522  3.42956735422748 3.78344247401659  5.65695152834459 3.78344247401659  C 8.44322981071995 3.78344247401659  12.6340253716661 3.29724971662014  16.7779430065938 0.980265184119205  L 17.5129706815425 2.1031389333443  C 14.2788489117681 4.36090768129056  12.3586744469949 7.21528658941193  11.8070623466618 10.5865792258641  C 10.6332936942205 17.7583676289243  15.8672368904499 24.9818028816713  16.4680025442779 25.7818838203539  L 17.2662926630768 26.8455417850243  Z M 7.38460790859563 10.438317148746  C 7.50840204332384 11.2450765593708  8.57794695733594 19.1857796987164  3.77136660121604 25  L 14.6343019236164 25  C 12.9803758736079 23.0094275013909  9.42129450017186 16.7147450800807  10.4585255040159 10.3755395124887  C 10.8553949359387 7.95169942891166  11.8807926769044 5.77540803866095  13.5192444600718 3.87026260926594  C 10.5181469439034 4.86580016012531  7.72231102612624 5.11913686246833  5.65740665383992 5.11913686246833  C 5.38433135664534 5.11913686246833  5.12081369485257 5.11512977930297  4.86685366846161 5.10756084443508  C 6.19035860886465 6.18056866982464  7.36867851625927 7.85998174757129  7.38460790859563 10.438317148746  Z " fill-rule="nonzero" fill="#ccccde" stroke="none" transform="matrix(1 0 0 1 370 385 )" />
    <path d="M 17.2662926630768 26.8455417850243  L 15.926403204842 26.8566725715948  L 0.823973893495906 26.8566725715948  L 1.82843586167663 25.7462653033285  C 7.42101794822158 19.562000284797  6.04198769738897 10.6858658420724  6.02787880703392 10.5968195495089  L 6.01877629712742 10.4908544613584  C 6.01877629712742 6.14049783817108  1.90717257236773 4.89429497374561  1.05517764512064 4.68281002890742  C 0.939575769308266 4.65787706698964  0.879499203925457 4.64318442871667  0.879499203925457 4.64318442871667  L 1.17897177984884 3.34043716851342  C 1.17897177984884 3.34043716851342  1.24633035315683 3.3529036494723  1.3673937349131 3.38273415748107  C 1.82206410474208 3.47979461637522  3.42956735422748 3.78344247401659  5.65695152834459 3.78344247401659  C 8.44322981071995 3.78344247401659  12.6340253716661 3.29724971662014  16.7779430065938 0.980265184119205  L 17.5129706815425 2.1031389333443  C 14.2788489117681 4.36090768129056  12.3586744469949 7.21528658941193  11.8070623466618 10.5865792258641  C 10.6332936942205 17.7583676289243  15.8672368904499 24.9818028816713  16.4680025442779 25.7818838203539  L 17.2662926630768 26.8455417850243  Z " stroke-width="2" stroke="#797979" fill="none" transform="matrix(1 0 0 1 370 385 )" mask="url(#clip213)" />
    <path d="M 7.38460790859563 10.438317148746  C 7.50840204332384 11.2450765593708  8.57794695733594 19.1857796987164  3.77136660121604 25  L 14.6343019236164 25  C 12.9803758736079 23.0094275013909  9.42129450017186 16.7147450800807  10.4585255040159 10.3755395124887  C 10.8553949359387 7.95169942891166  11.8807926769044 5.77540803866095  13.5192444600718 3.87026260926594  C 10.5181469439034 4.86580016012531  7.72231102612624 5.11913686246833  5.65740665383992 5.11913686246833  C 5.38433135664534 5.11913686246833  5.12081369485257 5.11512977930297  4.86685366846161 5.10756084443508  C 6.19035860886465 6.18056866982464  7.36867851625927 7.85998174757129  7.38460790859563 10.438317148746  Z " stroke-width="2" stroke="#797979" fill="none" transform="matrix(1 0 0 1 370 385 )" mask="url(#clip213)" />
  </g>
</svg>