<?xml version="1.0" encoding="utf-8"?>
<svg version="1.1" xmlns:xlink="http://www.w3.org/1999/xlink" width="41px" height="37px" xmlns="http://www.w3.org/2000/svg">
  <defs>
    <mask fill="white" id="clip216">
      <path d="M 34.1262147544416 26.8043956976673  C 33.2234191528593 32.3329592447812  28.1993971731876 36.4573138241438  22.2863525563277 36.4573138241438  C 18.8226741557687 36.4573138241438  15.5589258835129 35.0440512847113  13.2775009749867 32.568352108492  C 13.0020416871023 32.5855538946862  12.7452425445263 32.5941547877833  12.4982177637783 32.5941547877833  C 5.88897201124945 32.5941547877833  0.511740138242101 27.4693805376501  0.511740138242101 21.1703580404676  C 0.511740138242101 17.199008822517  2.69364427179073 13.5028881836743  6.2328518319309 11.4291675900995  C 6.32748542599441 5.20710045220704  11.6678412975592 0.173314597469711  18.2184408791191 0.173314597469711  C 22.2819096645876 0.173314597469711  26.1107937661804 2.17596465334723  28.3051379966012 5.42438617255541  C 34.8850606636457 5.45743170919172  40.2280822702545 10.5699836375553  40.2280822702545 16.8490882770393  C 40.2280822702545 20.9906446425961  37.8991184201095 24.7745849267462  34.1262147544416 26.8043956976673  Z M 13.4983126944682 31.1908511772001  L 13.8297524182775 31.1636904621566  L 14.050564137759 31.4176431478137  C 16.0867414222333 33.7575387488153  19.0883590818249 35.0997307505505  22.2863525563277 35.0997307505505  C 27.659585826769 35.0997307505505  32.2037754985131 31.3035681446308  32.8568805843035 26.2697822898935  L 32.9035309475742 25.9099028155665  L 33.2229748636853 25.7496545968096  C 36.7217521089908 23.9941670478283  38.8952147482333 20.583686595527  38.8952147482333 16.8495409556234  C 38.8952147482333 11.2983434793065  34.1159961034395 6.78287460331682  28.2416046447182 6.78287460331682  C 28.1696297985291 6.78287460331682  28.098987819862 6.78513799623711  28.0283458411948 6.78740138915741  L 27.5929424506679 6.79917103234295  L 27.3899022981467 6.47550584474068  C 25.4776816932203 3.42626290251851  21.9633543268246 1.53180302823112  18.2184408791191 1.53180302823112  C 12.3436051312239 1.53180302823112  7.56438648643004 6.04772458280483  7.56438648643004 11.5975640233695  L 7.58038089669429 12.2299560053001  L 7.21739664153053 12.4268711893658  C 3.90344369261193 14.2194783822399  1.84460766026326 17.5697525828614  1.84460766026326 21.1703580404676  C 1.84460766026326 26.7206501596164  6.62382630505711 31.236119035606  12.4982177637783 31.236119035606  C 12.8043330046692 31.236119035606  13.1313298367384 31.2216333209161  13.4983126944682 31.1908511772001  Z " fill-rule="evenodd" />
    </mask>
  </defs>
  <g transform="matrix(1 0 0 1 -284 -366 )">
    <path d="M 34.1262147544416 26.8043956976673  C 33.2234191528593 32.3329592447812  28.1993971731876 36.4573138241438  22.2863525563277 36.4573138241438  C 18.8226741557687 36.4573138241438  15.5589258835129 35.0440512847113  13.2775009749867 32.568352108492  C 13.0020416871023 32.5855538946862  12.7452425445263 32.5941547877833  12.4982177637783 32.5941547877833  C 5.88897201124945 32.5941547877833  0.511740138242101 27.4693805376501  0.511740138242101 21.1703580404676  C 0.511740138242101 17.199008822517  2.69364427179073 13.5028881836743  6.2328518319309 11.4291675900995  C 6.32748542599441 5.20710045220704  11.6678412975592 0.173314597469711  18.2184408791191 0.173314597469711  C 22.2819096645876 0.173314597469711  26.1107937661804 2.17596465334723  28.3051379966012 5.42438617255541  C 34.8850606636457 5.45743170919172  40.2280822702545 10.5699836375553  40.2280822702545 16.8490882770393  C 40.2280822702545 20.9906446425961  37.8991184201095 24.7745849267462  34.1262147544416 26.8043956976673  Z M 13.4983126944682 31.1908511772001  L 13.8297524182775 31.1636904621566  L 14.050564137759 31.4176431478137  C 16.0867414222333 33.7575387488153  19.0883590818249 35.0997307505505  22.2863525563277 35.0997307505505  C 27.659585826769 35.0997307505505  32.2037754985131 31.3035681446308  32.8568805843035 26.2697822898935  L 32.9035309475742 25.9099028155665  L 33.2229748636853 25.7496545968096  C 36.7217521089908 23.9941670478283  38.8952147482333 20.583686595527  38.8952147482333 16.8495409556234  C 38.8952147482333 11.2983434793065  34.1159961034395 6.78287460331682  28.2416046447182 6.78287460331682  C 28.1696297985291 6.78287460331682  28.098987819862 6.78513799623711  28.0283458411948 6.78740138915741  L 27.5929424506679 6.79917103234295  L 27.3899022981467 6.47550584474068  C 25.4776816932203 3.42626290251851  21.9633543268246 1.53180302823112  18.2184408791191 1.53180302823112  C 12.3436051312239 1.53180302823112  7.56438648643004 6.04772458280483  7.56438648643004 11.5975640233695  L 7.58038089669429 12.2299560053001  L 7.21739664153053 12.4268711893658  C 3.90344369261193 14.2194783822399  1.84460766026326 17.5697525828614  1.84460766026326 21.1703580404676  C 1.84460766026326 26.7206501596164  6.62382630505711 31.236119035606  12.4982177637783 31.236119035606  C 12.8043330046692 31.236119035606  13.1313298367384 31.2216333209161  13.4983126944682 31.1908511772001  Z " fill-rule="nonzero" fill="#ccccde" stroke="none" transform="matrix(1 0 0 1 284 366 )" />
    <path d="M 34.1262147544416 26.8043956976673  C 33.2234191528593 32.3329592447812  28.1993971731876 36.4573138241438  22.2863525563277 36.4573138241438  C 18.8226741557687 36.4573138241438  15.5589258835129 35.0440512847113  13.2775009749867 32.568352108492  C 13.0020416871023 32.5855538946862  12.7452425445263 32.5941547877833  12.4982177637783 32.5941547877833  C 5.88897201124945 32.5941547877833  0.511740138242101 27.4693805376501  0.511740138242101 21.1703580404676  C 0.511740138242101 17.199008822517  2.69364427179073 13.5028881836743  6.2328518319309 11.4291675900995  C 6.32748542599441 5.20710045220704  11.6678412975592 0.173314597469711  18.2184408791191 0.173314597469711  C 22.2819096645876 0.173314597469711  26.1107937661804 2.17596465334723  28.3051379966012 5.42438617255541  C 34.8850606636457 5.45743170919172  40.2280822702545 10.5699836375553  40.2280822702545 16.8490882770393  C 40.2280822702545 20.9906446425961  37.8991184201095 24.7745849267462  34.1262147544416 26.8043956976673  Z " stroke-width="2" stroke="#797979" fill="none" transform="matrix(1 0 0 1 284 366 )" mask="url(#clip216)" />
    <path d="M 13.4983126944682 31.1908511772001  L 13.8297524182775 31.1636904621566  L 14.050564137759 31.4176431478137  C 16.0867414222333 33.7575387488153  19.0883590818249 35.0997307505505  22.2863525563277 35.0997307505505  C 27.659585826769 35.0997307505505  32.2037754985131 31.3035681446308  32.8568805843035 26.2697822898935  L 32.9035309475742 25.9099028155665  L 33.2229748636853 25.7496545968096  C 36.7217521089908 23.9941670478283  38.8952147482333 20.583686595527  38.8952147482333 16.8495409556234  C 38.8952147482333 11.2983434793065  34.1159961034395 6.78287460331682  28.2416046447182 6.78287460331682  C 28.1696297985291 6.78287460331682  28.098987819862 6.78513799623711  28.0283458411948 6.78740138915741  L 27.5929424506679 6.79917103234295  L 27.3899022981467 6.47550584474068  C 25.4776816932203 3.42626290251851  21.9633543268246 1.53180302823112  18.2184408791191 1.53180302823112  C 12.3436051312239 1.53180302823112  7.56438648643004 6.04772458280483  7.56438648643004 11.5975640233695  L 7.58038089669429 12.2299560053001  L 7.21739664153053 12.4268711893658  C 3.90344369261193 14.2194783822399  1.84460766026326 17.5697525828614  1.84460766026326 21.1703580404676  C 1.84460766026326 26.7206501596164  6.62382630505711 31.236119035606  12.4982177637783 31.236119035606  C 12.8043330046692 31.236119035606  13.1313298367384 31.2216333209161  13.4983126944682 31.1908511772001  Z " stroke-width="2" stroke="#797979" fill="none" transform="matrix(1 0 0 1 284 366 )" mask="url(#clip216)" />
  </g>
</svg>