<?xml version="1.0" encoding="utf-8"?>
<svg version="1.1" xmlns:xlink="http://www.w3.org/1999/xlink" width="18px" height="29px" xmlns="http://www.w3.org/2000/svg">
  <defs>
    <mask fill="white" id="clip218">
      <path d="M 17.2977105449259 0.944847475014851  C 8.84011346531445 5.81322059890619  0.231414721255382 3.60886451061499  0.231414721255382 3.60886451061499  C 0.231414721255382 3.60886451061499  6.23588538106883 4.79261747861004  6.23588538106883 10.7104657464071  C 6.23588538106883 10.7104657464071  7.85294626595605 20.7615962512725  1.60316296416281 27.8732797810235  L 16.0338270444103 27.8732797810235  C 15.8909176388785 27.6730087601123  3.42958157689921 10.9098201951403  17.2977105449259 0.944847475014851  Z " fill-rule="evenodd" />
    </mask>
  </defs>
  <g transform="matrix(1 0 0 1 -296 -385 )">
    <path d="M 17.2977105449259 0.944847475014851  C 8.84011346531445 5.81322059890619  0.231414721255382 3.60886451061499  0.231414721255382 3.60886451061499  C 0.231414721255382 3.60886451061499  6.23588538106883 4.79261747861004  6.23588538106883 10.7104657464071  C 6.23588538106883 10.7104657464071  7.85294626595605 20.7615962512725  1.60316296416281 27.8732797810235  L 16.0338270444103 27.8732797810235  C 15.8909176388785 27.6730087601123  3.42958157689921 10.9098201951403  17.2977105449259 0.944847475014851  Z " fill-rule="nonzero" fill="#ede3da" stroke="none" transform="matrix(1 0 0 1 296 385 )" />
    <path d="M 17.2977105449259 0.944847475014851  C 8.84011346531445 5.81322059890619  0.231414721255382 3.60886451061499  0.231414721255382 3.60886451061499  C 0.231414721255382 3.60886451061499  6.23588538106883 4.79261747861004  6.23588538106883 10.7104657464071  C 6.23588538106883 10.7104657464071  7.85294626595605 20.7615962512725  1.60316296416281 27.8732797810235  L 16.0338270444103 27.8732797810235  C 15.8909176388785 27.6730087601123  3.42958157689921 10.9098201951403  17.2977105449259 0.944847475014851  Z " stroke-width="2" stroke="#797979" fill="none" transform="matrix(1 0 0 1 296 385 )" mask="url(#clip218)" />
  </g>
</svg>