<?xml version="1.0" encoding="utf-8"?>
<svg version="1.1" xmlns:xlink="http://www.w3.org/1999/xlink" width="18px" height="29px" xmlns="http://www.w3.org/2000/svg">
  <defs>
    <mask fill="white" id="clip219">
      <path d="M 17.3714408751684 28.5474186180041  L 16.0338270444103 28.5607089145863  L 0.087595064732902 28.5607089145863  L 1.09205703291362 27.417743408516  C 7.0464638882414 20.6424418681216  5.57731878933457 10.917152772565  5.56184452249354 10.8199961216881  L 5.55319713808238 10.7104657464071  C 5.55319713808238 5.91954297156386  1.15622972775435 4.54972585141785  0.247344113591728 4.31829137645173  C 0.12628073183547 4.29125249719827  0.0630182879853919 4.27521248408179  0.0630182879853919 4.27521248408179  L 0.362490863908781 2.93426738754542  C 0.362490863908781 2.93426738754542  0.433035315684046 2.94755768412763  0.560015328879523 2.97963771036056  C 1.0429034794186 3.08550179692922  2.75326509084731 3.41959235584071  5.12446892148689 3.41959235584071  C 8.08915639802937 3.41959235584071  12.5493862522075 2.88660563428506  16.9586420509093 0.34861727317143  L 17.6941248513533 1.50441478973492  C 14.2501902282344 3.97915967056079  12.2053113777423 7.10833708653837  11.616834112288 10.8044143946607  C 10.3661492511368 18.6576048164814  15.9350648119249 26.5758718629461  16.5745161328556 27.4530314373722  L 17.3714408751684 28.5474186180041  Z M 6.91857362405527 10.6559297018112  C 7.0482843902227 11.5211738379221  8.19929676789785 20.2547318367922  3.03953902740629 27  L 14.7399052612033 27  C 13.0058771240177 24.4892952995387  9.15870131204146 17.5563433445139  10.2687523951374 10.5867285023658  C 10.6970254862376 7.89567258751224  11.8166342047354 5.48417118697415  13.6093735308178 3.37972146609408  C 10.3707005060901 4.50893838949313  7.34866721713673 4.79399233687716  5.12446892148689 4.79399233687716  C 4.79040680791886 4.79399233687716  4.46908820821991 4.78757633163058  4.161878498876 4.77657746549356  C 5.59961993860546 5.9406241316598  6.90218910622359 7.78568392614221  6.91857362405527 10.6559297018112  Z " fill-rule="evenodd" />
    </mask>
  </defs>
  <g transform="matrix(1 0 0 1 -296 -385 )">
    <path d="M 17.3714408751684 28.5474186180041  L 16.0338270444103 28.5607089145863  L 0.087595064732902 28.5607089145863  L 1.09205703291362 27.417743408516  C 7.0464638882414 20.6424418681216  5.57731878933457 10.917152772565  5.56184452249354 10.8199961216881  L 5.55319713808238 10.7104657464071  C 5.55319713808238 5.91954297156386  1.15622972775435 4.54972585141785  0.247344113591728 4.31829137645173  C 0.12628073183547 4.29125249719827  0.0630182879853919 4.27521248408179  0.0630182879853919 4.27521248408179  L 0.362490863908781 2.93426738754542  C 0.362490863908781 2.93426738754542  0.433035315684046 2.94755768412763  0.560015328879523 2.97963771036056  C 1.0429034794186 3.08550179692922  2.75326509084731 3.41959235584071  5.12446892148689 3.41959235584071  C 8.08915639802937 3.41959235584071  12.5493862522075 2.88660563428506  16.9586420509093 0.34861727317143  L 17.6941248513533 1.50441478973492  C 14.2501902282344 3.97915967056079  12.2053113777423 7.10833708653837  11.616834112288 10.8044143946607  C 10.3661492511368 18.6576048164814  15.9350648119249 26.5758718629461  16.5745161328556 27.4530314373722  L 17.3714408751684 28.5474186180041  Z M 6.91857362405527 10.6559297018112  C 7.0482843902227 11.5211738379221  8.19929676789785 20.2547318367922  3.03953902740629 27  L 14.7399052612033 27  C 13.0058771240177 24.4892952995387  9.15870131204146 17.5563433445139  10.2687523951374 10.5867285023658  C 10.6970254862376 7.89567258751224  11.8166342047354 5.48417118697415  13.6093735308178 3.37972146609408  C 10.3707005060901 4.50893838949313  7.34866721713673 4.79399233687716  5.12446892148689 4.79399233687716  C 4.79040680791886 4.79399233687716  4.46908820821991 4.78757633163058  4.161878498876 4.77657746549356  C 5.59961993860546 5.9406241316598  6.90218910622359 7.78568392614221  6.91857362405527 10.6559297018112  Z " fill-rule="nonzero" fill="#ccccde" stroke="none" transform="matrix(1 0 0 1 296 385 )" />
    <path d="M 17.3714408751684 28.5474186180041  L 16.0338270444103 28.5607089145863  L 0.087595064732902 28.5607089145863  L 1.09205703291362 27.417743408516  C 7.0464638882414 20.6424418681216  5.57731878933457 10.917152772565  5.56184452249354 10.8199961216881  L 5.55319713808238 10.7104657464071  C 5.55319713808238 5.91954297156386  1.15622972775435 4.54972585141785  0.247344113591728 4.31829137645173  C 0.12628073183547 4.29125249719827  0.0630182879853919 4.27521248408179  0.0630182879853919 4.27521248408179  L 0.362490863908781 2.93426738754542  C 0.362490863908781 2.93426738754542  0.433035315684046 2.94755768412763  0.560015328879523 2.97963771036056  C 1.0429034794186 3.08550179692922  2.75326509084731 3.41959235584071  5.12446892148689 3.41959235584071  C 8.08915639802937 3.41959235584071  12.5493862522075 2.88660563428506  16.9586420509093 0.34861727317143  L 17.6941248513533 1.50441478973492  C 14.2501902282344 3.97915967056079  12.2053113777423 7.10833708653837  11.616834112288 10.8044143946607  C 10.3661492511368 18.6576048164814  15.9350648119249 26.5758718629461  16.5745161328556 27.4530314373722  L 17.3714408751684 28.5474186180041  Z " stroke-width="2" stroke="#797979" fill="none" transform="matrix(1 0 0 1 296 385 )" mask="url(#clip219)" />
    <path d="M 6.91857362405527 10.6559297018112  C 7.0482843902227 11.5211738379221  8.19929676789785 20.2547318367922  3.03953902740629 27  L 14.7399052612033 27  C 13.0058771240177 24.4892952995387  9.15870131204146 17.5563433445139  10.2687523951374 10.5867285023658  C 10.6970254862376 7.89567258751224  11.8166342047354 5.48417118697415  13.6093735308178 3.37972146609408  C 10.3707005060901 4.50893838949313  7.34866721713673 4.79399233687716  5.12446892148689 4.79399233687716  C 4.79040680791886 4.79399233687716  4.46908820821991 4.78757633163058  4.161878498876 4.77657746549356  C 5.59961993860546 5.9406241316598  6.90218910622359 7.78568392614221  6.91857362405527 10.6559297018112  Z " stroke-width="2" stroke="#797979" fill="none" transform="matrix(1 0 0 1 296 385 )" mask="url(#clip219)" />
  </g>
</svg>