<?xml version="1.0" encoding="utf-8"?>
<svg version="1.1" xmlns:xlink="http://www.w3.org/1999/xlink" width="21px" height="19px" xmlns="http://www.w3.org/2000/svg">
  <defs>
    <mask fill="white" id="clip222">
      <path d="M 17.0471070032172 13.4316793222107  C 18.8165970019135 12.5457728046714  20.0223635051511 10.7865705385257  20.0223635051511 8.75803827874067  C 20.0223635051511 5.84089719378786  17.5280861551509 3.47637801886085  14.4519435017535 3.47637801886085  C 14.403712841624 3.47637801886085  14.3563671477354 3.47727878807035  14.3090214538468 3.47908032648934  C 13.3382134875703 1.93110843997045  11.5572189277422 0.893872695235802  9.5200266411712 0.893872695235802  C 6.44299902153286 0.893872695235802  3.94916415465311 3.25929263937231  3.94916415465311 6.17643372432511  C 3.94916415465311 6.21336526191445  3.95181905337583 6.25119756871328  3.95226153649629 6.28902987551211  C 2.2699407125295 7.19835639249834  1.13452902544409 8.91206981356448  1.13452902544409 10.880700920918  C 1.13452902544409 13.7982923904756  3.62836389232383 16.1628115654026  6.70450654572127 16.1628115654026  C 6.87928737830067 16.1628115654026  7.05229827839825 16.1542542579123  7.22309676289357 16.1393915659557  C 8.24479028802226 17.3135442305337  9.79082631088916 18.0611826744154  11.5204928287445 18.0611826744154  C 14.3643318439035 18.0611826744154  16.7081649329493 16.0403069529111  17.0471070032172 13.4316793222107  Z " fill-rule="evenodd" />
    </mask>
  </defs>
  <g transform="matrix(1 0 0 1 -291 -372 )">
    <path d="M 17.0471070032172 13.4316793222107  C 18.8165970019135 12.5457728046714  20.0223635051511 10.7865705385257  20.0223635051511 8.75803827874067  C 20.0223635051511 5.84089719378786  17.5280861551509 3.47637801886085  14.4519435017535 3.47637801886085  C 14.403712841624 3.47637801886085  14.3563671477354 3.47727878807035  14.3090214538468 3.47908032648934  C 13.3382134875703 1.93110843997045  11.5572189277422 0.893872695235802  9.5200266411712 0.893872695235802  C 6.44299902153286 0.893872695235802  3.94916415465311 3.25929263937231  3.94916415465311 6.17643372432511  C 3.94916415465311 6.21336526191445  3.95181905337583 6.25119756871328  3.95226153649629 6.28902987551211  C 2.2699407125295 7.19835639249834  1.13452902544409 8.91206981356448  1.13452902544409 10.880700920918  C 1.13452902544409 13.7982923904756  3.62836389232383 16.1628115654026  6.70450654572127 16.1628115654026  C 6.87928737830067 16.1628115654026  7.05229827839825 16.1542542579123  7.22309676289357 16.1393915659557  C 8.24479028802226 17.3135442305337  9.79082631088916 18.0611826744154  11.5204928287445 18.0611826744154  C 14.3643318439035 18.0611826744154  16.7081649329493 16.0403069529111  17.0471070032172 13.4316793222107  Z " fill-rule="nonzero" fill="#bfdbca" stroke="none" transform="matrix(1 0 0 1 291 372 )" />
    <path d="M 17.0471070032172 13.4316793222107  C 18.8165970019135 12.5457728046714  20.0223635051511 10.7865705385257  20.0223635051511 8.75803827874067  C 20.0223635051511 5.84089719378786  17.5280861551509 3.47637801886085  14.4519435017535 3.47637801886085  C 14.403712841624 3.47637801886085  14.3563671477354 3.47727878807035  14.3090214538468 3.47908032648934  C 13.3382134875703 1.93110843997045  11.5572189277422 0.893872695235802  9.5200266411712 0.893872695235802  C 6.44299902153286 0.893872695235802  3.94916415465311 3.25929263937231  3.94916415465311 6.17643372432511  C 3.94916415465311 6.21336526191445  3.95181905337583 6.25119756871328  3.95226153649629 6.28902987551211  C 2.2699407125295 7.19835639249834  1.13452902544409 8.91206981356448  1.13452902544409 10.880700920918  C 1.13452902544409 13.7982923904756  3.62836389232383 16.1628115654026  6.70450654572127 16.1628115654026  C 6.87928737830067 16.1628115654026  7.05229827839825 16.1542542579123  7.22309676289357 16.1393915659557  C 8.24479028802226 17.3135442305337  9.79082631088916 18.0611826744154  11.5204928287445 18.0611826744154  C 14.3643318439035 18.0611826744154  16.7081649329493 16.0403069529111  17.0471070032172 13.4316793222107  Z " stroke-width="2" stroke="#797979" fill="none" transform="matrix(1 0 0 1 291 372 )" mask="url(#clip222)" />
  </g>
</svg>