<?xml version="1.0" encoding="utf-8"?>
<svg version="1.1" xmlns:xlink="http://www.w3.org/1999/xlink" width="12px" height="15px" xmlns="http://www.w3.org/2000/svg">
  <defs>
    <mask fill="white" id="clip227">
      <path d="M 10.3133546936792 13.5034877455576  C 10.3142649446699 13.8654000384742  10.0084206118119 14.1594811277606  9.63157670168341 14.1594811277606  C 9.62884594871146 14.1594811277606  9.62566007024419 14.159043507092  9.62247419177691 14.1594811277606  L 2.49338843301714 14.1594811277606  C 2.2248643907758 14.1594811277606  1.9813722507773 14.0080643764316  1.8707767554135 13.772624456735  C 1.76018126004969 13.5371845370384  1.80432843309615 13.2614835158323  1.98182737627263 13.0680551803195  C 4.82181046709624 9.98195422548589  4.11545569835293 5.55542116278851  4.10771856493242 5.51122147526183  C 4.1018019334932 5.47621182177534  4.09861605502593 5.44120216828886  4.09861605502593 5.40619251480237  C 4.09861605502593 3.43821236819335  2.29449859156042 2.84654922427179  1.73651473429283 2.71176205834881  L 1.64639988621862 2.69163150759408  C 1.28958149788437 2.60323213254072  1.07112126012871 2.25838704569884  1.15167847280111 1.91310433818839  C 1.23223568547351 1.56738401000937  1.58495794434984 1.34375984836445  1.94632758763733 1.41159105199451  C 1.94632758763733 1.41159105199451  1.9850132547399 1.4185929826918  2.05510258101984 1.43522256809789  C 2.29085758759783 1.48423608297896  3.10234634576105 1.63433997230227  4.2328780761466 1.63433997230227  C 5.65560037453035 1.63433997230227  7.79560045354519 1.39058525990263  9.90874812833591 0.229140005488501  C 10.2250603475863 0.0558422207304059  10.6264810344623 0.150368285143906  10.8221849974518 0.445324615767545  C 11.0183440859365 0.739843325722594  10.9400625007408 1.1302009620969  10.6437758032846 1.3332569523185  C 9.0189777849769 2.44831441586303  8.0559322368707 3.85220152067104  7.7805813121995 5.50640764790744  C 7.21076419205347 8.93472796557141  9.72442230272956 12.5087759658729  10.1199263581664 13.0452989055533  C 10.2396243634367 13.1638941067387  10.3133546936792 13.3253761334451  10.3133546936792 13.5034877455576  Z M 5.46490279198946 5.35586613791555  C 5.5422741261946 5.87488425085268  6.0105982608833 9.63185769062104  3.86286104844794 12.8466191220175  L 8.36268682071926 12.8466191220175  C 7.40919890801486 11.3018181619263  5.93095129920155 8.31899568487787  6.43295472054424 5.29941307166859  C 6.59816527534696 4.30426367131527  6.96272079710173 3.38701074996938  7.52252515635061 2.55421861765963  C 6.43614059901151 2.81985436348833  5.43122350533547 2.9200694965934  4.6019848528546 2.94195053002245  C 5.09033450933757 3.51960981254944  5.45352465460635 4.30207556797237  5.46490279198946 5.35586613791555  Z " fill-rule="evenodd" />
    </mask>
  </defs>
  <g transform="matrix(1 0 0 1 -296 -382 )">
    <path d="M 10.3133546936792 13.5034877455576  C 10.3142649446699 13.8654000384742  10.0084206118119 14.1594811277606  9.63157670168341 14.1594811277606  C 9.62884594871146 14.1594811277606  9.62566007024419 14.159043507092  9.62247419177691 14.1594811277606  L 2.49338843301714 14.1594811277606  C 2.2248643907758 14.1594811277606  1.9813722507773 14.0080643764316  1.8707767554135 13.772624456735  C 1.76018126004969 13.5371845370384  1.80432843309615 13.2614835158323  1.98182737627263 13.0680551803195  C 4.82181046709624 9.98195422548589  4.11545569835293 5.55542116278851  4.10771856493242 5.51122147526183  C 4.1018019334932 5.47621182177534  4.09861605502593 5.44120216828886  4.09861605502593 5.40619251480237  C 4.09861605502593 3.43821236819335  2.29449859156042 2.84654922427179  1.73651473429283 2.71176205834881  L 1.64639988621862 2.69163150759408  C 1.28958149788437 2.60323213254072  1.07112126012871 2.25838704569884  1.15167847280111 1.91310433818839  C 1.23223568547351 1.56738401000937  1.58495794434984 1.34375984836445  1.94632758763733 1.41159105199451  C 1.94632758763733 1.41159105199451  1.9850132547399 1.4185929826918  2.05510258101984 1.43522256809789  C 2.29085758759783 1.48423608297896  3.10234634576105 1.63433997230227  4.2328780761466 1.63433997230227  C 5.65560037453035 1.63433997230227  7.79560045354519 1.39058525990263  9.90874812833591 0.229140005488501  C 10.2250603475863 0.0558422207304059  10.6264810344623 0.150368285143906  10.8221849974518 0.445324615767545  C 11.0183440859365 0.739843325722594  10.9400625007408 1.1302009620969  10.6437758032846 1.3332569523185  C 9.0189777849769 2.44831441586303  8.0559322368707 3.85220152067104  7.7805813121995 5.50640764790744  C 7.21076419205347 8.93472796557141  9.72442230272956 12.5087759658729  10.1199263581664 13.0452989055533  C 10.2396243634367 13.1638941067387  10.3133546936792 13.3253761334451  10.3133546936792 13.5034877455576  Z M 5.46490279198946 5.35586613791555  C 5.5422741261946 5.87488425085268  6.0105982608833 9.63185769062104  3.86286104844794 12.8466191220175  L 8.36268682071926 12.8466191220175  C 7.40919890801486 11.3018181619263  5.93095129920155 8.31899568487787  6.43295472054424 5.29941307166859  C 6.59816527534696 4.30426367131527  6.96272079710173 3.38701074996938  7.52252515635061 2.55421861765963  C 6.43614059901151 2.81985436348833  5.43122350533547 2.9200694965934  4.6019848528546 2.94195053002245  C 5.09033450933757 3.51960981254944  5.45352465460635 4.30207556797237  5.46490279198946 5.35586613791555  Z " fill-rule="nonzero" fill="#6e6e96" stroke="none" transform="matrix(1 0 0 1 296 382 )" />
    <path d="M 10.3133546936792 13.5034877455576  C 10.3142649446699 13.8654000384742  10.0084206118119 14.1594811277606  9.63157670168341 14.1594811277606  C 9.62884594871146 14.1594811277606  9.62566007024419 14.159043507092  9.62247419177691 14.1594811277606  L 2.49338843301714 14.1594811277606  C 2.2248643907758 14.1594811277606  1.9813722507773 14.0080643764316  1.8707767554135 13.772624456735  C 1.76018126004969 13.5371845370384  1.80432843309615 13.2614835158323  1.98182737627263 13.0680551803195  C 4.82181046709624 9.98195422548589  4.11545569835293 5.55542116278851  4.10771856493242 5.51122147526183  C 4.1018019334932 5.47621182177534  4.09861605502593 5.44120216828886  4.09861605502593 5.40619251480237  C 4.09861605502593 3.43821236819335  2.29449859156042 2.84654922427179  1.73651473429283 2.71176205834881  L 1.64639988621862 2.69163150759408  C 1.28958149788437 2.60323213254072  1.07112126012871 2.25838704569884  1.15167847280111 1.91310433818839  C 1.23223568547351 1.56738401000937  1.58495794434984 1.34375984836445  1.94632758763733 1.41159105199451  C 1.94632758763733 1.41159105199451  1.9850132547399 1.4185929826918  2.05510258101984 1.43522256809789  C 2.29085758759783 1.48423608297896  3.10234634576105 1.63433997230227  4.2328780761466 1.63433997230227  C 5.65560037453035 1.63433997230227  7.79560045354519 1.39058525990263  9.90874812833591 0.229140005488501  C 10.2250603475863 0.0558422207304059  10.6264810344623 0.150368285143906  10.8221849974518 0.445324615767545  C 11.0183440859365 0.739843325722594  10.9400625007408 1.1302009620969  10.6437758032846 1.3332569523185  C 9.0189777849769 2.44831441586303  8.0559322368707 3.85220152067104  7.7805813121995 5.50640764790744  C 7.21076419205347 8.93472796557141  9.72442230272956 12.5087759658729  10.1199263581664 13.0452989055533  C 10.2396243634367 13.1638941067387  10.3133546936792 13.3253761334451  10.3133546936792 13.5034877455576  Z " stroke-width="2" stroke="#797979" fill="none" transform="matrix(1 0 0 1 296 382 )" mask="url(#clip227)" />
    <path d="M 5.46490279198946 5.35586613791555  C 5.5422741261946 5.87488425085268  6.0105982608833 9.63185769062104  3.86286104844794 12.8466191220175  L 8.36268682071926 12.8466191220175  C 7.40919890801486 11.3018181619263  5.93095129920155 8.31899568487787  6.43295472054424 5.29941307166859  C 6.59816527534696 4.30426367131527  6.96272079710173 3.38701074996938  7.52252515635061 2.55421861765963  C 6.43614059901151 2.81985436348833  5.43122350533547 2.9200694965934  4.6019848528546 2.94195053002245  C 5.09033450933757 3.51960981254944  5.45352465460635 4.30207556797237  5.46490279198946 5.35586613791555  Z " stroke-width="2" stroke="#797979" fill="none" transform="matrix(1 0 0 1 296 382 )" mask="url(#clip227)" />
  </g>
</svg>