<?xml version="1.0" encoding="utf-8"?>
<svg version="1.1" xmlns:xlink="http://www.w3.org/1999/xlink" width="85px" height="23px" xmlns="http://www.w3.org/2000/svg">
  <defs>
    <mask fill="white" id="clip232">
      <path d="M 2.29982509577435 21.7491047930196  C 2.16910640328168 21.8996954393672  1.98936820110424 21.9759089981895  1.80874676451806 21.9759089981895  C 1.65020618815025 21.9759089981895  1.49122399457806 21.917141916688  1.36447985692468 21.797771282388  C 1.09332689344323 21.5425017721158  1.0721292676336 21.1067989569209  1.31766843326175 20.8249006128433  C 12.2967137510343 8.21339309905155  28.0129868200536 0.980450896121902  44.4362890332648 0.980450896121902  C 59.4733548419673 0.980450896121902  73.7256668785094 6.89847965045498  84.5678108629281 17.6436732087491  C 84.8327811855485 17.906288604209  84.8424967640445 18.3419914194039  84.5903333403509 18.6174621139423  C 84.3377282994528 18.8924736906565  83.9190751897127 18.9025742827896  83.6536632498881 18.6408771229781  C 73.0592665171193 8.14085248282311  59.1315431257871 2.35780436881383  44.4362890332647 2.35780436881383  C 28.3865949749482 2.35780436881383  13.0284734586707 9.42592327284471  2.29982509577435 21.7491047930196  Z " fill-rule="evenodd" />
    </mask>
  </defs>
  <g transform="matrix(1 0 0 1 -294 -378 )">
    <path d="M 2.29982509577435 21.7491047930196  C 2.16910640328168 21.8996954393672  1.98936820110424 21.9759089981895  1.80874676451806 21.9759089981895  C 1.65020618815025 21.9759089981895  1.49122399457806 21.917141916688  1.36447985692468 21.797771282388  C 1.09332689344323 21.5425017721158  1.0721292676336 21.1067989569209  1.31766843326175 20.8249006128433  C 12.2967137510343 8.21339309905155  28.0129868200536 0.980450896121902  44.4362890332648 0.980450896121902  C 59.4733548419673 0.980450896121902  73.7256668785094 6.89847965045498  84.5678108629281 17.6436732087491  C 84.8327811855485 17.906288604209  84.8424967640445 18.3419914194039  84.5903333403509 18.6174621139423  C 84.3377282994528 18.8924736906565  83.9190751897127 18.9025742827896  83.6536632498881 18.6408771229781  C 73.0592665171193 8.14085248282311  59.1315431257871 2.35780436881383  44.4362890332647 2.35780436881383  C 28.3865949749482 2.35780436881383  13.0284734586707 9.42592327284471  2.29982509577435 21.7491047930196  Z " fill-rule="nonzero" fill="#6e6e96" stroke="none" transform="matrix(1 0 0 1 294 378 )" />
    <path d="M 2.29982509577435 21.7491047930196  C 2.16910640328168 21.8996954393672  1.98936820110424 21.9759089981895  1.80874676451806 21.9759089981895  C 1.65020618815025 21.9759089981895  1.49122399457806 21.917141916688  1.36447985692468 21.797771282388  C 1.09332689344323 21.5425017721158  1.0721292676336 21.1067989569209  1.31766843326175 20.8249006128433  C 12.2967137510343 8.21339309905155  28.0129868200536 0.980450896121902  44.4362890332648 0.980450896121902  C 59.4733548419673 0.980450896121902  73.7256668785094 6.89847965045498  84.5678108629281 17.6436732087491  C 84.8327811855485 17.906288604209  84.8424967640445 18.3419914194039  84.5903333403509 18.6174621139423  C 84.3377282994528 18.8924736906565  83.9190751897127 18.9025742827896  83.6536632498881 18.6408771229781  C 73.0592665171193 8.14085248282311  59.1315431257871 2.35780436881383  44.4362890332647 2.35780436881383  C 28.3865949749482 2.35780436881383  13.0284734586707 9.42592327284471  2.29982509577435 21.7491047930196  Z " stroke-width="2" stroke="#797979" fill="none" transform="matrix(1 0 0 1 294 378 )" mask="url(#clip232)" />
  </g>
</svg>