<?xml version="1.0" encoding="utf-8"?>
<svg version="1.1" xmlns:xlink="http://www.w3.org/1999/xlink" width="32px" height="42px" xmlns="http://www.w3.org/2000/svg">
  <defs>
    <mask fill="white" id="clip233">
      <path d="M 20.6018431821677 40.9243725233785  C 18.444660710996 10.9488971503297  29.1532579209819 3.42021120667518  31.5747503094382 2.11218053311315  C 30.8218266505067 1.93195083696474  30.0662059516028 1.76218902720877  29.301145612796 1.61108736276111  L 19.3369314351627 0.637573928262424  C 6.7044457116084 8.0192543369272  2.20578303782514 22.1390677038682  0.69678917332769 29.2281024190394  C 0.710274373189148 29.2267370425535  0.724209079712662 29.2262819170581  0.737694279574119 29.2249165405722  C 5.66923186891028 35.2589703575817  12.6491713172023 39.5203103703031  20.6018431821677 40.9243725233785  Z " fill-rule="evenodd" />
    </mask>
  </defs>
  <g transform="matrix(1 0 0 1 -321 -379 )">
    <path d="M 20.6018431821677 40.9243725233785  C 18.444660710996 10.9488971503297  29.1532579209819 3.42021120667518  31.5747503094382 2.11218053311315  C 30.8218266505067 1.93195083696474  30.0662059516028 1.76218902720877  29.301145612796 1.61108736276111  L 19.3369314351627 0.637573928262424  C 6.7044457116084 8.0192543369272  2.20578303782514 22.1390677038682  0.69678917332769 29.2281024190394  C 0.710274373189148 29.2267370425535  0.724209079712662 29.2262819170581  0.737694279574119 29.2249165405722  C 5.66923186891028 35.2589703575817  12.6491713172023 39.5203103703031  20.6018431821677 40.9243725233785  Z " fill-rule="nonzero" fill="#e0b882" stroke="none" transform="matrix(1 0 0 1 321 379 )" />
    <path d="M 20.6018431821677 40.9243725233785  C 18.444660710996 10.9488971503297  29.1532579209819 3.42021120667518  31.5747503094382 2.11218053311315  C 30.8218266505067 1.93195083696474  30.0662059516028 1.76218902720877  29.301145612796 1.61108736276111  L 19.3369314351627 0.637573928262424  C 6.7044457116084 8.0192543369272  2.20578303782514 22.1390677038682  0.69678917332769 29.2281024190394  C 0.710274373189148 29.2267370425535  0.724209079712662 29.2262819170581  0.737694279574119 29.2249165405722  C 5.66923186891028 35.2589703575817  12.6491713172023 39.5203103703031  20.6018431821677 40.9243725233785  Z " stroke-width="2" stroke="#797979" fill="none" transform="matrix(1 0 0 1 321 379 )" mask="url(#clip233)" />
  </g>
</svg>