<?xml version="1.0" encoding="utf-8"?>
<svg version="1.1" xmlns:xlink="http://www.w3.org/1999/xlink" width="25px" height="20px" xmlns="http://www.w3.org/2000/svg">
  <defs>
    <mask fill="white" id="clip241">
      <path d="M 24.5780395740197 13.2472009572881  C 24.5812001677372 10.7368715095484  22.9634276977502 8.5687785862339  20.6227822932252 7.55411645254032  C 20.6227822932252 7.51931273819199  20.6254913735545 7.48584762824167  20.6254913735545 7.45015151096134  C 20.6254913735545 3.79843871318287  17.3646616838402 0.835214777448891  13.3412258814247 0.835214777448891  C 9.87947273395307 0.835214777448891  6.98075678159 3.02963358725761  6.24253239185266 5.97233225555539  C 6.12784799124516 5.9629620247693  6.01271207724943 5.95894621157526  5.89712464986547 5.95894621157526  C 3.50320066553074 5.95894621157526  1.56304763635563 7.72099580082589  1.56304763635563 9.89355073880041  C 1.56304763635563 10.3589388678428  1.65380182738755 10.806032736779  1.81679816053446 11.2192152942989  C 1.14494623886526 12.0812765266191  0.748968997397592 13.134758187855  0.748968997397592 14.2694485159037  C 0.748968997397592 17.1501251804269  3.28602272579762 19.491344272551  6.4402952558924 19.5538124777916  L 6.4402952558924 19.5564896865876  L 17.6315060962773 19.5564896865876  C 21.4680153559703 19.5564896865876  24.5780395740197 16.731588205315  24.5780395740197 13.2472009572881  Z " fill-rule="evenodd" />
    </mask>
  </defs>
  <g transform="matrix(1 0 0 1 -371 -327 )">
    <path d="M 24.5780395740197 13.2472009572881  C 24.5812001677372 10.7368715095484  22.9634276977502 8.5687785862339  20.6227822932252 7.55411645254032  C 20.6227822932252 7.51931273819199  20.6254913735545 7.48584762824167  20.6254913735545 7.45015151096134  C 20.6254913735545 3.79843871318287  17.3646616838402 0.835214777448891  13.3412258814247 0.835214777448891  C 9.87947273395307 0.835214777448891  6.98075678159 3.02963358725761  6.24253239185266 5.97233225555539  C 6.12784799124516 5.9629620247693  6.01271207724943 5.95894621157526  5.89712464986547 5.95894621157526  C 3.50320066553074 5.95894621157526  1.56304763635563 7.72099580082589  1.56304763635563 9.89355073880041  C 1.56304763635563 10.3589388678428  1.65380182738755 10.806032736779  1.81679816053446 11.2192152942989  C 1.14494623886526 12.0812765266191  0.748968997397592 13.134758187855  0.748968997397592 14.2694485159037  C 0.748968997397592 17.1501251804269  3.28602272579762 19.491344272551  6.4402952558924 19.5538124777916  L 6.4402952558924 19.5564896865876  L 17.6315060962773 19.5564896865876  C 21.4680153559703 19.5564896865876  24.5780395740197 16.731588205315  24.5780395740197 13.2472009572881  Z " fill-rule="nonzero" fill="#ffffff" stroke="none" transform="matrix(1 0 0 1 371 327 )" />
    <path d="M 24.5780395740197 13.2472009572881  C 24.5812001677372 10.7368715095484  22.9634276977502 8.5687785862339  20.6227822932252 7.55411645254032  C 20.6227822932252 7.51931273819199  20.6254913735545 7.48584762824167  20.6254913735545 7.45015151096134  C 20.6254913735545 3.79843871318287  17.3646616838402 0.835214777448891  13.3412258814247 0.835214777448891  C 9.87947273395307 0.835214777448891  6.98075678159 3.02963358725761  6.24253239185266 5.97233225555539  C 6.12784799124516 5.9629620247693  6.01271207724943 5.95894621157526  5.89712464986547 5.95894621157526  C 3.50320066553074 5.95894621157526  1.56304763635563 7.72099580082589  1.56304763635563 9.89355073880041  C 1.56304763635563 10.3589388678428  1.65380182738755 10.806032736779  1.81679816053446 11.2192152942989  C 1.14494623886526 12.0812765266191  0.748968997397592 13.134758187855  0.748968997397592 14.2694485159037  C 0.748968997397592 17.1501251804269  3.28602272579762 19.491344272551  6.4402952558924 19.5538124777916  L 6.4402952558924 19.5564896865876  L 17.6315060962773 19.5564896865876  C 21.4680153559703 19.5564896865876  24.5780395740197 16.731588205315  24.5780395740197 13.2472009572881  Z " stroke-width="2" stroke="#797979" fill="none" transform="matrix(1 0 0 1 371 327 )" mask="url(#clip241)" />
  </g>
</svg>