<?xml version="1.0" encoding="utf-8"?>
<svg version="1.1" xmlns:xlink="http://www.w3.org/1999/xlink" width="26px" height="21px" xmlns="http://www.w3.org/2000/svg">
  <defs>
    <mask fill="white" id="clip242">
      <path d="M 25.0716346770286 13.1381350653387  C 25.0725311363376 16.9527820467742  21.6776397332603 20.0572436198807  17.5041734203407 20.0572436198807  L 6.39435320424943 20.0572436198807  C 6.36745942498026 20.0572436198807  6.34146210502007 20.0559161705193  6.3150165554054 20.0528187886761  C 2.86633759378974 19.952375120333  0.0716256980692032 17.3173881380284  0.0716256980692032 14.1505364449378  C 0.0716256980692032 13.0314966333092  0.410935546515158 11.9544927181238  1.05548978966609 11.0151010533995  C 0.938501849845224 10.6230610086772  0.879335535453064 10.2195164028229  0.879335535453064 9.81110448264373  C 0.879335535453064 7.34249115362987  3.02545912113228 5.32521060747928  5.69511494325118 5.24821854452026  C 6.70901042169862 2.22959869678186  9.73456058947947 0.164972456742669  13.2437505544507 0.164972456742669  C 17.4848995451978 0.164972456742669  20.9564382191922 3.23403538021284  21.139764147877 7.06947906830965  C 23.5440680145402 8.27613053778819  25.0738758253011 10.615096312509  25.0716346770286 13.1381350653387  Z M 6.40780009388401 18.7271393597954  C 6.4239363614455 18.7275818429159  6.4405208586615 18.7284668091568  6.45665712622299 18.7297942585181  L 17.5041734203407 18.7297942585181  C 20.9358196550859 18.7297942585181  23.7278421728795 16.2209149655429  23.7278421728795 13.1368076159773  C 23.7296350914974 11.0044814585086  22.345950148099 9.02702439319893  20.2029641700012 8.09913728960652  C 19.9586790083063 7.99338382381798  19.8009021699272 7.75488542189317  19.8009021699272 7.49116548210248  L 19.8026950885451 7.41505838538437  C 19.8035915478541 4.13714342905982  16.8614120958077 1.49197933498475  13.2446470137597 1.49197933498475  C 10.2074428749622 1.49197933498475  7.51851317770043 3.42253318952632  6.85020276286174 6.08229922657639  C 6.77086611401772 6.39778969146022  6.47458631240243 6.61239400488049  6.14334459773724 6.58407508517142  C 6.04742345167723 6.5765528721237  5.9515023056172 6.57301300716007  5.85468470024823 6.57301300716007  C 3.85289106331351 6.57301300716007  2.2244727285657 8.02568509161113  2.2244727285657 9.81110448264374  C 2.2244727285657 10.1774805063798  2.29350009535655 10.5385467326704  2.43065836962929 10.8845685328656  C 2.51627023363613 11.1013852618881  2.48041186127723 11.3465209106197  2.3369783718417 11.5310363718491  C 1.73455771621245 12.3027269339212  1.41631466152735 13.2084898814909  1.41631466152735 14.1505364449379  C 1.41631466152735 16.6200347401926  3.65522178568518 18.6727139359795  6.40780009388401 18.7271393597954  Z " fill-rule="evenodd" />
    </mask>
  </defs>
  <g transform="matrix(1 0 0 1 -371 -327 )">
    <path d="M 25.0716346770286 13.1381350653387  C 25.0725311363376 16.9527820467742  21.6776397332603 20.0572436198807  17.5041734203407 20.0572436198807  L 6.39435320424943 20.0572436198807  C 6.36745942498026 20.0572436198807  6.34146210502007 20.0559161705193  6.3150165554054 20.0528187886761  C 2.86633759378974 19.952375120333  0.0716256980692032 17.3173881380284  0.0716256980692032 14.1505364449378  C 0.0716256980692032 13.0314966333092  0.410935546515158 11.9544927181238  1.05548978966609 11.0151010533995  C 0.938501849845224 10.6230610086772  0.879335535453064 10.2195164028229  0.879335535453064 9.81110448264373  C 0.879335535453064 7.34249115362987  3.02545912113228 5.32521060747928  5.69511494325118 5.24821854452026  C 6.70901042169862 2.22959869678186  9.73456058947947 0.164972456742669  13.2437505544507 0.164972456742669  C 17.4848995451978 0.164972456742669  20.9564382191922 3.23403538021284  21.139764147877 7.06947906830965  C 23.5440680145402 8.27613053778819  25.0738758253011 10.615096312509  25.0716346770286 13.1381350653387  Z M 6.40780009388401 18.7271393597954  C 6.4239363614455 18.7275818429159  6.4405208586615 18.7284668091568  6.45665712622299 18.7297942585181  L 17.5041734203407 18.7297942585181  C 20.9358196550859 18.7297942585181  23.7278421728795 16.2209149655429  23.7278421728795 13.1368076159773  C 23.7296350914974 11.0044814585086  22.345950148099 9.02702439319893  20.2029641700012 8.09913728960652  C 19.9586790083063 7.99338382381798  19.8009021699272 7.75488542189317  19.8009021699272 7.49116548210248  L 19.8026950885451 7.41505838538437  C 19.8035915478541 4.13714342905982  16.8614120958077 1.49197933498475  13.2446470137597 1.49197933498475  C 10.2074428749622 1.49197933498475  7.51851317770043 3.42253318952632  6.85020276286174 6.08229922657639  C 6.77086611401772 6.39778969146022  6.47458631240243 6.61239400488049  6.14334459773724 6.58407508517142  C 6.04742345167723 6.5765528721237  5.9515023056172 6.57301300716007  5.85468470024823 6.57301300716007  C 3.85289106331351 6.57301300716007  2.2244727285657 8.02568509161113  2.2244727285657 9.81110448264374  C 2.2244727285657 10.1774805063798  2.29350009535655 10.5385467326704  2.43065836962929 10.8845685328656  C 2.51627023363613 11.1013852618881  2.48041186127723 11.3465209106197  2.3369783718417 11.5310363718491  C 1.73455771621245 12.3027269339212  1.41631466152735 13.2084898814909  1.41631466152735 14.1505364449379  C 1.41631466152735 16.6200347401926  3.65522178568518 18.6727139359795  6.40780009388401 18.7271393597954  Z " fill-rule="nonzero" fill="#d0d0e3" stroke="none" transform="matrix(1 0 0 1 371 327 )" />
    <path d="M 25.0716346770286 13.1381350653387  C 25.0725311363376 16.9527820467742  21.6776397332603 20.0572436198807  17.5041734203407 20.0572436198807  L 6.39435320424943 20.0572436198807  C 6.36745942498026 20.0572436198807  6.34146210502007 20.0559161705193  6.3150165554054 20.0528187886761  C 2.86633759378974 19.952375120333  0.0716256980692032 17.3173881380284  0.0716256980692032 14.1505364449378  C 0.0716256980692032 13.0314966333092  0.410935546515158 11.9544927181238  1.05548978966609 11.0151010533995  C 0.938501849845224 10.6230610086772  0.879335535453064 10.2195164028229  0.879335535453064 9.81110448264373  C 0.879335535453064 7.34249115362987  3.02545912113228 5.32521060747928  5.69511494325118 5.24821854452026  C 6.70901042169862 2.22959869678186  9.73456058947947 0.164972456742669  13.2437505544507 0.164972456742669  C 17.4848995451978 0.164972456742669  20.9564382191922 3.23403538021284  21.139764147877 7.06947906830965  C 23.5440680145402 8.27613053778819  25.0738758253011 10.615096312509  25.0716346770286 13.1381350653387  Z " stroke-width="2" stroke="#797979" fill="none" transform="matrix(1 0 0 1 371 327 )" mask="url(#clip242)" />
    <path d="M 6.40780009388401 18.7271393597954  C 6.4239363614455 18.7275818429159  6.4405208586615 18.7284668091568  6.45665712622299 18.7297942585181  L 17.5041734203407 18.7297942585181  C 20.9358196550859 18.7297942585181  23.7278421728795 16.2209149655429  23.7278421728795 13.1368076159773  C 23.7296350914974 11.0044814585086  22.345950148099 9.02702439319893  20.2029641700012 8.09913728960652  C 19.9586790083063 7.99338382381798  19.8009021699272 7.75488542189317  19.8009021699272 7.49116548210248  L 19.8026950885451 7.41505838538437  C 19.8035915478541 4.13714342905982  16.8614120958077 1.49197933498475  13.2446470137597 1.49197933498475  C 10.2074428749622 1.49197933498475  7.51851317770043 3.42253318952632  6.85020276286174 6.08229922657639  C 6.77086611401772 6.39778969146022  6.47458631240243 6.61239400488049  6.14334459773724 6.58407508517142  C 6.04742345167723 6.5765528721237  5.9515023056172 6.57301300716007  5.85468470024823 6.57301300716007  C 3.85289106331351 6.57301300716007  2.2244727285657 8.02568509161113  2.2244727285657 9.81110448264374  C 2.2244727285657 10.1774805063798  2.29350009535655 10.5385467326704  2.43065836962929 10.8845685328656  C 2.51627023363613 11.1013852618881  2.48041186127723 11.3465209106197  2.3369783718417 11.5310363718491  C 1.73455771621245 12.3027269339212  1.41631466152735 13.2084898814909  1.41631466152735 14.1505364449379  C 1.41631466152735 16.6200347401926  3.65522178568518 18.6727139359795  6.40780009388401 18.7271393597954  Z " stroke-width="2" stroke="#797979" fill="none" transform="matrix(1 0 0 1 371 327 )" mask="url(#clip242)" />
  </g>
</svg>