<?xml version="1.0" encoding="utf-8"?>
<svg version="1.1" xmlns:xlink="http://www.w3.org/1999/xlink" width="15px" height="7px" xmlns="http://www.w3.org/2000/svg">
  <defs>
    <mask fill="white" id="clip243">
      <path d="M 9.05665774508049 6.08201806542693  C 9.03040050496564 6.42936731498345  8.74375896704503 6.69618463661733  8.40241484555182 6.69618463661733  C 8.3936624321802 6.69618463661733  8.38534763947716 6.69618463661733  8.37703284677412 6.69574215349687  C 8.02431058789778 6.68202517676279  7.74554622201165 6.38998631726303  7.74554622201165 6.03334492217697  C 7.74554622201165 4.3209352460193  7.29260883003026 3.13242558447938  6.39942504545632 2.50055968847082  C 4.70627067871622 1.3023153982809  1.88624309037991 2.32268147404824  1.85779774692214 2.33285858581869  C 1.51776648743467 2.45896627514812  1.14053747111779 2.28197302696645  1.01581558057219 1.93816364237356  C 0.89109369002659 1.59435425778066  1.06482909545327 1.21337629106962  1.40486035494075 1.08682611861972  C 1.54664945156101 1.03417062728567  4.88832087684595 -0.183100437083768  7.14731876806134 1.40939631343081  C 7.77267870346367 1.85055198452363  8.24618426686837 2.45232902834131  8.56520973426396 3.20986013055887  C 9.37655845381324 1.69612537548512  10.8675320716689 0.325755151438536  13.3904152260387 0.325755151438536  C 13.7527651396238 0.325755151438536  14.0468462289102 0.622661325263289  14.0468462289102 0.989479832119801  C 14.0468462289102 1.35629833897631  13.7527651396238 1.65320451280107  13.3904152260387 1.65320451280107  C 9.43651248540885 1.65320451280107  9.0702239858065 5.90148495228162  9.05665774508049 6.08201806542693  Z " fill-rule="evenodd" />
    </mask>
  </defs>
  <g transform="matrix(1 0 0 1 -337 -328 )">
    <path d="M 9.05665774508049 6.08201806542693  C 9.03040050496564 6.42936731498345  8.74375896704503 6.69618463661733  8.40241484555182 6.69618463661733  C 8.3936624321802 6.69618463661733  8.38534763947716 6.69618463661733  8.37703284677412 6.69574215349687  C 8.02431058789778 6.68202517676279  7.74554622201165 6.38998631726303  7.74554622201165 6.03334492217697  C 7.74554622201165 4.3209352460193  7.29260883003026 3.13242558447938  6.39942504545632 2.50055968847082  C 4.70627067871622 1.3023153982809  1.88624309037991 2.32268147404824  1.85779774692214 2.33285858581869  C 1.51776648743467 2.45896627514812  1.14053747111779 2.28197302696645  1.01581558057219 1.93816364237356  C 0.89109369002659 1.59435425778066  1.06482909545327 1.21337629106962  1.40486035494075 1.08682611861972  C 1.54664945156101 1.03417062728567  4.88832087684595 -0.183100437083768  7.14731876806134 1.40939631343081  C 7.77267870346367 1.85055198452363  8.24618426686837 2.45232902834131  8.56520973426396 3.20986013055887  C 9.37655845381324 1.69612537548512  10.8675320716689 0.325755151438536  13.3904152260387 0.325755151438536  C 13.7527651396238 0.325755151438536  14.0468462289102 0.622661325263289  14.0468462289102 0.989479832119801  C 14.0468462289102 1.35629833897631  13.7527651396238 1.65320451280107  13.3904152260387 1.65320451280107  C 9.43651248540885 1.65320451280107  9.0702239858065 5.90148495228162  9.05665774508049 6.08201806542693  Z " fill-rule="nonzero" fill="#ffffff" stroke="none" transform="matrix(1 0 0 1 337 328 )" />
    <path d="M 9.05665774508049 6.08201806542693  C 9.03040050496564 6.42936731498345  8.74375896704503 6.69618463661733  8.40241484555182 6.69618463661733  C 8.3936624321802 6.69618463661733  8.38534763947716 6.69618463661733  8.37703284677412 6.69574215349687  C 8.02431058789778 6.68202517676279  7.74554622201165 6.38998631726303  7.74554622201165 6.03334492217697  C 7.74554622201165 4.3209352460193  7.29260883003026 3.13242558447938  6.39942504545632 2.50055968847082  C 4.70627067871622 1.3023153982809  1.88624309037991 2.32268147404824  1.85779774692214 2.33285858581869  C 1.51776648743467 2.45896627514812  1.14053747111779 2.28197302696645  1.01581558057219 1.93816364237356  C 0.89109369002659 1.59435425778066  1.06482909545327 1.21337629106962  1.40486035494075 1.08682611861972  C 1.54664945156101 1.03417062728567  4.88832087684595 -0.183100437083768  7.14731876806134 1.40939631343081  C 7.77267870346367 1.85055198452363  8.24618426686837 2.45232902834131  8.56520973426396 3.20986013055887  C 9.37655845381324 1.69612537548512  10.8675320716689 0.325755151438536  13.3904152260387 0.325755151438536  C 13.7527651396238 0.325755151438536  14.0468462289102 0.622661325263289  14.0468462289102 0.989479832119801  C 14.0468462289102 1.35629833897631  13.7527651396238 1.65320451280107  13.3904152260387 1.65320451280107  C 9.43651248540885 1.65320451280107  9.0702239858065 5.90148495228162  9.05665774508049 6.08201806542693  Z " stroke-width="2" stroke="#797979" fill="none" transform="matrix(1 0 0 1 337 328 )" mask="url(#clip243)" />
  </g>
</svg>