<?xml version="1.0" encoding="utf-8"?>
<svg version="1.1" xmlns:xlink="http://www.w3.org/1999/xlink" width="8px" height="2px" xmlns="http://www.w3.org/2000/svg">
  <defs>
    <mask fill="white" id="clip244">
      <path d="M 7.5770516062871 1.17143850472311  C 7.5770516062871 1.48585436774298  7.28577128927956 1.74034537387848  6.92687232725239 1.74034537387848  L 0.927017940320078 1.74034537387848  C 0.568118978292919 1.74034537387848  0.27683866128537 1.48585436774298  0.27683866128537 1.17143850472311  C 0.27683866128537 0.857022641703246  0.568118978292919 0.602531635567743  0.927017940320078 0.602531635567743  L 6.92687232725239 0.602531635567743  C 7.28577128927956 0.602531635567743  7.5770516062871 0.857022641703246  7.5770516062871 1.17143850472311  Z " fill-rule="evenodd" />
    </mask>
  </defs>
  <g transform="matrix(1 0 0 1 -342 -333 )">
    <path d="M 7.5770516062871 1.17143850472311  C 7.5770516062871 1.48585436774298  7.28577128927956 1.74034537387848  6.92687232725239 1.74034537387848  L 0.927017940320078 1.74034537387848  C 0.568118978292919 1.74034537387848  0.27683866128537 1.48585436774298  0.27683866128537 1.17143850472311  C 0.27683866128537 0.857022641703246  0.568118978292919 0.602531635567743  0.927017940320078 0.602531635567743  L 6.92687232725239 0.602531635567743  C 7.28577128927956 0.602531635567743  7.5770516062871 0.857022641703246  7.5770516062871 1.17143850472311  Z " fill-rule="nonzero" fill="#ffffff" stroke="none" transform="matrix(1 0 0 1 342 333 )" />
    <path d="M 7.5770516062871 1.17143850472311  C 7.5770516062871 1.48585436774298  7.28577128927956 1.74034537387848  6.92687232725239 1.74034537387848  L 0.927017940320078 1.74034537387848  C 0.568118978292919 1.74034537387848  0.27683866128537 1.48585436774298  0.27683866128537 1.17143850472311  C 0.27683866128537 0.857022641703246  0.568118978292919 0.602531635567743  0.927017940320078 0.602531635567743  L 6.92687232725239 0.602531635567743  C 7.28577128927956 0.602531635567743  7.5770516062871 0.857022641703246  7.5770516062871 1.17143850472311  Z " stroke-width="2" stroke="#797979" fill="none" transform="matrix(1 0 0 1 342 333 )" mask="url(#clip244)" />
  </g>
</svg>