<?xml version="1.0" encoding="utf-8"?>
<svg version="1.1" xmlns:xlink="http://www.w3.org/1999/xlink" width="11px" height="7px" xmlns="http://www.w3.org/2000/svg">
  <defs>
    <mask fill="white" id="clip245">
      <path d="M 7.09526227001744 5.39745980449094  C 7.06652193781269 5.74303912156565  6.762894234682 6.00985644319953  6.40178586714181 6.00985644319953  C 6.39251479223705 6.00985644319953  6.38370727107754 6.00985644319953  6.37397264242755 6.00941396007907  C 6.00081187751118 5.99569698334499  5.70599169554001 5.70410060696569  5.70599169554001 5.34745921187962  C 5.70599169554001 4.17974625700105  5.38845738005219 3.37619691025627  4.76219627023604 2.95982029390888  C 3.5694724837394 2.16556309269363  1.50758542492208 2.85583676060215  1.48718906013161 2.86291649052942  C 1.12839846131763 2.98902417985886  0.726497364196529 2.81380086415901  0.594384546803798 2.46954899644566  C 0.461344621920574 2.12573961185276  0.645839012525171 1.74387667890081  1.00648382632012 1.61732650645091  C 1.11820027892242 1.57838799185095  3.75767530430593 0.672182561160791  5.55765449706396 1.87086933447115  C 5.96743600785409 2.14343893667093  6.29609561322762 2.49477053431154  6.54224265194885 2.92265171179073  C 7.22042178123162 1.91202026467339  8.36818085444018 1.05891280843773  10.1996817018744 1.05891280843773  C 10.5835042029312 1.05891280843773  10.8950123197309 1.35581898226249  10.8950123197309 1.722637489119  C 10.8950123197309 2.08945599597551  10.5835042029312 2.38636216980027  10.1996817018744 2.38636216980027  C 7.42253121415527 2.38636216980027  7.12029417226027 5.08904906953438  7.09526227001744 5.39745980449094  Z " fill-rule="evenodd" />
    </mask>
  </defs>
  <g transform="matrix(1 0 0 1 -350 -338 )">
    <path d="M 7.09526227001744 5.39745980449094  C 7.06652193781269 5.74303912156565  6.762894234682 6.00985644319953  6.40178586714181 6.00985644319953  C 6.39251479223705 6.00985644319953  6.38370727107754 6.00985644319953  6.37397264242755 6.00941396007907  C 6.00081187751118 5.99569698334499  5.70599169554001 5.70410060696569  5.70599169554001 5.34745921187962  C 5.70599169554001 4.17974625700105  5.38845738005219 3.37619691025627  4.76219627023604 2.95982029390888  C 3.5694724837394 2.16556309269363  1.50758542492208 2.85583676060215  1.48718906013161 2.86291649052942  C 1.12839846131763 2.98902417985886  0.726497364196529 2.81380086415901  0.594384546803798 2.46954899644566  C 0.461344621920574 2.12573961185276  0.645839012525171 1.74387667890081  1.00648382632012 1.61732650645091  C 1.11820027892242 1.57838799185095  3.75767530430593 0.672182561160791  5.55765449706396 1.87086933447115  C 5.96743600785409 2.14343893667093  6.29609561322762 2.49477053431154  6.54224265194885 2.92265171179073  C 7.22042178123162 1.91202026467339  8.36818085444018 1.05891280843773  10.1996817018744 1.05891280843773  C 10.5835042029312 1.05891280843773  10.8950123197309 1.35581898226249  10.8950123197309 1.722637489119  C 10.8950123197309 2.08945599597551  10.5835042029312 2.38636216980027  10.1996817018744 2.38636216980027  C 7.42253121415527 2.38636216980027  7.12029417226027 5.08904906953438  7.09526227001744 5.39745980449094  Z " fill-rule="nonzero" fill="#ffffff" stroke="none" transform="matrix(1 0 0 1 350 338 )" />
    <path d="M 7.09526227001744 5.39745980449094  C 7.06652193781269 5.74303912156565  6.762894234682 6.00985644319953  6.40178586714181 6.00985644319953  C 6.39251479223705 6.00985644319953  6.38370727107754 6.00985644319953  6.37397264242755 6.00941396007907  C 6.00081187751118 5.99569698334499  5.70599169554001 5.70410060696569  5.70599169554001 5.34745921187962  C 5.70599169554001 4.17974625700105  5.38845738005219 3.37619691025627  4.76219627023604 2.95982029390888  C 3.5694724837394 2.16556309269363  1.50758542492208 2.85583676060215  1.48718906013161 2.86291649052942  C 1.12839846131763 2.98902417985886  0.726497364196529 2.81380086415901  0.594384546803798 2.46954899644566  C 0.461344621920574 2.12573961185276  0.645839012525171 1.74387667890081  1.00648382632012 1.61732650645091  C 1.11820027892242 1.57838799185095  3.75767530430593 0.672182561160791  5.55765449706396 1.87086933447115  C 5.96743600785409 2.14343893667093  6.29609561322762 2.49477053431154  6.54224265194885 2.92265171179073  C 7.22042178123162 1.91202026467339  8.36818085444018 1.05891280843773  10.1996817018744 1.05891280843773  C 10.5835042029312 1.05891280843773  10.8950123197309 1.35581898226249  10.8950123197309 1.722637489119  C 10.8950123197309 2.08945599597551  10.5835042029312 2.38636216980027  10.1996817018744 2.38636216980027  C 7.42253121415527 2.38636216980027  7.12029417226027 5.08904906953438  7.09526227001744 5.39745980449094  Z " stroke-width="2" stroke="#797979" fill="none" transform="matrix(1 0 0 1 350 338 )" mask="url(#clip245)" />
  </g>
</svg>