<?xml version="1.0" encoding="utf-8"?>
<svg version="1.1" xmlns:xlink="http://www.w3.org/1999/xlink" width="7px" height="2px" xmlns="http://www.w3.org/2000/svg">
  <defs>
    <mask fill="white" id="clip246">
      <path d="M 6.77174554323364 0.583157196079288  C 6.77174554323364 0.897573059099152  6.47439688628842 1.15206406523466  6.10802086255237 1.15206406523466  L 1.70487133091285 1.15206406523466  C 1.33849530717678 1.15206406523466  1.04114665023158 0.897573059099152  1.04114665023158 0.583157196079288  C 1.04114665023158 0.26874133305942  1.33849530717678 0.0142503269239143  1.70487133091285 0.0142503269239143  L 6.10802086255237 0.0142503269239143  C 6.47439688628842 0.0142503269239143  6.77174554323364 0.26874133305942  6.77174554323364 0.583157196079288  Z " fill-rule="evenodd" />
    </mask>
  </defs>
  <g transform="matrix(1 0 0 1 -352 -343 )">
    <path d="M 6.77174554323364 0.583157196079288  C 6.77174554323364 0.897573059099152  6.47439688628842 1.15206406523466  6.10802086255237 1.15206406523466  L 1.70487133091285 1.15206406523466  C 1.33849530717678 1.15206406523466  1.04114665023158 0.897573059099152  1.04114665023158 0.583157196079288  C 1.04114665023158 0.26874133305942  1.33849530717678 0.0142503269239143  1.70487133091285 0.0142503269239143  L 6.10802086255237 0.0142503269239143  C 6.47439688628842 0.0142503269239143  6.77174554323364 0.26874133305942  6.77174554323364 0.583157196079288  Z " fill-rule="nonzero" fill="#ffffff" stroke="none" transform="matrix(1 0 0 1 352 343 )" />
    <path d="M 6.77174554323364 0.583157196079288  C 6.77174554323364 0.897573059099152  6.47439688628842 1.15206406523466  6.10802086255237 1.15206406523466  L 1.70487133091285 1.15206406523466  C 1.33849530717678 1.15206406523466  1.04114665023158 0.897573059099152  1.04114665023158 0.583157196079288  C 1.04114665023158 0.26874133305942  1.33849530717678 0.0142503269239143  1.70487133091285 0.0142503269239143  L 6.10802086255237 0.0142503269239143  C 6.47439688628842 0.0142503269239143  6.77174554323364 0.26874133305942  6.77174554323364 0.583157196079288  Z " stroke-width="2" stroke="#797979" fill="none" transform="matrix(1 0 0 1 352 343 )" mask="url(#clip246)" />
  </g>
</svg>