<?xml version="1.0" encoding="utf-8"?>
<svg version="1.1" xmlns:xlink="http://www.w3.org/1999/xlink" width="18px" height="40px" xmlns="http://www.w3.org/2000/svg">
  <defs>
    <mask fill="white" id="clip248">
      <path d="M 0.938693963661055 37.4007137829077  C 2.97583568073262 38.1155285314464  5.10445762236435 38.6429386642634  7.30316889027602 38.9628651153884  C 3.98575915485723 11.066349460805  14.4836838300074 2.51980658096036  17.3605320859523 0.728753896419455  C 17.2544878455418 0.704212815789221  17.1475333541406 0.678779332226987  17.04148911373 0.654684453062758  C 3.12511684319898 5.6262611872817  1.02016142732411 36.1299320077277  0.938693963661055 37.4007137829077  Z " fill-rule="evenodd" />
    </mask>
  </defs>
  <g transform="matrix(1 0 0 1 -335 -381 )">
    <path d="M 0.938693963661055 37.4007137829077  C 2.97583568073262 38.1155285314464  5.10445762236435 38.6429386642634  7.30316889027602 38.9628651153884  C 3.98575915485723 11.066349460805  14.4836838300074 2.51980658096036  17.3605320859523 0.728753896419455  C 17.2544878455418 0.704212815789221  17.1475333541406 0.678779332226987  17.04148911373 0.654684453062758  C 3.12511684319898 5.6262611872817  1.02016142732411 36.1299320077277  0.938693963661055 37.4007137829077  Z " fill-rule="nonzero" fill="#6e6e96" stroke="none" transform="matrix(1 0 0 1 335 381 )" />
    <path d="M 0.938693963661055 37.4007137829077  C 2.97583568073262 38.1155285314464  5.10445762236435 38.6429386642634  7.30316889027602 38.9628651153884  C 3.98575915485723 11.066349460805  14.4836838300074 2.51980658096036  17.3605320859523 0.728753896419455  C 17.2544878455418 0.704212815789221  17.1475333541406 0.678779332226987  17.04148911373 0.654684453062758  C 3.12511684319898 5.6262611872817  1.02016142732411 36.1299320077277  0.938693963661055 37.4007137829077  Z " stroke-width="2" stroke="#797979" fill="none" transform="matrix(1 0 0 1 335 381 )" mask="url(#clip248)" />
  </g>
</svg>