<?xml version="1.0" encoding="utf-8"?>
<svg version="1.1" xmlns:xlink="http://www.w3.org/1999/xlink" width="58px" height="49px" xmlns="http://www.w3.org/2000/svg">
  <g transform="matrix(1 0 0 1 -312 -324 )">
    <path d="M 56.5 47.9227756334027  L 1.5 47.9227756334027  L 1.5 7.42434368296085  C 0.529682167631917 3.86025592907628  3.35640624530093 0.944722006028833  6.81094807894356 1.5  L 49.8383034207058 1.5  C 53.2937276405128 0.944722006028833  56.1200105250996 3.8607110545716  56.5 7.42434368296085  L 56.5 47.9227756334027  Z " fill-rule="nonzero" fill="#ffffff" stroke="none" transform="matrix(1 0 0 1 312 324 )" />
    <path d="M 1.5 47.9227756334027  L 1.5 7.42434368296085  C 0.529682167631917 3.86025592907628  3.35640624530093 0.944722006028833  6.81094807894356 1.5  L 49.8383034207058 1.5  C 53.2937276405128 0.944722006028833  56.1200105250996 3.8607110545716  56.5 7.42434368296085  L 56.5 47.9227756334027  " stroke-width="1" stroke="#797979" fill="none" transform="matrix(1 0 0 1 312 324 )" />
  </g>
</svg>