<?xml version="1.0" encoding="utf-8"?>
<svg version="1.1" xmlns:xlink="http://www.w3.org/1999/xlink" width="57px" height="48px" xmlns="http://www.w3.org/2000/svg">
  <defs>
    <mask fill="white" id="clip250">
      <path d="M 0.529682167631925 47.9227756334027  L 56.1204517181818 47.9227756334027  L 56.1204517181818 7.42434368296085  C 56.1204517181818 3.86025592907628  53.2946100266772 0.944722006028833  49.8391858068702 0.944722006028833  L 6.81094807894356 0.944722006028833  C 3.35596505221873 0.944722006028833  0.529682167631925 3.8607110545716  0.529682167631925 7.42434368296085  L 0.529682167631925 47.9227756334027  Z " fill-rule="evenodd" />
    </mask>
  </defs>
  <g transform="matrix(1 0 0 1 -312 -324 )">
    <path d="M 0.529682167631925 47.9227756334027  L 56.1204517181818 47.9227756334027  L 56.1204517181818 7.42434368296085  C 56.1204517181818 3.86025592907628  53.2946100266772 0.944722006028833  49.8391858068702 0.944722006028833  L 6.81094807894356 0.944722006028833  C 3.35596505221873 0.944722006028833  0.529682167631925 3.8607110545716  0.529682167631925 7.42434368296085  L 0.529682167631925 47.9227756334027  Z " fill-rule="nonzero" fill="#ffffff" stroke="none" transform="matrix(1 0 0 1 312 324 )" />
    <path d="M 0.529682167631925 47.9227756334027  L 56.1204517181818 47.9227756334027  L 56.1204517181818 7.42434368296085  C 56.1204517181818 3.86025592907628  53.2946100266772 0.944722006028833  49.8391858068702 0.944722006028833  L 6.81094807894356 0.944722006028833  C 3.35596505221873 0.944722006028833  0.529682167631925 3.8607110545716  0.529682167631925 7.42434368296085  L 0.529682167631925 47.9227756334027  Z " stroke-width="2" stroke="#797979" fill="none" transform="matrix(1 0 0 1 312 324 )" mask="url(#clip250)" />
  </g>
</svg>