<?xml version="1.0" encoding="utf-8"?>
<svg version="1.1" xmlns:xlink="http://www.w3.org/1999/xlink" width="58px" height="49px" xmlns="http://www.w3.org/2000/svg">
  <defs>
    <mask fill="white" id="clip251">
      <path d="M 57.7828525938598 47.7279676023726  C 57.7828525938598 48.1032796266876  57.4872030720971 48.4078806898998  57.1229206256395 48.4078806898998  L 1.68863529514019 48.4078806898998  C 1.32391289403715 48.4078806898998  1.02870332691996 48.1032796266876  1 47.7279676023726  L 1 7.39416342408702  C 1.02870332691996 3.4610928504383  4.13478312400985 0.260968585143841  7.95226958284114 0.260968585143841  L 50.8592863379386 0.260968585143841  C 54.6772127514154 0.260968585143841  57.7828525938598 3.4610928504383  57.7828525938598 7.39416342408702  L 57.7828525938598 47.7279676023726  Z M 3 7.39416342408702  L 3 47  L 56 47  L 56 7.39416342408702  C 56.4625487027738 4.2108103482849  53.9486478585002 1.62079476019814  50.8588463832931 2  L 7.95182962819565 2  C 4.86202815298853 1.62079476019814  2.34812730871494 4.2108103482849  3 7.39416342408702  Z " fill-rule="evenodd" />
    </mask>
  </defs>
  <g transform="matrix(1 0 0 1 -311 -324 )">
    <path d="M 57.7828525938598 47.7279676023726  C 57.7828525938598 48.1032796266876  57.4872030720971 48.4078806898998  57.1229206256395 48.4078806898998  L 1.68863529514019 48.4078806898998  C 1.32391289403715 48.4078806898998  1.02870332691996 48.1032796266876  1 47.7279676023726  L 1 7.39416342408702  C 1.02870332691996 3.4610928504383  4.13478312400985 0.260968585143841  7.95226958284114 0.260968585143841  L 50.8592863379386 0.260968585143841  C 54.6772127514154 0.260968585143841  57.7828525938598 3.4610928504383  57.7828525938598 7.39416342408702  L 57.7828525938598 47.7279676023726  Z M 3 7.39416342408702  L 3 47  L 56 47  L 56 7.39416342408702  C 56.4625487027738 4.2108103482849  53.9486478585002 1.62079476019814  50.8588463832931 2  L 7.95182962819565 2  C 4.86202815298853 1.62079476019814  2.34812730871494 4.2108103482849  3 7.39416342408702  Z " fill-rule="nonzero" fill="#6e6e96" stroke="none" transform="matrix(1 0 0 1 311 324 )" />
    <path d="M 57.7828525938598 47.7279676023726  C 57.7828525938598 48.1032796266876  57.4872030720971 48.4078806898998  57.1229206256395 48.4078806898998  L 1.68863529514019 48.4078806898998  C 1.32391289403715 48.4078806898998  1.02870332691996 48.1032796266876  1 47.7279676023726  L 1 7.39416342408702  C 1.02870332691996 3.4610928504383  4.13478312400985 0.260968585143841  7.95226958284114 0.260968585143841  L 50.8592863379386 0.260968585143841  C 54.6772127514154 0.260968585143841  57.7828525938598 3.4610928504383  57.7828525938598 7.39416342408702  L 57.7828525938598 47.7279676023726  Z " stroke-width="2" stroke="#797979" fill="none" transform="matrix(1 0 0 1 311 324 )" mask="url(#clip251)" />
    <path d="M 3 7.39416342408702  L 3 47  L 56 47  L 56 7.39416342408702  C 56.4625487027738 4.2108103482849  53.9486478585002 1.62079476019814  50.8588463832931 2  L 7.95182962819565 2  C 4.86202815298853 1.62079476019814  2.34812730871494 4.2108103482849  3 7.39416342408702  Z " stroke-width="2" stroke="#797979" fill="none" transform="matrix(1 0 0 1 311 324 )" mask="url(#clip251)" />
  </g>
</svg>