<?xml version="1.0" encoding="utf-8"?>
<svg version="1.1" xmlns:xlink="http://www.w3.org/1999/xlink" width="9px" height="20px" xmlns="http://www.w3.org/2000/svg">
  <defs>
    <mask fill="white" id="clip254">
      <path d="M 8.72019337895122 0.402445834744173  L 8.72019337895123 19.0831164104765  L 5.3029120426522 19.0831164104765  L 5.3029120426522 5.64040484416762  C 4.05700599920194 6.85808864489312  2.58922627678109 7.75941560622163  0.898719515085904 8.34304712375514  L 0.898719515085904 5.10764029375859  C 1.78920099203135 4.80333089394372  2.75691157646463 4.22639239840028  3.80099790808203 3.37637860566225  C 4.84551091985128 2.52681101439023  5.56190689483519 1.53535135692887  5.95103919333746 0.402445834744173  L 8.72019337895122 0.402445834744173  Z " fill-rule="evenodd" />
    </mask>
  </defs>
  <g transform="matrix(1 0 0 1 -328 -344 )">
    <path d="M 8.72019337895122 0.402445834744173  L 8.72019337895123 19.0831164104765  L 5.3029120426522 19.0831164104765  L 5.3029120426522 5.64040484416762  C 4.05700599920194 6.85808864489312  2.58922627678109 7.75941560622163  0.898719515085904 8.34304712375514  L 0.898719515085904 5.10764029375859  C 1.78920099203135 4.80333089394372  2.75691157646463 4.22639239840028  3.80099790808203 3.37637860566225  C 4.84551091985128 2.52681101439023  5.56190689483519 1.53535135692887  5.95103919333746 0.402445834744173  L 8.72019337895122 0.402445834744173  Z " fill-rule="nonzero" fill="#6e6e96" stroke="none" transform="matrix(1 0 0 1 328 344 )" />
    <path d="M 8.72019337895122 0.402445834744173  L 8.72019337895123 19.0831164104765  L 5.3029120426522 19.0831164104765  L 5.3029120426522 5.64040484416762  C 4.05700599920194 6.85808864489312  2.58922627678109 7.75941560622163  0.898719515085904 8.34304712375514  L 0.898719515085904 5.10764029375859  C 1.78920099203135 4.80333089394372  2.75691157646463 4.22639239840028  3.80099790808203 3.37637860566225  C 4.84551091985128 2.52681101439023  5.56190689483519 1.53535135692887  5.95103919333746 0.402445834744173  L 8.72019337895122 0.402445834744173  Z " stroke-width="2" stroke="#797979" fill="none" transform="matrix(1 0 0 1 328 344 )" mask="url(#clip254)" />
  </g>
</svg>