<?xml version="1.0" encoding="utf-8"?>
<svg version="1.1" xmlns:xlink="http://www.w3.org/1999/xlink" width="19px" height="19px" xmlns="http://www.w3.org/2000/svg">
  <defs>
    <mask fill="white" id="clip257">
      <path d="M 18.9772469135802 13.4620397727273  C 18.754524691358 14.0771647727273  17.7223086419753 13.9692102272727  17.8395925925926 14.9193181818182  C 17.9568765432099 15.6534090909091  18.6372407407407 15.5454545454545  18.754524691358 15.8693181818182  C 18.754524691358 16.0743238636364  18.6372407407407 16.8193181818182  18.2971172839506 16.9164772727273  C 17.9569938271605 16.9164772727273  17.4995864197531 16.8085227272727  17.159462962963 16.9164772727273  C 16.9367407407407 17.0244318181818  16.7021728395062 17.1215909090909  16.5848888888889 17.3375  C 16.3620493827161 17.8663693181818  16.8076111111111 18.2873920454545  16.5848888888889 18.4925056818182  C 16.2447654320988 18.6976193181818  15.5526728395062 19.0214829545455  15.329950617284 18.8055738636364  C 14.9898271604938 18.4925056818182  14.9898271604938 18.071375  14.2978518518519 18.071375  C 13.3829197530864 18.071375  13.3829197530864 18.9135284090909  12.9256296296296 18.9135284090909  C 12.4682222222222 18.9135284090909  11.6706913580247 18.6004602272727  11.6706913580247 18.2872840909091  C 11.787975308642 17.8663693181818  12.0108148148148 17.5533011363636  11.5534074074074 17.1322784090909  C 10.9787160493827 16.7112556818182  10.2984691358025 17.1322784090909  10.0639012345679 16.9271647727273  C 9.72389506172839 16.7220511363636  9.60661111111111 16.1930738636364  9.72389506172839 15.8801136363636  C 9.84117901234568 15.5670454545455  10.6387098765432 15.5670454545455  10.6387098765432 14.7248920454545  C 10.6387098765432 14.0988636363636  9.84117901234568 13.9909090909091  9.72389506172839 13.5698863636364  C 9.60661111111111 13.2568181818182  9.84117901234568 12.7277329545455  10.1811851851852 12.6197784090909  C 10.7558765432099 12.4147727272727  11.096 12.8248920454546  11.6706913580247 12.4147727272727  C 12.0108148148148 12.1018125  11.8935308641975 11.3676136363636  11.8935308641975 11.1517045454545  C 12.0108148148148 10.8386363636364  12.4681049382716 10.7306818181818  12.8083456790123 10.7306818181818  C 13.4885925925926 10.7306818181818  13.2656358024691 11.4648806818182  14.1805679012346 11.5728352272727  C 15.0953827160494 11.5728352272727  14.9780987654321 11.2597670454545  15.4353888888889 10.7306818181818  C 16.0100802469136 10.7306818181818  16.4676049382716 10.9357954545455  16.5730432098765 11.1517045454545  C 16.7958827160494 11.5727272727273  16.3503209876543 12.1988636363636  17.0304506172839 12.6198863636364  C 17.605024691358 12.9329545454545  18.1681049382716 12.5119318181818  18.5199567901235 12.6198863636364  C 18.7426790123457 12.7278409090909  18.859962962963 13.0409090909091  18.9772469135802 13.4620397727273  Z M 14.6378580246914 16.7113636363636  C 17.2767469135803 16.1822784090909  16.9248950617284 12.2852272727273  13.7230432098765 12.8142045454545  C 10.9785987654321 13.4403409090909  12.0106975308642 17.1215909090909  14.6378580246914 16.7113636363636  Z M 13.9574938271605 4.60976704545455  C 13.9576111111111 7.02794886363636  11.7878580246914 9.1330625  9.04341358024691 9.1330625  C 6.29896913580247 9.1330625  4.12921604938271 7.13590340909091  4.12921604938271 4.60976704545455  C 4.12921604938271 2.08363068181818  6.29896913580247 0.0864715909090911  9.04341358024691 0.0864715909090911  C 11.7877407407407 0.0864715909090911  13.9574938271605 2.08363068181818  13.9574938271605 4.60976704545455  Z M 6.99094444444444 9.975  L 13.0427962962963 10.1801136363636  C 13.0427962962963 10.1801136363636  11.213049382716 10.1801136363636  11.3303333333333 11.3352272727273  C 11.4476172839506 12.5982954545455  9.61798765432099 11.6481875  9.27798148148148 12.70625  C 8.82057407407407 13.9692102272727  9.5007037037037 13.7533011363636  9.85255555555556 14.5954545454545  C 10.0753950617284 15.1244318181818  8.93774074074074 15.4375  9.05502469135802 16.3875  C 9.27786419753086 17.6505681818182  10.4272469135802 17.0137443181818  10.7673703703704 17.7585227272727  C 10.9902098765432 18.3846590909091  10.1927962962963 18.8056818181818  8.36304938271605 18.8056818181818  C 6.87366049382716 18.8056818181818  4.02354320987654 18.8056818181818  2.99144444444444 18.6977272727273  C 2.99144444444444 18.6977272727273  0.0241604938271588 18.5897727272727  0.0241604938271588 16.8085227272727  C 0.0241604938271588 16.8085227272727  -0.0931234567901256 14.1744318181818  1.7365061728395 12.2852272727273  C 1.7365061728395 12.2852272727273  3.68341975308642 9.975  6.99094444444444 9.975  Z " fill-rule="evenodd" />
    </mask>
  </defs>
  <g transform="matrix(1 0 0 1 -1101 -54 )">
    <path d="M 18.9772469135802 13.4620397727273  C 18.754524691358 14.0771647727273  17.7223086419753 13.9692102272727  17.8395925925926 14.9193181818182  C 17.9568765432099 15.6534090909091  18.6372407407407 15.5454545454545  18.754524691358 15.8693181818182  C 18.754524691358 16.0743238636364  18.6372407407407 16.8193181818182  18.2971172839506 16.9164772727273  C 17.9569938271605 16.9164772727273  17.4995864197531 16.8085227272727  17.159462962963 16.9164772727273  C 16.9367407407407 17.0244318181818  16.7021728395062 17.1215909090909  16.5848888888889 17.3375  C 16.3620493827161 17.8663693181818  16.8076111111111 18.2873920454545  16.5848888888889 18.4925056818182  C 16.2447654320988 18.6976193181818  15.5526728395062 19.0214829545455  15.329950617284 18.8055738636364  C 14.9898271604938 18.4925056818182  14.9898271604938 18.071375  14.2978518518519 18.071375  C 13.3829197530864 18.071375  13.3829197530864 18.9135284090909  12.9256296296296 18.9135284090909  C 12.4682222222222 18.9135284090909  11.6706913580247 18.6004602272727  11.6706913580247 18.2872840909091  C 11.787975308642 17.8663693181818  12.0108148148148 17.5533011363636  11.5534074074074 17.1322784090909  C 10.9787160493827 16.7112556818182  10.2984691358025 17.1322784090909  10.0639012345679 16.9271647727273  C 9.72389506172839 16.7220511363636  9.60661111111111 16.1930738636364  9.72389506172839 15.8801136363636  C 9.84117901234568 15.5670454545455  10.6387098765432 15.5670454545455  10.6387098765432 14.7248920454545  C 10.6387098765432 14.0988636363636  9.84117901234568 13.9909090909091  9.72389506172839 13.5698863636364  C 9.60661111111111 13.2568181818182  9.84117901234568 12.7277329545455  10.1811851851852 12.6197784090909  C 10.7558765432099 12.4147727272727  11.096 12.8248920454546  11.6706913580247 12.4147727272727  C 12.0108148148148 12.1018125  11.8935308641975 11.3676136363636  11.8935308641975 11.1517045454545  C 12.0108148148148 10.8386363636364  12.4681049382716 10.7306818181818  12.8083456790123 10.7306818181818  C 13.4885925925926 10.7306818181818  13.2656358024691 11.4648806818182  14.1805679012346 11.5728352272727  C 15.0953827160494 11.5728352272727  14.9780987654321 11.2597670454545  15.4353888888889 10.7306818181818  C 16.0100802469136 10.7306818181818  16.4676049382716 10.9357954545455  16.5730432098765 11.1517045454545  C 16.7958827160494 11.5727272727273  16.3503209876543 12.1988636363636  17.0304506172839 12.6198863636364  C 17.605024691358 12.9329545454545  18.1681049382716 12.5119318181818  18.5199567901235 12.6198863636364  C 18.7426790123457 12.7278409090909  18.859962962963 13.0409090909091  18.9772469135802 13.4620397727273  Z M 14.6378580246914 16.7113636363636  C 17.2767469135803 16.1822784090909  16.9248950617284 12.2852272727273  13.7230432098765 12.8142045454545  C 10.9785987654321 13.4403409090909  12.0106975308642 17.1215909090909  14.6378580246914 16.7113636363636  Z M 13.9574938271605 4.60976704545455  C 13.9576111111111 7.02794886363636  11.7878580246914 9.1330625  9.04341358024691 9.1330625  C 6.29896913580247 9.1330625  4.12921604938271 7.13590340909091  4.12921604938271 4.60976704545455  C 4.12921604938271 2.08363068181818  6.29896913580247 0.0864715909090911  9.04341358024691 0.0864715909090911  C 11.7877407407407 0.0864715909090911  13.9574938271605 2.08363068181818  13.9574938271605 4.60976704545455  Z M 6.99094444444444 9.975  L 13.0427962962963 10.1801136363636  C 13.0427962962963 10.1801136363636  11.213049382716 10.1801136363636  11.3303333333333 11.3352272727273  C 11.4476172839506 12.5982954545455  9.61798765432099 11.6481875  9.27798148148148 12.70625  C 8.82057407407407 13.9692102272727  9.5007037037037 13.7533011363636  9.85255555555556 14.5954545454545  C 10.0753950617284 15.1244318181818  8.93774074074074 15.4375  9.05502469135802 16.3875  C 9.27786419753086 17.6505681818182  10.4272469135802 17.0137443181818  10.7673703703704 17.7585227272727  C 10.9902098765432 18.3846590909091  10.1927962962963 18.8056818181818  8.36304938271605 18.8056818181818  C 6.87366049382716 18.8056818181818  4.02354320987654 18.8056818181818  2.99144444444444 18.6977272727273  C 2.99144444444444 18.6977272727273  0.0241604938271588 18.5897727272727  0.0241604938271588 16.8085227272727  C 0.0241604938271588 16.8085227272727  -0.0931234567901256 14.1744318181818  1.7365061728395 12.2852272727273  C 1.7365061728395 12.2852272727273  3.68341975308642 9.975  6.99094444444444 9.975  Z " fill-rule="nonzero" fill="#ffffff" stroke="none" transform="matrix(1 0 0 1 1101 54 )" />
    <path d="M 18.9772469135802 13.4620397727273  C 18.754524691358 14.0771647727273  17.7223086419753 13.9692102272727  17.8395925925926 14.9193181818182  C 17.9568765432099 15.6534090909091  18.6372407407407 15.5454545454545  18.754524691358 15.8693181818182  C 18.754524691358 16.0743238636364  18.6372407407407 16.8193181818182  18.2971172839506 16.9164772727273  C 17.9569938271605 16.9164772727273  17.4995864197531 16.8085227272727  17.159462962963 16.9164772727273  C 16.9367407407407 17.0244318181818  16.7021728395062 17.1215909090909  16.5848888888889 17.3375  C 16.3620493827161 17.8663693181818  16.8076111111111 18.2873920454545  16.5848888888889 18.4925056818182  C 16.2447654320988 18.6976193181818  15.5526728395062 19.0214829545455  15.329950617284 18.8055738636364  C 14.9898271604938 18.4925056818182  14.9898271604938 18.071375  14.2978518518519 18.071375  C 13.3829197530864 18.071375  13.3829197530864 18.9135284090909  12.9256296296296 18.9135284090909  C 12.4682222222222 18.9135284090909  11.6706913580247 18.6004602272727  11.6706913580247 18.2872840909091  C 11.787975308642 17.8663693181818  12.0108148148148 17.5533011363636  11.5534074074074 17.1322784090909  C 10.9787160493827 16.7112556818182  10.2984691358025 17.1322784090909  10.0639012345679 16.9271647727273  C 9.72389506172839 16.7220511363636  9.60661111111111 16.1930738636364  9.72389506172839 15.8801136363636  C 9.84117901234568 15.5670454545455  10.6387098765432 15.5670454545455  10.6387098765432 14.7248920454545  C 10.6387098765432 14.0988636363636  9.84117901234568 13.9909090909091  9.72389506172839 13.5698863636364  C 9.60661111111111 13.2568181818182  9.84117901234568 12.7277329545455  10.1811851851852 12.6197784090909  C 10.7558765432099 12.4147727272727  11.096 12.8248920454546  11.6706913580247 12.4147727272727  C 12.0108148148148 12.1018125  11.8935308641975 11.3676136363636  11.8935308641975 11.1517045454545  C 12.0108148148148 10.8386363636364  12.4681049382716 10.7306818181818  12.8083456790123 10.7306818181818  C 13.4885925925926 10.7306818181818  13.2656358024691 11.4648806818182  14.1805679012346 11.5728352272727  C 15.0953827160494 11.5728352272727  14.9780987654321 11.2597670454545  15.4353888888889 10.7306818181818  C 16.0100802469136 10.7306818181818  16.4676049382716 10.9357954545455  16.5730432098765 11.1517045454545  C 16.7958827160494 11.5727272727273  16.3503209876543 12.1988636363636  17.0304506172839 12.6198863636364  C 17.605024691358 12.9329545454545  18.1681049382716 12.5119318181818  18.5199567901235 12.6198863636364  C 18.7426790123457 12.7278409090909  18.859962962963 13.0409090909091  18.9772469135802 13.4620397727273  Z " stroke-width="2" stroke="#ffffff" fill="none" transform="matrix(1 0 0 1 1101 54 )" mask="url(#clip257)" />
    <path d="M 14.6378580246914 16.7113636363636  C 17.2767469135803 16.1822784090909  16.9248950617284 12.2852272727273  13.7230432098765 12.8142045454545  C 10.9785987654321 13.4403409090909  12.0106975308642 17.1215909090909  14.6378580246914 16.7113636363636  Z " stroke-width="2" stroke="#ffffff" fill="none" transform="matrix(1 0 0 1 1101 54 )" mask="url(#clip257)" />
    <path d="M 13.9574938271605 4.60976704545455  C 13.9576111111111 7.02794886363636  11.7878580246914 9.1330625  9.04341358024691 9.1330625  C 6.29896913580247 9.1330625  4.12921604938271 7.13590340909091  4.12921604938271 4.60976704545455  C 4.12921604938271 2.08363068181818  6.29896913580247 0.0864715909090911  9.04341358024691 0.0864715909090911  C 11.7877407407407 0.0864715909090911  13.9574938271605 2.08363068181818  13.9574938271605 4.60976704545455  Z " stroke-width="2" stroke="#ffffff" fill="none" transform="matrix(1 0 0 1 1101 54 )" mask="url(#clip257)" />
    <path d="M 6.99094444444444 9.975  L 13.0427962962963 10.1801136363636  C 13.0427962962963 10.1801136363636  11.213049382716 10.1801136363636  11.3303333333333 11.3352272727273  C 11.4476172839506 12.5982954545455  9.61798765432099 11.6481875  9.27798148148148 12.70625  C 8.82057407407407 13.9692102272727  9.5007037037037 13.7533011363636  9.85255555555556 14.5954545454545  C 10.0753950617284 15.1244318181818  8.93774074074074 15.4375  9.05502469135802 16.3875  C 9.27786419753086 17.6505681818182  10.4272469135802 17.0137443181818  10.7673703703704 17.7585227272727  C 10.9902098765432 18.3846590909091  10.1927962962963 18.8056818181818  8.36304938271605 18.8056818181818  C 6.87366049382716 18.8056818181818  4.02354320987654 18.8056818181818  2.99144444444444 18.6977272727273  C 2.99144444444444 18.6977272727273  0.0241604938271588 18.5897727272727  0.0241604938271588 16.8085227272727  C 0.0241604938271588 16.8085227272727  -0.0931234567901256 14.1744318181818  1.7365061728395 12.2852272727273  C 1.7365061728395 12.2852272727273  3.68341975308642 9.975  6.99094444444444 9.975  Z " stroke-width="2" stroke="#ffffff" fill="none" transform="matrix(1 0 0 1 1101 54 )" mask="url(#clip257)" />
  </g>
</svg>