<?xml version="1.0" encoding="utf-8"?>
<svg version="1.1" xmlns:xlink="http://www.w3.org/1999/xlink" width="19px" height="18px" xmlns="http://www.w3.org/2000/svg">
  <defs>
    <mask fill="white" id="clip259">
      <path d="M 5.5651 0  L 3.90196667285156 1.57530000585938  L 6.76653332714844 4.28909999414063  L 4.5277 6.41039999414062  L 1.66281667285156 3.69660000585938  L 0 5.2722  L 0 0  L 5.5651 0  Z M 19 5.2722  L 17.3371833271484 3.69660000585937  L 14.3142833271484 6.56040000585938  L 12.0751333271484 4.43939999414062  L 15.0980333271484 1.57530000585937  L 13.4349 0  L 19 0  L 19 5.2722  Z M 15.0980333271484 16.425  L 11.9168 13.4109  L 14.1556333271484 11.2896  L 17.3375 14.3033999941406  L 19 12.7278  L 19 18  L 13.4349 18  L 15.0980333271484 16.4246999941406  Z M 1.6625 14.3033999941406  L 4.6854 11.4395999941406  L 6.92455 13.5606000058594  L 3.90165 16.4246999941406  L 5.5651 18  L 0 18  L 0 12.7278  L 1.66281667285156 14.3033999941406  Z " fill-rule="evenodd" />
    </mask>
  </defs>
  <g transform="matrix(1 0 0 1 -1063 -55 )">
    <path d="M 5.5651 0  L 3.90196667285156 1.57530000585938  L 6.76653332714844 4.28909999414063  L 4.5277 6.41039999414062  L 1.66281667285156 3.69660000585938  L 0 5.2722  L 0 0  L 5.5651 0  Z M 19 5.2722  L 17.3371833271484 3.69660000585937  L 14.3142833271484 6.56040000585938  L 12.0751333271484 4.43939999414062  L 15.0980333271484 1.57530000585937  L 13.4349 0  L 19 0  L 19 5.2722  Z M 15.0980333271484 16.425  L 11.9168 13.4109  L 14.1556333271484 11.2896  L 17.3375 14.3033999941406  L 19 12.7278  L 19 18  L 13.4349 18  L 15.0980333271484 16.4246999941406  Z M 1.6625 14.3033999941406  L 4.6854 11.4395999941406  L 6.92455 13.5606000058594  L 3.90165 16.4246999941406  L 5.5651 18  L 0 18  L 0 12.7278  L 1.66281667285156 14.3033999941406  Z " fill-rule="nonzero" fill="#ffffff" stroke="none" transform="matrix(1 0 0 1 1063 55 )" />
    <path d="M 5.5651 0  L 3.90196667285156 1.57530000585938  L 6.76653332714844 4.28909999414063  L 4.5277 6.41039999414062  L 1.66281667285156 3.69660000585938  L 0 5.2722  L 0 0  L 5.5651 0  Z " stroke-width="2" stroke="#ffffff" fill="none" transform="matrix(1 0 0 1 1063 55 )" mask="url(#clip259)" />
    <path d="M 19 5.2722  L 17.3371833271484 3.69660000585937  L 14.3142833271484 6.56040000585938  L 12.0751333271484 4.43939999414062  L 15.0980333271484 1.57530000585937  L 13.4349 0  L 19 0  L 19 5.2722  Z " stroke-width="2" stroke="#ffffff" fill="none" transform="matrix(1 0 0 1 1063 55 )" mask="url(#clip259)" />
    <path d="M 15.0980333271484 16.425  L 11.9168 13.4109  L 14.1556333271484 11.2896  L 17.3375 14.3033999941406  L 19 12.7278  L 19 18  L 13.4349 18  L 15.0980333271484 16.4246999941406  Z " stroke-width="2" stroke="#ffffff" fill="none" transform="matrix(1 0 0 1 1063 55 )" mask="url(#clip259)" />
    <path d="M 1.6625 14.3033999941406  L 4.6854 11.4395999941406  L 6.92455 13.5606000058594  L 3.90165 16.4246999941406  L 5.5651 18  L 0 18  L 0 12.7278  L 1.66281667285156 14.3033999941406  Z " stroke-width="2" stroke="#ffffff" fill="none" transform="matrix(1 0 0 1 1063 55 )" mask="url(#clip259)" />
  </g>
</svg>