<?xml version="1.0" encoding="utf-8"?>
<svg version="1.1" xmlns:xlink="http://www.w3.org/1999/xlink" width="20px" height="19px" xmlns="http://www.w3.org/2000/svg">
  <g transform="matrix(1 0 0 1 -865 -113 )">
    <path d="M 19.9431818181818 9.4195218373494  C 19.9476207386364 8.77122552710844  19.8166725852273 7.97762142319278  19.7589666193182 7.64006024096386  C 19.7545276988636 7.59982115963855  19.7500887784091 7.56628859186747  19.7434303977273 7.54616905120482  L 19.7434303977273 7.52828501506024  L 19.7345525568182 7.47910391566265  C 19.5769708806818 6.70561935240964  19.0687144886364 6.20710184487952  18.4361683238636 6.20710184487952  L 18.3318536931818 6.20710184487952  C 17.2531960227273 6.20710184487952  16.3787286931818 5.32184205572289  16.3787286931818 4.2398578689759  C 16.3787286931818 3.98948136295181  16.494140625 3.63403614457831  16.54296875 3.50884789156627  C 16.8492542613636 2.78901543674699  16.5229936079545 1.96858527861446  15.7661576704545 1.55054593373494  L 13.3846768465909 0.19359469126506  L 13.3402876420455 0.177946159638554  C 13.1627308238636 0.119823042168675  12.9563210227273 0.0505224021084337  12.7254971590909 0.0505224021084337  C 12.294921875 0.0505224021084337  11.8110795454545 0.25171780873494  11.5114524147727 0.553510918674699  C 11.1363636363636 0.926840173192771  10.3750887784091 1.48348079819277  9.92231889204545 1.48348079819277  C 9.47176846590909 1.48348079819277  8.70827414772727 0.929075677710843  8.33318536931818 0.553510918674699  C 8.01358309659091 0.236069277108434  7.57191051136363 0.0505224021084341  7.119140625 0.0505224021084341  C 6.88165838068182 0.0505224021084341  6.68190696022727 0.117587537650603  6.50435014204545 0.177946159638555  L 6.46439985795454 0.193594691265061  L 3.96750710227272 1.55501694277108  L 3.95197088068182 1.56395896084337  C 3.34605823863636 1.94623023343374  3.09969815340909 2.82254800451807  3.408203125 3.51778990963856  L 3.41264204545454 3.52673192771084  L 3.41708096590909 3.53567394578313  C 3.46590909090909 3.64521366716868  3.61683238636363 4.01630741716868  3.61683238636363 4.34045557228916  C 3.61683238636363 5.42691076807229  2.73792613636363 6.30769954819277  1.66370738636363 6.30769954819277  L 1.55939275568182 6.30769954819277  C 0.897993607954543 6.30769954819277  0.403053977272725 6.79951054216868  0.26100852272727 7.58864363704819  L 0.252130681818179 7.63335372740964  L 0.252130681818179 7.64900225903615  C 0.252130681818179 7.67135730421687  0.243252840909088 7.70265436746988  0.23659446022727 7.74289344879518  C 0.181107954545452 8.0804546310241  0.0479403409090879 8.87629423945783  0.0479403409090879 9.52682605421687  C 0.0479403409090879 10.1773578689759  0.178888494318179 10.9731974774096  0.23659446022727 11.3107586596386  C 0.241033380681815 11.3509977409639  0.245472301136361 11.3845303087349  0.252130681818179 11.4046498493976  L 0.252130681818179 11.4225338855422  L 0.26100852272727 11.4717149849398  C 0.418590198863634 12.2451995481928  0.926846590909088 12.7437170557229  1.55939275568182 12.7437170557229  L 1.61265980113636 12.7437170557229  C 2.69131747159091 12.7437170557229  3.56578480113636 13.6289768448795  3.56578480113636 14.7109610316265  C 3.56578480113636 14.9613375376506  3.45037286931818 15.3167827560241  3.40154474431818 15.4419710090361  C 3.10635653409091 16.119328878012  3.38600852272727 16.9889401355422  4.03852982954545 17.4270990210843  L 4.05628551136363 17.4360410391566  L 6.40891335227272 18.7549887048193  L 6.45330255681818 18.7706372364458  C 6.630859375 18.8287603539157  6.83283025568182 18.8980609939759  7.06365411931818 18.8980609939759  C 7.55637428977272 18.8980609939759  8.00026633522727 18.7080431099398  8.27769886363636 18.3950724774096  C 8.30433238636363 18.374952936747  8.33096590909091 18.3481268825301  8.36203835227272 18.3213008283133  C 8.64612926136363 18.0709243222892  9.40962357954545 17.4092149849398  9.91344105113636 17.4092149849398  C 10.2885298295455 17.4092149849398  10.9166370738636 17.8048992846386  11.5491832386364 18.4420180722892  C 11.8687855113636 18.7594597138554  12.3104580965909 18.9450065888554  12.7632279829545 18.9450065888554  C 13.0695134943182 18.9450065888554  13.2958984375 18.8600574171687  13.5533558238636 18.7326336596386  L 13.5622336647727 18.7281626506024  L 15.9747869318182 17.384624435241  L 15.9836647727273 17.3756824171687  C 16.5895774147727 16.9934111445783  16.8359375 16.117093373494  16.5274325284091 15.4218514683735  L 16.5229936079545 15.4129094503012  L 16.5185546875 15.4039674322289  C 16.5141157670455 15.4017319277109  16.3254616477273 15.0060476280121  16.3609730113636 14.6506024096386  L 16.3654119318182 14.6282473644578  L 16.3654119318182 14.6058923192771  C 16.3654119318182 13.519437123494  17.2443181818182 12.6386483433735  18.3185369318182 12.6386483433735  L 18.4295099431818 12.6386483433735  C 19.0909090909091 12.6386483433735  19.5858487215909 12.1468373493976  19.7278941761364 11.3577042545181  L 19.7367720170455 11.3129941641566  L 19.7367720170455 11.2973456325301  C 19.7412109375 11.2794615963855  19.7456498579545 11.2526355421687  19.7523082386364 11.2168674698795  C 19.8100142045455 10.8882483057229  19.9431818181818 10.1214702560241  19.9431818181818 9.4195218373494  Z M 13.0828302556818 9.5  C 13.0828302556818 11.2191029743976  11.7001065340909 12.6118222891566  9.99334161931818 12.6118222891566  C 8.28657670454546 12.6118222891566  6.90385298295455 11.2191029743976  6.90385298295455 9.5  C 6.90385298295455 7.78089702560241  8.28657670454546 6.38817771084337  9.99334161931818 6.38817771084337  C 11.7001065340909 6.38817771084337  13.0828302556818 7.78089702560241  13.0828302556818 9.5  Z " fill-rule="nonzero" fill="#555555" stroke="none" transform="matrix(1 0 0 1 865 113 )" />
  </g>
</svg>