<?xml version="1.0" encoding="utf-8"?>
<svg version="1.1" xmlns:xlink="http://www.w3.org/1999/xlink" width="10px" height="55px" preserveAspectRatio="xMidYMin meet" viewBox="984 720  8 55" xmlns="http://www.w3.org/2000/svg">
  <defs>
    <mask fill="white" id="clip104">
      <path d="M 972.5 734  L 1003.5 734  L 1003.5 756  L 972.5 756  Z M 972.5 711  L 1003.5 711  L 1003.5 779  L 972.5 779  Z " fill-rule="evenodd" />
    </mask>
  </defs>
  <path d="M 988.5 734  L 988.5 721  M 988.5 756  L 988.5 765  " stroke-width="1" stroke="#0054cc" fill="none" />
  <path d="M 988.5 720  A 3 3 0 0 0 985.5 723 A 3 3 0 0 0 988.5 726 A 3 3 0 0 0 991.5 723 A 3 3 0 0 0 988.5 720 Z M 982.2 764  L 988.5 770  L 994.8 764  L 982.2 764  Z " fill-rule="nonzero" fill="#0054cc" stroke="none" mask="url(#clip104)" />
</svg>