<?xml version="1.0" encoding="utf-8"?>
<svg version="1.1" xmlns:xlink="http://www.w3.org/1999/xlink" width="10px" height="75px" preserveAspectRatio="xMidYMin meet" viewBox="984 1336  8 75" xmlns="http://www.w3.org/2000/svg">
  <defs>
    <mask fill="white" id="clip114">
      <path d="M 1268.5 1395  L 1299.5 1395  L 1299.5 1417  L 1268.5 1417  Z M 979 1327  L 1660 1327  L 1660 1417  L 979 1417  Z " fill-rule="evenodd" />
    </mask>
  </defs>
  <path d="M 988.5 1337  L 988.5 1401  A 5 5 0 0 0 993.5 1406.5 L 1646 1406.5  " stroke-width="1" stroke="#0054cc" fill="none" mask="url(#clip114)" />
  <path d="M 988.5 1336  A 3 3 0 0 0 985.5 1339 A 3 3 0 0 0 988.5 1342 A 3 3 0 0 0 991.5 1339 A 3 3 0 0 0 988.5 1336 Z M 1645 1412.8  L 1651 1406.5  L 1645 1400.2  L 1645 1412.8  Z " fill-rule="nonzero" fill="#0054cc" stroke="none" mask="url(#clip114)" />
</svg>