<?xml version="1.0" encoding="utf-8"?>
<svg version="1.1" xmlns:xlink="http://www.w3.org/1999/xlink" width="12px" height="12px" viewBox="938 21  12 12" xmlns="http://www.w3.org/2000/svg">
  <path d="M 938.5 24  A 2.5 2.5 0 0 1 941 21.5 L 947 21.5  A 2.5 2.5 0 0 1 949.5 24 L 949.5 30  A 2.5 2.5 0 0 1 947 32.5 L 941 32.5  A 2.5 2.5 0 0 1 938.5 30 L 938.5 24  Z " fill-rule="nonzero" fill="#ffffff" stroke="none" />
  <path d="M 938.5 24  A 2.5 2.5 0 0 1 941 21.5 L 947 21.5  A 2.5 2.5 0 0 1 949.5 24 L 949.5 30  A 2.5 2.5 0 0 1 947 32.5 L 941 32.5  A 2.5 2.5 0 0 1 938.5 30 L 938.5 24  Z " stroke-width="1" stroke="#797979" fill="none" />
</svg>