<?xml version="1.0" encoding="utf-8"?>
<svg version="1.1" xmlns:xlink="http://www.w3.org/1999/xlink" width="15px" height="12px" xmlns="http://www.w3.org/2000/svg">
  <g transform="matrix(1 0 0 1 -323 -209 )">
    <path d="M 15 11.3571428571429  C 14.9314024390244 11.6858837796612  14.6754676542478 11.952380952381  14.359756097561 12  L 0.640243902439024 12  C 0.324532345752214 11.952380952381  0.0685975609756097 11.6858837796612  0 11.3571428571429  L 0 0.642857142857143  C 0.0685975609756097 0.314116220338813  0.324532345752214 0.0476190476190476  0.640243902439024 0.0476190476190476  L 2.92682926829268 0.0476190476190476  C 3.24254082497949 0.0476190476190476  3.4984756097561 0.314116220338813  3.4984756097561 0.642857142857143  C 3.4984756097561 0.971598065375473  3.24254082497949 1.23809523809524  2.92682926829268 1.23809523809524  L 1.21189024390244 1.23809523809524  L 1.21189024390244 10.7619047619048  L 13.7881097560976 10.7619047619048  L 13.7881097560976 1.23809523809524  L 12.0731707317073 1.23809523809524  C 11.7574591750205 1.23809523809524  11.5015243902439 0.971598065375473  11.5015243902439 0.642857142857143  C 11.5015243902439 0.314116220338813  11.7574591750205 0.0476190476190476  12.0731707317073 0.0476190476190476  L 14.359756097561 0.0476190476190476  C 14.6754676542478 0.0476190476190476  14.9314024390244 0.314116220338813  15 0.642857142857143  L 15 11.3571428571429  Z " fill-rule="nonzero" fill="#ffffff" stroke="none" transform="matrix(1 0 0 1 323 209 )" />
  </g>
</svg>