<?xml version="1.0" encoding="utf-8"?>
<svg version="1.1" xmlns:xlink="http://www.w3.org/1999/xlink" width="15px" height="16px" xmlns="http://www.w3.org/2000/svg">
  <g transform="matrix(1 0 0 1 -234 -205 )">
    <path d="M 1.91712097427693 2.999003  L 9.95152838784076 2.999002984375  C 10.2697227445562 2.999002984375  10.5534460449219 3.0681289375  10.8026982889378 3.20638084375  C 11.0519505329538 3.34463275  11.26673172062 3.51478894791667  11.4470418519365 3.7168494375  C 11.627351983253 3.91890992708333  11.7652362034574 4.13692255729167  11.8606945125499 4.370887328125  C 11.9561528216423 4.60485209895833  12.0038819761885 4.81222996354167  12.0038819761885 4.993020921875  L 12.0038819761885 14.00598203125  C 12.0038819761885 14.3143901354167  11.9428947234458 14.5908939583333  11.8209202179604 14.8354935  C 11.6989457124751 15.0800930416667  11.5398485341174 15.28747090625  11.3436286828873 15.45762709375  C 11.1474088316572 15.62778328125  10.9273244057513 15.7607178125  10.6833754051695 15.8564306875  C 10.4394264045878 15.9521435625  10.1954773988115 15.9999999947917  9.95152838784076 15.999999984375  L 2.10803758207281 15.999999984375  C 1.90651448740858 15.999999984375  1.68643006150266 15.9415087916667  1.44778430435505 15.82452640625  C 1.20913854720745 15.7075440208333  0.986402499584443 15.55333996875  0.779576161486038 15.36191425  C 0.572749823387634 15.17048853125  0.400394546833445 14.9498172135417  0.262510331823472 14.699900296875  C 0.124626116813498 14.4499833802083  0.0556840093085117 14.1974077760417  0.0556840093085117 13.942173484375  L 0.0556840093085117 5.056829515625  C 0.0556840093085117 4.83349950520834  0.108716402094416 4.602193421875  0.214781187666224 4.362911265625  C 0.320845973238033 4.123629109375  0.458730193442488 3.90295779166667  0.628433848279589 3.7008973125  C 0.79813750311669 3.49883683333334  0.994357354346743 3.331339328125  1.21709340196975 3.198404796875  C 1.43982944959275 3.065470265625  1.67317197369515 2.999003  1.91712097427693 2.999003  Z M 3.04671092191656 12.96909271875  L 9.01285504799701 12.96909271875  C 9.28862348840592 12.96909271875  9.5246176342254 12.873379859375  9.72083748545545 12.681954140625  C 9.9170573366855 12.490528421875  10.0151672623005 12.2565636510417  10.0151672623005 11.980059828125  C 10.0151672623005 11.7035560052083  9.9170573366855 11.4669325416667  9.72083748545545 11.2701894375  C 9.5246176342254 11.0734463333333  9.28862348840592 10.97507478125  9.01285504799701 10.97507478125  L 3.04671092191656 10.97507478125  C 2.77094248150765 10.97507478125  2.53494833568816 11.0734463333333  2.33872848445811 11.2701894375  C 2.14250863322806 11.4669325416667  2.04439870761303 11.7035560052083  2.04439870761303 11.980059828125  C 2.04439870761303 12.2565636510417  2.14250863322806 12.490528421875  2.33872848445811 12.681954140625  C 2.53494833568816 12.873379859375  2.77094248150765 12.96909271875  3.04671092191656 12.96909271875  Z M 3.04671092191656 8.981056828125  L 9.01285504799701 8.981056828125  C 9.28862348840592 8.981056828125  9.5246176342254 8.88534396875  9.72083748545545 8.69391825  C 9.9170573366855 8.50249253125  10.0151672623005 8.26852776041667  10.0151672623005 7.9920239375  C 10.0151672623005 7.71552011458333  9.9170573366855 7.47889665104167  9.72083748545545 7.282153546875  C 9.5246176342254 7.08541044270833  9.28862348840592 6.987038890625  9.01285504799701 6.987038890625  L 3.04671092191656 6.987038890625  C 2.77094248150765 6.987038890625  2.53494833568816 7.08541044270833  2.33872848445811 7.282153546875  C 2.14250863322806 7.47889665104167  2.04439870761303 7.71552011458333  2.04439870761303 7.9920239375  C 2.04439870761303 8.26852776041667  2.14250863322806 8.50249253125  2.33872848445811 8.69391825  C 2.53494833568816 8.88534396875  2.77094248150765 8.981056828125  3.04671092191656 8.981056828125  Z M 5.2263422436004 0  L 11.8288750831117 0  C 12.2849536548371 0  12.7039095536902 0.13559321875  13.0857427796709 0.40677965625  C 13.4675760056516 0.67796609375  13.799028455369 1.012961109375  14.0801001288231 1.411764703125  C 14.3611718022773 1.810568296875  14.5812562281832 2.241276171875  14.7403534065409 2.703888328125  C 14.8994505848986 3.166500484375  14.9789991740775 3.58923228645833  14.9789991740775 3.972083734375  L 14.9789991740775 12.44267196875  C 14.9789991740775 12.6660019791667  14.9127086830951 12.87072115625  14.7801277011303 13.0568295  C 14.6475467191656 13.24293784375  14.4857979242852 13.40245928125  14.2948813164894 13.5353938125  C 14.1039647086935 13.66832834375  13.897138380984 13.77467596875  13.674402333361 13.8544366875  C 13.451666285738 13.93419740625  13.2448399580286 13.974077765625  13.0539233502327 13.974077765625  L 12.9902844757729 13.974077765625  L 12.9902844757729 4.4506480625  C 12.9054326431599 3.71684945833333  12.6773933572972 3.15320705208333  12.3061666181848 2.75972084375  C 11.9349398790725 2.36623463541667  11.4417386292803 2.11100033854167  10.8265628688082 1.994017953125  L 3.06262065221908 1.994017953125  C 3.07322712869847 1.97274843229167  3.07853036693816 1.935526765625  3.07853036693816 1.882352953125  C 3.07853036693816 1.669657703125  3.14216923620346 1.45164507291667  3.26944697473404 1.2283150625  C 3.39672471326463 1.00498505208333  3.56377674638464 0.802924567708335  3.77060307409408 0.622133609375001  C 3.97742940180352 0.441342651041668  4.20812030938331 0.292455979166668  4.46267579683344 0.175473593750001  C 4.71723128428358 0.058491197916667  4.97178676653923 0  5.2263422436004 0  Z " fill-rule="nonzero" fill="#ffffff" stroke="none" transform="matrix(1 0 0 1 234 205 )" />
  </g>
</svg>