<?xml version="1.0" encoding="utf-8"?>
<svg version="1.1" xmlns:xlink="http://www.w3.org/1999/xlink" width="7px" height="4px" xmlns="http://www.w3.org/2000/svg">
  <g transform="matrix(1 0 0 1 -327 -205 )">
    <path d="M 6.712890625 3.73076923076923  C 6.58946047975267 3.85530557116788  6.41566934040569 3.92514941994783  6.234375 3.92307692307692  C 6.05308065959432 3.92514941994783  5.87928952024733 3.85530557116788  5.755859375 3.73076923076923  L 3.5 1.62820512820513  L 1.244140625 3.73076923076923  C 1.11723039060412 3.84977663005621  0.945103174686595 3.91663429080844  0.765625 3.91663429080844  C 0.391881048909917 3.91663429080844  0.0889017133175611 3.6325218002896  0.0889017133175611 3.28205128205128  C 0.0889017133175611 3.11374940395689  0.160199140604124 2.95234073262031  0.287109375 2.83333333333333  L 3.021484375 0.269230769230768  C 3.14553385172099 0.145285607956959  3.31873020163705 0.0749760950168417  3.5 0.0749760950168417  C 3.68126979836294 0.0749760950168417  3.85446614827901 0.145285607956958  3.978515625 0.269230769230769  L 6.712890625 2.83333333333333  C 6.84506651963965 2.94965811736474  6.92004502367345 3.11206934659005  6.92004502367345 3.28205128205128  C 6.92004502367345 3.45203321751251  6.84506651963965 3.61444444673782  6.712890625 3.73076923076923  Z " fill-rule="nonzero" fill="#ffffff" stroke="none" transform="matrix(1 0 0 1 327 205 )" />
  </g>
</svg>