<?xml version="1.0" encoding="utf-8"?>
<svg version="1.1" xmlns:xlink="http://www.w3.org/1999/xlink" width="12px" height="12px" viewBox="978 313  12 12" xmlns="http://www.w3.org/2000/svg">
  <path d="M 978.5 316  A 2.5 2.5 0 0 1 981 313.5 L 987 313.5  A 2.5 2.5 0 0 1 989.5 316 L 989.5 322  A 2.5 2.5 0 0 1 987 324.5 L 981 324.5  A 2.5 2.5 0 0 1 978.5 322 L 978.5 316  Z " fill-rule="nonzero" fill="#ffffff" stroke="none" />
  <path d="M 978.5 316  A 2.5 2.5 0 0 1 981 313.5 L 987 313.5  A 2.5 2.5 0 0 1 989.5 316 L 989.5 322  A 2.5 2.5 0 0 1 987 324.5 L 981 324.5  A 2.5 2.5 0 0 1 978.5 322 L 978.5 316  Z " stroke-width="1" stroke="#797979" fill="none" />
</svg>