<?xml version="1.0" encoding="utf-8"?>
<svg version="1.1" xmlns:xlink="http://www.w3.org/1999/xlink" width="14px" height="14px" xmlns="http://www.w3.org/2000/svg">
  <g transform="matrix(1 0 0 1 -2868 -54 )">
    <path d="M 0.287671232876712 9.84474885220462  C 0.127853887521404 9.97260273972603  0.0639269343964045 10.1324200850813  0.0639269343964045 10.2922374491652  L 0.0639269343964045 13.3287671232877  C 0.0639269343964045 13.6803652905608  0.351598167273117 13.9680365234375  0.703196353274828 13.9680365234375  L 3.77168950395976 13.9680365234375  C 3.93150684931507 13.9680365234375  4.09132421339897 13.9041095890411  4.21917808219178 13.7762557015197  L 13.8082191780822 4.18721460562928  C 14.0639269343964 3.93150684931507  14.0639269343964 3.54794520547945  13.8082191780822 3.29223744916524  L 10.7716895039598 0.223744298480308  C 10.6438356164384 0.0958904109589041  10.484018271083 0.0319634765625  10.3242009069991 0.0319634765625  C 10.1643835616438 0.0319634765625  10.0045661975599 0.0958904109589041  9.87671232876712 0.223744298480308  L 0.287671232876712 9.84474885220462  Z " fill-rule="nonzero" fill="#0079fe" stroke="none" transform="matrix(1 0 0 1 2868 54 )" />
  </g>
</svg>