<?xml version="1.0" encoding="utf-8"?>
<svg version="1.1" xmlns:xlink="http://www.w3.org/1999/xlink" width="17px" height="17px" xmlns="http://www.w3.org/2000/svg">
  <g transform="matrix(1 0 0 1 -2865 -54 )">
    <path d="M 16.9397163179438 9.37411346929023  C 16.9397163179438 9.04255319148936  16.6684397221991 8.80141842794215  16.3670212765957 8.80141844560339  C 16.0354609987949 8.80141844560339  15.7943262352477 9.07269504134807  15.7943262352477 9.37411346929023  L 15.7943262352477 15.1914893617021  C 15.7943262352477 15.523049639503  15.523049639503 15.7641844030502  15.2216312115608 15.7641844030502  L 1.80851063829787 15.7641844030502  C 1.47695036049701 15.7641844030502  1.2358155969498 15.4929078073055  1.2358155969498 15.1914893617021  L 1.2358155969498 1.80851063829787  C 1.2358155969498 1.47695036049701  1.50709219269448 1.2358155969498  1.80851063829787 1.2358155969498  L 7.62588653070977 1.2358155969498  C 7.95744680851064 1.2358155969498  8.19858157205785 0.96453900120512  8.19858155439661 0.632978723404255  C 8.19858153673537 0.301418445603391  7.95744680851064 0.0602836820561836  7.62588653070977 0.0602836820561836  L 1.80851063829787 0.0602836820561836  C 0.843971637092753 0.0602836820561836  0.0602836820561836 0.843971637092753  0 1.80851063829787  L 0 15.1914893617021  C 0.0602836820561836 16.1560283629072  0.843971637092753 16.9397163179438  1.80851063829787 17  L 15.1914893617021 17  C 16.1560283629072 16.9397163179438  16.9397163179438 16.1560283805685  16.9397163179438 15.1914893617021  L 16.9397163179438 9.37411346929023  Z " fill-rule="nonzero" fill="#0079fe" stroke="none" transform="matrix(1 0 0 1 2865 54 )" />
  </g>
</svg>