<?xml version="1.0" encoding="utf-8"?>
<svg version="1.1" xmlns:xlink="http://www.w3.org/1999/xlink" width="132px" height="40px" xmlns="http://www.w3.org/2000/svg">
  <g transform="matrix(1 0 0 1 -778 -106 )">
    <path d="M 779 109  A 2 2 0 0 1 781 107 L 907 107  A 2 2 0 0 1 909 109 L 909 143  A 2 2 0 0 1 907 145 L 781 145  A 2 2 0 0 1 779 143 L 779 109  Z " fill-rule="nonzero" fill="#ffffff" stroke="none" />
    <path d="M 778.5 109  A 2.5 2.5 0 0 1 781 106.5 L 907 106.5  A 2.5 2.5 0 0 1 909.5 109 L 909.5 143  A 2.5 2.5 0 0 1 907 145.5 L 781 145.5  A 2.5 2.5 0 0 1 778.5 143 L 778.5 109  Z " stroke-width="1" stroke="#cccccc" fill="none" stroke-opacity="0.698039215686274" />
  </g>
</svg>