<?xml version="1.0" encoding="utf-8"?>
<svg version="1.1" xmlns:xlink="http://www.w3.org/1999/xlink" width="138px" height="46px" xmlns="http://www.w3.org/2000/svg">
  <defs>
    <filter x="775px" y="103px" width="138px" height="46px" filterUnits="userSpaceOnUse" id="filter271">
      <feOffset dx="0" dy="0" in="SourceAlpha" result="shadowOffsetInner" />
      <feGaussianBlur stdDeviation="1.5" in="shadowOffsetInner" result="shadowGaussian" />
      <feComposite in2="shadowGaussian" operator="atop" in="SourceAlpha" result="shadowComposite" />
      <feColorMatrix type="matrix" values="0 0 0 0 0  0 0 0 0 0.474509803921569  0 0 0 0 0.996078431372549  0 0 0 0.8 0  " in="shadowComposite" />
    </filter>
    <g id="widget272">
      <path d="M 778.5 109  A 2.5 2.5 0 0 1 781 106.5 L 907 106.5  A 2.5 2.5 0 0 1 909.5 109 L 909.5 143  A 2.5 2.5 0 0 1 907 145.5 L 781 145.5  A 2.5 2.5 0 0 1 778.5 143 L 778.5 109  Z " fill-rule="nonzero" fill="#ffffff" stroke="none" />
      <path d="M 778.5 109  A 2.5 2.5 0 0 1 781 106.5 L 907 106.5  A 2.5 2.5 0 0 1 909.5 109 L 909.5 143  A 2.5 2.5 0 0 1 907 145.5 L 781 145.5  A 2.5 2.5 0 0 1 778.5 143 L 778.5 109  Z " stroke-width="1" stroke="#0079fe" fill="none" />
    </g>
  </defs>
  <g transform="matrix(1 0 0 1 -775 -103 )">
    <use xlink:href="#widget272" filter="url(#filter271)" />
    <use xlink:href="#widget272" />
  </g>
</svg>