<?xml version="1.0" encoding="utf-8"?>
<svg version="1.1" xmlns:xlink="http://www.w3.org/1999/xlink" width="15px" height="15px" xmlns="http://www.w3.org/2000/svg">
  <g transform="matrix(1 0 0 1 -50 -271 )">
    <path d="M 14.1183626853814 13.0177436440678  C 14.5684917902542 13.0179919226695  15.038234904661 12.6460705773305  14.9334613347458 12.2751423463983  C 14.7723285222458 11.3135593220339  12.9102390095339 11.1122053760593  12.8784593485169 10.4527774099576  C 12.8466796875 9.79334944385594  13.0356197033898 6.35543564618644  13.0356197033898 6.35543564618644  C 13.1418829449153 3.6571438029661  11.106743246822 2.18063095868644  9.01698225635593 1.50630627648305  C 9.01946504237288 1.4991061970339  9.01698225635593 1.48694054555085  9.01474774894068 1.4745266154661  C 9.01499602754237 1.46062301377119  9.01698225635593 1.44746424788136  9.01698225635593 1.43331236758475  C 9.01698225635593 0.670600503177969  8.33769200211864 0.0516419491525442  7.5 0.0516419491525442  C 6.66230799788136 0.0516419491525442  5.98301774364407 0.670848781779663  5.98301774364407 1.43380892478814  C 5.98301774364407 1.44796080508475  5.98475569385593 1.46111957097458  5.98525225105932 1.4747748940678  C 5.98301774364407 1.48743710275424  5.98053495762712 1.4991061970339  5.98301774364407 1.50655455508475  C 3.89300847457627 2.18137579449153  1.85786877648305 3.6573920815678  1.96438029661017 6.35568392478814  C 1.96438029661017 6.35568392478814  2.15356859110169 9.79359772245763  2.12178893008474 10.4530256885593  C 2.0897609904661 11.112453654661  0.227671477754235 11.3135593220339  0.0667869438559313 12.275390625  C -0.0379866260593229 12.6460705773305  0.432004766949152 13.0177436440678  0.882630429025423 13.0177436440678  L 5.65578654661017 13.0177436440678  C 5.64486228813559 13.0932203389831  5.63691737288136 13.1699384269068  5.63691737288136 13.247897907839  C 5.63691737288136 14.1861427436441  6.47113347457627 14.947116657839  7.50049655720339 14.9483580508475  C 8.52985963983051 14.947116657839  9.36407574152542 14.1861427436441  9.36407574152542 13.247897907839  C 9.36407574152542 13.1699384269068  9.35613082627118 13.0932203389831  9.34495828919491 13.0177436440678  L 14.1183626853814 13.0177436440678  Z " fill-rule="nonzero" fill="#ffffff" stroke="none" transform="matrix(1 0 0 1 50 271 )" />
  </g>
</svg>