<?xml version="1.0" encoding="utf-8"?>
<svg version="1.1" xmlns:xlink="http://www.w3.org/1999/xlink" width="400px" height="40px" xmlns="http://www.w3.org/2000/svg">
  <g transform="matrix(1 0 0 1 -120 -68 )">
    <path d="M 120.5 71  A 2.5 2.5 0 0 1 123 68.5 L 517 68.5  A 2.5 2.5 0 0 1 519.5 71 L 519.5 105  A 2.5 2.5 0 0 1 517 107.5 L 123 107.5  A 2.5 2.5 0 0 1 120.5 105 L 120.5 71  Z " fill-rule="nonzero" fill="#ffffff" stroke="none" />
    <path d="M 120.5 71  A 2.5 2.5 0 0 1 123 68.5 L 517 68.5  A 2.5 2.5 0 0 1 519.5 71 L 519.5 105  A 2.5 2.5 0 0 1 517 107.5 L 123 107.5  A 2.5 2.5 0 0 1 120.5 105 L 120.5 71  Z " stroke-width="1" stroke="#0079fe" fill="none" />
  </g>
</svg>