<?xml version="1.0" encoding="utf-8"?>
<svg version="1.1" xmlns:xlink="http://www.w3.org/1999/xlink" width="15px" height="16px" xmlns="http://www.w3.org/2000/svg">
  <g transform="matrix(1 0 0 1 -247 -821 )">
    <path d="M 14.9219011230469 3.394348125  C 14.9041855794271 2.90329753125  14.4779942545573 2.440396328125  13.975035546875 2.355752671875  C 13.975035546875 2.355752671875  12.0202163085938 2.06252978125  10.9232776367188 1.689550265625  C 9.55327514648438 1.223912328125  8.19773019205729 0.204865046875  8.19773019205729 0.2048650625  C 7.7743896484375 -0.0830798125000001  7.12746665039063 -0.0660728906250001  6.73344840494792 0.247284640625  C 6.73344840494792 0.247284640625  5.77497609049479 1.170154796875  3.98448383789063 1.706557203125  C 2.46725903320313 2.286161109375  1.22900322265625 2.38898459375  1.03311404622396 2.402081875  C 1.01397311197917 2.40345025  0.995035791015626 2.405014109375  0.976098486328126 2.40794634375  C 0.489226318359376 2.483402359375  0.0768816406250012 2.913267125  0.0681256673177095 3.394543609375  C 0.0681256673177095 3.394543609375  0.000521500651042839 5.91508753125  0.0858412109375011 8.127942921875  C 0.118217903645834 12.088015734375  5.03703181966146 16  7.52433567708334 16  C 9.97050688476563 16  14.201468766276 13.273418125  14.8659036946615 8.184437203125  C 15.0306379394531 5.167173703125  14.9219011230469 3.3951300625  14.9219011230469 3.3951300625  Z M 12.9505002696409 5.43658321433738  C 12.9505002696409 5.64663143468107  12.8581815357186 5.84692995422698  12.6962579589844 5.98819778125  L 12.6962579589844 5.965521875  L 6.96008525390625 11.11959828125  C 6.70065905584962 11.3542090904755  6.30861206176945 11.3902526090811  6.00751813151042 11.2071741875  L 5.85764864908854 11.08577990625  L 2.68799070638021 7.9506408125  C 2.55390026353034 7.81213177447469  2.47936971469209 7.6300442307966  2.47936971469209 7.4409533819322  C 2.47936971469209 7.22984086539548  2.57221203382934 7.0285397146992  2.73502854817708 6.886632703125  C 3.05724147670288 6.6047253112159  3.55593872214819 6.6248804252359  3.85232991536458 6.93178903125  L 6.45733017578125 9.536194703125  L 11.6231436523437 4.881574609375  C 11.9453565808695 4.5996672174659  12.4440538263149 4.6198223314859  12.7404450195313 4.9267309375  C 12.8753959255255 5.06488943887803  12.9505002696409 5.24718491032006  12.9505002696409 5.43658321433738  Z " fill-rule="nonzero" fill="#ffffff" stroke="none" transform="matrix(1 0 0 1 247 821 )" />
  </g>
</svg>