<?xml version="1.0" encoding="utf-8"?>
<svg version="1.1" xmlns:xlink="http://www.w3.org/1999/xlink" width="260px" height="40px" xmlns="http://www.w3.org/2000/svg">
  <defs>
    <mask fill="white" id="clip267">
      <path d="M 0 37  L 0 3  C 0 1.32  1.32 0  3 0  L 107.735849056604 0  L 260 0  L 260 40  L 3 40  C 1.32 40  0 38.68  0 37  Z " fill-rule="evenodd" />
    </mask>
  </defs>
  <g>
    <path d="M 0 37  L 0 3  C 0 1.32  1.32 0  3 0  L 107.735849056604 0  L 260 0  L 260 40  L 3 40  C 1.32 40  0 38.68  0 37  Z " fill-rule="nonzero" fill="#f2f2f2" stroke="none" />
    <path d="M 0 37  L 0 3  C 0 1.32  1.32 0  3 0  L 107.735849056604 0  L 260 0  L 260 40  L 3 40  C 1.32 40  0 38.68  0 37  Z " stroke-width="2" stroke="#e4e4e4" fill="none" mask="url(#clip267)" />
  </g>
</svg>