<?xml version="1.0" encoding="utf-8"?>
<svg version="1.1" xmlns:xlink="http://www.w3.org/1999/xlink" width="19px" height="11px" xmlns="http://www.w3.org/2000/svg">
  <g transform="matrix(1 0 0 1 -324 -337 )">
    <path d="M 18.9958020284308 5.50020433296883  C 18.9961973198469 4.74745444524721  15.7287739059595 0.00128876044677024  9.49790101421542 0.00128876044677024  C 3.26663284144341 0.00128876044677024  0 4.74745444524721  0 5.50020433296884  C 0 6.25254556549246  3.26663284144341 10.9987112395532  9.49790101421542 10.9987112395532  C 15.7287738955714 10.9987112395532  18.9958020284308 6.25254555475279  18.9958020284308 5.50020433296883  Z M 13.7195417217059 5.50020433296883  C 13.7195417217059 7.83650785850973  11.8296855194095 9.73023369132235  9.49790101421542 9.73023369132235  C 7.16611650902132 9.73023369132235  5.27626030672499 7.83650785850973  5.27626030672499 5.50020433296883  C 5.27626030672499 3.16390080742795  7.16611650902133 1.27017497461532  9.49790101421542 1.27017497461532  C 11.8292902383816 1.27017497461532  13.7195417217059 3.16349214149027  13.7195417217059 5.50020433296883  Z M 11.6087213679606 5.50020433296884  C 11.6087213679606 4.96363505330782  9.82638261290323 5.8733099976568  9.49790101421542 5.50020433296884  C 9.11091728321487 5.06130455850191  10.1279848419902 3.38498532082325  9.49790101421542 3.38498532082325  C 8.33220640732641 3.38498532082325  7.3870806604702 4.33225689779739  7.3870806604702 5.50020433296884  C 7.3870806604702 6.66815176814028  8.33220640732641 7.61501467917676  9.49790101421542 7.61501467917676  C 10.6632003400765 7.61501467917676  11.6087213679606 6.66815176814028  11.6087213679606 5.50020433296884  Z " fill-rule="nonzero" fill="#ffffff" stroke="none" transform="matrix(1 0 0 1 324 337 )" />
  </g>
</svg>