<?xml version="1.0" encoding="utf-8"?>
<svg version="1.1" xmlns:xlink="http://www.w3.org/1999/xlink" width="17px" height="17px" xmlns="http://www.w3.org/2000/svg">
  <g transform="matrix(1 0 0 1 -467 -333 )">
    <path d="M 1.45745294581759 8.50094434667969  C 1.45745294581759 12.4058069794219  4.57372873525792 15.5889754995213  8.45865119033737 15.6524275146484  C 12.3435736454168 15.5889754995213  15.4598494348572 12.4058069794219  15.4598494348572 8.50094434667969  C 15.4598494348572 4.59608171393752  12.3435736454168 1.41291319383805  8.45865119033737 1.34946117871094  C 4.57372873525792 1.41291319383805  1.45745294581759 4.59608171393752  1.45745294581759 8.50094434667969  Z M 8.45865119033737 17  C 3.78758614201723 17  0.000939747551305236 13.1944203735617  0.000939747551305236 8.5  C 0.000939747551305236 3.80557962643826  3.78758614201723 0  8.45865119033737 0  C 13.1297162386575 0  16.9163626331234 3.80557962643826  16.9163626331234 8.5  C 16.9163626331234 13.1944203735617  13.1297162386575 17  8.45865119033737 17  Z " fill-rule="nonzero" fill="#ffffff" stroke="none" transform="matrix(1 0 0 1 467 333 )" />
  </g>
</svg>