<?xml version="1.0" encoding="utf-8"?>
<svg version="1.1" xmlns:xlink="http://www.w3.org/1999/xlink" width="15px" height="15px" xmlns="http://www.w3.org/2000/svg">
  <g transform="matrix(1 0 0 1 -52 -206 )">
    <path d="M 12.8187500061035 0  L 12.819375 0.00437499389648432  C 13.4218749938965 0.015  13.9206249938965 0.218124993896484  14.3143749938965 0.612500006103516  C 14.708749987793 1.00625000610352  14.911875 1.505625  14.9225000061035 2.1075  L 14.923125 9.63812499389648  C 14.245897288545 9.06468970339646  13.3872578707779 8.74999726361404  12.4998653952895 8.74999726361404  C 10.428797583424 8.74999726361404  8.7498653952895 10.4289294517486  8.7498653952895 12.499997263614  C 8.7498653952895 13.3884570756376  9.06531392528692 14.2480582000473  9.63999999389648 14.9256249938965  L 2.105625 14.925  C 1.50312500610351 14.9143749938965  1.00437500610352 14.71125  0.609999993896484 14.3168750061035  C 0.216249993896484 13.922500012207  0.0131250000000001 13.423125  0 12.82125  L 0 2.1075  C 0.0131250000000001 1.505625  0.216249993896484 1.006875  0.609999993896484 0.612500006103516  C 1.00437498779297 0.218125012207031  1.50375 0.0149999999999997  2.105625 0  L 12.8187500061035 0  Z M 9.830625 4.539375  C 9.72125000610351 4.43000000610351  9.60125000610352 4.37499999389648  9.46875 4.37499999389648  C 9.33624999389649 4.37499999389648  9.21624999389648 4.42999998779297  9.106875 4.539375  L 7.62875000610352 6.001875  L 6.15 4.539375  C 6.04062500610352 4.43000000610351  5.92062500610352 4.37499999389648  5.78874999389649 4.37499999389648  C 5.65624998779297 4.37499999389648  5.53624998779297 4.42999998779297  5.42625 4.539375  C 5.3175 4.64874999389648  5.26187499389649 4.76937500610352  5.26187499389649 4.90187499389648  C 5.26187499389649 5.03312499389648  5.3175 5.15374998779297  5.42687499389648 5.263125  L 6.478125 6.315  L 5.52500000610352 6.315  C 5.360625 6.32562500610351  5.23187501220703 6.37875  5.139375 6.47124999389648  C 5.045625 6.56499999389648  5.00000000610352 6.69  5.00000000610352 6.84875000610351  C 5.00000000610352 7.00750001220703  5.04687500610352 7.13312501220703  5.139375 7.22625  C 5.23187499389648 7.32  5.36187500610352 7.36562499389648  5.52500000610352 7.36562499389648  L 7.10312499389649 7.36562499389648  L 7.10312499389649 8.00625  L 5.52500000610352 8.00625  C 5.360625 8.00625  5.23187501220703 8.053125  5.139375 8.14562499389648  C 5.045625 8.23937499389648  5.00000000610352 8.364375  5.00000000610352 8.52312500610351  C 5.00000000610352 8.68125  5.04687500610352 8.810625  5.139375 8.90874999389648  C 5.23187499389648 9.0075  5.36187500610352 9.05625  5.52500000610352 9.05625  L 7.10187500610352 9.05625  L 7.10187500610352 9.89375000610351  C 7.10187500610352 10.0587500061035  7.14875000610352 10.187500012207  7.24187499389649 10.2800000061035  C 7.33437498779297 10.3737500061035  7.46374998779297 10.419375  7.6275 10.419375  C 7.790625 10.419375  7.92125000610352 10.3725  8.01312500610351 10.2800000061035  C 8.105625 10.187500012207  8.1525 10.0575  8.1525 9.894375  L 8.1525 9.05687499389648  L 9.729375 9.05687499389648  C 9.894375 9.05687499389648  10.0231250061035 9.00687498779296  10.115625 8.90874999389648  C 10.2081249938965 8.80999998779297  10.2549999938965 8.68125  10.2549999938965 8.52312500610351  C 10.2549999938965 8.364375  10.2081249938965 8.23812500610351  10.115625 8.14562499389648  C 10.021875 8.053125  9.89312499389648 8.00625  9.729375 8.00625  L 8.15499999389648 8.00625  L 8.15499999389648 7.36562499389648  L 9.73187499389648 7.36562499389648  C 9.89687499389648 7.36562499389648  10.025625 7.31874999389648  10.1175 7.22625  C 10.2106250061035 7.13312499389648  10.2575000061035 7.00749999389648  10.2575000061035 6.84875000610351  C 10.2575000061035 6.69000001831054  10.2106250061035 6.56375000610351  10.1175 6.47124999389648  C 10.02375 6.37875  9.89562500610351 6.32562498779297  9.73187499389648 6.315  L 8.77875 6.315  L 9.830625 5.263125  C 9.93999999389648 5.15375000610351  9.99500000610352 5.03375000610351  9.99500000610352 4.90125  C 9.99500000610352 4.76937500610351  9.94000001220703 4.64874999389648  9.830625 4.539375  Z " fill-rule="nonzero" fill="#ffffff" stroke="none" transform="matrix(1 0 0 1 52 206 )" />
  </g>
</svg>