<?xml version="1.0" encoding="utf-8"?>
<svg version="1.1" xmlns:xlink="http://www.w3.org/1999/xlink" width="6px" height="6px" xmlns="http://www.w3.org/2000/svg">
  <g transform="matrix(1 0 0 1 -62 -216 )">
    <path d="M 0.00022849716466555 2.98507462834498  C 0.00022849716466555 1.33655266698927  1.33655267376703 0.000126197414097633  2.98507463269589 0  C 4.63391432662258 0  5.97037776257377 1.33646343400323  5.97037776257377 2.98507462834498  C 5.97037776257377 4.63368582268674  4.63391432662258 5.97014925668996  2.98530312987788 5.97014925668996  C 1.33655267376703 5.97002305927586  0.00022849716466555 4.63359658970069  0.00022849716466555 2.98507462834498  Z M 4.7761194088153 1.99701493120771  L 4.68477612523321 1.79104478225419  C 3.59582090135261 2.43582090071738  2.80597015508396 3.25074627266391  2.4495522446362 3.65910448102393  L 1.57910448344217 3.00000000437267  L 1.19402985657649 3.29910448154865  L 2.69671642374067 4.77611941059917  C 2.95462687150187 4.13611941736223  3.77492537896455 2.88597016545305  4.7761194088153 1.99701493120771  Z " fill-rule="nonzero" fill="#ffffff" stroke="none" transform="matrix(1 0 0 1 62 216 )" />
  </g>
</svg>