<?xml version="1.0" encoding="utf-8"?>
<svg version="1.1" xmlns:xlink="http://www.w3.org/1999/xlink" width="15px" height="15px" xmlns="http://www.w3.org/2000/svg">
  <g transform="matrix(1 0 0 1 -142 -274 )">
    <path d="M 14.9405343191964 7.49860491071428  C 14.9405343191964 3.39669363839286  11.6033063616071 0.0592912946428559  7.501220703125 0.0592912946428571  C 3.39913504464286 0.0592912946428571  0.0619070870535721 3.39669363839286  0.0619070870535721 7.49860491071429  C 0.0619070870535721 11.6005161830357  3.39930943080357 14.9379185267857  7.501220703125 14.9379185267857  C 11.6031319754464 14.9379185267857  14.9405343191964 11.6005161830357  14.9405343191964 7.49860491071428  Z M 13.4526715959821 7.498779296875  C 13.4526715959821 10.7803780691964  10.7829938616071 13.4502301897321  7.501220703125 13.4502301897321  C 4.21962193080357 13.4502301897321  1.54976981026786 10.7803780691964  1.54976981026786 7.498779296875  C 1.54976981026786 4.21718052455357  4.21962193080357 1.54732840401786  7.501220703125 1.54732840401786  C 10.7828194754464 1.54732840401786  13.4526715959821 4.21718052455357  13.4526715959821 7.498779296875  Z " fill-rule="nonzero" fill="#ffffff" stroke="none" transform="matrix(1 0 0 1 142 274 )" />
  </g>
</svg>