<?xml version="1.0" encoding="utf-8"?>
<svg version="1.1" xmlns:xlink="http://www.w3.org/1999/xlink" width="11px" height="12px" xmlns="http://www.w3.org/2000/svg">
  <g transform="matrix(1 0 0 1 -1180 -776 )">
    <path d="M 10.9812846072269 1.57205695370163  C 10.9812846072269 1.38119734287631  10.7789561082228 1.190337732051  10.4956962067717 1.190337732051  L 7.82495998292853 1.190337732051  L 7.82495998292853 0.388727358532767  C 7.82495998292853 0.159695817490495  7.62263148392437 0.00700813688212968  7.33937156824707 0.00700812346231308  L 3.73792423760379 0.00700812346231308  C 3.45466433615271 0.00700812346231308  3.25233583714855 0.197867734287632  3.25233583714855 0.388727358532767  L 3.25233583714855 1.190337732051  L 0.541133904968831 1.190337732051  C 0.257874003517757 1.190337732051  0.0555455045135923 1.38119734287631  0.0555454902873695 1.57205695370163  L 0.0555454902873695 2.79355849250727  C 0.0555454902873695 3.02259003354954  0.257873989291534 3.17527771415791  0.541133904968831 3.17527771415791  L 0.702996709862652 3.17527771415791  L 1.14811940198132 11.6112726414672  C 1.14811940198132 11.8021322522926  1.39091360932206 11.9929918631179  1.63370781666279 11.9929918765377  L 9.40312229507773 11.9929918765377  C 9.64591650241846 11.9929918765377  9.88871069553297 11.8403041825095  9.88871069553297 11.6112726414672  L 10.3338334018779 3.17527771415791  L 10.4956962067717 3.17527771415791  C 10.7789561082228 3.17527771415791  10.9812846072269 2.98441810333259  10.9812846072269 2.79355849250727  L 10.9812846072269 1.57205695370163  Z M 4.22351263805903 1.190337732051  L 4.22351263805903 0.770446580183405  L 6.85378316779183 0.770446580183405  L 6.85378316779183 1.190337732051  L 4.22351263805903 1.190337732051  Z M 9.36265660096738 3.17527771415791  L 8.91753389462249 11.2295534198166  L 2.11929621711803 11.2295534198166  L 1.67417351077313 3.17527771415791  L 9.36265660096738 3.17527771415791  Z M 10.0101078063164 1.99194810556922  L 10.0101078063164 2.41183925743681  L 1.02672230542407 2.41183925743681  L 1.02672230542407 1.99194810556922  L 10.0101078063164 1.99194810556922  Z " fill-rule="nonzero" fill="#ffffff" stroke="none" transform="matrix(1 0 0 1 1180 776 )" />
  </g>
</svg>