<?xml version="1.0" encoding="utf-8"?>
<svg version="1.1" xmlns:xlink="http://www.w3.org/1999/xlink" width="5px" height="6px" xmlns="http://www.w3.org/2000/svg">
  <g transform="matrix(1 0 0 1 -1183 -780 )">
    <path d="M 0.0566558793485047 5.57797845057034  C 0.0566558793485047 5.82132446292775  0.298791215027524 5.98355512357414  0.540926550706543 5.9835551378327  C 0.82341776857159 5.9835551378327  1.02519720787696 5.7807668013308  1.02519720787696 5.57797845057034  L 1.02519720787696 0.427154629277566  C 1.02519720787696 0.183808616920152  0.82341776857159 0.0215779562737644  0.540926550706543 0.0215779420152085  C 0.258435332841495 0.0215779277566526  0.0566558935361215 0.22436627851711  0.0566558793485047 0.427154629277565  L 0.0566558793485047 5.57797845057034  Z M 2.03409441859145 5.57797845057034  C 2.03409441859145 5.82132446292775  2.23587385789683 5.98355512357414  2.51836507576187 5.9835551378327  C 2.80085629362692 5.9835551378327  3.0026357329323 5.7807668013308  3.00263574711991 5.57797845057034  L 3.00263574711991 0.427154629277566  C 3.00263574711991 0.183808616920152  2.80085630781454 0.0215779562737644  2.51836507576187 0.0215779420152085  C 2.23587384370921 0.0215779277566526  2.03409441859145 0.22436627851711  2.03409441859145 0.427154629277565  L 2.03409441859145 5.57797845057034  Z M 4.0115329578344 5.57797845057034  C 4.0115329578344 5.82132446292775  4.21331239713978 5.98355512357414  4.49580361500482 5.9835551378327  C 4.77829483286987 5.9835551378327  4.98007427217524 5.7807668013308  4.98007428636286 5.57797845057034  L 4.98007428636286 0.427154629277566  C 4.98007428636286 0.183808616920152  4.77829484705749 0.0215779562737644  4.49580361500482 0.0215779420152085  C 4.21331238295216 0.0215779277566526  4.0115329578344 0.22436627851711  4.0115329578344 0.427154629277565  L 4.0115329578344 5.57797845057034  Z " fill-rule="nonzero" fill="#ffffff" stroke="none" transform="matrix(1 0 0 1 1183 780 )" />
  </g>
</svg>