<?xml version="1.0" encoding="utf-8"?>
<svg version="1.1" xmlns:xlink="http://www.w3.org/1999/xlink" width="20px" height="15px" xmlns="http://www.w3.org/2000/svg">
  <g transform="matrix(1 0 0 1 -416 -862 )">
    <path d="M 19.79 11.2152317880795  C 19.93 11.5397350993378  20 11.8874172185431  20 12.2582781456954  C 20 12.5894039735099  19.9433333333333 12.9006622516556  19.83 13.1920529801325  C 19.7166666666667 13.4834437086093  19.5566666666667 13.7450331125828  19.35 13.976821192053  C 19.1433333333333 14.2086092715232  18.9033333333333 14.4039735099338  18.63 14.5629139072848  C 18.3566666666667 14.7218543046358  18.06 14.8278145695364  17.74 14.8807947019868  L 17.76 14.9006622516556  L 17.42 14.9006622516556  L 17.34 14.9006622516556  L 17.26 15  L 4.06 15  C 3.99333333333333 14.9139072847682  3.88666666666667 14.9205298013245  3.74 14.9205298013245  C 3.22 14.9205298013245  2.73333333333333 14.8211920529801  2.28 14.6225165562914  C 1.82666666666667 14.4238410596026  1.43 14.1556291390729  1.09 13.817880794702  C 0.749999999999999 13.4801324503311  0.483333333333332 13.0860927152318  0.289999999999999 12.635761589404  C 0.0966666666666664 12.1854304635762  0 11.7019867549669  0 11.1854304635762  C 0 10.6688741721854  0.0966666666666664 10.1854304635762  0.289999999999999 9.73509933774835  C 0.483333333333332 9.28476821192053  0.749999999999998 8.89072847682119  1.09 8.55298013245033  C 1.43 8.21523178807947  1.82666666666667 7.94701986754967  2.28 7.74834437086093  C 2.73333333333333 7.54966887417219  3.22 7.45033112582782  3.74 7.45033112582782  L 3.76 7.45033112582782  C 3.74666666666667 7.34437086092716  3.74 7.24503311258278  3.74 7.1523178807947  L 3.74 6.83443708609272  C 3.74 5.89403973509934  3.92 5.00662251655629  4.28 4.17218543046358  C 4.64 3.33774834437086  5.13333333333333 2.61258278145696  5.76 1.99668874172186  C 6.38666666666666 1.38079470198676  7.11666666666666 0.894039735099341  7.95 0.536423841059606  C 8.78333333333333 0.17880794701987  9.67333333333333 0  10.62 0  C 11.5666666666667 0  12.46 0.178807947019871  13.3 0.536423841059606  C 14.14 0.894039735099341  14.8733333333333 1.38079470198676  15.5 1.99668874172186  C 16.1266666666667 2.61258278145696  16.62 3.33774834437086  16.98 4.17218543046358  C 17.34 5.00662251655629  17.52 5.89403973509934  17.52 6.83443708609272  C 17.52 7.32450331125828  17.4666666666667 7.80463576158941  17.36 8.2748344370861  C 17.2533333333333 8.74503311258279  17.1066666666667 9.19205298013246  16.92 9.6158940397351  C 16.9866666666667 9.60264900662252  17.0566666666667 9.59271523178808  17.13 9.58609271523179  C 17.2033333333333 9.5794701986755  17.2733333333333 9.57615894039736  17.34 9.57615894039736  C 17.7 9.57615894039736  18.0433333333333 9.64569536423842  18.37 9.78476821192053  C 18.6966666666667 9.92384105960265  18.98 10.1158940397351  19.22 10.3609271523179  C 19.46 10.6059602649007  19.65 10.8907284768212  19.79 11.2152317880795  Z M 12.37 9.90397350993378  C 12.6433333333333 9.89735099337749  12.8533333333333 9.89403973509934  13 9.89403973509934  C 13.2666666666667 9.89403973509934  13.44 9.86423841059603  13.52 9.80463576158941  C 13.6 9.74503311258279  13.5466666666667 9.60264900662252  13.36 9.37748344370861  C 13.1733333333333 9.13907284768212  12.9666666666667 8.82781456953643  12.74 8.44370860927153  C 12.5133333333333 8.05960264900663  12.2766666666667 7.66887417218543  12.03 7.27152317880795  C 11.7833333333333 6.87417218543047  11.5333333333333 6.50331125827815  11.28 6.158940397351  C 11.0266666666667 5.81456953642385  10.78 5.56291390728477  10.54 5.40397350993378  C 10.3 5.2317880794702  10.1233333333333 5.13907284768212  10.01 5.12582781456954  C 9.89666666666667 5.11258278145696  9.73333333333334 5.19205298013245  9.52 5.36423841059603  C 9.28 5.56291390728477  9.04666666666667 5.81456953642384  8.82 6.11920529801325  C 8.59333333333334 6.42384105960265  8.36333333333334 6.74834437086093  8.13 7.09271523178808  C 7.89666666666667 7.43708609271524  7.66333333333334 7.7748344370861  7.43 8.10596026490066  C 7.19666666666667 8.43708609271524  6.96 8.72847682119206  6.72 8.98013245033113  C 6.48 9.21854304635762  6.39333333333334 9.43046357615894  6.46 9.6158940397351  C 6.52666666666667 9.80132450331126  6.69333333333334 9.89403973509934  6.96 9.89403973509934  L 7.28 9.89403973509934  C 7.4 9.89403973509934  7.53 9.89735099337749  7.67 9.90397350993378  C 7.81 9.91059602649007  7.94666666666667 9.91390728476821  8.08 9.91390728476821  L 8.42 9.91390728476821  C 8.60666666666667 9.9271523178808  8.72666666666667 9.99006622516556  8.78 10.1026490066225  C 8.83333333333334 10.2152317880795  8.86000000000001 10.3708609271523  8.86 10.5695364238411  C 8.86000000000001 10.794701986755  8.85666666666667 10.9933774834437  8.85 11.1655629139073  C 8.84333333333334 11.3377483443709  8.84 11.5033112582781  8.84 11.6622516556291  C 8.84 11.8211920529801  8.83666666666667 11.9867549668874  8.83000000000001 12.158940397351  C 8.82333333333334 12.3311258278146  8.82 12.5298013245033  8.82 12.7549668874172  C 8.82 12.8476821192053  8.83000000000001 12.9470198675497  8.85 13.0529801324503  C 8.87 13.158940397351  8.90666666666667 13.2582781456954  8.96 13.3509933774834  C 9.01333333333334 13.4437086092715  9.09333333333334 13.5198675496689  9.2 13.5794701986755  C 9.30666666666667 13.6390728476821  9.44666666666667 13.6688741721854  9.62 13.6688741721854  L 10.08 13.6688741721854  C 10.2 13.6688741721854  10.38 13.6754966887417  10.62 13.6887417218543  C 10.94 13.6887417218543  11.1233333333333 13.6092715231788  11.17 13.4503311258278  C 11.2166666666667 13.2913907284768  11.24 13.0397350993378  11.24 12.6953642384106  C 11.24 12.3907284768212  11.2433333333333 12.1158940397351  11.25 11.8708609271523  C 11.2566666666667 11.6258278145695  11.26 11.2913907284768  11.26 10.8675496688742  C 11.26 10.5629139072848  11.29 10.3278145695364  11.35 10.1622516556291  C 11.41 9.99668874172186  11.54 9.91390728476821  11.74 9.91390728476821  C 11.8866666666667 9.91390728476821  12.0966666666667 9.91059602649007  12.37 9.90397350993378  Z " fill-rule="nonzero" fill="#0079fe" stroke="none" transform="matrix(1 0 0 1 416 862 )" />
  </g>
</svg>