<?xml version="1.0" encoding="utf-8"?>
<svg version="1.1" xmlns:xlink="http://www.w3.org/1999/xlink" width="9px" height="13px" xmlns="http://www.w3.org/2000/svg">
  <g transform="matrix(1 0 0 1 -326 -205 )">
    <path d="M 8.4375 9.4226618705036  L 0.5625 9.4226618705036  C 0.251839828220179 9.4226618705036  0 9.16095781240109  0 8.83812949640288  C 0 8.51530118040466  0.251839828220179 8.25359712230216  0.5625 8.25359712230216  L 8.4375 8.25359712230216  C 8.74816017177982 8.25359712230216  9 8.51530118040466  9 8.83812949640288  C 9 9.16095781240109  8.74816017177982 9.4226618705036  8.4375 9.4226618705036  Z M 8.4375 12.9298561151079  L 0.5625 12.9298561151079  C 0.251839828220179 12.9298561151079  0 12.6681520570054  0 12.3453237410072  C 0 12.022495425009  0.251839828220179 11.7607913669065  0.5625 11.7607913669065  L 8.4375 11.7607913669065  C 8.74816017177982 11.7607913669065  9 12.022495425009  9 12.3453237410072  C 9 12.6681520570054  8.74816017177982 12.9298561151079  8.4375 12.9298561151079  Z M 5.0625 6.5  C 5.0625 6.82282831599822  4.81066017177982 7.08453237410072  4.5 7.08453237410072  C 4.18933982822018 7.08453237410072  3.9375 6.82282831599822  3.9375 6.5  L 3.9375 0.654676258992806  C 3.9375 0.33184794299459  4.18933982822018 0.0701438848920863  4.5 0.0701438848920863  C 4.81066017177982 0.0701438848920863  5.0625 0.33184794299459  5.0625 0.654676258992806  L 5.0625 6.5  Z " fill-rule="nonzero" fill="#ffffff" stroke="none" transform="matrix(1 0 0 1 326 205 )" />
  </g>
</svg>