<?xml version="1.0" encoding="utf-8"?>
<svg version="1.1" xmlns:xlink="http://www.w3.org/1999/xlink" width="13px" height="16px" xmlns="http://www.w3.org/2000/svg">
  <g transform="matrix(1 0 0 1 -412 -205 )">
    <path d="M 4.41008424635105 4.1889420625  L 8.61290209931699 4.1889420625  C 9.32881903536676 4.1889420625  9.91221396776759 3.590520796875  9.91221396776759 2.855142671875  L 9.91221396776759 2.783495296875  C 9.91221396776759 2.738073703125  9.91001650799963 2.69268853125  9.90526704715569 2.648414328125  C 9.84504912050898 2.034603625  9.37771295611901 1.54350771875  8.78668002198728 1.461679640625  C 8.73009499204716 1.45381190625  8.67241121701909 1.447783625  8.61288437149139 1.447783625  L 8.04958578429079 1.447783625  L 8.04958578429079 1.34087715625  C 8.04958578429079 0.605116578125  7.46727191476422 0.00556615625  6.75025620321856 0.00556615625  L 6.2720035448634 0.00556615625  C 5.55571443090382 0.00556615625  4.97302841387537 0.605116578125  4.97302841387537 1.34087715625  L 4.97302841387537 1.447783625  L 4.40935766396894 1.447783625  C 4.35059285647455 1.447783625  4.29324577329716 1.453811890625  4.23593414577096 1.461679640625  C 3.64522023648016 1.5434895  3.17756509286115 2.03383871875  3.11770155548278 2.64764940625  C 3.11332431816055 2.692324296875  3.11075469568675 2.737327  3.11075469568675 2.782730375  L 3.11075469568675 2.85437775  C 3.11075465007485 3.590520796875  3.69418499251497 4.1889420625  4.41008424635105 4.1889420625  Z M 12.0435546173278 1.10976246875  L 10.130189533823 1.10976246875  L 10.130189533823 1.813232546875  L 12.0435546173278 1.8132325625  C 12.1735070593189 1.8132325625  12.279039208692 1.921650671875  12.279039208692 2.055238234375  L 12.279039208692 15.048071640625  C 12.279039208692 15.181640984375  12.1735071353387 15.290077328125  12.0435546173278 15  L 0.979413970106662 15  C 0.849461528115644 15.290077328125  0.743929424354416 15.181640984375  1 15.047324984375  L 1 2.054491515625  C 0.743929424354416 1.92128640625  0.849443785086078 1.81285009375  0.979413970106662 1.81285009375  L 2.89208791167665 1.81285009375  L 2.89208791167665 1.1089975625  L 0.979413970106662 1.108997578125  C 0.471973830464072 1.108997578125  0.0597872590755988 1.533345234375  0 2.05372659375  L 0 15.0458315625  C 0.0597872590755988 15.567323828125  0.47195611784244 15.99130728125  0.979413970106662 16  L 12.0435546173278 16  C 12.5510479860591 15.99130728125  12.9632167536022 15.5677063125  13 15.04657821875  L 13 2.054491515625  C 12.9631991017964 1.533345234375  12.5510478948353 1.10976246875  12.0435546173278 1.10976246875  Z M 3.39550523367328 7.176586375  L 9.62746336896519 7.176586375  C 10.0126067505614 7.176586375  10.3247549132204 6.855448078125  10.3247549132204 6.459602734375  C 10.3247549132204 6.0637938125  10.012624478387 5.742965125  9.62746336896519 5.742965125  L 3.39550523367328 5.742965125  C 3.01036182166916 5.742965125  2.69785922412987 6.063775609375  2.69785922412987 6.459602734375  C 2.69785922412987 6.855429875  3.01036183687313 7.176586375  3.39550523367328 7.176586375  Z M 9.62746336896519 8.714491515625  L 3.39550523367328 8.714491515625  C 3.01036182166916 8.714491515625  2.69785922412987 9.035283734375  2.69785922412987 9.43109271875  C 2.69785922412987 9.826919828125  3.01036183687313 10.148076359375  3.39550523367328 10.148076359375  L 9.62746336896519 10.148076359375  C 10.0126067505614 10.148076359375  10.3247549132204 9.826919828125  10.3247549132204 9.43109271875  C 10.3247549132204 9.035301953125  10.0126067505614 8.714491515625  9.62746336896519 8.714491515625  Z M 9.62746336896519 11.686017953125  L 3.39550523367328 11.686017953125  C 3.01036182166916 11.686017953125  2.69785922412987 12.00677378125  2.69785922412987 12.402619109375  C 2.69785922412987 12.7988469375  3.01036183687313 13.119639203125  3.39550523367328 13.119639203125  L 9.62746336896519 13.119639203125  C 10.0126067505614 13.119639203125  10.3247549132204 12.79844621875  10.3247549132204 12.402619109375  C 10.3247549132204 12.006792  10.0126067505614 11.686017953125  9.62746336896519 11.686017953125  Z " fill-rule="nonzero" fill="#ffffff" stroke="none" transform="matrix(1 0 0 1 412 205 )" />
  </g>
</svg>