<?xml version="1.0" encoding="utf-8"?>
<svg version="1.1" xmlns:xlink="http://www.w3.org/1999/xlink" width="14px" height="16px" xmlns="http://www.w3.org/2000/svg">
  <g transform="matrix(1 0 0 1 -53 -200 )">
    <path d="M 9.41508152173913 7.67852011494253  L 9.39130434782609 7.67852011494253  C 9.20618206521739 7.86350574712644  8.95991847826087 7.96587643678161  8.70516304347826 7.96048850574713  L 2.95788043478261 7.96048850574713  C 2.70652173913043 7.96587643678161  2.46365489130435 7.86350574712644  2.28362771739131 7.67852011494253  C 2.10020380434783 7.49712643678161  2 7.24389367816092  2.00509510869565 6.97988505747127  C 2.00169836956522 6.71408045977012  2.10190217391304 6.45725574712644  2.28362771739131 6.27406609195402  C 2.46025815217391 6.08369252873563  2.70482336956522 5.97952586206897  2.95788043478261 5.98491379310345  L 8.7289402173913 5.98491379310345  C 8.98539402173913 5.97952586206897  9.23165760869565 6.08369252873563  9.41508152173913 6.27406609195402  C 9.60020380434783 6.45725574712644  9.70380434782609 6.71228448275862  9.70040760869565 6.97988505747127  C 9.70380434782609 7.24568965517242  9.60020380434783 7.4989224137931  9.41508152173913 7.67852011494253  Z M 11.6416440217391 4.00215517241379  L 9.39130434782609 4.00215517241379  C 9.13315217391304 4.01113505747127  8.87839673913044 3.94288793103448  8.65760869565217 3.80280172413793  C 8.45889945652174 3.68067528735632  8.28736413043478 3.51364942528736  8.15319293478261 3.31429597701149  C 8.0258152173913 3.11853448275862  7.92900815217391 2.90122126436782  7.86786684782609 2.67313218390805  C 7.81182065217391 2.46479885057471  7.78125 2.2492816091954  7.77615489130435 2.0319683908046  L 7.77615489130435 0.0420258620689657  L 1.90319293478261 0.0420258620689657  C 1.65692934782609 0.0366379310344829  1.41576086956522 0.106681034482759  1.20516304347826 0.241379310344828  C 0.99116847826087 0.372485632183908  0.79585597826087 0.537715517241379  0.629415760869565 0.729885057471264  C 0.464673913043478 0.920258620689655  0.328804347826087 1.13577586206897  0.228600543478261 1.37104885057471  C 0.135190217391304 1.59554597701149  0.0842391304347826 1.83800287356322  0 2.08405172413793  L 0 12.8778735632184  C 0.0842391304347826 13.1472701149425  0.152173913043478 13.4112787356322  0.282948369565218 13.6411637931034  C 0.417119565217392 13.8800287356322  0.585258152173913 14.097341954023  0.780570652173913 14.2823275862069  C 0.975883152173914 14.4655172413793  1.19497282608696 14.6181752873563  1.42934782608696 14.7385057471264  C 1.61786684782609 14.8408764367816  1.82506793478261 14.9001436781609  2.03566576086957 14.9109195402299  L 6.28328804347826 14.9109195402299  L 9.26902173913044 11.7015086206897  C 9.10767663043478 11.8326149425287  8.90896739130435 11.9008620689655  8.70516304347826 11.8936781609195  L 2.95788043478261 11.8936781609195  C 2.70482336956522 11.899066091954  2.46195652173913 11.7948994252874  2.28362771739131 11.604525862069  C 2.11039402173913 11.4357040229885  2.01019021739131 11.1986350574713  2.00509510869565 10.9507902298851  C 2 10.6849856321839  2.10190217391304 10.4281609195402  2.28362771739131 10.2449712643678  C 2.4585597826087 10.0510057471264  2.703125 9.94324712643679  2.95788043478261 9.95043103448276  L 8.7289402173913 9.95043103448276  C 8.98709239130435 9.94504310344828  9.23505434782609 10.0510057471264  9.41508152173913 10.2449712643678  C 9.60020380434783 10.4281609195402  9.70380434782609 10.6831896551724  9.70040760869565 10.9507902298851  C 9.70040760869565 11.1483477011494  9.64096467391304 11.3423132183908  9.53057065217391 11.5021551724138  L 11.6416440217391 9.25  L 11.6416440217391 4.00215517241379  Z M 11.6671195652174 10.7119252873563  L 10.1368885869565 12.2708333333333  L 9.58491847826087 12.8491379310345  L 9.07540760869565 13.3825431034483  L 8.69327445652174 13.78125  L 8.49286684782609 13.9859913793103  C 8.38926630434783 14.0883620689655  8.30604619565217 14.2104885057471  8.24320652173913 14.3451867816092  C 8.2109375 14.4242097701149  8.1820652173913 14.5068247126437  8.15828804347826 14.5894396551724  L 8.04279891304348 14.9612068965517  L 7.93410326086957 15.3455459770115  C 7.90353260869566 15.4730603448276  7.88485054347826 15.5700431034483  7.87296195652174 15.6275143678161  C 7.84748641304348 15.7173132183908  7.85767663043478 15.816091954023  7.90353260869565 15.8969109195402  C 7.94599184782609 15.9489942528736  8.02411684782609 15.9669540229885  8.15319293478261 15.9489942528736  C 8.24490489130435 15.9310344827586  8.33661684782609 15.9076867816092  8.42663043478261 15.8789511494253  C 8.55740489130435 15.8502155172414  8.68817934782609 15.8142959770115  8.81555706521739 15.7693965517241  C 8.94972826086956 15.7316810344828  9.07710597826087 15.6795977011494  9.20957880434783 15.6346982758621  L 9.53057065217391 15.4802442528736  L 9.71229619565218 15.3653017241379  L 9.88213315217391 15.2306034482759  L 10.4035326086957 14.6792385057471  L 10.9130434782609 14.1530172413793  L 11.4650135869565 13.5818965517241  L 12.9578804347826 12.048132183908  L 11.6671195652174 10.7119252873563  Z M 13.8138586956522 11.1645114942529  C 13.9140625 11.0747126436782  13.9701086956522 10.9418103448276  13.9667119565217 10.801724137931  C 13.9582201086957 10.6921695402299  13.937839673913 10.5844109195402  13.9055706521739 10.4802442528736  C 13.8410326086957 10.3239942528736  13.7476222826087 10.1821120689655  13.6321331521739 10.0635775862069  C 13.5404211956522 9.95043103448276  13.430027173913 9.85524425287356  13.304347826087 9.78699712643678  C 13.1939538043478 9.72413793103448  13.0716711956522 9.69001436781609  12.9459918478261 9.68462643678161  C 12.7999320652174 9.66846264367816  12.6555706521739 9.72234195402299  12.5519701086957 9.83189655172414  L 12.3583559782609 10.0043103448276  C 12.2938179347826 10.0725574712644  12.2241847826087 10.1372126436782  12.1528532608696 10.1964798850575  L 13.4572010869565 11.5308908045977  C 13.4962635869565 11.5021551724138  13.5336277173913 11.4698275862069  13.5658967391304 11.433908045977  L 13.6745923913043 11.3117816091954  L 13.8138586956522 11.1645114942529  Z " fill-rule="nonzero" fill="#ffffff" stroke="none" transform="matrix(1 0 0 1 53 200 )" />
  </g>
</svg>