<?xml version="1.0" encoding="utf-8"?>
<svg version="1.1" xmlns:xlink="http://www.w3.org/1999/xlink" width="4px" height="4px" xmlns="http://www.w3.org/2000/svg">
  <g transform="matrix(1 0 0 1 -61 -200 )">
    <path d="M 0.254136029411771 3.38162878787879  L 0.277113970588237 3.44081439393939  C 0.346047794117649 3.578125  0.433363970588235 3.70359848484848  0.5390625 3.8125  C 0.642463235294118 3.91429924242424  0.782628676470588 3.96875  0.925091911764706 3.96401515151515  L 3.98805147058824 3.96401515151515  L 3.98805147058824 3.62547348484848  C 3.98575367647059 3.51893939393939  3.97196691176471 3.41477272727273  3.94669117647059 3.31297348484848  C 3.90073529411765 3.16382575757576  3.8249080882353 3.02414772727273  3.72610294117647 2.90577651515152  C 3.56985294117647 2.69981060606061  3.39981617647059 2.50331439393939  3.21599264705882 2.32102272727273  C 2.99540441176471 2.09375  2.69898897058824 1.80492424242424  2.32215073529412 1.47585227272727  C 1.9453125 1.1467803030303  1.69025735294118 0.900568181818183  1.48575367647059 0.732481060606061  C 1.28125 0.56439393939394  1.05836397058824 0.403409090909091  0.902113970588239 0.292140151515152  C 0.77573529411765 0.204545454545455  0.637867647058825 0.140625000000001  0.490808823529415 0.0980113636363643  C 0.373621323529413 0.083806818181819  0.254136029411768 0.083806818181819  0.136948529411768 0.0980113636363643  L 0.095588235294121 0.0980113636363643  L 0.095588235294121 2.59327651515152  C 0.0978860294117697 2.71638257575758  0.109375000000005 2.87263257575758  0.134650735294123 2.99337121212121  C 0.171415441176476 3.15672348484849  0.189797794117652 3.22064393939394  0.254136029411771 3.38162878787879  Z " fill-rule="nonzero" fill="#ffffff" stroke="none" transform="matrix(1 0 0 1 61 200 )" />
  </g>
</svg>