<?xml version="1.0" encoding="utf-8"?>
<svg version="1.1" xmlns:xlink="http://www.w3.org/1999/xlink" width="24px" height="24px" xmlns="http://www.w3.org/2000/svg">
  <g transform="matrix(1 0 0 1 -426 -227 )">
    <path d="M 23.3184089170259 20.0639053977273  C 24.1978953394397 20.9390120827415  24.1978953394397 22.3563147816051  23.3184364493534 23.2313397017045  C 22.4396667295259 24.1057922674006  21.0145915678879 24.1057922674006  20.1352429418103 23.2313397017045  L 16.16240546875 19.2785469726562  C 14.5290025592672 20.3196320134943  12.5978705010776 20.9417647638494  10.5136835668103 20.9417647638494  C 4.71256845366379 20.9417647638494  0.00921939655172527 16.2631368696733  0.00921939655172527 10.4908232333097  C 0.00921939655172429 4.71886387606534  4.71256845366379 0.0398544300426135  10.51368359375 0.0398544300426135  C 16.3154879040948 0.0398544300426135  21.0181753502155 4.71886387606534  21.0181753502155 10.4908232066761  C 21.0181753502155 12.5645717418324  20.3930819234914 14.4856692560369  19.345709294181 16.1111399147727  L 23.3184089170259 20.0639053977273  Z M 18.0169549838362 10.4908232066761  C 18.0169825431034 6.3681002397017  14.657935856681 3.02582993607955  10.51368359375 3.02582993607955  C 6.37012052801724 3.02582993607955  3.0103846174569 6.3681002397017  3.0103846174569 10.4908232066761  C 3.0103846174569 14.6138459872159  6.37012050107759 17.955789231179  10.51368359375 17.955789231179  C 14.657935856681 17.955789231179  18.0169549838362 14.6138459872159  18.0169549838362 10.4908232066761  Z " fill-rule="nonzero" fill="#cccccc" stroke="none" transform="matrix(1 0 0 1 426 227 )" />
  </g>
</svg>