<?xml version="1.0" encoding="utf-8"?>
<svg version="1.1" xmlns:xlink="http://www.w3.org/1999/xlink" width="23px" height="23px" xmlns="http://www.w3.org/2000/svg">
  <g transform="matrix(1 0 0 1 -487 -81 )">
    <path d="M 22.7241918113015 22.7680963334517  C 23.0578661643288 22.4607646273526  23.0754279629794 21.9426912353516  22.7680963079279 21.6134073064631  L 18.8737649558327 17.4468678966175  C 20.4543278553356 15.5458019675515  21.3192470003995 13.1749576182972  21.3192470003995 10.6811806274414  C 21.3192470003995 4.82870747514205  16.5556060535778 0.0650665283203132  10.6987424516158 0.0650665283203132  C 4.84626929931641 0.0650665283203132  0.0826283524946742 4.82870747514205  0.0826283524946742 10.6811806274414  C 0.0826283524946742 16.5336537797408  4.84626929931641 21.2972947265625  10.6987424516158 21.2972947265625  C 12.2310103793058 21.2972947265625  13.7105928599964 20.9767916969993  15.0935853970614 20.3445665371982  C 15.5062879205877 20.1557770740856  15.686296484375 19.6728273049094  15.4975070212624 19.2645152310458  C 15.3087175581499 18.8518127075195  14.8257677889737 18.6718041437322  14.4174557151101 18.8605936068448  C 13.2452048894709 19.3918383478338  11.9939259443803 19.6640464055842  10.6987424516158 19.6640464055842  C 5.74631204168146 19.6640464055842  1.71587667347301 15.6336110373757  1.71587667347301 10.6811806274414  C 1.71587667347301 5.7287502175071  5.74631204168146 1.69831484929865  10.6987424516158 1.69831484929865  C 15.6511728615501 1.69831484929865  19.6816082297585 5.7287502175071  19.6816082297585 10.6811806274414  C 19.6816082297585 13.0125109042081  18.7903463867187 15.2209084883256  17.1790503140536 16.9024518066406  C 16.8673281838157 17.2273452858665  16.876109083141 17.7454186778675  17.2010025878906 18.0571408081055  C 17.2273453113903 18.0790930819425  17.2580784590288 18.0878739812678  17.2844211825284 18.109826229581  C 17.3063734563654 18.1405594027433  17.3195448053533 18.1800734752308  17.345887528853 18.2108066483931  L 21.5695028098366 22.7285822609641  C 21.7275590997869 22.8998098999023  21.9470817360618 22.9876189697266  22.1666043468129 22.9876189697266  C 22.3685651589133 22.9876189697266  22.5661355213512 22.9129812744141  22.7241918113015 22.7680963334517  Z " fill-rule="nonzero" fill="#999999" stroke="none" transform="matrix(1 0 0 1 487 81 )" />
  </g>
</svg>