<?xml version="1.0" encoding="utf-8"?>
<svg version="1.1" xmlns:xlink="http://www.w3.org/1999/xlink" width="15px" height="13px" xmlns="http://www.w3.org/2000/svg">
  <g transform="matrix(1 0 0 1 -120 -359 )">
    <path d="M 12.6846153846154 0.192045454545456  C 13.1205128205128 0.339772727272729  13.5230769230769 0.590909090909093  13.8923076923077 0.945454545454546  C 14.2615384615385 1.3  14.5358974358974 1.69640151515152  14.7153846153846 2.13465909090909  C 14.8948717948718 2.57291666666667  14.9846153846154 3.02348484848485  14.9846153846154 3.48636363636364  C 14.9846153846154 3.94924242424243  14.8948717948718 4.39981060606061  14.7153846153846 4.83806818181818  C 14.5358974358974 5.27632575757576  14.2615384615385 5.67272727272727  13.8923076923077 6.02727272727273  L 8 11.6409090909091  C 7.63076923076923 11.9954545454545  7.17692307692308 12.2909090909091  6.63846153846154 12.5272727272727  C 6.1 12.7636363636364  5.53076923076923 12.9015151515152  4.93076923076923 12.9409090909091  C 4.33076923076923 12.980303030303  3.71794871794872 12.9015151515152  3.09230769230769 12.7045454545455  C 2.46666666666667 12.5075757575758  1.88717948717949 12.1530303030303  1.35384615384615 11.6409090909091  C 0.830769230769231 11.1386363636364  0.466666666666667 10.5945075757576  0.261538461538462 10.0085227272727  C 0.0564102564102567 9.42253787878788  -0.0256410256410254 8.83901515151515  0.0153846153846156 8.25795454545455  C 0.0564102564102566 7.67689393939394  0.197435897435898 7.13030303030303  0.438461538461539 6.61818181818182  C 0.67948717948718 6.10606060606061  0.984615384615385 5.67272727272728  1.35384615384615 5.31818181818182  L 6.58461538461539 0.339772727272731  C 6.67692307692308 0.251136363636367  6.81282051282051 0.228977272727276  6.99230769230769 0.273295454545458  C 7.17179487179487 0.31761363636364  7.30769230769231 0.384090909090913  7.4 0.472727272727276  C 7.48205128205128 0.56136363636364  7.54871794871795 0.691856060606064  7.6 0.864204545454549  C 7.65128205128205 1.03655303030303  7.63076923076923 1.16704545454546  7.53846153846154 1.25568181818182  L 2.32307692307692 6.21931818181818  C 2.04615384615385 6.48522727272728  1.81538461538462 6.79545454545455  1.63076923076923 7.15  C 1.44615384615385 7.50454545454546  1.33846153846154 7.88371212121213  1.30769230769231 8.2875  C 1.27692307692308 8.69128787878788  1.33846153846154 9.1  1.49230769230769 9.51363636363637  C 1.64615384615385 9.92727272727273  1.92307692307692 10.3261363636364  2.32307692307692 10.7102272727273  C 2.68205128205128 11.0549242424242  3.07948717948718 11.2986742424242  3.51538461538462 11.4414772727273  C 3.95128205128205 11.5842803030303  4.38461538461539 11.6433712121212  4.81538461538462 11.61875  C 5.24615384615385 11.5941287878788  5.65641025641026 11.5030303030303  6.04615384615385 11.3454545454545  C 6.43589743589744 11.1878787878788  6.76923076923077 10.9761363636364  7.04615384615385 10.7102272727273  L 12.9230769230769 5.11136363636364  C 13.2 4.84545454545455  13.3974358974359 4.56969696969697  13.5153846153846 4.28409090909091  C 13.6333333333333 3.99848484848485  13.6897435897436 3.71534090909091  13.6846153846154 3.43465909090909  C 13.6794871794872 3.15397727272727  13.6102564102564 2.88068181818182  13.4769230769231 2.61477272727273  C 13.3435897435897 2.34886363636364  13.1589743589744 2.10265151515152  12.9230769230769 1.87613636363637  C 12.4820512820513 1.4625  11.9871794871795 1.26799242424243  11.4384615384615 1.29261363636364  C 10.8897435897436 1.31723484848485  10.3384615384615 1.59545454545455  9.78461538461539 2.12727272727273  L 4.47692307692308 7.19431818181818  C 4.24102564102564 7.42083333333334  4.12564102564103 7.6719696969697  4.13076923076923 7.94772727272728  C 4.13589743589744 8.22348484848485  4.23076923076923 8.45  4.41538461538462 8.62727272727273  C 4.64102564102564 8.8439393939394  4.9 8.93257575757576  5.19230769230769 8.89318181818182  C 5.48461538461539 8.85378787878788  5.72307692307692 8.74545454545455  5.90769230769231 8.56818181818182  L 10.7230769230769 3.97386363636364  C 10.8153846153846 3.88522727272728  10.9512820512821 3.86306818181819  11.1307692307692 3.90738636363637  C 11.3102564102564 3.95170454545455  11.4461538461538 4.01818181818182  11.5384615384615 4.10681818181819  C 11.6307692307692 4.19545454545455  11.7025641025641 4.32594696969697  11.7538461538462 4.49829545454546  C 11.8051282051282 4.67064393939394  11.7846153846154 4.80113636363637  11.6923076923077 4.88977272727273  L 6.86153846153846 9.48409090909091  C 6.49230769230769 9.83863636363637  6.13846153846154 10.0848484848485  5.8 10.2227272727273  C 5.46153846153846 10.3606060606061  5.14358974358974 10.4221590909091  4.84615384615385 10.4073863636364  C 4.54871794871795 10.3926136363636  4.27179487179487 10.3162878787879  4.01538461538462 10.1784090909091  C 3.75897435897436 10.0405303030303  3.52307692307692 9.87310606060607  3.30769230769231 9.67613636363637  C 3.13333333333333 9.51856060606061  2.97692307692308 9.31666666666667  2.83846153846154 9.07045454545455  C 2.7 8.82424242424243  2.62051282051282 8.55340909090909  2.6 8.25795454545455  C 2.57948717948718 7.9625  2.63333333333333 7.64734848484849  2.76153846153846 7.3125  C 2.88974358974359 6.97765151515152  3.13846153846154 6.63787878787879  3.50769230769231 6.29318181818182  C 3.69230769230769 6.11590909090909  3.85641025641026 5.95340909090909  4 5.80568181818182  C 4.12307692307692 5.67765151515152  4.23846153846154 5.56439393939394  4.34615384615385 5.46590909090909  C 4.45384615384615 5.36742424242424  4.51282051282051 5.31325757575758  4.52307692307692 5.30340909090909  L 8.81538461538462 1.19659090909091  C 9.18461538461539 0.842045454545457  9.58717948717949 0.563825757575759  10.0230769230769 0.36193181818182  C 10.4589743589744 0.160037878787881  10.9025641025641 0.0443181818181839  11.3538461538462 0.0147727272727292  C 11.8051282051282 -0.0147727272727254  12.248717948718 0.0443181818181836  12.6846153846154 0.192045454545456  Z " fill-rule="nonzero" fill="#0079fe" stroke="none" transform="matrix(1 0 0 1 120 359 )" />
  </g>
</svg>