<?xml version="1.0" encoding="utf-8"?>
<svg version="1.1" xmlns:xlink="http://www.w3.org/1999/xlink" width="6px" height="6px" xmlns="http://www.w3.org/2000/svg">
  <g transform="matrix(1 0 0 1 -56 -209 )">
    <path d="M 3.02382795080944 0.00142402310484838  C 3.12846233644315 0.00142402310484838  3.22541043700788 0.0471221236611825  3.27916667131697 0.121782178217822  C 3.30684077666413 0.160228223312348  3.32144744070441 0.204200987001269  3.32142857142857 0.249009897122524  L 3.32142857142857 1.06188118811881  C 4.84222101478399 1.18900013187653  5.99999998581412 2.2535319794301  5.99999998581412 3.52472137429267  C 5.99999998581412 4.89176283213388  4.6675141242973 5.99996889517757  3.02380951427394 5.99996889517757  C 1.38011950977995 5.99996889517757  0.0476396981498124 4.89178178967543  0.0476190429687508 3.5247524791151  C 0.047222268996541 3.51771937698635  0.047023800223214 3.51067950516557  0.047023800223214 3.50363866579031  C 0.047023800223214 3.25483711793846  0.289536229480211 3.05314361241779  0.588690471540179 3.05314361241779  C 0.887844713600146 3.05314361241779  1.13035714285714 3.25483711793846  1.13035714285714 3.50363866579031  C 1.13035714285714 3.51067950516557  1.13015867408382 3.51771937698635  1.12976190011161 3.5247524791151  C 1.12998814132874 4.39460457445592  1.9779158549001 5.09965925223063  3.02380947019611 5.09965925223063  C 4.06986308308115 5.09965925223063  4.91785708459344 4.39439691433922  4.91785708459344 3.52441173134572  C 4.91785708459344 2.75017133251994  4.24134444230805 2.09071461665087  3.32202381417411 1.96881187732054  L 3.32142857142857 2.3450495049505  C 3.3214285779827 2.48180559584209  3.18817999370483 2.59262620058805  3.02380953501395 2.59262620058805  C 2.96992628223049 2.59262620058805  2.91705385203067 2.58046003564008  2.87083332868304 2.55742574257426  L 0.770833328683035 1.50940594446163  C 0.681046054692149 1.46470132401289  0.626086207038875 1.38406299744449  0.626086207038875 1.29702970683787  C 0.626086207038875 1.20999641623125  0.681046054692149 1.12935808966285  0.770833328683035 1.08465346921411  L 2.87083332868304 0.0366336594987624  C 2.91705810566512 0.0135934774216026  2.9699374096104 0.00142402310484838  3.02382795080944 0.00142402310484838  Z " fill-rule="nonzero" fill="#ffffff" stroke="none" transform="matrix(1 0 0 1 56 209 )" />
  </g>
</svg>