<?xml version="1.0" encoding="utf-8"?>
<svg version="1.1" xmlns:xlink="http://www.w3.org/1999/xlink" width="10px" height="12px" xmlns="http://www.w3.org/2000/svg">
  <g transform="matrix(1 0 0 1 -57 -207 )">
    <path d="M 7.86242857142857 2.66338636363636  C 7.8625 1.19638636363636  6.60392857142857 0.00279545454545384  5.05707142857143 0.00279545454545457  C 3.51014285714286 0.00279545454545457  2.25164285714286 1.19638636363636  2.25164285714286 2.66345454545455  C 2.25164285714286 3.60552272727273  2.7805 4.47388636363636  3.62185714285714 4.94986363636364  L 3.3485 7.04597727272727  L 1.06085714285714 7.04597727272727  C 0.584285714285714 7.04597727272727  0.1965 7.41470454545455  0.1965 7.86784090909091  L 0.1965 9.58575  C 0.1965 10.0389545454545  0.584285714285714 10.40775  1.06085714285714 10.40775  L 8.93892857142857 10.40775  C 9.41564285714286 10.40775  9.8035 10.0390227272727  9.8035 9.58575  L 9.8035 7.86784090909091  C 9.8035 7.41463636363636  9.41564285714286 7.04597727272727  8.93892857142857 7.04597727272727  L 6.75978571428571 7.04597727272727  L 6.48707142857143 4.95286363636364  C 7.33157142857143 4.47756818181818  7.86242857142857 3.60811363636364  7.86242857142857 2.66338636363636  Z M 9.46128571428572 11.0813863636364  L 0.538714285714285 11.0813863636364  C 0.273775401438313 11.0813863636364  0.0589999999999998 11.2863992468275  0.0589999999999998 11.5392954545455  C 0.0589999999999998 11.7921916622634  0.273775401438313 11.9972045454545  0.538714285714285 11.9972045454545  L 9.46128571428572 11.9972045454545  C 9.72622459856169 11.9972045454545  9.941 11.7921916622634  9.941 11.5392954545455  C 9.941 11.2863992468275  9.72622459856169 11.0813863636364  9.46128571428572 11.0813863636364  Z " fill-rule="nonzero" fill="#ffffff" stroke="none" transform="matrix(1 0 0 1 57 207 )" />
  </g>
</svg>