<?xml version="1.0" encoding="utf-8"?>
<svg version="1.1" xmlns:xlink="http://www.w3.org/1999/xlink" width="15px" height="15px" xmlns="http://www.w3.org/2000/svg">
  <g transform="matrix(1 0 0 1 -229 -657 )">
    <path d="M 4.02317880794702 4.02317880794702  C 4.95544919199941 3.09194418363577  6.21955483129701 2.56932807127598  7.53725165562914 2.5703642384106  C 8.85228799356645 2.56434001803647  10.1143807589182 3.08797425046965  11.0389072847682 4.02317880794702  C 12.9729302947597 5.96189146566288  12.9729302947597 9.10019462705235  11.0389072847682 11.0389072847682  C 9.10019462705235 12.9729302947597  5.96189146566288 12.9729302947597  4.02317880794702 11.0389072847682  C 2.08915579795554 9.10019462705235  2.08915579795554 5.96189146566288  4.02317880794702 4.02317880794702  Z M 12.8021523178808 2.25993377483444  C 11.4042536738043 0.866879321673033  9.51075587619751 0.0853649004909827  7.53725165562914 0.0869205298013245  C 3.42484194635569 0.0901621671959665  0.0927933066363508 3.42483835410401  0.0927933066363508 7.53724934099959  C 0.0927933066363508 11.651953602984  3.42842017047978 14.9875804668274  7.54312443246416 14.9875804668274  C 11.6578286944486 14.9875804668274  14.993455558292 11.651953602984  14.993455558292 7.53724934099959  C 14.993455558292 5.55681728691478  14.2049577409207 3.65787800331297  12.8021523178808 2.25993377483444  Z " fill-rule="nonzero" fill="#cccccc" stroke="none" transform="matrix(1 0 0 1 229 657 )" />
  </g>
</svg>