<?xml version="1.0" encoding="utf-8"?>
<svg version="1.1" xmlns:xlink="http://www.w3.org/1999/xlink" width="13px" height="13px" xmlns="http://www.w3.org/2000/svg">
  <g transform="matrix(1 0 0 1 -234 -206 )">
    <path d="M 13 6.5  C 13 10.0898571464844  10.0898571464844 13  6.5 13  C 2.91014285351562 13  0 10.0898571464844  0 6.5  C 0 2.91014285351562  2.91014285351562 0  6.5 0  C 10.0898571464844 0  13 2.91014285351562  13 6.5  Z M 12.0714285732422 6.5  C 12.0714285732422 3.59388095117187  9.40611904882813 0.928571426757813  6.5 0.928571426757813  C 3.59388095117188 0.928571426757813  0.928571426757813 3.59388095117188  0.928571426757813 6.5  C 0.928571426757813 9.40611904882812  3.59388095117188 12.0714285732422  6.5 12.0714285732422  C 9.40611904882812 12.0714285732422  12.0714285732422 9.40611904882812  12.0714285732422 6.5  Z M 9.41292857324219 8.5840238046875  C 9.65459358665847 8.8257618096483  9.65459358665847 9.21761914152358  9.41292857324219 9.45935714648438  C 9.29692063615487 9.57556250955075  9.13946156725574 9.64086262472773  8.9752619086914 9.64086262472773  C 8.81106225012708 9.64086262472773  8.65360318122794 9.57556250955075  8.53759524414063 9.45935714648438  L 6.56778571972656 7.48985714648438  L 4.5979761953125 9.45935714648438  C 4.48187296738357 9.57550142938275  4.32437855459259 9.64075406044766  4.16015476220703 9.64075406044766  C 3.81825538511232 9.64075406044766  3.54109117734531 9.36358985268065  3.54109117734531 9.02169047558594  C 3.54109117734531 8.85754252537578  3.60628372020827 8.70011444959014  3.72233332910156 8.5840238046875  L 5.69214285351562 6.61421428027344  L 3.72233332910156 4.64440475585937  C 3.60628372299117 4.52831411205691  3.54109118183298 4.37088603877322  3.54109118183298 4.20673809130859  C 3.54109118183298 3.86483871669236  3.8182553875908 3.58767451093455  4.16015476220703 3.58767451093455  C 4.32437855495776 3.58767451093455  4.48187296796764 3.65292714275923  4.5979761953125 3.76907142675781  L 6.56778571972656 5.73888095117187  L 8.53759524414063 3.76907142675781  C 8.65424634803649 3.64829349008708  8.81495609486345 3.58008324001549  8.9828691379142 3.58008324001549  C 9.32475969900265 3.58008324001549  9.60191675998451 3.85724030099735  9.60191675998451 4.1991308620858  C 9.60191675998451 4.36704390513655  9.53370650991292 4.52775365196351  9.41292857324219 4.64440475585937  L 7.44311904882812 6.61421428027344  L 9.41292857324219 8.5840238046875  Z " fill-rule="nonzero" fill="#ffffff" stroke="none" transform="matrix(1 0 0 1 234 206 )" />
  </g>
</svg>