<?xml version="1.0" encoding="utf-8"?>
<svg version="1.1" xmlns:xlink="http://www.w3.org/1999/xlink" width="12px" height="12px" xmlns="http://www.w3.org/2000/svg">
  <g transform="matrix(1 0 0 1 -1089 -776 )">
    <path d="M 7.18723404255319 4.78723404255319  L 10.7744680851064 4.78723404255319  C 10.936170212766 4.78723404255319  11.0914893617021 4.81914893617021  11.2404255319149 4.88297872340426  C 11.3893617021277 4.9468085106383  11.5170212765957 5.03191489361702  11.6234042553191 5.13829787234043  C 11.7297872340426 5.24468085106383  11.8148936170213 5.37234042553192  11.8787234042553 5.52127659574468  C 11.9425531914894 5.67021276595745  11.9744680851064 5.82553191489362  11.9744680851064 5.98723404255319  C 11.9744680851064 6.15744680851064  11.9425531914894 6.31489361702128  11.8787234042553 6.45957446808511  C 11.8148936170213 6.60425531914894  11.7297872340426 6.72978723404255  11.6234042553191 6.83617021276596  C 11.5170212765957 6.94255319148936  11.3893617021277 7.02765957446808  11.2404255319149 7.09148936170213  C 11.0914893617021 7.15531914893617  10.936170212766 7.18723404255319  10.7744680851064 7.18723404255319  L 7.18723404255319 7.18723404255319  L 7.18723404255319 10.7744680851064  C 7.18723404255319 10.9446808510638  7.15531914893617 11.1021276595745  7.09148936170213 11.2468085106383  C 7.02765957446809 11.3914893617021  6.94255319148937 11.5170212765957  6.83617021276596 11.6234042553191  C 6.72978723404255 11.7297872340426  6.60212765957447 11.8148936170213  6.4531914893617 11.8787234042553  C 6.30425531914894 11.9425531914894  6.14893617021277 11.9744680851064  5.98723404255319 11.9744680851064  C 5.81702127659575 11.9744680851064  5.65957446808511 11.9425531914894  5.51489361702128 11.8787234042553  C 5.37021276595745 11.8148936170213  5.24468085106383 11.7297872340426  5.13829787234043 11.6234042553191  C 5.03191489361702 11.5170212765957  4.9468085106383 11.3914893617021  4.88297872340426 11.2468085106383  C 4.81914893617022 11.1021276595745  4.78723404255319 10.9446808510638  4.78723404255319 10.7744680851064  L 4.78723404255319 7.18723404255319  L 1.2 7.18723404255319  C 1.02978723404255 7.18723404255319  0.872340425531915 7.15531914893617  0.727659574468085 7.09148936170213  C 0.582978723404255 7.02765957446808  0.457446808510638 6.94255319148936  0.351063829787234 6.83617021276596  C 0.24468085106383 6.72978723404255  0.159574468085107 6.60425531914894  0.0957446808510638 6.45957446808511  C 0.0319148936170212 6.31489361702128  0 6.15744680851064  0 5.98723404255319  C 0 5.82553191489362  0.0319148936170213 5.67021276595745  0.0957446808510638 5.52127659574468  C 0.159574468085106 5.37234042553192  0.24468085106383 5.24468085106383  0.351063829787234 5.13829787234043  C 0.457446808510639 5.03191489361702  0.582978723404256 4.9468085106383  0.727659574468085 4.88297872340426  C 0.872340425531915 4.81914893617021  1.02978723404255 4.78723404255319  1.2 4.78723404255319  L 4.78723404255319 4.78723404255319  L 4.78723404255319 1.2  C 4.78723404255319 1.03829787234043  4.81914893617021 0.882978723404256  4.88297872340426 0.73404255319149  C 4.9468085106383 0.585106382978724  5.03191489361702 0.457446808510639  5.13829787234043 0.351063829787234  C 5.24468085106383 0.24468085106383  5.37021276595745 0.159574468085107  5.51489361702128 0.0957446808510642  C 5.65957446808511 0.0319148936170214  5.81702127659575 0  5.98723404255319 0  C 6.31914893617022 0  6.60212765957447 0.117021276595745  6.83617021276596 0.351063829787234  C 7.07021276595745 0.585106382978724  7.18723404255319 0.86808510638298  7.18723404255319 1.2  L 7.18723404255319 4.78723404255319  Z " fill-rule="nonzero" fill="#ffffff" stroke="none" transform="matrix(1 0 0 1 1089 776 )" />
  </g>
</svg>