<?xml version="1.0" encoding="utf-8"?>
<svg version="1.1" xmlns:xlink="http://www.w3.org/1999/xlink" width="87px" height="29px" xmlns="http://www.w3.org/2000/svg">
  <g transform="matrix(1 0 0 1 -598 -622 )">
    <path d="M 598.5 625  A 2.5 2.5 0 0 1 601 622.5 L 682 622.5  A 2.5 2.5 0 0 1 684.5 625 L 684.5 648  A 2.5 2.5 0 0 1 682 650.5 L 601 650.5  A 2.5 2.5 0 0 1 598.5 648 L 598.5 625  Z " fill-rule="nonzero" fill="#ffffff" stroke="none" />
    <path d="M 598.5 625  A 2.5 2.5 0 0 1 601 622.5 L 682 622.5  A 2.5 2.5 0 0 1 684.5 625 L 684.5 648  A 2.5 2.5 0 0 1 682 650.5 L 601 650.5  A 2.5 2.5 0 0 1 598.5 648 L 598.5 625  Z " stroke-width="1" stroke="#0079fe" fill="none" />
  </g>
</svg>