<?xml version="1.0" encoding="utf-8"?>
<svg version="1.1" xmlns:xlink="http://www.w3.org/1999/xlink" width="266px" height="46px" xmlns="http://www.w3.org/2000/svg">
  <defs>
    <filter x="977px" y="277px" width="266px" height="46px" filterUnits="userSpaceOnUse" id="filter275">
      <feOffset dx="0" dy="0" in="SourceAlpha" result="shadowOffsetInner" />
      <feGaussianBlur stdDeviation="1.5" in="shadowOffsetInner" result="shadowGaussian" />
      <feComposite in2="shadowGaussian" operator="atop" in="SourceAlpha" result="shadowComposite" />
      <feColorMatrix type="matrix" values="0 0 0 0 0  0 0 0 0 0.474509803921569  0 0 0 0 0.996078431372549  0 0 0 0.8 0  " in="shadowComposite" />
    </filter>
    <g id="widget276">
      <path d="M 980.5 283  A 2.5 2.5 0 0 1 983 280.5 L 1237 280.5  A 2.5 2.5 0 0 1 1239.5 283 L 1239.5 317  A 2.5 2.5 0 0 1 1237 319.5 L 983 319.5  A 2.5 2.5 0 0 1 980.5 317 L 980.5 283  Z " fill-rule="nonzero" fill="#ffffff" stroke="none" />
      <path d="M 980.5 283  A 2.5 2.5 0 0 1 983 280.5 L 1237 280.5  A 2.5 2.5 0 0 1 1239.5 283 L 1239.5 317  A 2.5 2.5 0 0 1 1237 319.5 L 983 319.5  A 2.5 2.5 0 0 1 980.5 317 L 980.5 283  Z " stroke-width="1" stroke="#0079fe" fill="none" />
    </g>
  </defs>
  <g transform="matrix(1 0 0 1 -977 -277 )">
    <use xlink:href="#widget276" filter="url(#filter275)" />
    <use xlink:href="#widget276" />
  </g>
</svg>