<?xml version="1.0" encoding="utf-8"?>
<svg version="1.1" xmlns:xlink="http://www.w3.org/1999/xlink" width="260px" height="40px" xmlns="http://www.w3.org/2000/svg">
  <g transform="matrix(1 0 0 1 -980 -280 )">
    <path d="M 981 283  A 2 2 0 0 1 983 281 L 1237 281  A 2 2 0 0 1 1239 283 L 1239 317  A 2 2 0 0 1 1237 319 L 983 319  A 2 2 0 0 1 981 317 L 981 283  Z " fill-rule="nonzero" fill="#ffffff" stroke="none" />
    <path d="M 980.5 283  A 2.5 2.5 0 0 1 983 280.5 L 1237 280.5  A 2.5 2.5 0 0 1 1239.5 283 L 1239.5 317  A 2.5 2.5 0 0 1 1237 319.5 L 983 319.5  A 2.5 2.5 0 0 1 980.5 317 L 980.5 283  Z " stroke-width="1" stroke="#cccccc" fill="none" stroke-opacity="0.698039215686274" />
  </g>
</svg>