<?xml version="1.0" encoding="utf-8"?>
<svg version="1.1" xmlns:xlink="http://www.w3.org/1999/xlink" width="12px" height="12px" xmlns="http://www.w3.org/2000/svg">
  <g transform="matrix(1 0 0 1 -233 -283 )">
    <path d="M 0.6 10.8  L 11.4 10.8  C 11.7313708498985 10.8  12 11.0686291501015  12 11.4  C 12 11.7313708498985  11.7313708498985 12  11.4 12  L 0.6 12  C 0.268629150101524 12  0 11.7313708498985  0 11.4  C 0 11.0686291501015  0.268629150101524 10.8  0.6 10.8  Z M 0.0227999999999991 7.6746  L 5.5182 2.1798  L 8.064 4.725  L 2.568 10.221  L 0.00299999999999911 10.2408  L 0.0227999999999991 7.6746  Z M 8.1183 0.00835624003127364  C 8.43664401950397 0.00835624003127364  8.74194238714764 0.134851192205815  8.967 0.36  L 9.8154 1.209  C 10.2838583259994 1.67759982178298  10.2838583259994 2.43720017821702  9.8154 2.9058  L 8.5428 4.1784  L 5.997 1.6332  L 7.2696 0.36  C 7.49465761285236 0.134851192205815  7.79995598049603 0.00835624003127364  8.1183 0.00835624003127364  Z " fill-rule="nonzero" fill="#ffffff" stroke="none" transform="matrix(1 0 0 1 233 283 )" />
  </g>
</svg>