<?xml version="1.0" encoding="utf-8"?>
<svg version="1.1" xmlns:xlink="http://www.w3.org/1999/xlink" width="8px" height="5px" xmlns="http://www.w3.org/2000/svg">
  <g transform="matrix(1 0 0 1 -471 -339 )">
    <path d="M 7.72995604166667 0.238014494243421  C 7.4326362397664 0.00565358580504724  7.0100371457109 0.0142396746326244  6.72266055555556 0.25848005756579  L 3.22971532986111 3.41310029468202  L 1.30992862847222 1.42404255756579  C 1.05810475694444 1.16578664679276  0.606796875 1.12972827576754  0.30559578125 1.34412940309759  C 0.00538222222222215 1.5604796292489  -0.0370821874999996 1.94835077439693  0.212766597222221 2.20758122601425  L 2.64212628472222 4.72192173793859  C 2.78245456065982 4.86149435998232  2.97320226176983 4.94036497163673  3.17243774305556 4.94119562088816  L 3.22774024305556 4.94119562088816  C 3.40655258072054 4.93630420667198  3.57789346944684 4.86935979431392  3.71163708333333 4.7521328125  L 7.75266956597222 1.10341541598136  C 7.87784955788444 0.997511459306886  7.94989169228808 0.842919262240764  7.94989169228808 0.680204720329321  C 7.94989169228808 0.506935487968875  7.86824648472729 0.343518009188323  7.72896848958333 0.238014494243421  Z " fill-rule="nonzero" fill="#ffffff" stroke="none" transform="matrix(1 0 0 1 471 339 )" />
  </g>
</svg>