<?xml version="1.0" encoding="utf-8"?>
<svg version="1.1" xmlns:xlink="http://www.w3.org/1999/xlink" width="12px" height="13px" xmlns="http://www.w3.org/2000/svg">
  <g transform="matrix(1 0 0 1 -179 -281 )">
    <path d="M 12 1.97274800781463  C 11.9741891044189 0.884497310812989  11.0994990048026 0.00179283654532034  10.0193508820565 0  L 1.99032665070564 0  C 0.910697460092101 0  0.0354872325922739 0.881774293293672  0.0354872325922739 1.96949800785303  C 0.0354872325922739 1.97058134172667  0.0354881197795599 1.97166467541598  0 1.97274800781463  L 0 12.0672377774215  C 0.0354285886738117 12.071384265508  0.0353979346590047 12.0755311560888  0.0353979346590047 12.0796781041715  C 0.0353979346590047 12.5409734730047  0.40656794713287 12.9149272559442  0.864429361070295 12.9149272559442  C 1.06054350448728 12.9149272559442  1.25030760438764 12.8448820349325  1.40000466229839 12.7172371219164  L 1.87097193800403 12.3044875459697  L 2.60000346522177 12.8017370446988  C 2.79068365513642 12.9310314760462  3.01532065030761 13.0000596138785  3.24516411290323 12.9999868391204  C 3.48611548871963 13.0011332188339  3.72155164836696 12.9273622852288  3.91935698084677 12.788737057555  L 4.61935628780242 12.2849875589064  L 5.32903298891129 12.788737057555  C 5.7284117134159 13.0650723084513  6.25545939293491 13.0650723084513  6.65483811743952 12.788737057555  L 7.39999866431452 12.2752375717224  L 8.04515931199597 12.7464870961638  C 8.47057984529753 13.0582655355309  9.05039862463449 13.0449587629625  9.4612869203629 12.713987134652  L 9.98386704889113 12.2947375587857  L 10.6645115297379 12.7789870576757  C 10.8048807501907 12.8796179688157  10.9728799520622 12.9336913237208  11.1451584817772 12.9336913237208  C 11.6030198957146 12.9336913237208  11.9741899081885 12.5597375407813  11.9741899081885 12.0984421719481  C 11.9741899081885 12.0977906978531  11.9741891516614 12.0971392239803  12 12.0964877516688  L 12 1.97274800781463  Z M 10.6806405493952 1.97274800781463  L 10.6806405493952 11.2092386513209  L 10.6483825100806 11.186488676993  C 10.2238698279436 10.8868380347106  9.65433367948069 10.9040258235133  9.24838390877016 11.2287386383842  L 8.72902959929436 11.6479882015552  L 8.08386895161291 11.1832386770333  C 7.68695906146553 10.8886619019416  7.1484570471482 10.8795326111953  6.74193480342742 11.1604887027054  L 5.99354846270162 11.6739881758428  L 5.28064594254032 11.1702386898895  C 5.08549448357772 11.0307744898734  4.85216571327876 10.955821850763  4.6129046748992 10.9557389083643  C 4.37135578980547 10.9571279478458  4.13604200594182 11.0331292339066  3.93871180695565 11.1734886898492  L 3.2354867061492 11.6739881758428  L 2.51613258568548 11.1734886898492  C 2.16211454434373 10.9316115886393  1.70478100574332 10.9053892719661  1.32581118951613 11.1052387541704  L 1.32581118951613 1.97274800781463  C 1.32580690085016 1.60246433077143  1.6228037119266 1.30178750078983  1.99032665070564 1.29999868899181  L 10.0161250756048 1.29999868899181  C 10.3836480193097 1.30178749382609  10.6806448380277 1.60246432584241  10.6806405493952 1.97274800781463  Z " fill-rule="nonzero" fill="#ffffff" stroke="none" transform="matrix(1 0 0 1 179 281 )" />
  </g>
</svg>