<?xml version="1.0" encoding="utf-8"?>
<svg version="1.1" xmlns:xlink="http://www.w3.org/1999/xlink" width="5px" height="7px" xmlns="http://www.w3.org/2000/svg">
  <g transform="matrix(1 0 0 1 -182 -284 )">
    <path d="M 3.20512769180689 3.39256774636448  L 4.27243431991186 3.38563705329517  C 4.64589827234066 3.38558211325641  4.94862367845947 3.05823446413128  4.94862367845947 2.65444967222308  C 4.94862367845947 2.25066488031489  4.64589827234066 1.92331723118975  4.27243431991186 1.92326229115099  L 3.99358844150641 1.92326229115099  L 4.6025621869992 1.26484709931931  C 4.73006998696669 1.12698718093861  4.80170312309576 0.940009006558546  4.80170312309576 0.745045640276919  C 4.80170312309576 0.339055446989308  4.49729718845311 0.00993536715785035  4.1217934382512 0.00993536715785035  C 3.94147017822882 0.00993536715785035  3.7685324894707 0.0873842628538347  3.6410246895032 0.22524418123453  L 2.50961557241586 1.45197562267946  L 1.41025768729968 0.259897605971534  C 1.28274988675654 0.122037688763513  1.10981219821417 0.0445887938772295  0.929488938551681 0.0445887938772295  C 0.553985185905083 0.0445887938772295  0.249579249280621 0.373708875851398  0.249579249280621 0.779699071782178  C 0.249579249280621 0.974662440991513  0.321212387091315 1.16164061803945  0.448720189803686 1.29950053759282  L 1.03205294721554 1.93019297068379  L 0.769232697315705 1.93019297068379  C 0.395732827352727 1.93019297068379  0.0929513422701402 2.2575567149513  0.0929513422701402 2.66138035852413  C 0.0929513422701402 3.06520400209697  0.395732827352727 3.39256774636448  0.769232717470461 3.39256774636448  L 1.83974444110577 3.39256774636448  L 1.83974444110577 4.08563636293317  L 0.769232697315705 4.08563636293317  C 0.75374583259636 4.08448158977988  0.738226784269118 4.08390368966584  0.722703133610966 4.08390368966584  C 0.349203243493232 4.08390368966584  0.0464217584106454 4.41126743393335  0.0464217584106454 4.81509107750619  C 0.0464217584106454 5.21891472107902  0.349203243493232 5.54627846534653  0.722703133610966 5.54627846534653  C 0.738226784269118 5.54627846534653  0.75374583259636 5.5457005652325  0.769232697315705 5.54454579207921  L 1.83974444110577 5.54454579207921  L 1.83974444110577 6.23761440864789  C 1.83974444110577 6.64143805222073  2.14252592618836 6.96880179648824  2.51602581630609 6.96880179648824  C 2.88952570642382 6.96880179648824  3.19230719150641 6.64143805222073  3.19230719150641 6.23761440864789  L 3.19230719150641 5.54454579207921  L 4.25961381961138 5.54454579207921  C 4.27510068433073 5.5457005652325  4.29061973265797 5.54627846534653  4.30614338331613 5.54627846534653  C 4.67964327343387 5.54627846534653  4.98242475851645 5.21891472107902  4.98242475851645 4.81509107750619  C 4.98242475851645 4.41126743393335  4.67964327343387 4.08390368966584  4.30614338331613 4.08390368966584  C 4.29061973265797 4.08390368966584  4.27510068433073 4.08448158977988  4.25961381961138 4.08563636293317  L 3.20512769180689 4.08563636293317  L 3.20512769180689 3.39256774636448  Z " fill-rule="nonzero" fill="#ffffff" stroke="none" transform="matrix(1 0 0 1 182 284 )" />
  </g>
</svg>