<?xml version="1.0" encoding="utf-8"?>
<svg version="1.1" xmlns:xlink="http://www.w3.org/1999/xlink" width="10px" height="11px" preserveAspectRatio="xMidYMin meet" viewBox="1139 1157  8 11" xmlns="http://www.w3.org/2000/svg">
  <defs>
    <mask fill="white" id="clip12">
      <path d="M 1122 1152  L 1164 1152  L 1164 1174  L 1122 1174  Z M 930 1152  L 1357 1152  L 1357 1174  L 930 1174  Z " fill-rule="evenodd" />
    </mask>
  </defs>
  <path d="M 940 1162.5  L 1142.5 1162.5  A 0.5 0.5 0 0 1 1143.5 1163 A 0.5 0.5 0 0 0 1144 1163.5 L 1343 1163.5  " stroke-width="1" stroke="#0054cc" fill="none" mask="url(#clip12)" />
  <path d="M 942 1159.5  A 3 3 0 0 0 939 1162.5 A 3 3 0 0 0 942 1165.5 A 3 3 0 0 0 945 1162.5 A 3 3 0 0 0 942 1159.5 Z M 1342 1169.8  L 1348 1163.5  L 1342 1157.2  L 1342 1169.8  Z " fill-rule="nonzero" fill="#0054cc" stroke="none" mask="url(#clip12)" />
</svg>