<?xml version="1.0" encoding="utf-8"?>
<svg version="1.1" xmlns:xlink="http://www.w3.org/1999/xlink" width="18px" height="18px" preserveAspectRatio="xMinYMid meet" viewBox="803 1154  18 16" xmlns="http://www.w3.org/2000/svg">
  <defs>
    <mask fill="white" id="clip25">
      <path d="M 779 1041  L 821 1041  L 821 1063  L 779 1063  Z M 779 932  L 824 932  L 824 1171  L 779 1171  Z " fill-rule="evenodd" />
    </mask>
  </defs>
  <path d="M 814 1162.5  L 805 1162.5  A 5 5 0 0 1 800.5 1157.5 L 800.5 946  A 5 5 0 0 1 805.5 941.5 L 810 941.5  " stroke-width="1" stroke="#0054cc" fill="none" mask="url(#clip25)" />
  <path d="M 812 1159.5  A 3 3 0 0 0 809 1162.5 A 3 3 0 0 0 812 1165.5 A 3 3 0 0 0 815 1162.5 A 3 3 0 0 0 812 1159.5 Z M 809 947.8  L 815 941.5  L 809 935.2  L 809 947.8  Z " fill-rule="nonzero" fill="#0054cc" stroke="none" mask="url(#clip25)" />
</svg>