<?xml version="1.0" encoding="utf-8"?>
<svg version="1.1" xmlns:xlink="http://www.w3.org/1999/xlink" width="18px" height="19px" preserveAspectRatio="xMidYMin meet" viewBox="869 1530  16 19" xmlns="http://www.w3.org/2000/svg">
  <defs>
    <mask fill="white" id="clip29">
      <path d="M 856 1499  L 898 1499  L 898 1521  L 856 1521  Z M 856 1467  L 898 1467  L 898 1552  L 856 1552  Z " fill-rule="evenodd" />
    </mask>
  </defs>
  <path d="M 877.5 1499  L 877.5 1477  M 877.5 1521  L 877.5 1538  " stroke-width="1" stroke="#0054cc" fill="none" />
  <path d="M 877.5 1476  A 3 3 0 0 0 874.5 1479 A 3 3 0 0 0 877.5 1482 A 3 3 0 0 0 880.5 1479 A 3 3 0 0 0 877.5 1476 Z M 871.2 1537  L 877.5 1543  L 883.8 1537  L 871.2 1537  Z " fill-rule="nonzero" fill="#0054cc" stroke="none" mask="url(#clip29)" />
</svg>