<?xml version="1.0" encoding="utf-8"?>
<svg version="1.1" xmlns:xlink="http://www.w3.org/1999/xlink" width="18px" height="19px" preserveAspectRatio="xMidYMin meet" viewBox="869 564  16 19" xmlns="http://www.w3.org/2000/svg">
  <path d="M 1375.5 515  L 1375.5 535  A 5 5 0 0 1 1370.5 540.5 L 882 540.5  A 5 5 0 0 0 877.5 545.5 L 877.5 572  " stroke-width="1" stroke="#0054cc" fill="none" />
  <path d="M 1375.5 514  A 3 3 0 0 0 1372.5 517 A 3 3 0 0 0 1375.5 520 A 3 3 0 0 0 1378.5 517 A 3 3 0 0 0 1375.5 514 Z M 871.2 571  L 877.5 577  L 883.8 571  L 871.2 571  Z " fill-rule="nonzero" fill="#0054cc" stroke="none" />
</svg>