<?xml version="1.0" encoding="utf-8"?>
<svg version="1.1" xmlns:xlink="http://www.w3.org/1999/xlink" width="13px" height="14px" xmlns="http://www.w3.org/2000/svg">
  <g transform="matrix(1 0 0 1 -188 -141 )">
    <path d="M 12.9751371073615 13.2083514609375  C 12.9751371073615 12.6744961601563  12.3525445856153 11.9599826035156  11.1151322275693 11.7123386953125  C 10.9146543750341 11.6548260874051  10.775701395052 11.4644370321011  10.775701395052 11.247261116175  C 10.775701395052 11.11338675632  10.8289692696456 10.9855355047266  10.9227581417123 10.8943018652344  C 11.3267776992644 10.4498905807103  11.549730671784 9.85890656980069  11.5445733962226 9.24604901171875  C 11.5445733962226 8.26156300976563  10.9501568772149 7.66072205664063  10.2168035126047 7.66072205664063  C 9.48345014799452 7.66072205664063  8.88922794579575 8.26156299609375  8.88922794579575 9.24604901171875  C 8.88455119748089 9.85748342552076  9.10598072112464 10.4472078680498  9.50735116784794 10.8922720019531  L 9.50501936614047 10.8922720019531  C 9.60060941909216 10.9836721527199  9.6550471298317 11.1128156710004  9.6550471298317 11.2481854483422  C 9.6550471298317 11.4667463520704  9.5144075047248 11.6580113389829  9.31225663357764 11.7143685722656  C 8.07795335756282 11.9620124804688  7.45885855146585 12.6744961601563  7.45885855146585 13.2083514609375  C 7.45885855146585 13.8639988457031  8.5410114126933 14  10.2168035126047 14  C 11.8925956125161 14  12.9751371073615 13.8639988457031  12.9751371073615 13.2083514609375  Z M 7.78395133195071 3.45483543945312  L 7.78395133195071 4.67478614257812  L 3.14656977086018 4.67478614257812  L 3.14656977086018 3.45483543945312  L 7.78395133195071 3.45483543945312  Z M 7.78395133195071 6.10178337890625  L 7.78395133195071 7.32376395898438  L 3.14656977086018 7.32376395898438  L 3.14656977086018 6.10178337890625  L 7.78395133195071 6.10178337890625  Z M 6.03509594172842 8.72234304101563  L 6.03509594172841 9.94229374414062  L 3.14656977086018 9.94229374414062  L 3.14656977086018 8.72234304101563  L 6.03509594172842 8.72234304101563  Z M 6.04597770920586 12.3903146308594  L 1.19484716092139 12.3903146308594  L 1.19484716092139 1.22198056640625  L 9.7358682717864 1.22198056640625  L 9.7358682717864 6.49557778515625  L 10.9041036757007 6.49557778515625  L 10.9041036757007 1.0433521875  C 10.9031393136617 0.468108813551586  10.4565714940787 0.00225286221118539  9.90589588534955 0.00202986328125  L 1.02559681459407 0.00202986328125  C 0.474952795959958 0.00225307784464002  0.0284406647311013 0.468141628059127  0 1.0433521875  L 0 12.5689430234375  C 0.0284406719415005 13.1441535775379  0.474952801061115 13.6100421194348  1.02559681459407 13.6102653339844  L 6.04675497644169 13.6102653339844  L 6.04675497644169 12.3903146308594  Z " fill-rule="nonzero" fill="#ffffff" stroke="none" transform="matrix(1 0 0 1 188 141 )" />
  </g>
</svg>