<?xml version="1.0" encoding="utf-8"?>
<svg version="1.1" xmlns:xlink="http://www.w3.org/1999/xlink" width="18px" height="18px" preserveAspectRatio="xMinYMid meet" viewBox="1639 1050  18 16" xmlns="http://www.w3.org/2000/svg">
  <defs>
    <mask fill="white" id="clip145">
      <path d="M 1335.5 1048  L 1366.5 1048  L 1366.5 1070  L 1335.5 1070  Z M 1041 1048  L 1660 1048  L 1660 1070  L 1041 1070  Z " fill-rule="evenodd" />
    </mask>
  </defs>
  <path d="M 1650 1058.5  L 1360.5 1058.5  A 0.5 0.5 0 0 0 1360.5 1059 A 0.5 0.5 0 0 1 1360 1059.5 L 1055 1059.5  " stroke-width="1" stroke="#0054cc" fill="none" mask="url(#clip145)" />
  <path d="M 1648 1055.5  A 3 3 0 0 0 1645 1058.5 A 3 3 0 0 0 1648 1061.5 A 3 3 0 0 0 1651 1058.5 A 3 3 0 0 0 1648 1055.5 Z M 1056 1053.2  L 1050 1059.5  L 1056 1065.8  L 1056 1053.2  Z " fill-rule="nonzero" fill="#0054cc" stroke="none" mask="url(#clip145)" />
</svg>