<?xml version="1.0" encoding="utf-8"?>
<svg version="1.1" xmlns:xlink="http://www.w3.org/1999/xlink" width="12px" height="13px" xmlns="http://www.w3.org/2000/svg">
  <g transform="matrix(1 0 0 1 -185 -205 )">
    <path d="M 10.9578947368421 0.429  C 10.9578947368421 0.195  10.7747368421053 0.00325  10.5442105263158 0  L 9.8021052631579 0  C 9.57473684210526 0  9.38842105263158 0.19175  9.39157894736842 0.429  L 9.39157894736842 4.875  L 10.9578947368421 4.875  L 10.9578947368421 0.429  Z M 5.21368421052632 12.57425  C 5.21368421052632 12.80825  5.4 13  5.62736842105263 13  L 6.36947368421053 13  C 6.59684210526316 13  6.78315789473684 12.80825  6.78 12.571  L 6.78 5.9605  L 5.21368421052632 5.9605  L 5.21368421052632 12.57425  Z M 9.38842105263158 12.57425  C 9.39157894736842 12.80825  9.57473684210526 12.99675  9.8021052631579 13  L 10.5442105263158 13  C 10.7715789473684 12.99675  10.9547368421053 12.80825  10.9547368421053 12.571  L 10.9547368421053 8.66775  L 9.38842105263158 8.66775  L 9.38842105263158 12.57425  Z M 1.04210526315789 12.571  C 1.04210526315789 12.80825  1.22526315789474 13  1.45578947368421 13  L 2.19789473684211 13  C 2.42526315789474 13  2.61157894736842 12.80825  2.60842105263158 12.571  L 2.60842105263158 10.2895  L 1.04210526315789 10.2895  L 1.04210526315789 12.571  Z M 0.151578947368421 9.59075  C 0.249473684210526 9.6915  0.382105263157895 9.75  0.521052631578947 9.75  L 3.12947368421053 9.75  C 3.41684210526316 9.75  3.65052631578947 9.5095  3.65052631578947 9.20725  L 3.65052631578947 7.58225  C 3.65052631578947 7.28325  3.41684210526316 7.0395  3.12947368421053 7.0395  L 0.521052631578947 7.0395  C 0.382105263157895 7.0395  0.249473684210526 7.098  0.151578947368421 7.19875  C 0.0536842105263159 7.2995  0 7.43925  0 7.58225  L 0 9.20725  C 0 9.35025  0.0536842105263159 9.48675  0.151578947368421 9.59075  Z M 2.60842105263158 0.429  C 2.61157894736842 0.195  2.42526315789474 0.00325  2.19789473684211 0  L 1.45578947368421 0  C 1.22526315789474 0.00325  1.04210526315789 0.195  1.04210526315789 0.429  L 1.04210526315789 6.5  L 2.60842105263158 6.5  L 2.60842105263158 0.429  Z M 4.32315789473684 5.2585  C 4.42421052631579 5.35925  4.55684210526316 5.41775  4.69578947368421 5.41775  L 7.30421052631579 5.41775  C 7.59157894736842 5.41775  7.82526315789474 5.174  7.82526315789474 4.875  L 7.82526315789474 3.25  C 7.82526315789474 2.951  7.59157894736842 2.70725  7.30421052631579 2.70725  L 4.69578947368421 2.70725  C 4.55684210526316 2.70725  4.42421052631579 2.76575  4.32631578947368 2.8665  C 4.22842105263158 2.96725  4.17473684210526 3.107  4.17473684210526 3.25  L 4.17473684210526 4.875  C 4.17157894736842 5.018  4.22842105263158 5.1545  4.32315789473684 5.2585  Z M 6.78315789473684 0.429  C 6.78315789473684 0.19175  6.6 0  6.37263157894737 0  L 5.63052631578947 0  C 5.52 0  5.41578947368421 0.0455  5.34 0.12675  C 5.26421052631579 0.208  5.22 0.31525  5.22 0.429  L 5.22 2.16775  L 6.78315789473684 2.16775  L 6.78315789473684 0.429  Z M 8.34947368421053 7.58225  C 8.34947368421053 7.8845  8.58 8.125  8.87052631578947 8.125  L 11.4789473684211 8.125  C 11.7663157894737 8.125  12 7.88125  12 7.58225  L 12 5.95725  C 12 5.65825  11.7663157894737 5.4145  11.4789473684211 5.4145  L 8.87052631578947 5.4145  C 8.73157894736842 5.4145  8.59894736842105 5.473  8.50105263157895 5.57375  C 8.40315789473684 5.6745  8.34947368421053 5.81425  8.34947368421053 5.95725  L 8.34947368421053 7.58225  Z " fill-rule="nonzero" fill="#ffffff" stroke="none" transform="matrix(1 0 0 1 185 205 )" />
  </g>
</svg>