<?xml version="1.0" encoding="utf-8"?>
<svg version="1.1" xmlns:xlink="http://www.w3.org/1999/xlink" width="12px" height="12px" xmlns="http://www.w3.org/2000/svg">
  <g transform="matrix(1 0 0 1 -53 -207 )">
    <path d="M 12 6  C 12 9.3135  9.3135 12  6 12  C 2.6865 12  0 9.3135  0 6  C 0 2.6865  2.6865 0  6 0  C 9.3135 0  12 2.6865  12 6  Z M 7.77099999609375 7.56549999609375  L 6.50000000390625 6.29450000390625  L 6.50000000390625 3.49850000390625  C 6.50000000390625 3.2265  6.276 3  6 3  C 5.72199999609375 3  5.49999999609375 3.22299999609375  5.49999999609375 3.49850000390625  L 5.49999999609375 6.50150000390625  C 5.49914759219153 6.63255620050812  5.5506193998392 6.75853614304274  5.643 6.85149999609375  L 7.06400000390625 8.2725  C 7.15702330062962 8.36495791075568  7.28285110419308 8.41685295753416  7.41400673310237 8.41685295753416  C 7.54687460163594 8.41685295753416  7.67419891854078 8.36359797682421  7.76750000390625 8.26899999609375  C 7.96134254471489 8.07511848020353  7.96290382399775 7.76130064386292  7.77099999609375 7.56549999609375  Z " fill-rule="nonzero" fill="#ffffff" stroke="none" transform="matrix(1 0 0 1 53 207 )" />
  </g>
</svg>