<?xml version="1.0" encoding="utf-8"?>
<svg version="1.1" xmlns:xlink="http://www.w3.org/1999/xlink" width="19px" height="19px" xmlns="http://www.w3.org/2000/svg">
  <defs>
    <mask fill="white" id="clip159">
      <path d="M 8.98247093023256 1.7990625  C 8.98247093023256 0.904737763058092  8.24061717268475 0.17974431818182  7.32549418604651 0.179744318181817  L 1.66139534883721 0.179744318181817  C 0.746272362198977 0.179744318181817  0.00441860465116348 0.904737763058089  0.00441860465116348 1.7990625  L 0.00441860465116348 7.33443181818182  C 0.00441860465116662 8.22875655512373  0.746272362198977 8.95375  1.66139534883721 8.95375  L 8.98247093023256 8.95375  L 8.98247093023256 1.7990625  Z M 1.66139534883721 1.7990625  L 7.32549418604651 1.7990625  L 7.32494186046512 7.33443181818182  L 1.66139534883721 7.33443181818182  L 1.66139534883721 1.7990625  Z M 1.66139534883721 10.04625  C 0.746272362198977 10.04625  0.00441860465116662 10.7712434448763  0.00441860465116348 11.6655681818182  L 0.00441860465116348 17.2009375  C 0.00441860465116348 18.0952622369419  0.746272362198977 18.8202556818182  1.66139534883721 18.8202556818182  L 7.32549418604651 18.8202556818182  C 8.24061717268475 18.8202556818182  8.98247093023256 18.0952622369419  8.98247093023256 17.2009375  L 8.98247093023256 10.04625  L 1.66139534883721 10.04625  Z M 1.66139534883721 11.6655681818182  L 7.32494186046512 11.6655681818182  L 7.32494186046512 17.2009375  L 1.66194767441861 17.2009375  L 1.66194767441861 11.6655681818182  Z M 10.0175290697674 17.2009375  C 10.0175290697674 18.0952622369419  10.7593828273153 18.8202556818182  11.6745058139535 18.8202556818182  L 17.3386046511628 18.8202556818182  C 18.253727637801 18.8202556818182  18.9955813953488 18.0952622369419  18.9955813953488 17.2009375  L 18.9955813953488 11.6655681818182  C 18.9955813953488 10.7712434448763  18.253727637801 10.04625  17.3386046511628 10.04625  L 10.0175290697674 10.04625  L 10.0175290697674 17.2009375  Z M 17.3386046511628 17.2009375  L 11.6745058139535 17.2009375  L 11.6745058139535 11.6655681818182  L 17.3386046511628 11.6655681818182  L 17.3386046511628 17.2009375  Z M 14.5068313953488 0.17974431818182  C 12.0276107040481 0.17974431818182  10.0178052325581 2.14387239259245  10.0178052325581 4.56674715909091  C 10.0178052325581 6.98962192558936  12.0276107040481 8.95375  14.5068313953488 8.95375  C 16.9860520866496 8.95375  18.9958575581395 6.98962192558936  18.9958575581395 4.56674715909091  C 18.9958575581395 2.14387239259245  16.9860520866496 0.17974431818182  14.5068313953488 0.17974431818182  Z M 14.5068313953488 1.7990625  C 16.0709291000113 1.7990625  17.3388808139535 3.03819712953436  17.3388808139535 4.56674715909091  C 17.3388808139535 6.09529718864745  16.0709291000113 7.33443181818181  14.5068313953488 7.33443181818181  C 12.9427336906863 7.33443181818181  11.6747819767442 6.09529718864745  11.6747819767442 4.56674715909091  C 11.6747819767442 3.03819712953436  12.9427336906863 1.7990625  14.5068313953488 1.7990625  Z " fill-rule="evenodd" />
    </mask>
  </defs>
  <g transform="matrix(1 0 0 1 -837 -163 )">
    <path d="M 8.98247093023256 1.7990625  C 8.98247093023256 0.904737763058092  8.24061717268475 0.17974431818182  7.32549418604651 0.179744318181817  L 1.66139534883721 0.179744318181817  C 0.746272362198977 0.179744318181817  0.00441860465116348 0.904737763058089  0.00441860465116348 1.7990625  L 0.00441860465116348 7.33443181818182  C 0.00441860465116662 8.22875655512373  0.746272362198977 8.95375  1.66139534883721 8.95375  L 8.98247093023256 8.95375  L 8.98247093023256 1.7990625  Z M 1.66139534883721 1.7990625  L 7.32549418604651 1.7990625  L 7.32494186046512 7.33443181818182  L 1.66139534883721 7.33443181818182  L 1.66139534883721 1.7990625  Z M 1.66139534883721 10.04625  C 0.746272362198977 10.04625  0.00441860465116662 10.7712434448763  0.00441860465116348 11.6655681818182  L 0.00441860465116348 17.2009375  C 0.00441860465116348 18.0952622369419  0.746272362198977 18.8202556818182  1.66139534883721 18.8202556818182  L 7.32549418604651 18.8202556818182  C 8.24061717268475 18.8202556818182  8.98247093023256 18.0952622369419  8.98247093023256 17.2009375  L 8.98247093023256 10.04625  L 1.66139534883721 10.04625  Z M 1.66139534883721 11.6655681818182  L 7.32494186046512 11.6655681818182  L 7.32494186046512 17.2009375  L 1.66194767441861 17.2009375  L 1.66194767441861 11.6655681818182  Z M 10.0175290697674 17.2009375  C 10.0175290697674 18.0952622369419  10.7593828273153 18.8202556818182  11.6745058139535 18.8202556818182  L 17.3386046511628 18.8202556818182  C 18.253727637801 18.8202556818182  18.9955813953488 18.0952622369419  18.9955813953488 17.2009375  L 18.9955813953488 11.6655681818182  C 18.9955813953488 10.7712434448763  18.253727637801 10.04625  17.3386046511628 10.04625  L 10.0175290697674 10.04625  L 10.0175290697674 17.2009375  Z M 17.3386046511628 17.2009375  L 11.6745058139535 17.2009375  L 11.6745058139535 11.6655681818182  L 17.3386046511628 11.6655681818182  L 17.3386046511628 17.2009375  Z M 14.5068313953488 0.17974431818182  C 12.0276107040481 0.17974431818182  10.0178052325581 2.14387239259245  10.0178052325581 4.56674715909091  C 10.0178052325581 6.98962192558936  12.0276107040481 8.95375  14.5068313953488 8.95375  C 16.9860520866496 8.95375  18.9958575581395 6.98962192558936  18.9958575581395 4.56674715909091  C 18.9958575581395 2.14387239259245  16.9860520866496 0.17974431818182  14.5068313953488 0.17974431818182  Z M 14.5068313953488 1.7990625  C 16.0709291000113 1.7990625  17.3388808139535 3.03819712953436  17.3388808139535 4.56674715909091  C 17.3388808139535 6.09529718864745  16.0709291000113 7.33443181818181  14.5068313953488 7.33443181818181  C 12.9427336906863 7.33443181818181  11.6747819767442 6.09529718864745  11.6747819767442 4.56674715909091  C 11.6747819767442 3.03819712953436  12.9427336906863 1.7990625  14.5068313953488 1.7990625  Z " fill-rule="nonzero" fill="#ffffff" stroke="none" transform="matrix(1 0 0 1 837 163 )" />
    <path d="M 8.98247093023256 1.7990625  C 8.98247093023256 0.904737763058092  8.24061717268475 0.17974431818182  7.32549418604651 0.179744318181817  L 1.66139534883721 0.179744318181817  C 0.746272362198977 0.179744318181817  0.00441860465116348 0.904737763058089  0.00441860465116348 1.7990625  L 0.00441860465116348 7.33443181818182  C 0.00441860465116662 8.22875655512373  0.746272362198977 8.95375  1.66139534883721 8.95375  L 8.98247093023256 8.95375  L 8.98247093023256 1.7990625  Z " stroke-width="2" stroke="#797979" fill="none" transform="matrix(1 0 0 1 837 163 )" mask="url(#clip159)" />
    <path d="M 1.66139534883721 1.7990625  L 7.32549418604651 1.7990625  L 7.32494186046512 7.33443181818182  L 1.66139534883721 7.33443181818182  L 1.66139534883721 1.7990625  Z " stroke-width="2" stroke="#797979" fill="none" transform="matrix(1 0 0 1 837 163 )" mask="url(#clip159)" />
    <path d="M 1.66139534883721 10.04625  C 0.746272362198977 10.04625  0.00441860465116662 10.7712434448763  0.00441860465116348 11.6655681818182  L 0.00441860465116348 17.2009375  C 0.00441860465116348 18.0952622369419  0.746272362198977 18.8202556818182  1.66139534883721 18.8202556818182  L 7.32549418604651 18.8202556818182  C 8.24061717268475 18.8202556818182  8.98247093023256 18.0952622369419  8.98247093023256 17.2009375  L 8.98247093023256 10.04625  L 1.66139534883721 10.04625  Z " stroke-width="2" stroke="#797979" fill="none" transform="matrix(1 0 0 1 837 163 )" mask="url(#clip159)" />
    <path d="M 1.66139534883721 11.6655681818182  L 7.32494186046512 11.6655681818182  L 7.32494186046512 17.2009375  L 1.66194767441861 17.2009375  L 1.66194767441861 11.6655681818182  Z " stroke-width="2" stroke="#797979" fill="none" transform="matrix(1 0 0 1 837 163 )" mask="url(#clip159)" />
    <path d="M 10.0175290697674 17.2009375  C 10.0175290697674 18.0952622369419  10.7593828273153 18.8202556818182  11.6745058139535 18.8202556818182  L 17.3386046511628 18.8202556818182  C 18.253727637801 18.8202556818182  18.9955813953488 18.0952622369419  18.9955813953488 17.2009375  L 18.9955813953488 11.6655681818182  C 18.9955813953488 10.7712434448763  18.253727637801 10.04625  17.3386046511628 10.04625  L 10.0175290697674 10.04625  L 10.0175290697674 17.2009375  Z " stroke-width="2" stroke="#797979" fill="none" transform="matrix(1 0 0 1 837 163 )" mask="url(#clip159)" />
    <path d="M 17.3386046511628 17.2009375  L 11.6745058139535 17.2009375  L 11.6745058139535 11.6655681818182  L 17.3386046511628 11.6655681818182  L 17.3386046511628 17.2009375  Z " stroke-width="2" stroke="#797979" fill="none" transform="matrix(1 0 0 1 837 163 )" mask="url(#clip159)" />
    <path d="M 14.5068313953488 0.17974431818182  C 12.0276107040481 0.17974431818182  10.0178052325581 2.14387239259245  10.0178052325581 4.56674715909091  C 10.0178052325581 6.98962192558936  12.0276107040481 8.95375  14.5068313953488 8.95375  C 16.9860520866496 8.95375  18.9958575581395 6.98962192558936  18.9958575581395 4.56674715909091  C 18.9958575581395 2.14387239259245  16.9860520866496 0.17974431818182  14.5068313953488 0.17974431818182  Z " stroke-width="2" stroke="#797979" fill="none" transform="matrix(1 0 0 1 837 163 )" mask="url(#clip159)" />
    <path d="M 14.5068313953488 1.7990625  C 16.0709291000113 1.7990625  17.3388808139535 3.03819712953436  17.3388808139535 4.56674715909091  C 17.3388808139535 6.09529718864745  16.0709291000113 7.33443181818181  14.5068313953488 7.33443181818181  C 12.9427336906863 7.33443181818181  11.6747819767442 6.09529718864745  11.6747819767442 4.56674715909091  C 11.6747819767442 3.03819712953436  12.9427336906863 1.7990625  14.5068313953488 1.7990625  Z " stroke-width="2" stroke="#797979" fill="none" transform="matrix(1 0 0 1 837 163 )" mask="url(#clip159)" />
  </g>
</svg>