<?xml version="1.0" encoding="utf-8"?>
<svg version="1.1" xmlns:xlink="http://www.w3.org/1999/xlink" width="14px" height="14px" xmlns="http://www.w3.org/2000/svg">
  <defs>
    <mask fill="white" id="clip162">
      <path d="M 0.18576923076923 2.50276923076922  L 4.11923076923077 0.154538461538462  L 4.11923076923077 9.40207692307692  L 6.3 9.40207692307692  L 6.3 4.277  L 11.7115384615385 4.277  L 11.7115384615385 11.4466153846154  L 13.3166923076923 10.8085384615385  L 13.9143846153846 12.3092307692308  L 10.0961538461538 13.8287692307692  L 10.0961538461538 5.89184615384615  L 7.91538461538462 5.89184615384615  L 7.91538461538462 11.018  L 2.50384615384615 11.018  L 2.50384615384615 3.00030769230768  L 1.01392307692308 3.88984615384615  L 0.18576923076923 2.50276923076922  Z " fill-rule="evenodd" />
    </mask>
  </defs>
  <g transform="matrix(1 0 0 1 -395 -166 )">
    <path d="M 0.18576923076923 2.50276923076922  L 4.11923076923077 0.154538461538462  L 4.11923076923077 9.40207692307692  L 6.3 9.40207692307692  L 6.3 4.277  L 11.7115384615385 4.277  L 11.7115384615385 11.4466153846154  L 13.3166923076923 10.8085384615385  L 13.9143846153846 12.3092307692308  L 10.0961538461538 13.8287692307692  L 10.0961538461538 5.89184615384615  L 7.91538461538462 5.89184615384615  L 7.91538461538462 11.018  L 2.50384615384615 11.018  L 2.50384615384615 3.00030769230768  L 1.01392307692308 3.88984615384615  L 0.18576923076923 2.50276923076922  Z " fill-rule="nonzero" fill="#ffffff" stroke="none" transform="matrix(1 0 0 1 395 166 )" />
    <path d="M 0.18576923076923 2.50276923076922  L 4.11923076923077 0.154538461538462  L 4.11923076923077 9.40207692307692  L 6.3 9.40207692307692  L 6.3 4.277  L 11.7115384615385 4.277  L 11.7115384615385 11.4466153846154  L 13.3166923076923 10.8085384615385  L 13.9143846153846 12.3092307692308  L 10.0961538461538 13.8287692307692  L 10.0961538461538 5.89184615384615  L 7.91538461538462 5.89184615384615  L 7.91538461538462 11.018  L 2.50384615384615 11.018  L 2.50384615384615 3.00030769230768  L 1.01392307692308 3.88984615384615  L 0.18576923076923 2.50276923076922  Z " stroke-width="2" stroke="#797979" fill="none" transform="matrix(1 0 0 1 395 166 )" mask="url(#clip162)" />
  </g>
</svg>