<?xml version="1.0" encoding="utf-8"?>
<svg version="1.1" xmlns:xlink="http://www.w3.org/1999/xlink" width="44px" height="44px" xmlns="http://www.w3.org/2000/svg">
  <defs>
    <mask fill="white" id="clip163">
      <path d="M 0 22  C 0 34.1502644962775  9.84973550372254 44  22 44  C 34.1502644962775 44  44 34.1502644962775  44 22  C 44 9.84973550372254  34.1502644962775 0  22 0  C 9.84973550372254 0  0 9.84973550372254  0 22  Z " fill-rule="evenodd" />
    </mask>
  </defs>
  <g transform="matrix(1 0 0 1 -482 -151 )">
    <path d="M 0 22  C 0 34.1502644962775  9.84973550372254 44  22 44  C 34.1502644962775 44  44 34.1502644962775  44 22  C 44 9.84973550372254  34.1502644962775 0  22 0  C 9.84973550372254 0  0 9.84973550372254  0 22  Z " fill-rule="nonzero" fill="#f3ae01" stroke="none" transform="matrix(1 0 0 1 482 151 )" />
    <path d="M 0 22  C 0 34.1502644962775  9.84973550372254 44  22 44  C 34.1502644962775 44  44 34.1502644962775  44 22  C 44 9.84973550372254  34.1502644962775 0  22 0  C 9.84973550372254 0  0 9.84973550372254  0 22  Z " stroke-width="2" stroke="#797979" fill="none" transform="matrix(1 0 0 1 482 151 )" mask="url(#clip163)" />
  </g>
</svg>