<?xml version="1.0" encoding="utf-8"?>
<svg version="1.1" xmlns:xlink="http://www.w3.org/1999/xlink" width="24px" height="18px" xmlns="http://www.w3.org/2000/svg">
  <defs>
    <mask fill="white" id="clip164">
      <path d="M 0.207943371272219 12.3383361578152  C 0.207943371272219 12.7725471174002  0.479716496058087 13.1638251604759  0.896111111111111 13.3291071428571  L 5.85222222222222 15.2951785714286  C 6.23974654330073 15.4488765177246  6.68398268300762 15.3792766583121  7.00111111111111 15.1151785714286  L 20.0555555555556 4.25089285714286  L 11.0761111111111 14.31375  C 10.9026466542745 14.5081523340476  10.8072495751332 14.7561043788858  10.8072495751332 15.0125635090101  C 10.8072495751332 15.4802577639021  11.1218485136913 15.8939106485999  11.5844444444444 16.0344642857143  L 17.7122222222222 17.8971428571429  C 17.9284445445716 17.9628923074381  18.1538278926535 17.996347870185  18.3805462960118 17.996347870185  C 19.4363542999952 17.996347870185  20.3464004466383 17.2799882808366  20.5577777777778 16.2825  L 23.845 0.763928571428571  C 23.852527173191 0.728524646250543  23.8563197382955 0.692477097429564  23.8563197382955 0.656336794462834  C 23.8563197382955 0.360469964196338  23.607589043757 0.120622508748548  23.3007641827399 0.120622508748548  C 23.2111078485594 0.120622508748548  23.1227833712076 0.141546325558193  23.0433333333333 0.181607142857142  L 0.804444444444444 11.38875  C 0.437787325712321 11.5735131955764  0.207943371272219 11.9394079900872  0.207943371272219 12.3383361578152  Z " fill-rule="evenodd" />
    </mask>
  </defs>
  <g transform="matrix(1 0 0 1 -491 -162 )">
    <path d="M 0.207943371272219 12.3383361578152  C 0.207943371272219 12.7725471174002  0.479716496058087 13.1638251604759  0.896111111111111 13.3291071428571  L 5.85222222222222 15.2951785714286  C 6.23974654330073 15.4488765177246  6.68398268300762 15.3792766583121  7.00111111111111 15.1151785714286  L 20.0555555555556 4.25089285714286  L 11.0761111111111 14.31375  C 10.9026466542745 14.5081523340476  10.8072495751332 14.7561043788858  10.8072495751332 15.0125635090101  C 10.8072495751332 15.4802577639021  11.1218485136913 15.8939106485999  11.5844444444444 16.0344642857143  L 17.7122222222222 17.8971428571429  C 17.9284445445716 17.9628923074381  18.1538278926535 17.996347870185  18.3805462960118 17.996347870185  C 19.4363542999952 17.996347870185  20.3464004466383 17.2799882808366  20.5577777777778 16.2825  L 23.845 0.763928571428571  C 23.852527173191 0.728524646250543  23.8563197382955 0.692477097429564  23.8563197382955 0.656336794462834  C 23.8563197382955 0.360469964196338  23.607589043757 0.120622508748548  23.3007641827399 0.120622508748548  C 23.2111078485594 0.120622508748548  23.1227833712076 0.141546325558193  23.0433333333333 0.181607142857142  L 0.804444444444444 11.38875  C 0.437787325712321 11.5735131955764  0.207943371272219 11.9394079900872  0.207943371272219 12.3383361578152  Z " fill-rule="nonzero" fill="#ffffff" stroke="none" transform="matrix(1 0 0 1 491 162 )" />
    <path d="M 0.207943371272219 12.3383361578152  C 0.207943371272219 12.7725471174002  0.479716496058087 13.1638251604759  0.896111111111111 13.3291071428571  L 5.85222222222222 15.2951785714286  C 6.23974654330073 15.4488765177246  6.68398268300762 15.3792766583121  7.00111111111111 15.1151785714286  L 20.0555555555556 4.25089285714286  L 11.0761111111111 14.31375  C 10.9026466542745 14.5081523340476  10.8072495751332 14.7561043788858  10.8072495751332 15.0125635090101  C 10.8072495751332 15.4802577639021  11.1218485136913 15.8939106485999  11.5844444444444 16.0344642857143  L 17.7122222222222 17.8971428571429  C 17.9284445445716 17.9628923074381  18.1538278926535 17.996347870185  18.3805462960118 17.996347870185  C 19.4363542999952 17.996347870185  20.3464004466383 17.2799882808366  20.5577777777778 16.2825  L 23.845 0.763928571428571  C 23.852527173191 0.728524646250543  23.8563197382955 0.692477097429564  23.8563197382955 0.656336794462834  C 23.8563197382955 0.360469964196338  23.607589043757 0.120622508748548  23.3007641827399 0.120622508748548  C 23.2111078485594 0.120622508748548  23.1227833712076 0.141546325558193  23.0433333333333 0.181607142857142  L 0.804444444444444 11.38875  C 0.437787325712321 11.5735131955764  0.207943371272219 11.9394079900872  0.207943371272219 12.3383361578152  Z " stroke-width="2" stroke="#797979" fill="none" transform="matrix(1 0 0 1 491 162 )" mask="url(#clip164)" />
  </g>
</svg>