<?xml version="1.0" encoding="utf-8"?>
<svg version="1.1" xmlns:xlink="http://www.w3.org/1999/xlink" width="4px" height="7px" xmlns="http://www.w3.org/2000/svg">
  <defs>
    <mask fill="white" id="clip165">
      <path d="M 0.727478970534637 0.210621240755258  C 0.834181654706509 0.210621240755258  0.938086041591447 0.246825112635904  1.024 0.313939393939392  L 3.6965 2.40015151515151  C 3.82426126479525 2.50011946734212  3.89966454484939 2.65850106068782  3.89966454484939 2.82689056816745  C 3.89966454484939 2.97099827847202  3.84436823310126 3.10890030977524  3.7465 3.20886363636364  L 0.173999999999995 6.85840909090909  L 0.227499999999995 0.736060606060606  C 0.230016225614622 0.445092174999105  0.453125767960026 0.210621240755258  0.727478970534637 0.210621240755258  Z " fill-rule="evenodd" />
    </mask>
  </defs>
  <g transform="matrix(1 0 0 1 -500 -179 )">
    <path d="M 0.727478970534637 0.210621240755258  C 0.834181654706509 0.210621240755258  0.938086041591447 0.246825112635904  1.024 0.313939393939392  L 3.6965 2.40015151515151  C 3.82426126479525 2.50011946734212  3.89966454484939 2.65850106068782  3.89966454484939 2.82689056816745  C 3.89966454484939 2.97099827847202  3.84436823310126 3.10890030977524  3.7465 3.20886363636364  L 0.173999999999995 6.85840909090909  L 0.227499999999995 0.736060606060606  C 0.230016225614622 0.445092174999105  0.453125767960026 0.210621240755258  0.727478970534637 0.210621240755258  Z " fill-rule="nonzero" fill="#ffffff" stroke="none" fill-opacity="0.701960784313725" transform="matrix(1 0 0 1 500 179 )" />
    <path d="M 0.727478970534637 0.210621240755258  C 0.834181654706509 0.210621240755258  0.938086041591447 0.246825112635904  1.024 0.313939393939392  L 3.6965 2.40015151515151  C 3.82426126479525 2.50011946734212  3.89966454484939 2.65850106068782  3.89966454484939 2.82689056816745  C 3.89966454484939 2.97099827847202  3.84436823310126 3.10890030977524  3.7465 3.20886363636364  L 0.173999999999995 6.85840909090909  L 0.227499999999995 0.736060606060606  C 0.230016225614622 0.445092174999105  0.453125767960026 0.210621240755258  0.727478970534637 0.210621240755258  Z " stroke-width="2" stroke="#797979" fill="none" transform="matrix(1 0 0 1 500 179 )" mask="url(#clip165)" />
  </g>
</svg>