<?xml version="1.0" encoding="utf-8"?>
<svg version="1.1" xmlns:xlink="http://www.w3.org/1999/xlink" width="44px" height="44px" xmlns="http://www.w3.org/2000/svg">
  <defs>
    <mask fill="white" id="clip169">
      <path d="M 0 22  C 0 7.33333333333333  7.33333333333333 0  22 0  C 36.6666666666667 0  44 7.33333333333333  44 22  C 44 36.6666666666667  36.6666666666667 44  22 44  C 7.33333333333333 44  0 36.6666666666667  0 22  Z " fill-rule="evenodd" />
    </mask>
  </defs>
  <g transform="matrix(1 0 0 1 -706 -151 )">
    <path d="M 0 22  C 0 7.33333333333333  7.33333333333333 0  22 0  C 36.6666666666667 0  44 7.33333333333333  44 22  C 44 36.6666666666667  36.6666666666667 44  22 44  C 7.33333333333333 44  0 36.6666666666667  0 22  Z " fill-rule="nonzero" fill="#36cfc9" stroke="none" transform="matrix(1 0 0 1 706 151 )" />
    <path d="M 0 22  C 0 7.33333333333333  7.33333333333333 0  22 0  C 36.6666666666667 0  44 7.33333333333333  44 22  C 44 36.6666666666667  36.6666666666667 44  22 44  C 7.33333333333333 44  0 36.6666666666667  0 22  Z " stroke-width="2" stroke="#797979" fill="none" transform="matrix(1 0 0 1 706 151 )" mask="url(#clip169)" />
  </g>
</svg>