<?xml version="1.0" encoding="utf-8"?>
<svg version="1.1" xmlns:xlink="http://www.w3.org/1999/xlink" width="14px" height="14px" xmlns="http://www.w3.org/2000/svg">
  <defs>
    <mask fill="white" id="clip170">
      <path d="M 1.681640625 0.0136718749999953  L 12.345703125 0.013671875  C 13.2144455681705 0.0136234813424774  13.9326275279361 0.69080072821331  13.98359375 1.558046875  L 13.986328125 1.654296875  L 13.986328125 12.318359375  C 13.9863765186575 13.1871018181705  13.3091992717867 13.9052837779361  12.441953125 13.95625  L 12.345703125 13.958984375  L 9.474609375 13.958984375  L 9.474609375 12.318359375  L 12.345703125 12.318359375  L 12.345703125 1.654296875  L 1.681640625 1.654296875  L 1.681640625 4.525390625  L 0.0410156249999969 4.525390625  L 0.0410156249999969 1.654296875  C 0.0409672313424743 0.785554431829481  0.718144478213312 0.0673724720638447  1.585390625 0.016406249999996  L 1.681640625 0.0136718749999953  Z " fill-rule="evenodd" />
    </mask>
  </defs>
  <g transform="matrix(1 0 0 1 -724 -163 )">
    <path d="M 1.681640625 0.0136718749999953  L 12.345703125 0.013671875  C 13.2144455681705 0.0136234813424774  13.9326275279361 0.69080072821331  13.98359375 1.558046875  L 13.986328125 1.654296875  L 13.986328125 12.318359375  C 13.9863765186575 13.1871018181705  13.3091992717867 13.9052837779361  12.441953125 13.95625  L 12.345703125 13.958984375  L 9.474609375 13.958984375  L 9.474609375 12.318359375  L 12.345703125 12.318359375  L 12.345703125 1.654296875  L 1.681640625 1.654296875  L 1.681640625 4.525390625  L 0.0410156249999969 4.525390625  L 0.0410156249999969 1.654296875  C 0.0409672313424743 0.785554431829481  0.718144478213312 0.0673724720638447  1.585390625 0.016406249999996  L 1.681640625 0.0136718749999953  Z " fill-rule="nonzero" fill="#ffffff" stroke="none" transform="matrix(1 0 0 1 724 163 )" />
    <path d="M 1.681640625 0.0136718749999953  L 12.345703125 0.013671875  C 13.2144455681705 0.0136234813424774  13.9326275279361 0.69080072821331  13.98359375 1.558046875  L 13.986328125 1.654296875  L 13.986328125 12.318359375  C 13.9863765186575 13.1871018181705  13.3091992717867 13.9052837779361  12.441953125 13.95625  L 12.345703125 13.958984375  L 9.474609375 13.958984375  L 9.474609375 12.318359375  L 12.345703125 12.318359375  L 12.345703125 1.654296875  L 1.681640625 1.654296875  L 1.681640625 4.525390625  L 0.0410156249999969 4.525390625  L 0.0410156249999969 1.654296875  C 0.0409672313424743 0.785554431829481  0.718144478213312 0.0673724720638447  1.585390625 0.016406249999996  L 1.681640625 0.0136718749999953  Z " stroke-width="2" stroke="#797979" fill="none" transform="matrix(1 0 0 1 724 163 )" mask="url(#clip170)" />
  </g>
</svg>