<?xml version="1.0" encoding="utf-8"?>
<svg version="1.1" xmlns:xlink="http://www.w3.org/1999/xlink" width="14px" height="14px" xmlns="http://www.w3.org/2000/svg">
  <defs>
    <mask fill="white" id="clip171">
      <path d="M 13.958984375 1.681640625  C 13.958984375 0.775548457308851  13.2244515426911 0.0410156249999969  12.318359375 0.041015625  L 1.654296875 0.041015625  C 0.748204707308853 0.041015625  0.0136718749999984 0.775548457308854  0.0136718749999984 1.681640625  L 0.0136718749999984 12.345703125  C 0.0136718749999984 13.2517952926911  0.748204707308853 13.986328125  1.654296875 13.986328125  L 12.318359375 13.986328125  C 13.2244515426911 13.986328125  13.958984375 13.2517952926911  13.958984375 12.345703125  L 13.958984375 1.681640625  Z M 1.654296875 12.345703125  L 1.654296875 1.681640625  L 12.318359375 1.681640625  L 12.318359375 12.345703125  L 1.654296875 12.345703125  Z " fill-rule="evenodd" />
    </mask>
  </defs>
  <g transform="matrix(1 0 0 1 -718 -169 )">
    <path d="M 13.958984375 1.681640625  C 13.958984375 0.775548457308851  13.2244515426911 0.0410156249999969  12.318359375 0.041015625  L 1.654296875 0.041015625  C 0.748204707308853 0.041015625  0.0136718749999984 0.775548457308854  0.0136718749999984 1.681640625  L 0.0136718749999984 12.345703125  C 0.0136718749999984 13.2517952926911  0.748204707308853 13.986328125  1.654296875 13.986328125  L 12.318359375 13.986328125  C 13.2244515426911 13.986328125  13.958984375 13.2517952926911  13.958984375 12.345703125  L 13.958984375 1.681640625  Z M 1.654296875 12.345703125  L 1.654296875 1.681640625  L 12.318359375 1.681640625  L 12.318359375 12.345703125  L 1.654296875 12.345703125  Z " fill-rule="nonzero" fill="#ffffff" stroke="none" transform="matrix(1 0 0 1 718 169 )" />
    <path d="M 13.958984375 1.681640625  C 13.958984375 0.775548457308851  13.2244515426911 0.0410156249999969  12.318359375 0.041015625  L 1.654296875 0.041015625  C 0.748204707308853 0.041015625  0.0136718749999984 0.775548457308854  0.0136718749999984 1.681640625  L 0.0136718749999984 12.345703125  C 0.0136718749999984 13.2517952926911  0.748204707308853 13.986328125  1.654296875 13.986328125  L 12.318359375 13.986328125  C 13.2244515426911 13.986328125  13.958984375 13.2517952926911  13.958984375 12.345703125  L 13.958984375 1.681640625  Z " stroke-width="2" stroke="#797979" fill="none" transform="matrix(1 0 0 1 718 169 )" mask="url(#clip171)" />
    <path d="M 1.654296875 12.345703125  L 1.654296875 1.681640625  L 12.318359375 1.681640625  L 12.318359375 12.345703125  L 1.654296875 12.345703125  Z " stroke-width="2" stroke="#797979" fill="none" transform="matrix(1 0 0 1 718 169 )" mask="url(#clip171)" />
  </g>
</svg>