<?xml version="1.0" encoding="utf-8"?>
<svg version="1.1" xmlns:xlink="http://www.w3.org/1999/xlink" width="10px" height="11px" xmlns="http://www.w3.org/2000/svg">
  <defs>
    <mask fill="white" id="clip173">
      <path d="M 0.0742574257425743 5.5  C 0.0742574257425743 8.53756612406936  2.2906695552931 11  5.02475247524752 11  C 7.75883539520195 11  9.97524752475248 8.53756612406936  9.97524752475248 5.5  C 9.97524752475248 2.46243387593064  7.75883539520195 0  5.02475247524752 0  C 2.2906695552931 0  0.0742574257425743 2.46243387593064  0.0742574257425743 5.5  Z " fill-rule="evenodd" />
    </mask>
  </defs>
  <g transform="matrix(1 0 0 1 -295 -277 )">
    <path d="M 0.0742574257425743 5.5  C 0.0742574257425743 8.53756612406936  2.2906695552931 11  5.02475247524752 11  C 7.75883539520195 11  9.97524752475248 8.53756612406936  9.97524752475248 5.5  C 9.97524752475248 2.46243387593064  7.75883539520195 0  5.02475247524752 0  C 2.2906695552931 0  0.0742574257425743 2.46243387593064  0.0742574257425743 5.5  Z " fill-rule="nonzero" fill="#d4f3ff" stroke="none" transform="matrix(1 0 0 1 295 277 )" />
    <path d="M 0.0742574257425743 5.5  C 0.0742574257425743 8.53756612406936  2.2906695552931 11  5.02475247524752 11  C 7.75883539520195 11  9.97524752475248 8.53756612406936  9.97524752475248 5.5  C 9.97524752475248 2.46243387593064  7.75883539520195 0  5.02475247524752 0  C 2.2906695552931 0  0.0742574257425743 2.46243387593064  0.0742574257425743 5.5  Z " stroke-width="2" stroke="#797979" fill="none" transform="matrix(1 0 0 1 295 277 )" mask="url(#clip173)" />
  </g>
</svg>