<?xml version="1.0" encoding="utf-8"?>
<svg version="1.1" xmlns:xlink="http://www.w3.org/1999/xlink" width="15px" height="12px" xmlns="http://www.w3.org/2000/svg">
  <defs>
    <mask fill="white" id="clip175">
      <path d="M 14.320652173913 10.6525423728814  L 12.2826086956522 10.6525423728814  L 12.2826086956522 8.74576271186441  C 12.2826086956522 8.39473426917534  11.9784543137437 8.11016949152542  11.6032608695652 8.11016949152542  C 11.2280674253867 8.11016949152542  10.9239130434783 8.39473426917534  10.9239130434783 8.74576271186441  L 10.9239130434783 11.2881355932203  C 10.9239130434783 11.6391640359094  11.2280674253867 11.9237288135593  11.6032608695652 11.9237288135593  L 14.320652173913 11.9237288135593  C 14.6958456180916 11.9237288135593  15 11.6391640359094  15 11.2881355932203  C 15 10.9371071505313  14.6958456180916 10.6525423728814  14.320652173913 10.6525423728814  Z M 10.2445652173913 0.00635593220338983  L 0.733695652173913 0.00635593220338983  C 0.358502207995385 0.00635593220338983  0.0543478260869565 0.290920709853309  0.0543478260869565 0.641949152542373  C 0.0543478260869565 0.992977595231436  0.358502207995385 1.27754237288136  0.733695652173913 1.27754237288136  L 10.2445652173913 1.27754237288136  C 10.6197586615698 1.27754237288136  10.9239130434783 0.992977595231436  10.9239130434783 0.641949152542373  C 10.9239130434783 0.290920709853309  10.6197586615698 0.00635593220338983  10.2445652173913 0.00635593220338983  Z M 10.2445652173913 3.30381355932203  L 0.733695652173913 3.30381355932203  C 0.358502207995385 3.30381355932203  0.0543478260869565 3.58837833697195  0.0543478260869565 3.93940677966102  C 0.0543478260869565 4.29043522235008  0.358502207995385 4.575  0.733695652173913 4.575  L 10.2445652173913 4.575  C 10.6197586615698 4.575  10.9239130434783 4.29043522235008  10.9239130434783 3.93940677966102  C 10.9239130434783 3.58837833697195  10.6197586615698 3.30381355932203  10.2445652173913 3.30381355932203  Z M 6.16847826086957 6.6  L 0.733695652173913 6.6  C 0.358502207995385 6.6  0.0543478260869565 6.88456477764992  0.0543478260869565 7.23559322033898  C 0.0543478260869565 7.58662166302805  0.358502207995385 7.87118644067797  0.733695652173913 7.87118644067797  L 6.16847826086957 7.87118644067797  C 6.54367170504809 7.87118644067797  6.84782608695652 7.58662166302805  6.84782608695652 7.23559322033898  C 6.84782608695652 6.88456477764992  6.54367170504809 6.6  6.16847826086957 6.6  Z M 0.733695652173913 11.1686440677966  L 4.80978260869565 11.1686440677966  C 5.18497605287418 11.1686440677966  5.48913043478261 10.8840792901467  5.48913043478261 10.5330508474576  C 5.48913043478261 10.1820224047686  5.18497605287418 9.89745762711865  4.80978260869565 9.89745762711865  L 0.733695652173913 9.89745762711865  C 0.358502207995385 9.89745762711865  0.0543478260869565 10.1820224047686  0.0543478260869565 10.5330508474576  C 0.0543478260869565 10.8840792901467  0.358502207995385 11.1686440677966  0.733695652173913 11.1686440677966  Z " fill-rule="evenodd" />
    </mask>
  </defs>
  <g transform="matrix(1 0 0 1 -288 -270 )">
    <path d="M 14.320652173913 10.6525423728814  L 12.2826086956522 10.6525423728814  L 12.2826086956522 8.74576271186441  C 12.2826086956522 8.39473426917534  11.9784543137437 8.11016949152542  11.6032608695652 8.11016949152542  C 11.2280674253867 8.11016949152542  10.9239130434783 8.39473426917534  10.9239130434783 8.74576271186441  L 10.9239130434783 11.2881355932203  C 10.9239130434783 11.6391640359094  11.2280674253867 11.9237288135593  11.6032608695652 11.9237288135593  L 14.320652173913 11.9237288135593  C 14.6958456180916 11.9237288135593  15 11.6391640359094  15 11.2881355932203  C 15 10.9371071505313  14.6958456180916 10.6525423728814  14.320652173913 10.6525423728814  Z M 10.2445652173913 0.00635593220338983  L 0.733695652173913 0.00635593220338983  C 0.358502207995385 0.00635593220338983  0.0543478260869565 0.290920709853309  0.0543478260869565 0.641949152542373  C 0.0543478260869565 0.992977595231436  0.358502207995385 1.27754237288136  0.733695652173913 1.27754237288136  L 10.2445652173913 1.27754237288136  C 10.6197586615698 1.27754237288136  10.9239130434783 0.992977595231436  10.9239130434783 0.641949152542373  C 10.9239130434783 0.290920709853309  10.6197586615698 0.00635593220338983  10.2445652173913 0.00635593220338983  Z M 10.2445652173913 3.30381355932203  L 0.733695652173913 3.30381355932203  C 0.358502207995385 3.30381355932203  0.0543478260869565 3.58837833697195  0.0543478260869565 3.93940677966102  C 0.0543478260869565 4.29043522235008  0.358502207995385 4.575  0.733695652173913 4.575  L 10.2445652173913 4.575  C 10.6197586615698 4.575  10.9239130434783 4.29043522235008  10.9239130434783 3.93940677966102  C 10.9239130434783 3.58837833697195  10.6197586615698 3.30381355932203  10.2445652173913 3.30381355932203  Z M 6.16847826086957 6.6  L 0.733695652173913 6.6  C 0.358502207995385 6.6  0.0543478260869565 6.88456477764992  0.0543478260869565 7.23559322033898  C 0.0543478260869565 7.58662166302805  0.358502207995385 7.87118644067797  0.733695652173913 7.87118644067797  L 6.16847826086957 7.87118644067797  C 6.54367170504809 7.87118644067797  6.84782608695652 7.58662166302805  6.84782608695652 7.23559322033898  C 6.84782608695652 6.88456477764992  6.54367170504809 6.6  6.16847826086957 6.6  Z M 0.733695652173913 11.1686440677966  L 4.80978260869565 11.1686440677966  C 5.18497605287418 11.1686440677966  5.48913043478261 10.8840792901467  5.48913043478261 10.5330508474576  C 5.48913043478261 10.1820224047686  5.18497605287418 9.89745762711865  4.80978260869565 9.89745762711865  L 0.733695652173913 9.89745762711865  C 0.358502207995385 9.89745762711865  0.0543478260869565 10.1820224047686  0.0543478260869565 10.5330508474576  C 0.0543478260869565 10.8840792901467  0.358502207995385 11.1686440677966  0.733695652173913 11.1686440677966  Z " fill-rule="nonzero" fill="#0086ee" stroke="none" transform="matrix(1 0 0 1 288 270 )" />
    <path d="M 14.320652173913 10.6525423728814  L 12.2826086956522 10.6525423728814  L 12.2826086956522 8.74576271186441  C 12.2826086956522 8.39473426917534  11.9784543137437 8.11016949152542  11.6032608695652 8.11016949152542  C 11.2280674253867 8.11016949152542  10.9239130434783 8.39473426917534  10.9239130434783 8.74576271186441  L 10.9239130434783 11.2881355932203  C 10.9239130434783 11.6391640359094  11.2280674253867 11.9237288135593  11.6032608695652 11.9237288135593  L 14.320652173913 11.9237288135593  C 14.6958456180916 11.9237288135593  15 11.6391640359094  15 11.2881355932203  C 15 10.9371071505313  14.6958456180916 10.6525423728814  14.320652173913 10.6525423728814  Z " stroke-width="2" stroke="#797979" fill="none" transform="matrix(1 0 0 1 288 270 )" mask="url(#clip175)" />
    <path d="M 10.2445652173913 0.00635593220338983  L 0.733695652173913 0.00635593220338983  C 0.358502207995385 0.00635593220338983  0.0543478260869565 0.290920709853309  0.0543478260869565 0.641949152542373  C 0.0543478260869565 0.992977595231436  0.358502207995385 1.27754237288136  0.733695652173913 1.27754237288136  L 10.2445652173913 1.27754237288136  C 10.6197586615698 1.27754237288136  10.9239130434783 0.992977595231436  10.9239130434783 0.641949152542373  C 10.9239130434783 0.290920709853309  10.6197586615698 0.00635593220338983  10.2445652173913 0.00635593220338983  Z " stroke-width="2" stroke="#797979" fill="none" transform="matrix(1 0 0 1 288 270 )" mask="url(#clip175)" />
    <path d="M 10.2445652173913 3.30381355932203  L 0.733695652173913 3.30381355932203  C 0.358502207995385 3.30381355932203  0.0543478260869565 3.58837833697195  0.0543478260869565 3.93940677966102  C 0.0543478260869565 4.29043522235008  0.358502207995385 4.575  0.733695652173913 4.575  L 10.2445652173913 4.575  C 10.6197586615698 4.575  10.9239130434783 4.29043522235008  10.9239130434783 3.93940677966102  C 10.9239130434783 3.58837833697195  10.6197586615698 3.30381355932203  10.2445652173913 3.30381355932203  Z " stroke-width="2" stroke="#797979" fill="none" transform="matrix(1 0 0 1 288 270 )" mask="url(#clip175)" />
    <path d="M 6.16847826086957 6.6  L 0.733695652173913 6.6  C 0.358502207995385 6.6  0.0543478260869565 6.88456477764992  0.0543478260869565 7.23559322033898  C 0.0543478260869565 7.58662166302805  0.358502207995385 7.87118644067797  0.733695652173913 7.87118644067797  L 6.16847826086957 7.87118644067797  C 6.54367170504809 7.87118644067797  6.84782608695652 7.58662166302805  6.84782608695652 7.23559322033898  C 6.84782608695652 6.88456477764992  6.54367170504809 6.6  6.16847826086957 6.6  Z " stroke-width="2" stroke="#797979" fill="none" transform="matrix(1 0 0 1 288 270 )" mask="url(#clip175)" />
    <path d="M 0.733695652173913 11.1686440677966  L 4.80978260869565 11.1686440677966  C 5.18497605287418 11.1686440677966  5.48913043478261 10.8840792901467  5.48913043478261 10.5330508474576  C 5.48913043478261 10.1820224047686  5.18497605287418 9.89745762711865  4.80978260869565 9.89745762711865  L 0.733695652173913 9.89745762711865  C 0.358502207995385 9.89745762711865  0.0543478260869565 10.1820224047686  0.0543478260869565 10.5330508474576  C 0.0543478260869565 10.8840792901467  0.358502207995385 11.1686440677966  0.733695652173913 11.1686440677966  Z " stroke-width="2" stroke="#797979" fill="none" transform="matrix(1 0 0 1 288 270 )" mask="url(#clip175)" />
  </g>
</svg>