<?xml version="1.0" encoding="utf-8"?>
<svg version="1.1" xmlns:xlink="http://www.w3.org/1999/xlink" width="17px" height="19px" xmlns="http://www.w3.org/2000/svg">
  <defs>
    <mask fill="white" id="clip177">
      <path d="M 3.25474013731787 18.9556284512868  L 1.47234028829563 18.9556284512868  C 0.712191805167342 18.9556284512868  0.0959697217695543 18.2952686615695  0.0959697217695543 17.4806735788143  L 0.0959697217695547 6.41851198069853  C 0.0959697217695543 5.60391689794339  0.712191805167342 4.9435571082261  1.47234026792561 4.9435571082261  L 3.25474013731787 4.9435571082261  C 4.01488862044615 4.9435571082261  4.63111070384394 5.60391689794339  4.63111070384394 6.41851198069853  L 4.63111070384394 17.4806735569853  C 4.63111070384394 18.2952686615695  4.01488862044615 18.9556284512868  3.25474015768788 18.9556284512868  Z M 3.25474013731787 5.9268603492647  L 1.47234028829563 5.9268603492647  C 1.21895746362619 5.9268603492647  1.0135500994536 6.1469802824282  1 6.41851198069853  L 1 17.4806735569853  C 1.0135500994536 17.7522052552556  1.21895746362619 17.9723251884191  1.47234028829563 17.9723251884191  L 3.25474013731787 17.9723251884191  C 3.50812296198731 17.9723251884191  3.71353032615989 17.7522052552556  4 17.4806735569853  L 4 6.41851198069853  C 3.71353032615989 6.1469802824282  3.50812296198731 5.9268603492647  3.25474013731787 5.9268603492647  Z M 9.42546811613305 18.9556284512868  L 7.6430682467408 18.9556284512868  C 6.88291978398253 18.9556284512868  6.26669770058474 18.2952686615695  6.26669770058474 17.4806735788143  L 6.26669770058474 1.47495487247243  C 6.26669770058474 0.660359789717283  6.88291978398253 0  7.6430682467408 0  L 9.42546811613305 0  C 10.1856165788913 0  10.8018386622891 0.660359789717283  10.8018386622891 1.47495487247243  L 10.8018386622891 17.4806735569853  C 10.8018386622891 18.2952686615695  10.1856165788913 18.9556284512868  9.42546811613305 18.9556284512868  Z M 9.42546811613305 0.983303262867647  L 7.6430682467408 0.983303262867647  C 7.38968543798133 0.983303274923494  7.18427808951884 1.20342319125164  7.18427807826879 1.47495487247243  L 7.18427807826879 17.4806735569853  C 7.18427807826879 17.7522052467308  7.38968543002634 17.9723251763633  7.6430682467408 17.9723251884191  L 9.42546811613305 17.9723251884191  C 9.67885094080249 17.9723251884191  9.88425830497508 17.7522052552556  9.88425830497508 17.4806735569853  L 9.88425830497508 1.47495487247243  C 9.88425829372503 1.20342318272687  9.67885093284751 0.983303262867647  9.42546811613305 0.983303262867647  Z M 15.5961960949482 18.9556284512868  L 13.813796225556 18.9556284512868  C 13.0536477627977 18.9556284512868  12.4374256793999 18.2952686615695  12.4374256793999 17.4806735788143  L 12.4374256793999 3.52760042279412  C 12.4374256793999 2.71300531820993  13.0536477627977 2.05264552849265  13.813796225556 2.05264552849265  L 15.5961960949482 2.05264552849265  C 16.3563445577065 2.05264552849265  16.9725666411043 2.71300531820993  16.9725666411043 3.52760040096507  L 16.9725666411043 17.4806735569853  C 16.9725666411043 18.2952686615695  16.3563445577065 18.9556284512868  15.5961960949482 18.9556284512868  Z M 15.5961960949482 3.03594879136029  L 13.813796225556 3.03594879136029  C 13.5604134008865 3.03594879136029  13.355006036714 3.25606872452379  13.355006036714 3.52760042279412  L 13.355006036714 17.4806735569853  C 13.355006036714 17.7522052552556  13.5604134008865 17.9723251884191  13.813796225556 17.9723251884191  L 15.5961960949482 17.9723251884191  C 15.8495789116627 17.9723251763633  16.0549862634202 17.7522052467308  16.0549862634202 17.4806735569853  L 16.0549862634202 3.52760042279412  C 16.0549862634202 3.25606873304856  15.8495789116627 3.03594880341614  15.5961960949482 3.03594879136029  Z " fill-rule="evenodd" />
    </mask>
  </defs>
  <g transform="matrix(1 0 0 1 -285 -475 )">
    <path d="M 3.25474013731787 18.9556284512868  L 1.47234028829563 18.9556284512868  C 0.712191805167342 18.9556284512868  0.0959697217695543 18.2952686615695  0.0959697217695543 17.4806735788143  L 0.0959697217695547 6.41851198069853  C 0.0959697217695543 5.60391689794339  0.712191805167342 4.9435571082261  1.47234026792561 4.9435571082261  L 3.25474013731787 4.9435571082261  C 4.01488862044615 4.9435571082261  4.63111070384394 5.60391689794339  4.63111070384394 6.41851198069853  L 4.63111070384394 17.4806735569853  C 4.63111070384394 18.2952686615695  4.01488862044615 18.9556284512868  3.25474015768788 18.9556284512868  Z M 3.25474013731787 5.9268603492647  L 1.47234028829563 5.9268603492647  C 1.21895746362619 5.9268603492647  1.0135500994536 6.1469802824282  1 6.41851198069853  L 1 17.4806735569853  C 1.0135500994536 17.7522052552556  1.21895746362619 17.9723251884191  1.47234028829563 17.9723251884191  L 3.25474013731787 17.9723251884191  C 3.50812296198731 17.9723251884191  3.71353032615989 17.7522052552556  4 17.4806735569853  L 4 6.41851198069853  C 3.71353032615989 6.1469802824282  3.50812296198731 5.9268603492647  3.25474013731787 5.9268603492647  Z M 9.42546811613305 18.9556284512868  L 7.6430682467408 18.9556284512868  C 6.88291978398253 18.9556284512868  6.26669770058474 18.2952686615695  6.26669770058474 17.4806735788143  L 6.26669770058474 1.47495487247243  C 6.26669770058474 0.660359789717283  6.88291978398253 0  7.6430682467408 0  L 9.42546811613305 0  C 10.1856165788913 0  10.8018386622891 0.660359789717283  10.8018386622891 1.47495487247243  L 10.8018386622891 17.4806735569853  C 10.8018386622891 18.2952686615695  10.1856165788913 18.9556284512868  9.42546811613305 18.9556284512868  Z M 9.42546811613305 0.983303262867647  L 7.6430682467408 0.983303262867647  C 7.38968543798133 0.983303274923494  7.18427808951884 1.20342319125164  7.18427807826879 1.47495487247243  L 7.18427807826879 17.4806735569853  C 7.18427807826879 17.7522052467308  7.38968543002634 17.9723251763633  7.6430682467408 17.9723251884191  L 9.42546811613305 17.9723251884191  C 9.67885094080249 17.9723251884191  9.88425830497508 17.7522052552556  9.88425830497508 17.4806735569853  L 9.88425830497508 1.47495487247243  C 9.88425829372503 1.20342318272687  9.67885093284751 0.983303262867647  9.42546811613305 0.983303262867647  Z M 15.5961960949482 18.9556284512868  L 13.813796225556 18.9556284512868  C 13.0536477627977 18.9556284512868  12.4374256793999 18.2952686615695  12.4374256793999 17.4806735788143  L 12.4374256793999 3.52760042279412  C 12.4374256793999 2.71300531820993  13.0536477627977 2.05264552849265  13.813796225556 2.05264552849265  L 15.5961960949482 2.05264552849265  C 16.3563445577065 2.05264552849265  16.9725666411043 2.71300531820993  16.9725666411043 3.52760040096507  L 16.9725666411043 17.4806735569853  C 16.9725666411043 18.2952686615695  16.3563445577065 18.9556284512868  15.5961960949482 18.9556284512868  Z M 15.5961960949482 3.03594879136029  L 13.813796225556 3.03594879136029  C 13.5604134008865 3.03594879136029  13.355006036714 3.25606872452379  13.355006036714 3.52760042279412  L 13.355006036714 17.4806735569853  C 13.355006036714 17.7522052552556  13.5604134008865 17.9723251884191  13.813796225556 17.9723251884191  L 15.5961960949482 17.9723251884191  C 15.8495789116627 17.9723251763633  16.0549862634202 17.7522052467308  16.0549862634202 17.4806735569853  L 16.0549862634202 3.52760042279412  C 16.0549862634202 3.25606873304856  15.8495789116627 3.03594880341614  15.5961960949482 3.03594879136029  Z " fill-rule="nonzero" fill="#3a77d9" stroke="none" transform="matrix(1 0 0 1 285 475 )" />
    <path d="M 3.25474013731787 18.9556284512868  L 1.47234028829563 18.9556284512868  C 0.712191805167342 18.9556284512868  0.0959697217695543 18.2952686615695  0.0959697217695543 17.4806735788143  L 0.0959697217695547 6.41851198069853  C 0.0959697217695543 5.60391689794339  0.712191805167342 4.9435571082261  1.47234026792561 4.9435571082261  L 3.25474013731787 4.9435571082261  C 4.01488862044615 4.9435571082261  4.63111070384394 5.60391689794339  4.63111070384394 6.41851198069853  L 4.63111070384394 17.4806735569853  C 4.63111070384394 18.2952686615695  4.01488862044615 18.9556284512868  3.25474015768788 18.9556284512868  Z " stroke-width="2" stroke="#797979" fill="none" transform="matrix(1 0 0 1 285 475 )" mask="url(#clip177)" />
    <path d="M 3.25474013731787 5.9268603492647  L 1.47234028829563 5.9268603492647  C 1.21895746362619 5.9268603492647  1.0135500994536 6.1469802824282  1 6.41851198069853  L 1 17.4806735569853  C 1.0135500994536 17.7522052552556  1.21895746362619 17.9723251884191  1.47234028829563 17.9723251884191  L 3.25474013731787 17.9723251884191  C 3.50812296198731 17.9723251884191  3.71353032615989 17.7522052552556  4 17.4806735569853  L 4 6.41851198069853  C 3.71353032615989 6.1469802824282  3.50812296198731 5.9268603492647  3.25474013731787 5.9268603492647  Z " stroke-width="2" stroke="#797979" fill="none" transform="matrix(1 0 0 1 285 475 )" mask="url(#clip177)" />
    <path d="M 9.42546811613305 18.9556284512868  L 7.6430682467408 18.9556284512868  C 6.88291978398253 18.9556284512868  6.26669770058474 18.2952686615695  6.26669770058474 17.4806735788143  L 6.26669770058474 1.47495487247243  C 6.26669770058474 0.660359789717283  6.88291978398253 0  7.6430682467408 0  L 9.42546811613305 0  C 10.1856165788913 0  10.8018386622891 0.660359789717283  10.8018386622891 1.47495487247243  L 10.8018386622891 17.4806735569853  C 10.8018386622891 18.2952686615695  10.1856165788913 18.9556284512868  9.42546811613305 18.9556284512868  Z " stroke-width="2" stroke="#797979" fill="none" transform="matrix(1 0 0 1 285 475 )" mask="url(#clip177)" />
    <path d="M 9.42546811613305 0.983303262867647  L 7.6430682467408 0.983303262867647  C 7.38968543798133 0.983303274923494  7.18427808951884 1.20342319125164  7.18427807826879 1.47495487247243  L 7.18427807826879 17.4806735569853  C 7.18427807826879 17.7522052467308  7.38968543002634 17.9723251763633  7.6430682467408 17.9723251884191  L 9.42546811613305 17.9723251884191  C 9.67885094080249 17.9723251884191  9.88425830497508 17.7522052552556  9.88425830497508 17.4806735569853  L 9.88425830497508 1.47495487247243  C 9.88425829372503 1.20342318272687  9.67885093284751 0.983303262867647  9.42546811613305 0.983303262867647  Z " stroke-width="2" stroke="#797979" fill="none" transform="matrix(1 0 0 1 285 475 )" mask="url(#clip177)" />
    <path d="M 15.5961960949482 18.9556284512868  L 13.813796225556 18.9556284512868  C 13.0536477627977 18.9556284512868  12.4374256793999 18.2952686615695  12.4374256793999 17.4806735788143  L 12.4374256793999 3.52760042279412  C 12.4374256793999 2.71300531820993  13.0536477627977 2.05264552849265  13.813796225556 2.05264552849265  L 15.5961960949482 2.05264552849265  C 16.3563445577065 2.05264552849265  16.9725666411043 2.71300531820993  16.9725666411043 3.52760040096507  L 16.9725666411043 17.4806735569853  C 16.9725666411043 18.2952686615695  16.3563445577065 18.9556284512868  15.5961960949482 18.9556284512868  Z " stroke-width="2" stroke="#797979" fill="none" transform="matrix(1 0 0 1 285 475 )" mask="url(#clip177)" />
    <path d="M 15.5961960949482 3.03594879136029  L 13.813796225556 3.03594879136029  C 13.5604134008865 3.03594879136029  13.355006036714 3.25606872452379  13.355006036714 3.52760042279412  L 13.355006036714 17.4806735569853  C 13.355006036714 17.7522052552556  13.5604134008865 17.9723251884191  13.813796225556 17.9723251884191  L 15.5961960949482 17.9723251884191  C 15.8495789116627 17.9723251763633  16.0549862634202 17.7522052467308  16.0549862634202 17.4806735569853  L 16.0549862634202 3.52760042279412  C 16.0549862634202 3.25606873304856  15.8495789116627 3.03594880341614  15.5961960949482 3.03594879136029  Z " stroke-width="2" stroke="#797979" fill="none" transform="matrix(1 0 0 1 285 475 )" mask="url(#clip177)" />
  </g>
</svg>