<?xml version="1.0" encoding="utf-8"?>
<svg version="1.1" xmlns:xlink="http://www.w3.org/1999/xlink" width="14px" height="6px" xmlns="http://www.w3.org/2000/svg">
  <defs>
    <mask fill="white" id="clip179">
      <path d="M 11.452525 3.7176  L 9.98188333333333 1.92094285714285  C 9.83295007077792 1.7371056012502  9.74695215176589 1.46591908663795  9.74695215176589 1.18010902029032  C 9.74695215176589 0.79798910551081  9.90000774902007 0.451663101762173  10.137575 0.296228571428569  C 10.3430526064236 0.172602247755224  10.5782987031221 0.227684260640739  10.74745 0.439028571428571  L 13.600475 3.92451428571428  C 14.0566416666667 4.48114285714286  13.7998 5.61042857142857  13.2176916666667 5.61042857142857  L 1.02316666666667 5.61042857142857  C 0.683025 5.61042857142857  0.407341666666667 5.18785714285714  0.407341666666667 4.66474285714286  C 0.407341666666667 4.14162857142857  0.683025 3.7176  1.022175 3.7176  L 11.452525 3.7176  Z " fill-rule="evenodd" />
    </mask>
  </defs>
  <g transform="matrix(1 0 0 1 -285 -119 )">
    <path d="M 11.452525 3.7176  L 9.98188333333333 1.92094285714285  C 9.83295007077792 1.7371056012502  9.74695215176589 1.46591908663795  9.74695215176589 1.18010902029032  C 9.74695215176589 0.79798910551081  9.90000774902007 0.451663101762173  10.137575 0.296228571428569  C 10.3430526064236 0.172602247755224  10.5782987031221 0.227684260640739  10.74745 0.439028571428571  L 13.600475 3.92451428571428  C 14.0566416666667 4.48114285714286  13.7998 5.61042857142857  13.2176916666667 5.61042857142857  L 1.02316666666667 5.61042857142857  C 0.683025 5.61042857142857  0.407341666666667 5.18785714285714  0.407341666666667 4.66474285714286  C 0.407341666666667 4.14162857142857  0.683025 3.7176  1.022175 3.7176  L 11.452525 3.7176  Z " fill-rule="nonzero" fill="#007aff" stroke="none" transform="matrix(1 0 0 1 285 119 )" />
    <path d="M 11.452525 3.7176  L 9.98188333333333 1.92094285714285  C 9.83295007077792 1.7371056012502  9.74695215176589 1.46591908663795  9.74695215176589 1.18010902029032  C 9.74695215176589 0.79798910551081  9.90000774902007 0.451663101762173  10.137575 0.296228571428569  C 10.3430526064236 0.172602247755224  10.5782987031221 0.227684260640739  10.74745 0.439028571428571  L 13.600475 3.92451428571428  C 14.0566416666667 4.48114285714286  13.7998 5.61042857142857  13.2176916666667 5.61042857142857  L 1.02316666666667 5.61042857142857  C 0.683025 5.61042857142857  0.407341666666667 5.18785714285714  0.407341666666667 4.66474285714286  C 0.407341666666667 4.14162857142857  0.683025 3.7176  1.022175 3.7176  L 11.452525 3.7176  Z " stroke-width="2" stroke="#797979" fill="none" transform="matrix(1 0 0 1 285 119 )" mask="url(#clip179)" />
  </g>
</svg>