<?xml version="1.0" encoding="utf-8"?>
<svg version="1.1" xmlns:xlink="http://www.w3.org/1999/xlink" width="20px" height="20px" xmlns="http://www.w3.org/2000/svg">
  <defs>
    <mask fill="white" id="clip180">
      <path d="M 19.5559015809911 19.4445820542279  C 19.2762119677613 19.7905740910526  18.8512855229424 19.9885295423117  18.4048582886465 19.9808049632353  L 18.2024291558802 19.9808049632353  L 13.1317346523669 19.2414860753677  C 12.0609699753771 19.4518707778508  10.9765567030988 19.5865733467558  9.88663967732988 19.6445820542279  C 7.20227572774148 19.6489173551291  4.63438161355417 18.555024935822  2.78604796135355 16.6198142463235  C 1.00400707433555 14.7929808096495  0.00741188173808974 12.3482016517747  0.00741188173808974 9.80345427868456  C 0.00741188173808974 4.54062485583333  4.192257514746 0.219184477151256  9.48240423909024 0.0191950367647071  C 12.1694395585895 -0.0734170344265738  14.7794713810931 0.920755536070853  16.7162877681213 2.77461300551471  C 18.6630111370425 4.61203139075104  19.7633882440109 7.1648479915722  19.7589535872781 9.83343653492647  C 19.6313882504899 11.3806277259946  19.266534506026 12.8993220102592  18.6770476377589 14.3368420955882  L 19.8262223557692 18.0334365349265  C 19.9761797678571 18.5193272856464  19.8750040750496 19.0474910040461  19.5559015809911 19.4445820542279  Z M 12.9299283700074 17.8959752297794  L 13.1317346523669 17.8972136259191  L 18.4727499306583 18.6365325137868  C 18.5406415495562 18.6365325137868  18.6079103180473 18.6365325137868  18.6079103180473 18.5690402573529  C 18.6263780901637 18.5515144995148  18.6368266389692 18.5272388893278  18.6368266389692 18.5018575942096  C 18.6368266389692 18.4764762990913  18.6263780901637 18.4522006889043  18.6079103180473 18.4346749310662  L 17.25568359375 14.2674922564338  L 17.3235752126479 14.0656346737132  C 17.3235752126479 14.0656346737132  18.4054811621672 11.3102167279412  18.4054811621672 9.83157895220588  C 18.4129233325333 7.51851659622047  17.4588219146624 5.30515140538177  15.7689193324704 3.71517028952206  C 14.1173122343773 2.10150606030877  11.8619475307672 1.24831440791206  9.54905013406065 1.36222911305147  C 5.129055129815 1.58924255071247  1.59677776782791 5.10074180064868  1.36842104289941 9.49473683363971  C 1.36465143482625 9.59769565660778  1.36276616296315 9.70071413133986  1.36276616296315 9.80374113016962  C 1.36276616296315 14.4873963230729  5.17590779834436 18.2874914187063  9.88726252773669 18.2990712086397  C 10.910718664846 18.2460546594677  11.9282241199943 18.1112543301839  12.9299283700074 17.8959752297794  Z " fill-rule="evenodd" />
    </mask>
  </defs>
  <g transform="matrix(1 0 0 1 -931 -115 )">
    <path d="M 19.5559015809911 19.4445820542279  C 19.2762119677613 19.7905740910526  18.8512855229424 19.9885295423117  18.4048582886465 19.9808049632353  L 18.2024291558802 19.9808049632353  L 13.1317346523669 19.2414860753677  C 12.0609699753771 19.4518707778508  10.9765567030988 19.5865733467558  9.88663967732988 19.6445820542279  C 7.20227572774148 19.6489173551291  4.63438161355417 18.555024935822  2.78604796135355 16.6198142463235  C 1.00400707433555 14.7929808096495  0.00741188173808974 12.3482016517747  0.00741188173808974 9.80345427868456  C 0.00741188173808974 4.54062485583333  4.192257514746 0.219184477151256  9.48240423909024 0.0191950367647071  C 12.1694395585895 -0.0734170344265738  14.7794713810931 0.920755536070853  16.7162877681213 2.77461300551471  C 18.6630111370425 4.61203139075104  19.7633882440109 7.1648479915722  19.7589535872781 9.83343653492647  C 19.6313882504899 11.3806277259946  19.266534506026 12.8993220102592  18.6770476377589 14.3368420955882  L 19.8262223557692 18.0334365349265  C 19.9761797678571 18.5193272856464  19.8750040750496 19.0474910040461  19.5559015809911 19.4445820542279  Z M 12.9299283700074 17.8959752297794  L 13.1317346523669 17.8972136259191  L 18.4727499306583 18.6365325137868  C 18.5406415495562 18.6365325137868  18.6079103180473 18.6365325137868  18.6079103180473 18.5690402573529  C 18.6263780901637 18.5515144995148  18.6368266389692 18.5272388893278  18.6368266389692 18.5018575942096  C 18.6368266389692 18.4764762990913  18.6263780901637 18.4522006889043  18.6079103180473 18.4346749310662  L 17.25568359375 14.2674922564338  L 17.3235752126479 14.0656346737132  C 17.3235752126479 14.0656346737132  18.4054811621672 11.3102167279412  18.4054811621672 9.83157895220588  C 18.4129233325333 7.51851659622047  17.4588219146624 5.30515140538177  15.7689193324704 3.71517028952206  C 14.1173122343773 2.10150606030877  11.8619475307672 1.24831440791206  9.54905013406065 1.36222911305147  C 5.129055129815 1.58924255071247  1.59677776782791 5.10074180064868  1.36842104289941 9.49473683363971  C 1.36465143482625 9.59769565660778  1.36276616296315 9.70071413133986  1.36276616296315 9.80374113016962  C 1.36276616296315 14.4873963230729  5.17590779834436 18.2874914187063  9.88726252773669 18.2990712086397  C 10.910718664846 18.2460546594677  11.9282241199943 18.1112543301839  12.9299283700074 17.8959752297794  Z " fill-rule="nonzero" fill="#007aff" stroke="none" transform="matrix(1 0 0 1 931 115 )" />
    <path d="M 19.5559015809911 19.4445820542279  C 19.2762119677613 19.7905740910526  18.8512855229424 19.9885295423117  18.4048582886465 19.9808049632353  L 18.2024291558802 19.9808049632353  L 13.1317346523669 19.2414860753677  C 12.0609699753771 19.4518707778508  10.9765567030988 19.5865733467558  9.88663967732988 19.6445820542279  C 7.20227572774148 19.6489173551291  4.63438161355417 18.555024935822  2.78604796135355 16.6198142463235  C 1.00400707433555 14.7929808096495  0.00741188173808974 12.3482016517747  0.00741188173808974 9.80345427868456  C 0.00741188173808974 4.54062485583333  4.192257514746 0.219184477151256  9.48240423909024 0.0191950367647071  C 12.1694395585895 -0.0734170344265738  14.7794713810931 0.920755536070853  16.7162877681213 2.77461300551471  C 18.6630111370425 4.61203139075104  19.7633882440109 7.1648479915722  19.7589535872781 9.83343653492647  C 19.6313882504899 11.3806277259946  19.266534506026 12.8993220102592  18.6770476377589 14.3368420955882  L 19.8262223557692 18.0334365349265  C 19.9761797678571 18.5193272856464  19.8750040750496 19.0474910040461  19.5559015809911 19.4445820542279  Z " stroke-width="2" stroke="#797979" fill="none" transform="matrix(1 0 0 1 931 115 )" mask="url(#clip180)" />
    <path d="M 12.9299283700074 17.8959752297794  L 13.1317346523669 17.8972136259191  L 18.4727499306583 18.6365325137868  C 18.5406415495562 18.6365325137868  18.6079103180473 18.6365325137868  18.6079103180473 18.5690402573529  C 18.6263780901637 18.5515144995148  18.6368266389692 18.5272388893278  18.6368266389692 18.5018575942096  C 18.6368266389692 18.4764762990913  18.6263780901637 18.4522006889043  18.6079103180473 18.4346749310662  L 17.25568359375 14.2674922564338  L 17.3235752126479 14.0656346737132  C 17.3235752126479 14.0656346737132  18.4054811621672 11.3102167279412  18.4054811621672 9.83157895220588  C 18.4129233325333 7.51851659622047  17.4588219146624 5.30515140538177  15.7689193324704 3.71517028952206  C 14.1173122343773 2.10150606030877  11.8619475307672 1.24831440791206  9.54905013406065 1.36222911305147  C 5.129055129815 1.58924255071247  1.59677776782791 5.10074180064868  1.36842104289941 9.49473683363971  C 1.36465143482625 9.59769565660778  1.36276616296315 9.70071413133986  1.36276616296315 9.80374113016962  C 1.36276616296315 14.4873963230729  5.17590779834436 18.2874914187063  9.88726252773669 18.2990712086397  C 10.910718664846 18.2460546594677  11.9282241199943 18.1112543301839  12.9299283700074 17.8959752297794  Z " stroke-width="2" stroke="#797979" fill="none" transform="matrix(1 0 0 1 931 115 )" mask="url(#clip180)" />
  </g>
</svg>