<?xml version="1.0" encoding="utf-8"?>
<svg version="1.1" xmlns:xlink="http://www.w3.org/1999/xlink" width="2px" height="3px" xmlns="http://www.w3.org/2000/svg">
  <defs>
    <mask fill="white" id="clip181">
      <path d="M 0.0250626488095229 1.53082708617461  C 0.0250626488095229 2.34222888134484  0.463576734313041 3  1.00451127232143 3  C 1.54544581032982 3  1.98395989583333 2.34222888134484  1.98395989583333 1.53082708617461  C 1.98395989583333 0.719425203434842  1.54544581032982 0.0616540847796826  1.00451127232143 0.0616540847796826  C 0.463576734313041 0.0616540847796826  0.0250626488095229 0.719425203434842  0.0250626488095229 1.53082699860508  Z " fill-rule="evenodd" />
    </mask>
  </defs>
  <g transform="matrix(1 0 0 1 -935 -123 )">
    <path d="M 0.0250626488095229 1.53082708617461  C 0.0250626488095229 2.34222888134484  0.463576734313041 3  1.00451127232143 3  C 1.54544581032982 3  1.98395989583333 2.34222888134484  1.98395989583333 1.53082708617461  C 1.98395989583333 0.719425203434842  1.54544581032982 0.0616540847796826  1.00451127232143 0.0616540847796826  C 0.463576734313041 0.0616540847796826  0.0250626488095229 0.719425203434842  0.0250626488095229 1.53082699860508  Z " fill-rule="nonzero" fill="#83d2ea" stroke="none" transform="matrix(1 0 0 1 935 123 )" />
    <path d="M 0.0250626488095229 1.53082708617461  C 0.0250626488095229 2.34222888134484  0.463576734313041 3  1.00451127232143 3  C 1.54544581032982 3  1.98395989583333 2.34222888134484  1.98395989583333 1.53082708617461  C 1.98395989583333 0.719425203434842  1.54544581032982 0.0616540847796826  1.00451127232143 0.0616540847796826  C 0.463576734313041 0.0616540847796826  0.0250626488095229 0.719425203434842  0.0250626488095229 1.53082699860508  Z " stroke-width="2" stroke="#797979" fill="none" transform="matrix(1 0 0 1 935 123 )" mask="url(#clip181)" />
  </g>
</svg>