<?xml version="1.0" encoding="utf-8"?>
<svg version="1.1" xmlns:xlink="http://www.w3.org/1999/xlink" width="3px" height="3px" xmlns="http://www.w3.org/2000/svg">
  <defs>
    <mask fill="white" id="clip183">
      <path d="M 0.130622008167612 1.53082709505636  C 0.130622008167612 2.34222888532134  0.75849444877492 3  1.53301435546874 3  C 2.30753426216258 3  2.93540670276988 2.34222888532134  2.93540670276988 1.53082709505636  C 2.93540670276988 0.719425242870384  2.30753426216257 0.0616541281917233  1.53301435546874 0.0616541281917233  C 0.758494448774918 0.0616541281917233  0.130622008167608 0.719425242870384  0.130622008167608 1.53082703313536  Z " fill-rule="evenodd" />
    </mask>
  </defs>
  <g transform="matrix(1 0 0 1 -944 -123 )">
    <path d="M 0.130622008167612 1.53082709505636  C 0.130622008167612 2.34222888532134  0.75849444877492 3  1.53301435546874 3  C 2.30753426216258 3  2.93540670276988 2.34222888532134  2.93540670276988 1.53082709505636  C 2.93540670276988 0.719425242870384  2.30753426216257 0.0616541281917233  1.53301435546874 0.0616541281917233  C 0.758494448774918 0.0616541281917233  0.130622008167608 0.719425242870384  0.130622008167608 1.53082703313536  Z " fill-rule="nonzero" fill="#83d2ea" stroke="none" transform="matrix(1 0 0 1 944 123 )" />
    <path d="M 0.130622008167612 1.53082709505636  C 0.130622008167612 2.34222888532134  0.75849444877492 3  1.53301435546874 3  C 2.30753426216258 3  2.93540670276988 2.34222888532134  2.93540670276988 1.53082709505636  C 2.93540670276988 0.719425242870384  2.30753426216257 0.0616541281917233  1.53301435546874 0.0616541281917233  C 0.758494448774918 0.0616541281917233  0.130622008167608 0.719425242870384  0.130622008167608 1.53082703313536  Z " stroke-width="2" stroke="#797979" fill="none" transform="matrix(1 0 0 1 944 123 )" mask="url(#clip183)" />
  </g>
</svg>