<?xml version="1.0" encoding="utf-8"?>
<svg version="1.1" xmlns:xlink="http://www.w3.org/1999/xlink" width="112px" height="109px" xmlns="http://www.w3.org/2000/svg">
  <defs>
    <mask fill="white" id="clip184">
      <path d="M 94.5426327877358 79.3608972461781  C 104.919304445507 73.8127237000384  111.99505202469 62.7783874564968  111.99505202469 50.0652647572673  C 111.99505202469 31.7761085653636  97.3603652987881 16.9510221772334  79.308381433619 16.9510221772334  C 79.0274046521306 16.9510221772334  78.7499677356058 16.9640534425479  78.4707608865992 16.971692460146  C 72.7711358120289 7.26969075651731  62.3210119562627 0.764842594703152  50.3668879740726 0.764842594703152  C 32.3144616257831 0.764842594703152  17.6802173830021 15.5912770447624  17.6802173830021 33.8804332366661  C 17.6802173830021 34.1181414901615  17.6930493934952 34.3518055578697  17.6979167078202 34.5886151034124  C 7.82434835800571 40.2859741697043  1.16232249644762 51.0381161160907  1.16232249644762 63.3728827672235  C 1.16232249644762 81.6611402511745  15.7965667392286 96.4848785773756  33.8494355706386 96.4848785773756  C 34.8759964100923 96.4848785773756  35.8901677221733 96.4318548081649  36.8928344731224 96.338838535058  C 42.888923238397 103.697009897983  51.9598272077076 108.387366703248  62.1134873727696 108.387366703248  C 78.7999683282171 108.387366703248  92.5532286781739 95.719179401655  94.5426327877358 79.3608972461781  Z " fill-rule="evenodd" />
    </mask>
  </defs>
  <g transform="matrix(1 0 0 1 -284 -312 )">
    <path d="M 94.5426327877358 79.3608972461781  C 104.919304445507 73.8127237000384  111.99505202469 62.7783874564968  111.99505202469 50.0652647572673  C 111.99505202469 31.7761085653636  97.3603652987881 16.9510221772334  79.308381433619 16.9510221772334  C 79.0274046521306 16.9510221772334  78.7499677356058 16.9640534425479  78.4707608865992 16.971692460146  C 72.7711358120289 7.26969075651731  62.3210119562627 0.764842594703152  50.3668879740726 0.764842594703152  C 32.3144616257831 0.764842594703152  17.6802173830021 15.5912770447624  17.6802173830021 33.8804332366661  C 17.6802173830021 34.1181414901615  17.6930493934952 34.3518055578697  17.6979167078202 34.5886151034124  C 7.82434835800571 40.2859741697043  1.16232249644762 51.0381161160907  1.16232249644762 63.3728827672235  C 1.16232249644762 81.6611402511745  15.7965667392286 96.4848785773756  33.8494355706386 96.4848785773756  C 34.8759964100923 96.4848785773756  35.8901677221733 96.4318548081649  36.8928344731224 96.338838535058  C 42.888923238397 103.697009897983  51.9598272077076 108.387366703248  62.1134873727696 108.387366703248  C 78.7999683282171 108.387366703248  92.5532286781739 95.719179401655  94.5426327877358 79.3608972461781  Z " fill-rule="nonzero" fill="#d6f0ff" stroke="none" transform="matrix(1 0 0 1 284 312 )" />
    <path d="M 94.5426327877358 79.3608972461781  C 104.919304445507 73.8127237000384  111.99505202469 62.7783874564968  111.99505202469 50.0652647572673  C 111.99505202469 31.7761085653636  97.3603652987881 16.9510221772334  79.308381433619 16.9510221772334  C 79.0274046521306 16.9510221772334  78.7499677356058 16.9640534425479  78.4707608865992 16.971692460146  C 72.7711358120289 7.26969075651731  62.3210119562627 0.764842594703152  50.3668879740726 0.764842594703152  C 32.3144616257831 0.764842594703152  17.6802173830021 15.5912770447624  17.6802173830021 33.8804332366661  C 17.6802173830021 34.1181414901615  17.6930493934952 34.3518055578697  17.6979167078202 34.5886151034124  C 7.82434835800571 40.2859741697043  1.16232249644762 51.0381161160907  1.16232249644762 63.3728827672235  C 1.16232249644762 81.6611402511745  15.7965667392286 96.4848785773756  33.8494355706386 96.4848785773756  C 34.8759964100923 96.4848785773756  35.8901677221733 96.4318548081649  36.8928344731224 96.338838535058  C 42.888923238397 103.697009897983  51.9598272077076 108.387366703248  62.1134873727696 108.387366703248  C 78.7999683282171 108.387366703248  92.5532286781739 95.719179401655  94.5426327877358 79.3608972461781  Z " stroke-width="2" stroke="#797979" fill="none" transform="matrix(1 0 0 1 284 312 )" mask="url(#clip184)" />
  </g>
</svg>