<?xml version="1.0" encoding="utf-8"?>
<svg version="1.1" xmlns:xlink="http://www.w3.org/1999/xlink" width="36px" height="33px" xmlns="http://www.w3.org/2000/svg">
  <defs>
    <mask fill="white" id="clip186">
      <path d="M 30.3402277182285 24.1137445472703  C 29.5276084870607 28.9453486783921  25.1121571090355 32.5459196170715  19.9193220220612 32.5459196170715  C 16.8824604508408 32.5459196170715  14.0204551586306 31.3171214159008  12.0133517242504 29.1630368282539  C 11.7935701544116 29.176446775884  11.5759908047114 29.183151749699  11.3628158952885 29.183151749699  C 5.54190762476666 29.183151749699  0.806253438579396 24.6850083163122  0.806253438579396 19.1551929119171  C 0.806253438579396 15.6829104722322  2.71249519060864 12.4515600916346  5.80837626154524 10.6282542121966  C 5.91716593639534 5.18694446216007  10.6100970518925 0.792504623779289  16.3631769421434 0.792504623779289  C 19.9268095705327 0.792504623779289  23.2851952819982 2.53579781569111  25.2213872279133 5.36619076214895  C 30.9982510956619 5.41536057012596  35.6814924425489 9.89473007683065  35.6814924425489 15.3945965981853  C 35.6814924425489 19.0193054425988  33.6439983702551 22.3297745142139  30.3402277182285 24.1137445472703  Z M 12.2260861896456 27.802374142054  L 12.5581809865564 27.7728722572678  L 12.7788434444507 28.0254262709679  C 14.5432622195499 30.0458583805682  17.146286423453 31.2044778558081  19.9193220220612 31.2044778558081  C 24.5770176153397 31.2044778558081  28.5167894434131 27.9288746480312  29.083200463078 23.5849456123904  L 29.1294470859899 23.2291350019387  L 29.4465667859578 23.0708976199036  C 32.4777025848176 21.557808528975  34.360600803377 18.6161130171874  34.360600803377 15.3937026016766  C 34.360600803377 10.6032223099538  30.2177842785187 6.70584453039504  25.1258108738952 6.70584453039504  C 25.0751598107059 6.70584453039504  25.0249491915443 6.70763252341238  24.974298128355 6.70942051642972  L 24.5157958954848 6.72148946929681  L 24.3149534188384 6.40233271570064  C 22.6575625424784 3.76861900115079  19.611011202648 2.13260539027971  16.3631769421434 2.13260539027971  C 11.2707630934923 2.13260539027971  7.12750612460614 6.02998316983845  7.12750612460614 10.8204634615613  L 7.14027900141041 11.4189941241177  L 6.78175756283559 11.6125443682453  C 3.91050294604292 13.1596053265034  2.12714507775124 16.0498960390424  2.12714507775124 19.1547459136627  C 2.12714507775124 23.9447792071312  6.26996160260962 27.8417099884356  11.3623754512608 27.8417099884356  C 11.6429382969268 27.8417099884356  11.933190911203 27.8287470390599  12.2260861896456 27.802374142054  Z " fill-rule="evenodd" />
    </mask>
  </defs>
  <g transform="matrix(1 0 0 1 -287 -357 )">
    <path d="M 30.3402277182285 24.1137445472703  C 29.5276084870607 28.9453486783921  25.1121571090355 32.5459196170715  19.9193220220612 32.5459196170715  C 16.8824604508408 32.5459196170715  14.0204551586306 31.3171214159008  12.0133517242504 29.1630368282539  C 11.7935701544116 29.176446775884  11.5759908047114 29.183151749699  11.3628158952885 29.183151749699  C 5.54190762476666 29.183151749699  0.806253438579396 24.6850083163122  0.806253438579396 19.1551929119171  C 0.806253438579396 15.6829104722322  2.71249519060864 12.4515600916346  5.80837626154524 10.6282542121966  C 5.91716593639534 5.18694446216007  10.6100970518925 0.792504623779289  16.3631769421434 0.792504623779289  C 19.9268095705327 0.792504623779289  23.2851952819982 2.53579781569111  25.2213872279133 5.36619076214895  C 30.9982510956619 5.41536057012596  35.6814924425489 9.89473007683065  35.6814924425489 15.3945965981853  C 35.6814924425489 19.0193054425988  33.6439983702551 22.3297745142139  30.3402277182285 24.1137445472703  Z M 12.2260861896456 27.802374142054  L 12.5581809865564 27.7728722572678  L 12.7788434444507 28.0254262709679  C 14.5432622195499 30.0458583805682  17.146286423453 31.2044778558081  19.9193220220612 31.2044778558081  C 24.5770176153397 31.2044778558081  28.5167894434131 27.9288746480312  29.083200463078 23.5849456123904  L 29.1294470859899 23.2291350019387  L 29.4465667859578 23.0708976199036  C 32.4777025848176 21.557808528975  34.360600803377 18.6161130171874  34.360600803377 15.3937026016766  C 34.360600803377 10.6032223099538  30.2177842785187 6.70584453039504  25.1258108738952 6.70584453039504  C 25.0751598107059 6.70584453039504  25.0249491915443 6.70763252341238  24.974298128355 6.70942051642972  L 24.5157958954848 6.72148946929681  L 24.3149534188384 6.40233271570064  C 22.6575625424784 3.76861900115079  19.611011202648 2.13260539027971  16.3631769421434 2.13260539027971  C 11.2707630934923 2.13260539027971  7.12750612460614 6.02998316983845  7.12750612460614 10.8204634615613  L 7.14027900141041 11.4189941241177  L 6.78175756283559 11.6125443682453  C 3.91050294604292 13.1596053265034  2.12714507775124 16.0498960390424  2.12714507775124 19.1547459136627  C 2.12714507775124 23.9447792071312  6.26996160260962 27.8417099884356  11.3623754512608 27.8417099884356  C 11.6429382969268 27.8417099884356  11.933190911203 27.8287470390599  12.2260861896456 27.802374142054  Z " fill-rule="nonzero" fill="#ccccde" stroke="none" transform="matrix(1 0 0 1 287 357 )" />
    <path d="M 30.3402277182285 24.1137445472703  C 29.5276084870607 28.9453486783921  25.1121571090355 32.5459196170715  19.9193220220612 32.5459196170715  C 16.8824604508408 32.5459196170715  14.0204551586306 31.3171214159008  12.0133517242504 29.1630368282539  C 11.7935701544116 29.176446775884  11.5759908047114 29.183151749699  11.3628158952885 29.183151749699  C 5.54190762476666 29.183151749699  0.806253438579396 24.6850083163122  0.806253438579396 19.1551929119171  C 0.806253438579396 15.6829104722322  2.71249519060864 12.4515600916346  5.80837626154524 10.6282542121966  C 5.91716593639534 5.18694446216007  10.6100970518925 0.792504623779289  16.3631769421434 0.792504623779289  C 19.9268095705327 0.792504623779289  23.2851952819982 2.53579781569111  25.2213872279133 5.36619076214895  C 30.9982510956619 5.41536057012596  35.6814924425489 9.89473007683065  35.6814924425489 15.3945965981853  C 35.6814924425489 19.0193054425988  33.6439983702551 22.3297745142139  30.3402277182285 24.1137445472703  Z " stroke-width="2" stroke="#797979" fill="none" transform="matrix(1 0 0 1 287 357 )" mask="url(#clip186)" />
    <path d="M 12.2260861896456 27.802374142054  L 12.5581809865564 27.7728722572678  L 12.7788434444507 28.0254262709679  C 14.5432622195499 30.0458583805682  17.146286423453 31.2044778558081  19.9193220220612 31.2044778558081  C 24.5770176153397 31.2044778558081  28.5167894434131 27.9288746480312  29.083200463078 23.5849456123904  L 29.1294470859899 23.2291350019387  L 29.4465667859578 23.0708976199036  C 32.4777025848176 21.557808528975  34.360600803377 18.6161130171874  34.360600803377 15.3937026016766  C 34.360600803377 10.6032223099538  30.2177842785187 6.70584453039504  25.1258108738952 6.70584453039504  C 25.0751598107059 6.70584453039504  25.0249491915443 6.70763252341238  24.974298128355 6.70942051642972  L 24.5157958954848 6.72148946929681  L 24.3149534188384 6.40233271570064  C 22.6575625424784 3.76861900115079  19.611011202648 2.13260539027971  16.3631769421434 2.13260539027971  C 11.2707630934923 2.13260539027971  7.12750612460614 6.02998316983845  7.12750612460614 10.8204634615613  L 7.14027900141041 11.4189941241177  L 6.78175756283559 11.6125443682453  C 3.91050294604292 13.1596053265034  2.12714507775124 16.0498960390424  2.12714507775124 19.1547459136627  C 2.12714507775124 23.9447792071312  6.26996160260962 27.8417099884356  11.3623754512608 27.8417099884356  C 11.6429382969268 27.8417099884356  11.933190911203 27.8287470390599  12.2260861896456 27.802374142054  Z " stroke-width="2" stroke="#797979" fill="none" transform="matrix(1 0 0 1 287 357 )" mask="url(#clip186)" />
  </g>
</svg>