<?xml version="1.0" encoding="utf-8"?>
<svg version="1.1" xmlns:xlink="http://www.w3.org/1999/xlink" width="15px" height="25px" xmlns="http://www.w3.org/2000/svg">
  <defs>
    <mask fill="white" id="clip188">
      <path d="M 14.8912808944237 0.49053167018379  C 7.71955337771738 4.72076060440335  0.420040625785391 2.80544081158027  0.420040625785391 2.80544081158027  C 0.420040625785391 2.80544081158027  5.51175710472596 3.8335367965539  5.51175710472596 8.97401672142209  C 5.51175710472596 8.97401672142209  6.88238503872182 17.7071886763453  1.58367398354242 23.8856978807279  L 13.8195478770687 23.8856978807279  C 13.6983269518717 23.7105106860991  3.13197590898218 9.14604332233335  14.8912808944237 0.49053167018379  Z " fill-rule="evenodd" />
    </mask>
  </defs>
  <g transform="matrix(1 0 0 1 -297 -375 )">
    <path d="M 14.8912808944237 0.49053167018379  C 7.71955337771738 4.72076060440335  0.420040625785391 2.80544081158027  0.420040625785391 2.80544081158027  C 0.420040625785391 2.80544081158027  5.51175710472596 3.8335367965539  5.51175710472596 8.97401672142209  C 5.51175710472596 8.97401672142209  6.88238503872182 17.7071886763453  1.58367398354242 23.8856978807279  L 13.8195478770687 23.8856978807279  C 13.6983269518717 23.7105106860991  3.13197590898218 9.14604332233335  14.8912808944237 0.49053167018379  Z " fill-rule="nonzero" fill="#ede3da" stroke="none" transform="matrix(1 0 0 1 297 375 )" />
    <path d="M 14.8912808944237 0.49053167018379  C 7.71955337771738 4.72076060440335  0.420040625785391 2.80544081158027  0.420040625785391 2.80544081158027  C 0.420040625785391 2.80544081158027  5.51175710472596 3.8335367965539  5.51175710472596 8.97401672142209  C 5.51175710472596 8.97401672142209  6.88238503872182 17.7071886763453  1.58367398354242 23.8856978807279  L 13.8195478770687 23.8856978807279  C 13.6983269518717 23.7105106860991  3.13197590898218 9.14604332233335  14.8912808944237 0.49053167018379  Z " stroke-width="2" stroke="#797979" fill="none" transform="matrix(1 0 0 1 297 375 )" mask="url(#clip188)" />
  </g>
</svg>