<?xml version="1.0" encoding="utf-8"?>
<svg version="1.1" xmlns:xlink="http://www.w3.org/1999/xlink" width="16px" height="26px" xmlns="http://www.w3.org/2000/svg">
  <defs>
    <mask fill="white" id="clip189">
      <path d="M 14.9605507108796 25.5531477178897  L 13.6879331353823 25.5665946075243  L 0.125193374718289 25.5665946075243  L 1.0818238206047 24.4487098492361  C 6.0565622109256 18.634274771243  4.83032409066614 10.2815151598955  4.81775395793814 10.1976962145066  L 4.80951835373703 10.0910175567389  C 4.80951835373703 6.0215405236601  1.16938129684803 4.85435050337843  0.412572616051632 4.65668122575008  C 0.309410837111459 4.63292505406232  0.255662683377925 4.61902993477325  0.255662683377925 4.61902993477325  L 0.540874660447815 3.30750996574708  C 0.540874660447815 3.30750996574708  0.601124606971699 3.31916393676371  0.709921272996841 3.34740240499634  C 1.11519969026181 3.43839302485701  2.54386029272741 3.7243635444191  4.52517328237252 3.7243635444191  C 7.00625741116897 3.7243635444191  10.7378530199755 3.26672106718885  14.4269702492185 1.08563556845973  L 15.1274300591652 2.21607075707354  C 12.2545045515371 4.33574879313808  10.5484341233501 7.01436920834671  10.0560316826944 10.1770776504003  C 9.00837613774318 16.9072459125083  13.6684277570113 23.727508335168  14.2033085772305 24.4832235326315  L 14.9605507108796 25.5531477178897  Z M 6.10944345895376 10.0376782278551  C 6.22214120065311 10.8162531376974  7.1623004381373 18.2546242538934  2.92746606735789 24.2219056440662  L 12.4621284679756 24.2219056440662  C 10.9684499376065 21.8032584284594  7.84888975679795 15.8915575154429  8.77171088017455 9.96327210521042  C 9.12020697373716 7.72346852174362  10.0061846046351 5.70733153586538  11.4153398287297 3.936376170991  C 8.78471446575524 4.83776600616245  6.33960692373205 5.06860427822276  4.52517328237252 5.06860427822276  C 4.32448461157713 5.06860427822276  4.12856392216134 5.06591490029585  3.9391450255359 5.06053614444202  C 5.08996234942733 6.08070683805227  6.09513951481499 7.6539929252983  6.10944345895376 10.0376782278551  Z " fill-rule="evenodd" />
    </mask>
  </defs>
  <g transform="matrix(1 0 0 1 -297 -374 )">
    <path d="M 14.9605507108796 25.5531477178897  L 13.6879331353823 25.5665946075243  L 0.125193374718289 25.5665946075243  L 1.0818238206047 24.4487098492361  C 6.0565622109256 18.634274771243  4.83032409066614 10.2815151598955  4.81775395793814 10.1976962145066  L 4.80951835373703 10.0910175567389  C 4.80951835373703 6.0215405236601  1.16938129684803 4.85435050337843  0.412572616051632 4.65668122575008  C 0.309410837111459 4.63292505406232  0.255662683377925 4.61902993477325  0.255662683377925 4.61902993477325  L 0.540874660447815 3.30750996574708  C 0.540874660447815 3.30750996574708  0.601124606971699 3.31916393676371  0.709921272996841 3.34740240499634  C 1.11519969026181 3.43839302485701  2.54386029272741 3.7243635444191  4.52517328237252 3.7243635444191  C 7.00625741116897 3.7243635444191  10.7378530199755 3.26672106718885  14.4269702492185 1.08563556845973  L 15.1274300591652 2.21607075707354  C 12.2545045515371 4.33574879313808  10.5484341233501 7.01436920834671  10.0560316826944 10.1770776504003  C 9.00837613774318 16.9072459125083  13.6684277570113 23.727508335168  14.2033085772305 24.4832235326315  L 14.9605507108796 25.5531477178897  Z M 6.10944345895376 10.0376782278551  C 6.22214120065311 10.8162531376974  7.1623004381373 18.2546242538934  2.92746606735789 24.2219056440662  L 12.4621284679756 24.2219056440662  C 10.9684499376065 21.8032584284594  7.84888975679795 15.8915575154429  8.77171088017455 9.96327210521042  C 9.12020697373716 7.72346852174362  10.0061846046351 5.70733153586538  11.4153398287297 3.936376170991  C 8.78471446575524 4.83776600616245  6.33960692373205 5.06860427822276  4.52517328237252 5.06860427822276  C 4.32448461157713 5.06860427822276  4.12856392216134 5.06591490029585  3.9391450255359 5.06053614444202  C 5.08996234942733 6.08070683805227  6.09513951481499 7.6539929252983  6.10944345895376 10.0376782278551  Z " fill-rule="nonzero" fill="#ccccde" stroke="none" transform="matrix(1 0 0 1 297 374 )" />
    <path d="M 14.9605507108796 25.5531477178897  L 13.6879331353823 25.5665946075243  L 0.125193374718289 25.5665946075243  L 1.0818238206047 24.4487098492361  C 6.0565622109256 18.634274771243  4.83032409066614 10.2815151598955  4.81775395793814 10.1976962145066  L 4.80951835373703 10.0910175567389  C 4.80951835373703 6.0215405236601  1.16938129684803 4.85435050337843  0.412572616051632 4.65668122575008  C 0.309410837111459 4.63292505406232  0.255662683377925 4.61902993477325  0.255662683377925 4.61902993477325  L 0.540874660447815 3.30750996574708  C 0.540874660447815 3.30750996574708  0.601124606971699 3.31916393676371  0.709921272996841 3.34740240499634  C 1.11519969026181 3.43839302485701  2.54386029272741 3.7243635444191  4.52517328237252 3.7243635444191  C 7.00625741116897 3.7243635444191  10.7378530199755 3.26672106718885  14.4269702492185 1.08563556845973  L 15.1274300591652 2.21607075707354  C 12.2545045515371 4.33574879313808  10.5484341233501 7.01436920834671  10.0560316826944 10.1770776504003  C 9.00837613774318 16.9072459125083  13.6684277570113 23.727508335168  14.2033085772305 24.4832235326315  L 14.9605507108796 25.5531477178897  Z " stroke-width="2" stroke="#797979" fill="none" transform="matrix(1 0 0 1 297 374 )" mask="url(#clip189)" />
    <path d="M 6.10944345895376 10.0376782278551  C 6.22214120065311 10.8162531376974  7.1623004381373 18.2546242538934  2.92746606735789 24.2219056440662  L 12.4621284679756 24.2219056440662  C 10.9684499376065 21.8032584284594  7.84888975679795 15.8915575154429  8.77171088017455 9.96327210521042  C 9.12020697373716 7.72346852174362  10.0061846046351 5.70733153586538  11.4153398287297 3.936376170991  C 8.78471446575524 4.83776600616245  6.33960692373205 5.06860427822276  4.52517328237252 5.06860427822276  C 4.32448461157713 5.06860427822276  4.12856392216134 5.06591490029585  3.9391450255359 5.06053614444202  C 5.08996234942733 6.08070683805227  6.09513951481499 7.6539929252983  6.10944345895376 10.0376782278551  Z " stroke-width="2" stroke="#797979" fill="none" transform="matrix(1 0 0 1 297 374 )" mask="url(#clip189)" />
  </g>
</svg>