<?xml version="1.0" encoding="utf-8"?>
<svg version="1.1" xmlns:xlink="http://www.w3.org/1999/xlink" width="7px" height="23px" xmlns="http://www.w3.org/2000/svg">
  <defs>
    <mask fill="white" id="clip190">
      <path d="M 6.97354089215659 21.8678489227886  C 6.97309840903613 21.8678489227886  -0.953986693900453 10.3729159575258  4.97086228898098 0.416945939084133  C 4.97086228898098 0.416945939084133  -2.84073471951707 10.8816185067734  3.16331874192566 21.8678489227886  L 6.97354089215659 21.8678489227886  Z " fill-rule="evenodd" />
    </mask>
  </defs>
  <g transform="matrix(1 0 0 1 -304 -377 )">
    <path d="M 6.97354089215659 21.8678489227886  C 6.97309840903613 21.8678489227886  -0.953986693900453 10.3729159575258  4.97086228898098 0.416945939084133  C 4.97086228898098 0.416945939084133  -2.84073471951707 10.8816185067734  3.16331874192566 21.8678489227886  L 6.97354089215659 21.8678489227886  Z " fill-rule="nonzero" fill="#6e6e96" stroke="none" transform="matrix(1 0 0 1 304 377 )" />
    <path d="M 6.97354089215659 21.8678489227886  C 6.97309840903613 21.8678489227886  -0.953986693900453 10.3729159575258  4.97086228898098 0.416945939084133  C 4.97086228898098 0.416945939084133  -2.84073471951707 10.8816185067734  3.16331874192566 21.8678489227886  L 6.97354089215659 21.8678489227886  Z " stroke-width="2" stroke="#797979" fill="none" transform="matrix(1 0 0 1 304 377 )" mask="url(#clip190)" />
  </g>
</svg>