<?xml version="1.0" encoding="utf-8"?>
<svg version="1.1" xmlns:xlink="http://www.w3.org/1999/xlink" width="33px" height="30px" xmlns="http://www.w3.org/2000/svg">
  <defs>
    <mask fill="white" id="clip191">
      <path d="M 27.4742890639507 21.7842689349194  C 30.4602374029176 20.2882714317885  32.4963144514197 17.3163019473208  32.4963144514197 13.8910274695101  C 32.4963144514197 8.96292860613866  28.2855908955712 4.96874725917263  23.0914711801826 4.96874725917263  C 23.0096704996391 4.96874725917263  22.9305518086215 4.97238826313523  22.8505391210953 4.97466389061186  C 21.2105025259352 2.3604230454691  18.2035452690145 0.607734762975227  14.7638937018962 0.607734762975227  C 9.56977398650767 0.607734762975227  5.3586034324048 4.60237123543658  5.3586034324048 9.53001497331274  C 5.3586034324048 9.59418766815347  5.36262641669381 9.65699498650822  5.36396741145683 9.7202574303583  C 2.52374050340358 11.2563059770778  0.606117992300577 14.1527246293216  0.606117992300577 17.4769612471703  C 0.606117992300577 22.4036947340558  4.81728854640345 26.3992414575078  10.0109612635376 26.3992414575078  C 10.3059801113996 26.3992414575078  10.597422973227 26.3846774416574  10.8870778420369 26.3587352884239  C 12.6115971072666 28.3403516950659  15.222066912591 29.6056005720675  18.1432005046791 29.6056005720675  C 22.9426207614886 29.6056005720675  26.9025782966545 26.1926144826306  27.4742890639507 21.7842689349194  Z " fill-rule="evenodd" />
    </mask>
  </defs>
  <g transform="matrix(1 0 0 1 -365 -358 )">
    <path d="M 27.4742890639507 21.7842689349194  C 30.4602374029176 20.2882714317885  32.4963144514197 17.3163019473208  32.4963144514197 13.8910274695101  C 32.4963144514197 8.96292860613866  28.2855908955712 4.96874725917263  23.0914711801826 4.96874725917263  C 23.0096704996391 4.96874725917263  22.9305518086215 4.97238826313523  22.8505391210953 4.97466389061186  C 21.2105025259352 2.3604230454691  18.2035452690145 0.607734762975227  14.7638937018962 0.607734762975227  C 9.56977398650767 0.607734762975227  5.3586034324048 4.60237123543658  5.3586034324048 9.53001497331274  C 5.3586034324048 9.59418766815347  5.36262641669381 9.65699498650822  5.36396741145683 9.7202574303583  C 2.52374050340358 11.2563059770778  0.606117992300577 14.1527246293216  0.606117992300577 17.4769612471703  C 0.606117992300577 22.4036947340558  4.81728854640345 26.3992414575078  10.0109612635376 26.3992414575078  C 10.3059801113996 26.3992414575078  10.597422973227 26.3846774416574  10.8870778420369 26.3587352884239  C 12.6115971072666 28.3403516950659  15.222066912591 29.6056005720675  18.1432005046791 29.6056005720675  C 22.9426207614886 29.6056005720675  26.9025782966545 26.1926144826306  27.4742890639507 21.7842689349194  Z " fill-rule="nonzero" fill="#d7f7e4" stroke="none" transform="matrix(1 0 0 1 365 358 )" />
    <path d="M 27.4742890639507 21.7842689349194  C 30.4602374029176 20.2882714317885  32.4963144514197 17.3163019473208  32.4963144514197 13.8910274695101  C 32.4963144514197 8.96292860613866  28.2855908955712 4.96874725917263  23.0914711801826 4.96874725917263  C 23.0096704996391 4.96874725917263  22.9305518086215 4.97238826313523  22.8505391210953 4.97466389061186  C 21.2105025259352 2.3604230454691  18.2035452690145 0.607734762975227  14.7638937018962 0.607734762975227  C 9.56977398650767 0.607734762975227  5.3586034324048 4.60237123543658  5.3586034324048 9.53001497331274  C 5.3586034324048 9.59418766815347  5.36262641669381 9.65699498650822  5.36396741145683 9.7202574303583  C 2.52374050340358 11.2563059770778  0.606117992300577 14.1527246293216  0.606117992300577 17.4769612471703  C 0.606117992300577 22.4036947340558  4.81728854640345 26.3992414575078  10.0109612635376 26.3992414575078  C 10.3059801113996 26.3992414575078  10.597422973227 26.3846774416574  10.8870778420369 26.3587352884239  C 12.6115971072666 28.3403516950659  15.222066912591 29.6056005720675  18.1432005046791 29.6056005720675  C 22.9426207614886 29.6056005720675  26.9025782966545 26.1926144826306  27.4742890639507 21.7842689349194  Z " stroke-width="2" stroke="#797979" fill="none" transform="matrix(1 0 0 1 365 358 )" mask="url(#clip191)" />
  </g>
</svg>