<?xml version="1.0" encoding="utf-8"?>
<svg version="1.1" xmlns:xlink="http://www.w3.org/1999/xlink" width="49px" height="45px" xmlns="http://www.w3.org/2000/svg">
  <defs>
    <mask fill="white" id="clip197">
      <path d="M 40.9649835846664 32.3776080876266  C 45.5013205355626 30.1130593237203  48.5947200306578 25.6082151940137  48.5947200306578 20.4197845473167  C 48.5947200306578 12.9542293006583  42.1959716257699 6.90300647318705  34.3029577231083 6.90300647318705  C 34.179947415622 6.90300647318705  34.0578220743767 6.90839611721063  33.9365816993722 6.91154007622438  C 31.4445167649743 2.95149912990103  26.874993580044 0.296201174285335  21.6483829612393 0.296201174285335  C 13.7553690585776 0.296201174285335  7.35573568744887 6.34832227576057  7.35573568744887 13.813428385417  C 7.35573568744887 13.9099928408394  7.36193045113523 14.0061081592598  7.36370038361705 14.1035708886862  C 3.04727754358654 16.4309988328676  0.133968678516244 20.8159233830496  0.133968678516244 25.8511983120766  C 0.133968678516244 33.316304421733  6.53315956652456 39.3693237972122  14.4261734691862 39.3693237972122  C 14.8748513533267 39.3693237972122  15.3191044062627 39.3468669471139  15.7571626955123 39.3068937539391  C 18.3793176673238 42.3107220230794  22.3452938759546 44.2253930624552  26.7842845403509 44.2253930624552  C 34.0803887135198 44.2253930624552  40.094619286733 39.0535804848309  40.9649835846664 32.3776080876266  Z " fill-rule="evenodd" />
    </mask>
  </defs>
  <g transform="matrix(1 0 0 1 -332 -352 )">
    <path d="M 40.9649835846664 32.3776080876266  C 45.5013205355626 30.1130593237203  48.5947200306578 25.6082151940137  48.5947200306578 20.4197845473167  C 48.5947200306578 12.9542293006583  42.1959716257699 6.90300647318705  34.3029577231083 6.90300647318705  C 34.179947415622 6.90300647318705  34.0578220743767 6.90839611721063  33.9365816993722 6.91154007622438  C 31.4445167649743 2.95149912990103  26.874993580044 0.296201174285335  21.6483829612393 0.296201174285335  C 13.7553690585776 0.296201174285335  7.35573568744887 6.34832227576057  7.35573568744887 13.813428385417  C 7.35573568744887 13.9099928408394  7.36193045113523 14.0061081592598  7.36370038361705 14.1035708886862  C 3.04727754358654 16.4309988328676  0.133968678516244 20.8159233830496  0.133968678516244 25.8511983120766  C 0.133968678516244 33.316304421733  6.53315956652456 39.3693237972122  14.4261734691862 39.3693237972122  C 14.8748513533267 39.3693237972122  15.3191044062627 39.3468669471139  15.7571626955123 39.3068937539391  C 18.3793176673238 42.3107220230794  22.3452938759546 44.2253930624552  26.7842845403509 44.2253930624552  C 34.0803887135198 44.2253930624552  40.094619286733 39.0535804848309  40.9649835846664 32.3776080876266  Z " fill-rule="nonzero" fill="#d7f7e4" stroke="none" transform="matrix(1 0 0 1 332 352 )" />
    <path d="M 40.9649835846664 32.3776080876266  C 45.5013205355626 30.1130593237203  48.5947200306578 25.6082151940137  48.5947200306578 20.4197845473167  C 48.5947200306578 12.9542293006583  42.1959716257699 6.90300647318705  34.3029577231083 6.90300647318705  C 34.179947415622 6.90300647318705  34.0578220743767 6.90839611721063  33.9365816993722 6.91154007622438  C 31.4445167649743 2.95149912990103  26.874993580044 0.296201174285335  21.6483829612393 0.296201174285335  C 13.7553690585776 0.296201174285335  7.35573568744887 6.34832227576057  7.35573568744887 13.813428385417  C 7.35573568744887 13.9099928408394  7.36193045113523 14.0061081592598  7.36370038361705 14.1035708886862  C 3.04727754358654 16.4309988328676  0.133968678516244 20.8159233830496  0.133968678516244 25.8511983120766  C 0.133968678516244 33.316304421733  6.53315956652456 39.3693237972122  14.4261734691862 39.3693237972122  C 14.8748513533267 39.3693237972122  15.3191044062627 39.3468669471139  15.7571626955123 39.3068937539391  C 18.3793176673238 42.3107220230794  22.3452938759546 44.2253930624552  26.7842845403509 44.2253930624552  C 34.0803887135198 44.2253930624552  40.094619286733 39.0535804848309  40.9649835846664 32.3776080876266  Z " stroke-width="2" stroke="#797979" fill="none" transform="matrix(1 0 0 1 332 352 )" mask="url(#clip197)" />
  </g>
</svg>