<?xml version="1.0" encoding="utf-8"?>
<svg version="1.1" xmlns:xlink="http://www.w3.org/1999/xlink" width="22px" height="34px" xmlns="http://www.w3.org/2000/svg">
  <defs>
    <mask fill="white" id="clip200">
      <path d="M 21.7578945704951 0.732707090751133  C 11.4118141329691 6.71786892064226  0.880848943789892 4.0054255950601  0.880848943789892 4.0054255950601  C 0.880848943789892 4.0054255950601  8.2266143616131 5.46036240838876  8.2266143616131 12.7403824291152  C 8.2266143616131 12.7403824291152  10.2045737949769 25.1051220282075  2.55974301877871 33.8525294217898  L 20.2116256617753 33.8525294217898  C 20.0368415022552 33.6052968826056  4.79416966108662 12.9880596311397  21.7578945704951 0.732707090751133  Z " fill-rule="evenodd" />
    </mask>
  </defs>
  <g transform="matrix(1 0 0 1 -345 -376 )">
    <path d="M 21.7578945704951 0.732707090751133  C 11.4118141329691 6.71786892064226  0.880848943789892 4.0054255950601  0.880848943789892 4.0054255950601  C 0.880848943789892 4.0054255950601  8.2266143616131 5.46036240838876  8.2266143616131 12.7403824291152  C 8.2266143616131 12.7403824291152  10.2045737949769 25.1051220282075  2.55974301877871 33.8525294217898  L 20.2116256617753 33.8525294217898  C 20.0368415022552 33.6052968826056  4.79416966108662 12.9880596311397  21.7578945704951 0.732707090751133  Z " fill-rule="nonzero" fill="#ede3da" stroke="none" transform="matrix(1 0 0 1 345 376 )" />
    <path d="M 21.7578945704951 0.732707090751133  C 11.4118141329691 6.71786892064226  0.880848943789892 4.0054255950601  0.880848943789892 4.0054255950601  C 0.880848943789892 4.0054255950601  8.2266143616131 5.46036240838876  8.2266143616131 12.7403824291152  C 8.2266143616131 12.7403824291152  10.2045737949769 25.1051220282075  2.55974301877871 33.8525294217898  L 20.2116256617753 33.8525294217898  C 20.0368415022552 33.6052968826056  4.79416966108662 12.9880596311397  21.7578945704951 0.732707090751133  Z " stroke-width="2" stroke="#797979" fill="none" transform="matrix(1 0 0 1 345 376 )" mask="url(#clip200)" />
  </g>
</svg>