<?xml version="1.0" encoding="utf-8"?>
<svg version="1.1" xmlns:xlink="http://www.w3.org/1999/xlink" width="23px" height="36px" xmlns="http://www.w3.org/2000/svg">
  <defs>
    <mask fill="white" id="clip201">
      <path d="M 21.3509012630523 35.3139978745007  L 20.0738191231723 35.3317477688184  L 1.0898709885152 35.3317477688184  L 2.05248037468838 34.1966647834796  C 9.35513961922746 25.5847801609532  7.5441952733321 13.2722701359451  7.52500414827924 13.1493862522075  L 7.51628090961886 13.0401561333297  C 7.51628090961886 6.87001979321817  2.05771431788461 5.11095975378976  0.936341988092443 4.81558330732429  C 0.789791578598023 4.78190402067028  0.71346324031968 4.76187849887603  0.71346324031968 4.76187849887603  L 1.00045779224625 3.43018129955714  C 1.00045779224625 3.43018129955714  1.08420088338594 3.44702094288414  1.23511291221054 3.48616173548202  C 1.82393152178635 3.62042375660268  3.92099809574227 4.04505584374026  6.8236557599845 4.04505584374026  C 10.4464167756413 4.04505584374026  15.8953878048491 3.37101498516498  21.2846046492333 0.157373862680114  L 21.9890061710592 1.30565548738332  C 17.7665224975011 4.44920728358824  15.2585913826412 8.42700411272258  14.5349987357625 13.1284504794226  C 13.0031980269994 23.0797694346883  19.8068880201646 33.1161968575797  20.5880540422018 34.2276133171616  L 21.3509012630523 35.3139978745007  Z M 8.82476670867622 12.9859961993861  C 8.97175328010367 13.9904581675668  10.4337680795837 25.2152182587499  3.93321062986683 34  L 18.8263959947376 34  C 16.8318274750412 30.8141721022294  11.8639430579534 21.8755073740602  13.2439594140259 12.9113556181529  C 13.7952680973621 9.33042822094132  15.2947928230818 6.14591513015721  17.717672361003 3.39968789137041  C 13.564538434795 5.01401802328568  9.65783600074274 5.40997720421782  6.82409192191754 5.40997720421782  C 6.21172056795869 5.40997720421782  5.63467833057439 5.39222730990018  5.09776299102786 5.36264415270409  C 6.97936557007234 6.77353318820941  8.80775639328848 9.13426913245655  8.82476670867622 12.9859961993861  Z " fill-rule="evenodd" />
    </mask>
  </defs>
  <g transform="matrix(1 0 0 1 -345 -376 )">
    <path d="M 21.3509012630523 35.3139978745007  L 20.0738191231723 35.3317477688184  L 1.0898709885152 35.3317477688184  L 2.05248037468838 34.1966647834796  C 9.35513961922746 25.5847801609532  7.5441952733321 13.2722701359451  7.52500414827924 13.1493862522075  L 7.51628090961886 13.0401561333297  C 7.51628090961886 6.87001979321817  2.05771431788461 5.11095975378976  0.936341988092443 4.81558330732429  C 0.789791578598023 4.78190402067028  0.71346324031968 4.76187849887603  0.71346324031968 4.76187849887603  L 1.00045779224625 3.43018129955714  C 1.00045779224625 3.43018129955714  1.08420088338594 3.44702094288414  1.23511291221054 3.48616173548202  C 1.82393152178635 3.62042375660268  3.92099809574227 4.04505584374026  6.8236557599845 4.04505584374026  C 10.4464167756413 4.04505584374026  15.8953878048491 3.37101498516498  21.2846046492333 0.157373862680114  L 21.9890061710592 1.30565548738332  C 17.7665224975011 4.44920728358824  15.2585913826412 8.42700411272258  14.5349987357625 13.1284504794226  C 13.0031980269994 23.0797694346883  19.8068880201646 33.1161968575797  20.5880540422018 34.2276133171616  L 21.3509012630523 35.3139978745007  Z M 8.82476670867622 12.9859961993861  C 8.97175328010367 13.9904581675668  10.4337680795837 25.2152182587499  3.93321062986683 34  L 18.8263959947376 34  C 16.8318274750412 30.8141721022294  11.8639430579534 21.8755073740602  13.2439594140259 12.9113556181529  C 13.7952680973621 9.33042822094132  15.2947928230818 6.14591513015721  17.717672361003 3.39968789137041  C 13.564538434795 5.01401802328568  9.65783600074274 5.40997720421782  6.82409192191754 5.40997720421782  C 6.21172056795869 5.40997720421782  5.63467833057439 5.39222730990018  5.09776299102786 5.36264415270409  C 6.97936557007234 6.77353318820941  8.80775639328848 9.13426913245655  8.82476670867622 12.9859961993861  Z " fill-rule="nonzero" fill="#ccccde" stroke="none" transform="matrix(1 0 0 1 345 376 )" />
    <path d="M 21.3509012630523 35.3139978745007  L 20.0738191231723 35.3317477688184  L 1.0898709885152 35.3317477688184  L 2.05248037468838 34.1966647834796  C 9.35513961922746 25.5847801609532  7.5441952733321 13.2722701359451  7.52500414827924 13.1493862522075  L 7.51628090961886 13.0401561333297  C 7.51628090961886 6.87001979321817  2.05771431788461 5.11095975378976  0.936341988092443 4.81558330732429  C 0.789791578598023 4.78190402067028  0.71346324031968 4.76187849887603  0.71346324031968 4.76187849887603  L 1.00045779224625 3.43018129955714  C 1.00045779224625 3.43018129955714  1.08420088338594 3.44702094288414  1.23511291221054 3.48616173548202  C 1.82393152178635 3.62042375660268  3.92099809574227 4.04505584374026  6.8236557599845 4.04505584374026  C 10.4464167756413 4.04505584374026  15.8953878048491 3.37101498516498  21.2846046492333 0.157373862680114  L 21.9890061710592 1.30565548738332  C 17.7665224975011 4.44920728358824  15.2585913826412 8.42700411272258  14.5349987357625 13.1284504794226  C 13.0031980269994 23.0797694346883  19.8068880201646 33.1161968575797  20.5880540422018 34.2276133171616  L 21.3509012630523 35.3139978745007  Z " stroke-width="2" stroke="#797979" fill="none" transform="matrix(1 0 0 1 345 376 )" mask="url(#clip201)" />
    <path d="M 8.82476670867622 12.9859961993861  C 8.97175328010367 13.9904581675668  10.4337680795837 25.2152182587499  3.93321062986683 34  L 18.8263959947376 34  C 16.8318274750412 30.8141721022294  11.8639430579534 21.8755073740602  13.2439594140259 12.9113556181529  C 13.7952680973621 9.33042822094132  15.2947928230818 6.14591513015721  17.717672361003 3.39968789137041  C 13.564538434795 5.01401802328568  9.65783600074274 5.40997720421782  6.82409192191754 5.40997720421782  C 6.21172056795869 5.40997720421782  5.63467833057439 5.39222730990018  5.09776299102786 5.36264415270409  C 6.97936557007234 6.77353318820941  8.80775639328848 9.13426913245655  8.82476670867622 12.9859961993861  Z " stroke-width="2" stroke="#797979" fill="none" transform="matrix(1 0 0 1 345 376 )" mask="url(#clip201)" />
  </g>
</svg>