<?xml version="1.0" encoding="utf-8"?>
<svg version="1.1" xmlns:xlink="http://www.w3.org/1999/xlink" width="11px" height="31px" xmlns="http://www.w3.org/2000/svg">
  <defs>
    <mask fill="white" id="clip202">
      <path d="M 10.3344937540962 30.8482182608772  C 10.3344937540962 30.8482182608772  -1.60386940075582 14.5723470538556  7.31907664132487 0.476118523480026  C 7.31907664132487 0.476118523480026  -4.44499030531774 15.2936188524553  4.59662549554379 30.8482182608772  L 10.3344937540962 30.8482182608772  Z " fill-rule="evenodd" />
    </mask>
  </defs>
  <g transform="matrix(1 0 0 1 -356 -379 )">
    <path d="M 10.3344937540962 30.8482182608772  C 10.3344937540962 30.8482182608772  -1.60386940075582 14.5723470538556  7.31907664132487 0.476118523480026  C 7.31907664132487 0.476118523480026  -4.44499030531774 15.2936188524553  4.59662549554379 30.8482182608772  L 10.3344937540962 30.8482182608772  Z " fill-rule="nonzero" fill="#6e6e96" stroke="none" transform="matrix(1 0 0 1 356 379 )" />
    <path d="M 10.3344937540962 30.8482182608772  C 10.3344937540962 30.8482182608772  -1.60386940075582 14.5723470538556  7.31907664132487 0.476118523480026  C 7.31907664132487 0.476118523480026  -4.44499030531774 15.2936188524553  4.59662549554379 30.8482182608772  L 10.3344937540962 30.8482182608772  Z " stroke-width="2" stroke="#797979" fill="none" transform="matrix(1 0 0 1 356 379 )" mask="url(#clip202)" />
  </g>
</svg>