<?xml version="1.0" encoding="utf-8"?>
<svg version="1.1" xmlns:xlink="http://www.w3.org/1999/xlink" width="41px" height="38px" xmlns="http://www.w3.org/2000/svg">
  <defs>
    <mask fill="white" id="clip203">
      <path d="M 34.0149897365363 27.2615924651446  C 37.7550160033277 25.3947482784641  40.3052358621281 21.6867318275738  40.3052358621281 17.4143834669343  C 40.3052358621281 11.2688855351478  35.0301904991424 6.28673103742539  28.5240198349831 6.28673103742539  C 28.4222776141355 6.28673103742539  28.3223125499839 6.29123488347287  28.2219031966583 6.29393719110136  C 26.1675100560497 3.03360303733057  22.400826438818 0.847886550488523  18.0921100292976 0.847886550488523  C 11.5859393651383 0.847886550488523  6.31044971297858 5.83049143281566  6.31044971297858 11.9755389799974  C 6.31044971297858 12.0557074396425  6.31578118306666 12.1349751300782  6.31711405058869 12.2137924359091  C 2.75835776679221 14.1283773906929  0.357419070458095 17.7404619207718  0.357419070458095 21.8867025920819  C 0.357419070458095 28.0326509084732  5.63202014426982 33.0143550215908  12.1390793867771 33.0143550215908  C 12.508727979551 33.0143550215908  12.8743779697588 32.9958892527961  13.2360293574005 32.9670646380923  C 15.3970518997708 35.4369738105303  18.6670202204627 37.0133199271483  22.3261858575848 37.0133199271483  C 28.3405284061182 37.0133199271483  33.2979070096889 32.7571854122797  34.0149897365363 27.2615924651446  Z " fill-rule="evenodd" />
    </mask>
  </defs>
  <g transform="matrix(1 0 0 1 -309 -356 )">
    <path d="M 34.0149897365363 27.2615924651446  C 37.7550160033277 25.3947482784641  40.3052358621281 21.6867318275738  40.3052358621281 17.4143834669343  C 40.3052358621281 11.2688855351478  35.0301904991424 6.28673103742539  28.5240198349831 6.28673103742539  C 28.4222776141355 6.28673103742539  28.3223125499839 6.29123488347287  28.2219031966583 6.29393719110136  C 26.1675100560497 3.03360303733057  22.400826438818 0.847886550488523  18.0921100292976 0.847886550488523  C 11.5859393651383 0.847886550488523  6.31044971297858 5.83049143281566  6.31044971297858 11.9755389799974  C 6.31044971297858 12.0557074396425  6.31578118306666 12.1349751300782  6.31711405058869 12.2137924359091  C 2.75835776679221 14.1283773906929  0.357419070458095 17.7404619207718  0.357419070458095 21.8867025920819  C 0.357419070458095 28.0326509084732  5.63202014426982 33.0143550215908  12.1390793867771 33.0143550215908  C 12.508727979551 33.0143550215908  12.8743779697588 32.9958892527961  13.2360293574005 32.9670646380923  C 15.3970518997708 35.4369738105303  18.6670202204627 37.0133199271483  22.3261858575848 37.0133199271483  C 28.3405284061182 37.0133199271483  33.2979070096889 32.7571854122797  34.0149897365363 27.2615924651446  Z " fill-rule="nonzero" fill="#d7f7e4" stroke="none" transform="matrix(1 0 0 1 309 356 )" />
    <path d="M 34.0149897365363 27.2615924651446  C 37.7550160033277 25.3947482784641  40.3052358621281 21.6867318275738  40.3052358621281 17.4143834669343  C 40.3052358621281 11.2688855351478  35.0301904991424 6.28673103742539  28.5240198349831 6.28673103742539  C 28.4222776141355 6.28673103742539  28.3223125499839 6.29123488347287  28.2219031966583 6.29393719110136  C 26.1675100560497 3.03360303733057  22.400826438818 0.847886550488523  18.0921100292976 0.847886550488523  C 11.5859393651383 0.847886550488523  6.31044971297858 5.83049143281566  6.31044971297858 11.9755389799974  C 6.31044971297858 12.0557074396425  6.31578118306666 12.1349751300782  6.31711405058869 12.2137924359091  C 2.75835776679221 14.1283773906929  0.357419070458095 17.7404619207718  0.357419070458095 21.8867025920819  C 0.357419070458095 28.0326509084732  5.63202014426982 33.0143550215908  12.1390793867771 33.0143550215908  C 12.508727979551 33.0143550215908  12.8743779697588 32.9958892527961  13.2360293574005 32.9670646380923  C 15.3970518997708 35.4369738105303  18.6670202204627 37.0133199271483  22.3261858575848 37.0133199271483  C 28.3405284061182 37.0133199271483  33.2979070096889 32.7571854122797  34.0149897365363 27.2615924651446  Z " stroke-width="2" stroke="#797979" fill="none" transform="matrix(1 0 0 1 309 356 )" mask="url(#clip203)" />
  </g>
</svg>