<?xml version="1.0" encoding="utf-8"?>
<svg version="1.1" xmlns:xlink="http://www.w3.org/1999/xlink" width="19px" height="29px" xmlns="http://www.w3.org/2000/svg">
  <defs>
    <mask fill="white" id="clip206">
      <path d="M 18.6057281563467 0.531969899295593  C 9.89528990052031 5.5974060414749  1.02901857145114 3.30230930755343  1.02901857145114 3.30230930755343  C 1.02901857145114 3.30230930755343  7.21324957924596 4.53418231489785  7.21324957924596 10.69354735162  C 7.21324957924596 10.69354735162  8.87832146299932 21.1530107618216  2.44142469194088 28.5566225302923  L 17.3041166486249 28.5566225302923  C 17.1563904982676 28.3481023597783  4.32223080136853 10.9029840943121  18.6057281563467 0.531969899295593  Z " fill-rule="evenodd" />
    </mask>
  </defs>
  <g transform="matrix(1 0 0 1 -319 -376 )">
    <path d="M 18.6057281563467 0.531969899295593  C 9.89528990052031 5.5974060414749  1.02901857145114 3.30230930755343  1.02901857145114 3.30230930755343  C 1.02901857145114 3.30230930755343  7.21324957924596 4.53418231489785  7.21324957924596 10.69354735162  C 7.21324957924596 10.69354735162  8.87832146299932 21.1530107618216  2.44142469194088 28.5566225302923  L 17.3041166486249 28.5566225302923  C 17.1563904982676 28.3481023597783  4.32223080136853 10.9029840943121  18.6057281563467 0.531969899295593  Z " fill-rule="nonzero" fill="#ede3da" stroke="none" transform="matrix(1 0 0 1 319 376 )" />
    <path d="M 18.6057281563467 0.531969899295593  C 9.89528990052031 5.5974060414749  1.02901857145114 3.30230930755343  1.02901857145114 3.30230930755343  C 1.02901857145114 3.30230930755343  7.21324957924596 4.53418231489785  7.21324957924596 10.69354735162  C 7.21324957924596 10.69354735162  8.87832146299932 21.1530107618216  2.44142469194088 28.5566225302923  L 17.3041166486249 28.5566225302923  C 17.1563904982676 28.3481023597783  4.32223080136853 10.9029840943121  18.6057281563467 0.531969899295593  Z " stroke-width="2" stroke="#797979" fill="none" transform="matrix(1 0 0 1 319 376 )" mask="url(#clip206)" />
  </g>
</svg>