<?xml version="1.0" encoding="utf-8"?>
<svg version="1.1" xmlns:xlink="http://www.w3.org/1999/xlink" width="8px" height="26px" xmlns="http://www.w3.org/2000/svg">
  <defs>
    <mask fill="white" id="clip208">
      <path d="M 7.51116225754436 25.5663518164615  C 7.51116225754436 25.5663518164615  -1.65376485972891 12.3207172967442  5.19609057132811 0.8500722087917  C 5.19609057132811 0.8500722087917  -3.83489961446401 12.9070016848119  3.10641436851055 25.5663518164615  L 7.51116225754436 25.5663518164615  Z " fill-rule="evenodd" />
    </mask>
  </defs>
  <g transform="matrix(1 0 0 1 -329 -378 )">
    <path d="M 7.51116225754436 25.5663518164615  C 7.51116225754436 25.5663518164615  -1.65376485972891 12.3207172967442  5.19609057132811 0.8500722087917  C 5.19609057132811 0.8500722087917  -3.83489961446401 12.9070016848119  3.10641436851055 25.5663518164615  L 7.51116225754436 25.5663518164615  Z " fill-rule="nonzero" fill="#6e6e96" stroke="none" transform="matrix(1 0 0 1 329 378 )" />
    <path d="M 7.51116225754436 25.5663518164615  C 7.51116225754436 25.5663518164615  -1.65376485972891 12.3207172967442  5.19609057132811 0.8500722087917  C 5.19609057132811 0.8500722087917  -3.83489961446401 12.9070016848119  3.10641436851055 25.5663518164615  L 7.51116225754436 25.5663518164615  Z " stroke-width="2" stroke="#797979" fill="none" transform="matrix(1 0 0 1 329 378 )" mask="url(#clip208)" />
  </g>
</svg>