<?xml version="1.0" encoding="utf-8"?>
<svg version="1.1" xmlns:xlink="http://www.w3.org/1999/xlink" width="39px" height="36px" xmlns="http://www.w3.org/2000/svg">
  <defs>
    <mask fill="white" id="clip210">
      <path d="M 32.7795505635734 26.0337377576378  C 31.9099850338704 31.275873212783  27.1264781611953 35.1854012176187  21.4985066194685 35.1854012176187  C 18.2022257403781 35.1854012176187  15.0973389237532 33.8486976378513  12.9252180181138 31.5061667134171  C 12.676450559874 31.5220961057535  12.437544154033 31.5302883646693  12.2017753557733 31.5302883646693  C 5.90325225093533 31.5302883646693  0.779090840850807 26.659990439204  0.779090840850807 20.6737247992035  C 0.779090840850807 16.9089267018809  2.85080830388533 13.4035501368932  6.21387540149415 11.4301259891671  C 6.31607176271698 5.5285136912969  11.3998925038978 0.756977998316975  17.6347669977987 0.756977998316975  C 21.498058389814 0.756977998316975  25.1403725621676 2.653030811838  27.2358461968899 5.72922403473493  C 33.49761447006 5.77155070580008  38.5774011443504 10.6245538624431  38.5774011443504 16.5835119727241  C 38.5774011443504 20.5117001228681  36.3649395698073 24.1017300299861  32.7795505635734 26.0337377576378  Z M 13.1408164819216 30.1189442036687  L 13.4787816414041 30.0889059209773  L 13.7037929279561 30.3469620768262  C 15.6284910643192 32.5538656036537  18.4693706144518 33.8195696061505  21.4985066194685 33.8195696061505  C 26.5818791309948 33.8195696061505  30.881297976825 30.2409178364156  31.4994066703612 25.4953242966692  L 31.5464707840823 25.1334995278863  L 31.8687479056577 24.9723851025415  C 35.1771309854193 23.3161834250564  37.2327121808923 20.1016320515809  37.2327121808923 16.5826017217334  C 37.2327121808923 11.3504790274853  32.710971426437 7.09323514422186  27.15292371081 7.09323514422186  C 27.0874821812551 7.09323514422186  27.0220406517001 7.09551077169848  26.9561508924906 7.09733127367977  L 26.5186787497122 7.11007478754885  L 26.3133895679576 6.78420493289665  C 24.5020935341795 3.90826692794242  21.1766777275475 2.12144423329923  17.6352152274532 2.12144423329923  C 12.0785122007897 2.12144423329923  7.55721967598888 6.37868811656269  7.55721967598888 11.6108108108108  L 7.56797718769656 12.2366083668817  L 7.2062558565263 12.4318572043758  C 4.07133765305089 14.1235586704963  2.12377980430899 17.2812193570562  2.12377980430899 20.6728145482129  C 2.12377980430899 25.906302618947  6.64507232910978 30.1640016277058  12.2017753557733 30.1640016277058  C 12.5016409946245 30.1640016277058  12.8086783079475 30.1494376118554  13.1408164819216 30.1189442036687  Z " fill-rule="evenodd" />
    </mask>
  </defs>
  <g transform="matrix(1 0 0 1 -359 -368 )">
    <path d="M 32.7795505635734 26.0337377576378  C 31.9099850338704 31.275873212783  27.1264781611953 35.1854012176187  21.4985066194685 35.1854012176187  C 18.2022257403781 35.1854012176187  15.0973389237532 33.8486976378513  12.9252180181138 31.5061667134171  C 12.676450559874 31.5220961057535  12.437544154033 31.5302883646693  12.2017753557733 31.5302883646693  C 5.90325225093533 31.5302883646693  0.779090840850807 26.659990439204  0.779090840850807 20.6737247992035  C 0.779090840850807 16.9089267018809  2.85080830388533 13.4035501368932  6.21387540149415 11.4301259891671  C 6.31607176271698 5.5285136912969  11.3998925038978 0.756977998316975  17.6347669977987 0.756977998316975  C 21.498058389814 0.756977998316975  25.1403725621676 2.653030811838  27.2358461968899 5.72922403473493  C 33.49761447006 5.77155070580008  38.5774011443504 10.6245538624431  38.5774011443504 16.5835119727241  C 38.5774011443504 20.5117001228681  36.3649395698073 24.1017300299861  32.7795505635734 26.0337377576378  Z M 13.1408164819216 30.1189442036687  L 13.4787816414041 30.0889059209773  L 13.7037929279561 30.3469620768262  C 15.6284910643192 32.5538656036537  18.4693706144518 33.8195696061505  21.4985066194685 33.8195696061505  C 26.5818791309948 33.8195696061505  30.881297976825 30.2409178364156  31.4994066703612 25.4953242966692  L 31.5464707840823 25.1334995278863  L 31.8687479056577 24.9723851025415  C 35.1771309854193 23.3161834250564  37.2327121808923 20.1016320515809  37.2327121808923 16.5826017217334  C 37.2327121808923 11.3504790274853  32.710971426437 7.09323514422186  27.15292371081 7.09323514422186  C 27.0874821812551 7.09323514422186  27.0220406517001 7.09551077169848  26.9561508924906 7.09733127367977  L 26.5186787497122 7.11007478754885  L 26.3133895679576 6.78420493289665  C 24.5020935341795 3.90826692794242  21.1766777275475 2.12144423329923  17.6352152274532 2.12144423329923  C 12.0785122007897 2.12144423329923  7.55721967598888 6.37868811656269  7.55721967598888 11.6108108108108  L 7.56797718769656 12.2366083668817  L 7.2062558565263 12.4318572043758  C 4.07133765305089 14.1235586704963  2.12377980430899 17.2812193570562  2.12377980430899 20.6728145482129  C 2.12377980430899 25.906302618947  6.64507232910978 30.1640016277058  12.2017753557733 30.1640016277058  C 12.5016409946245 30.1640016277058  12.8086783079475 30.1494376118554  13.1408164819216 30.1189442036687  Z " fill-rule="nonzero" fill="#ccccde" stroke="none" transform="matrix(1 0 0 1 359 368 )" />
    <path d="M 32.7795505635734 26.0337377576378  C 31.9099850338704 31.275873212783  27.1264781611953 35.1854012176187  21.4985066194685 35.1854012176187  C 18.2022257403781 35.1854012176187  15.0973389237532 33.8486976378513  12.9252180181138 31.5061667134171  C 12.676450559874 31.5220961057535  12.437544154033 31.5302883646693  12.2017753557733 31.5302883646693  C 5.90325225093533 31.5302883646693  0.779090840850807 26.659990439204  0.779090840850807 20.6737247992035  C 0.779090840850807 16.9089267018809  2.85080830388533 13.4035501368932  6.21387540149415 11.4301259891671  C 6.31607176271698 5.5285136912969  11.3998925038978 0.756977998316975  17.6347669977987 0.756977998316975  C 21.498058389814 0.756977998316975  25.1403725621676 2.653030811838  27.2358461968899 5.72922403473493  C 33.49761447006 5.77155070580008  38.5774011443504 10.6245538624431  38.5774011443504 16.5835119727241  C 38.5774011443504 20.5117001228681  36.3649395698073 24.1017300299861  32.7795505635734 26.0337377576378  Z " stroke-width="2" stroke="#797979" fill="none" transform="matrix(1 0 0 1 359 368 )" mask="url(#clip210)" />
    <path d="M 13.1408164819216 30.1189442036687  L 13.4787816414041 30.0889059209773  L 13.7037929279561 30.3469620768262  C 15.6284910643192 32.5538656036537  18.4693706144518 33.8195696061505  21.4985066194685 33.8195696061505  C 26.5818791309948 33.8195696061505  30.881297976825 30.2409178364156  31.4994066703612 25.4953242966692  L 31.5464707840823 25.1334995278863  L 31.8687479056577 24.9723851025415  C 35.1771309854193 23.3161834250564  37.2327121808923 20.1016320515809  37.2327121808923 16.5826017217334  C 37.2327121808923 11.3504790274853  32.710971426437 7.09323514422186  27.15292371081 7.09323514422186  C 27.0874821812551 7.09323514422186  27.0220406517001 7.09551077169848  26.9561508924906 7.09733127367977  L 26.5186787497122 7.11007478754885  L 26.3133895679576 6.78420493289665  C 24.5020935341795 3.90826692794242  21.1766777275475 2.12144423329923  17.6352152274532 2.12144423329923  C 12.0785122007897 2.12144423329923  7.55721967598888 6.37868811656269  7.55721967598888 11.6108108108108  L 7.56797718769656 12.2366083668817  L 7.2062558565263 12.4318572043758  C 4.07133765305089 14.1235586704963  2.12377980430899 17.2812193570562  2.12377980430899 20.6728145482129  C 2.12377980430899 25.906302618947  6.64507232910978 30.1640016277058  12.2017753557733 30.1640016277058  C 12.5016409946245 30.1640016277058  12.8086783079475 30.1494376118554  13.1408164819216 30.1189442036687  Z " stroke-width="2" stroke="#797979" fill="none" transform="matrix(1 0 0 1 359 368 )" mask="url(#clip210)" />
  </g>
</svg>