<?xml version="1.0" encoding="utf-8"?>
<svg version="1.1" xmlns:xlink="http://www.w3.org/1999/xlink" width="36px" height="33px" xmlns="http://www.w3.org/2000/svg">
  <defs>
    <mask fill="white" id="clip211">
      <path d="M 35.9096286850388 14.7498668035505  C 35.9069860208724 9.23033235900507  31.1774980510734 4.75722082786109  25.3420551276364 4.75722082786109  C 25.2513236579234 4.75722082786109  25.1619135202935 4.76213780865879  25.0716224946082 4.76437279993047  C 23.5943732255911 2.41718496641022  21.1300888904239 0.691771704671867  18.2191943111352 0.0986050211675119  C 20.5222761321521 0.685066730856832  22.461991630289 2.10652117964645  23.6538331693351 4.00000578501529  C 23.7309108741884 3.99821779199795  24.789738316859 5.85460154225687  24.8681373537955 5.85460154225687  C 29.8751050610664 5.85460154225687  32.2037326356918 8.59157185355841  32.2037326356918 13.3275183582522  C 32.2037326356918 16.6183195066765  30.9894284512313 18.716082314277  28.1115671740227 20.1536287002228  C 27.5601312513007 24.3880431635511  23.7445646390481 27.66901035038  19.1163787956277 27.66901035038  C 16.2992987942463 27.66901035038  13.7843633958897 26.4531750985851  12.1203658591137 24.5494095333666  C 11.8424456776141 24.5739944373551  11.5605614998649 24.5878513832395  11.276475101977 24.5878513832395  C 6.26950739470605 24.5878513832395  2.33590178302092 22.1789777906208  2.33590178302092 17.4452662771987  C 2.33590178302092 14.2559337325088  3.74003734343433 12.6865228615338  6.30077892067511 10.791697261402  C 6.23206965234873 10.3813528639212  5.94622147834988 6.7745239496811  6.89669969019812 5.81124271158623  C 9.15001133608113 3.52439964240141  10.1714010363944 1.55850131983007  12.1868729073015 0.543815282486535  C 8.23168553825743 1.98717264573866  5.42297397340285 5.61545747618691  5.42297397340285 9.86551687841704  C 5.42297397340285 9.93614260260218  5.42914018979113 10.0067683267873  5.43090196590206 10.0796290422442  C 2.23944454094736 11.7992313266762  0.0843519132488565 15.0430976583951  0.0843519132488565 18.7643581257454  C 0.0843519132488565 24.2821045772734  4.81383988304786 28.7552161084174  10.6497232505126 28.7552161084174  C 10.9818180474235 28.7552161084174  11.3086275160015 28.74001816777  11.6323538763854 28.7100692847294  C 13.5707480424391 30.9303096140181  16.5036648231145 32.3455060872471  19.784532385699 32.3455060872471  C 25.1777695052919 32.3455060872471  29.623171077203 28.5218830196538  30.2666598017212 23.5874692900347  C 33.6206410729094 21.9148018223081  35.9096286850388 18.5855588240108  35.9096286850388 14.7498668035505  Z " fill-rule="evenodd" />
    </mask>
  </defs>
  <g transform="matrix(1 0 0 1 -360 -369 )">
    <path d="M 35.9096286850388 14.7498668035505  C 35.9069860208724 9.23033235900507  31.1774980510734 4.75722082786109  25.3420551276364 4.75722082786109  C 25.2513236579234 4.75722082786109  25.1619135202935 4.76213780865879  25.0716224946082 4.76437279993047  C 23.5943732255911 2.41718496641022  21.1300888904239 0.691771704671867  18.2191943111352 0.0986050211675119  C 20.5222761321521 0.685066730856832  22.461991630289 2.10652117964645  23.6538331693351 4.00000578501529  C 23.7309108741884 3.99821779199795  24.789738316859 5.85460154225687  24.8681373537955 5.85460154225687  C 29.8751050610664 5.85460154225687  32.2037326356918 8.59157185355841  32.2037326356918 13.3275183582522  C 32.2037326356918 16.6183195066765  30.9894284512313 18.716082314277  28.1115671740227 20.1536287002228  C 27.5601312513007 24.3880431635511  23.7445646390481 27.66901035038  19.1163787956277 27.66901035038  C 16.2992987942463 27.66901035038  13.7843633958897 26.4531750985851  12.1203658591137 24.5494095333666  C 11.8424456776141 24.5739944373551  11.5605614998649 24.5878513832395  11.276475101977 24.5878513832395  C 6.26950739470605 24.5878513832395  2.33590178302092 22.1789777906208  2.33590178302092 17.4452662771987  C 2.33590178302092 14.2559337325088  3.74003734343433 12.6865228615338  6.30077892067511 10.791697261402  C 6.23206965234873 10.3813528639212  5.94622147834988 6.7745239496811  6.89669969019812 5.81124271158623  C 9.15001133608113 3.52439964240141  10.1714010363944 1.55850131983007  12.1868729073015 0.543815282486535  C 8.23168553825743 1.98717264573866  5.42297397340285 5.61545747618691  5.42297397340285 9.86551687841704  C 5.42297397340285 9.93614260260218  5.42914018979113 10.0067683267873  5.43090196590206 10.0796290422442  C 2.23944454094736 11.7992313266762  0.0843519132488565 15.0430976583951  0.0843519132488565 18.7643581257454  C 0.0843519132488565 24.2821045772734  4.81383988304786 28.7552161084174  10.6497232505126 28.7552161084174  C 10.9818180474235 28.7552161084174  11.3086275160015 28.74001816777  11.6323538763854 28.7100692847294  C 13.5707480424391 30.9303096140181  16.5036648231145 32.3455060872471  19.784532385699 32.3455060872471  C 25.1777695052919 32.3455060872471  29.623171077203 28.5218830196538  30.2666598017212 23.5874692900347  C 33.6206410729094 21.9148018223081  35.9096286850388 18.5855588240108  35.9096286850388 14.7498668035505  Z " fill-rule="nonzero" fill="#6e6e96" stroke="none" transform="matrix(1 0 0 1 360 369 )" />
    <path d="M 35.9096286850388 14.7498668035505  C 35.9069860208724 9.23033235900507  31.1774980510734 4.75722082786109  25.3420551276364 4.75722082786109  C 25.2513236579234 4.75722082786109  25.1619135202935 4.76213780865879  25.0716224946082 4.76437279993047  C 23.5943732255911 2.41718496641022  21.1300888904239 0.691771704671867  18.2191943111352 0.0986050211675119  C 20.5222761321521 0.685066730856832  22.461991630289 2.10652117964645  23.6538331693351 4.00000578501529  C 23.7309108741884 3.99821779199795  24.789738316859 5.85460154225687  24.8681373537955 5.85460154225687  C 29.8751050610664 5.85460154225687  32.2037326356918 8.59157185355841  32.2037326356918 13.3275183582522  C 32.2037326356918 16.6183195066765  30.9894284512313 18.716082314277  28.1115671740227 20.1536287002228  C 27.5601312513007 24.3880431635511  23.7445646390481 27.66901035038  19.1163787956277 27.66901035038  C 16.2992987942463 27.66901035038  13.7843633958897 26.4531750985851  12.1203658591137 24.5494095333666  C 11.8424456776141 24.5739944373551  11.5605614998649 24.5878513832395  11.276475101977 24.5878513832395  C 6.26950739470605 24.5878513832395  2.33590178302092 22.1789777906208  2.33590178302092 17.4452662771987  C 2.33590178302092 14.2559337325088  3.74003734343433 12.6865228615338  6.30077892067511 10.791697261402  C 6.23206965234873 10.3813528639212  5.94622147834988 6.7745239496811  6.89669969019812 5.81124271158623  C 9.15001133608113 3.52439964240141  10.1714010363944 1.55850131983007  12.1868729073015 0.543815282486535  C 8.23168553825743 1.98717264573866  5.42297397340285 5.61545747618691  5.42297397340285 9.86551687841704  C 5.42297397340285 9.93614260260218  5.42914018979113 10.0067683267873  5.43090196590206 10.0796290422442  C 2.23944454094736 11.7992313266762  0.0843519132488565 15.0430976583951  0.0843519132488565 18.7643581257454  C 0.0843519132488565 24.2821045772734  4.81383988304786 28.7552161084174  10.6497232505126 28.7552161084174  C 10.9818180474235 28.7552161084174  11.3086275160015 28.74001816777  11.6323538763854 28.7100692847294  C 13.5707480424391 30.9303096140181  16.5036648231145 32.3455060872471  19.784532385699 32.3455060872471  C 25.1777695052919 32.3455060872471  29.623171077203 28.5218830196538  30.2666598017212 23.5874692900347  C 33.6206410729094 21.9148018223081  35.9096286850388 18.5855588240108  35.9096286850388 14.7498668035505  Z " stroke-width="2" stroke="#797979" fill="none" transform="matrix(1 0 0 1 360 369 )" mask="url(#clip211)" />
  </g>
</svg>