<?xml version="1.0" encoding="utf-8"?>
<svg version="1.1" xmlns:xlink="http://www.w3.org/1999/xlink" width="8px" height="24px" xmlns="http://www.w3.org/2000/svg">
  <defs>
    <mask fill="white" id="clip214">
      <path d="M 7.16800305223051 23.1707992746438  C 7.16800305223051 23.1707992746438  -1.12264966116741 11.0057499101206  5.07399232088604 0.469139567867825  C 5.07399232088604 0.469139567867825  -3.09529359375873 11.5441633710893  3.18370443030582 23.1707992746438  L 7.16800305223051 23.1707992746438  Z " fill-rule="evenodd" />
    </mask>
  </defs>
  <g transform="matrix(1 0 0 1 -378 -389 )">
    <path d="M 7.16800305223051 23.1707992746438  C 7.16800305223051 23.1707992746438  -1.12264966116741 11.0057499101206  5.07399232088604 0.469139567867825  C 5.07399232088604 0.469139567867825  -3.09529359375873 11.5441633710893  3.18370443030582 23.1707992746438  L 7.16800305223051 23.1707992746438  Z " fill-rule="nonzero" fill="#6e6e96" stroke="none" transform="matrix(1 0 0 1 378 389 )" />
    <path d="M 7.16800305223051 23.1707992746438  C 7.16800305223051 23.1707992746438  -1.12264966116741 11.0057499101206  5.07399232088604 0.469139567867825  C 5.07399232088604 0.469139567867825  -3.09529359375873 11.5441633710893  3.18370443030582 23.1707992746438  L 7.16800305223051 23.1707992746438  Z " stroke-width="2" stroke="#797979" fill="none" transform="matrix(1 0 0 1 378 389 )" mask="url(#clip214)" />
  </g>
</svg>