<?xml version="1.0" encoding="utf-8"?>
<svg version="1.1" xmlns:xlink="http://www.w3.org/1999/xlink" width="39px" height="36px" xmlns="http://www.w3.org/2000/svg">
  <defs>
    <mask fill="white" id="clip215">
      <path d="M 32.6329934737331 26.501440835661  C 36.2587231488708 24.6877657367937  38.7307096933613 21.0886333197691  38.7307096933613 16.9401644298882  C 38.7307096933613 10.9730140606913  33.6173057949845 6.13639542188001  27.3102663267113 6.13639542188001  C 27.2116558027244 6.13639542188001  27.1148381973554 6.1400364258426  27.0175723623319 6.14276717881455  C 25.0260880074504 2.97782448432939  21.374809242007 0.857394801613495  17.198205321506 0.857394801613495  C 10.8911658532328 0.857394801613495  5.77731372520146 5.69492369141544  5.77731372520146 11.660253558631  C 5.77731372520146 11.7376248928361  5.7822442514008 11.81317572506  5.78403717001875 11.8910021847604  C 2.33490997874859 13.7506449586555  0.00680515334804904 17.2592074021105  0.00680515334804904 21.2852475337492  C 0.00680515334804904 27.2501222754695  5.11976082207042 32.0881062907667  11.4272485199981 32.0881062907667  C 11.785832243587 32.0881062907667  12.1399336706309 32.0694461454584  12.490449260439 32.040773239253  C 14.5854746655068 34.4397397251074  17.7549065523777 35.9726023933596  21.3021960379803 35.9726023933596  C 27.1323191538803 35.9726023933596  31.9382375092798 31.8391526448243  32.6329934737331 26.501440835661  Z " fill-rule="evenodd" />
    </mask>
  </defs>
  <g transform="matrix(1 0 0 1 -286 -366 )">
    <path d="M 32.6329934737331 26.501440835661  C 36.2587231488708 24.6877657367937  38.7307096933613 21.0886333197691  38.7307096933613 16.9401644298882  C 38.7307096933613 10.9730140606913  33.6173057949845 6.13639542188001  27.3102663267113 6.13639542188001  C 27.2116558027244 6.13639542188001  27.1148381973554 6.1400364258426  27.0175723623319 6.14276717881455  C 25.0260880074504 2.97782448432939  21.374809242007 0.857394801613495  17.198205321506 0.857394801613495  C 10.8911658532328 0.857394801613495  5.77731372520146 5.69492369141544  5.77731372520146 11.660253558631  C 5.77731372520146 11.7376248928361  5.7822442514008 11.81317572506  5.78403717001875 11.8910021847604  C 2.33490997874859 13.7506449586555  0.00680515334804904 17.2592074021105  0.00680515334804904 21.2852475337492  C 0.00680515334804904 27.2501222754695  5.11976082207042 32.0881062907667  11.4272485199981 32.0881062907667  C 11.785832243587 32.0881062907667  12.1399336706309 32.0694461454584  12.490449260439 32.040773239253  C 14.5854746655068 34.4397397251074  17.7549065523777 35.9726023933596  21.3021960379803 35.9726023933596  C 27.1323191538803 35.9726023933596  31.9382375092798 31.8391526448243  32.6329934737331 26.501440835661  Z " fill-rule="nonzero" fill="#d7f7e4" stroke="none" transform="matrix(1 0 0 1 286 366 )" />
    <path d="M 32.6329934737331 26.501440835661  C 36.2587231488708 24.6877657367937  38.7307096933613 21.0886333197691  38.7307096933613 16.9401644298882  C 38.7307096933613 10.9730140606913  33.6173057949845 6.13639542188001  27.3102663267113 6.13639542188001  C 27.2116558027244 6.13639542188001  27.1148381973554 6.1400364258426  27.0175723623319 6.14276717881455  C 25.0260880074504 2.97782448432939  21.374809242007 0.857394801613495  17.198205321506 0.857394801613495  C 10.8911658532328 0.857394801613495  5.77731372520146 5.69492369141544  5.77731372520146 11.660253558631  C 5.77731372520146 11.7376248928361  5.7822442514008 11.81317572506  5.78403717001875 11.8910021847604  C 2.33490997874859 13.7506449586555  0.00680515334804904 17.2592074021105  0.00680515334804904 21.2852475337492  C 0.00680515334804904 27.2501222754695  5.11976082207042 32.0881062907667  11.4272485199981 32.0881062907667  C 11.785832243587 32.0881062907667  12.1399336706309 32.0694461454584  12.490449260439 32.040773239253  C 14.5854746655068 34.4397397251074  17.7549065523777 35.9726023933596  21.3021960379803 35.9726023933596  C 27.1323191538803 35.9726023933596  31.9382375092798 31.8391526448243  32.6329934737331 26.501440835661  Z " stroke-width="2" stroke="#797979" fill="none" transform="matrix(1 0 0 1 286 366 )" mask="url(#clip215)" />
  </g>
</svg>