<?xml version="1.0" encoding="utf-8"?>
<svg version="1.1" xmlns:xlink="http://www.w3.org/1999/xlink" width="40px" height="36px" xmlns="http://www.w3.org/2000/svg">
  <defs>
    <mask fill="white" id="clip217">
      <path d="M 39.5414001755524 16.5505770058906  C 39.5414001755524 10.5834266366937  34.4511338513763 5.74680799788241  28.1721868217651 5.74680799788241  C 28.0744687007101 5.74680799788241  27.9780891840532 5.75135925283565  27.8812634659303 5.75363488031227  C 26.2918938440233 3.21539999288866  23.6396723300943 1.34893033656372  20.5077842402107 0.708568764642436  C 22.9855409809321 1.34255857962918  25.0728714388998 2.87997250283465  26.3557006536619 4.92758210629867  C 26.4386941263387 4.92576160431738  27.5778464690474 6.93286503869752  27.6621785461222 6.93286503869752  C 33.0505074495891 6.93286503869752  35.5563748826688 9.8939115112774  35.5563748826688 15.0149835846664  C 35.5563748826688 18.5740649581024  34.2494507887424 20.8433206777893  31.1523664132072 22.3980293698171  C 30.5589184634216 26.9779572292655  26.4534187747168 30.5238399633371  21.4729180111778 30.5238399633371  C 18.4423176540772 30.5238399633371  15.7352133598296 29.2103477838312  13.9450530782207 27.1504497919934  C 13.6460980959979 27.1768470707222  13.3435735020471 27.1923213375633  13.0370330949022 27.1923213375633  C 7.64870419143529 27.1923213375633  3.41648328638534 24.5876381278223  3.41648328638534 19.4665660544333  C 3.41648328638534 16.0194455528471  4.92955245760562 14.3200069533062  7.68261550285161 12.2723973498422  C 7.60899226096092 11.828649991901  7.30334425674804 7.92640399499048  8.32380700949967 6.88553198718381  C 10.7489119772326 4.41238004559158  11.8470137850689 2.28739910792243  14.0164453127814 1.18918128770491  C 9.75923712563522 2.75026173666726  6.73756079785469 6.673898631858  6.73756079785469 11.2683905071568  C 6.73756079785469 11.3457618413619  6.74202281251474 11.4222229245764  6.74380761837875 11.4995942587815  C 3.30984113601033 13.358326781686  0.992716923050458 16.8664340996456  0.992716923050458 20.893384482275  C 0.992716923050458 26.8578040984999  6.08253704576051 31.6953329883019  12.3614840753718 31.6953329883019  C 12.7188914496412 31.6953329883019  13.0713906077845 31.6775830939842  13.4203201541998 31.6479999367882  C 15.5058658063035 34.0469664226425  18.6609563724193 35.5798290908948  22.1921947743766 35.5798290908948  C 27.9954910412274 35.5798290908948  32.7796631597245 31.4468344678548  33.4712754320311 26.1091226586915  C 37.0805990905392 24.2981783127961  39.5414001755524 20.6963151427996  39.5414001755524 16.5505770058906  Z " fill-rule="evenodd" />
    </mask>
  </defs>
  <g transform="matrix(1 0 0 1 -284 -366 )">
    <path d="M 39.5414001755524 16.5505770058906  C 39.5414001755524 10.5834266366937  34.4511338513763 5.74680799788241  28.1721868217651 5.74680799788241  C 28.0744687007101 5.74680799788241  27.9780891840532 5.75135925283565  27.8812634659303 5.75363488031227  C 26.2918938440233 3.21539999288866  23.6396723300943 1.34893033656372  20.5077842402107 0.708568764642436  C 22.9855409809321 1.34255857962918  25.0728714388998 2.87997250283465  26.3557006536619 4.92758210629867  C 26.4386941263387 4.92576160431738  27.5778464690474 6.93286503869752  27.6621785461222 6.93286503869752  C 33.0505074495891 6.93286503869752  35.5563748826688 9.8939115112774  35.5563748826688 15.0149835846664  C 35.5563748826688 18.5740649581024  34.2494507887424 20.8433206777893  31.1523664132072 22.3980293698171  C 30.5589184634216 26.9779572292655  26.4534187747168 30.5238399633371  21.4729180111778 30.5238399633371  C 18.4423176540772 30.5238399633371  15.7352133598296 29.2103477838312  13.9450530782207 27.1504497919934  C 13.6460980959979 27.1768470707222  13.3435735020471 27.1923213375633  13.0370330949022 27.1923213375633  C 7.64870419143529 27.1923213375633  3.41648328638534 24.5876381278223  3.41648328638534 19.4665660544333  C 3.41648328638534 16.0194455528471  4.92955245760562 14.3200069533062  7.68261550285161 12.2723973498422  C 7.60899226096092 11.828649991901  7.30334425674804 7.92640399499048  8.32380700949967 6.88553198718381  C 10.7489119772326 4.41238004559158  11.8470137850689 2.28739910792243  14.0164453127814 1.18918128770491  C 9.75923712563522 2.75026173666726  6.73756079785469 6.673898631858  6.73756079785469 11.2683905071568  C 6.73756079785469 11.3457618413619  6.74202281251474 11.4222229245764  6.74380761837875 11.4995942587815  C 3.30984113601033 13.358326781686  0.992716923050458 16.8664340996456  0.992716923050458 20.893384482275  C 0.992716923050458 26.8578040984999  6.08253704576051 31.6953329883019  12.3614840753718 31.6953329883019  C 12.7188914496412 31.6953329883019  13.0713906077845 31.6775830939842  13.4203201541998 31.6479999367882  C 15.5058658063035 34.0469664226425  18.6609563724193 35.5798290908948  22.1921947743766 35.5798290908948  C 27.9954910412274 35.5798290908948  32.7796631597245 31.4468344678548  33.4712754320311 26.1091226586915  C 37.0805990905392 24.2981783127961  39.5414001755524 20.6963151427996  39.5414001755524 16.5505770058906  Z " fill-rule="nonzero" fill="#6e6e96" stroke="none" transform="matrix(1 0 0 1 284 366 )" />
    <path d="M 39.5414001755524 16.5505770058906  C 39.5414001755524 10.5834266366937  34.4511338513763 5.74680799788241  28.1721868217651 5.74680799788241  C 28.0744687007101 5.74680799788241  27.9780891840532 5.75135925283565  27.8812634659303 5.75363488031227  C 26.2918938440233 3.21539999288866  23.6396723300943 1.34893033656372  20.5077842402107 0.708568764642436  C 22.9855409809321 1.34255857962918  25.0728714388998 2.87997250283465  26.3557006536619 4.92758210629867  C 26.4386941263387 4.92576160431738  27.5778464690474 6.93286503869752  27.6621785461222 6.93286503869752  C 33.0505074495891 6.93286503869752  35.5563748826688 9.8939115112774  35.5563748826688 15.0149835846664  C 35.5563748826688 18.5740649581024  34.2494507887424 20.8433206777893  31.1523664132072 22.3980293698171  C 30.5589184634216 26.9779572292655  26.4534187747168 30.5238399633371  21.4729180111778 30.5238399633371  C 18.4423176540772 30.5238399633371  15.7352133598296 29.2103477838312  13.9450530782207 27.1504497919934  C 13.6460980959979 27.1768470707222  13.3435735020471 27.1923213375633  13.0370330949022 27.1923213375633  C 7.64870419143529 27.1923213375633  3.41648328638534 24.5876381278223  3.41648328638534 19.4665660544333  C 3.41648328638534 16.0194455528471  4.92955245760562 14.3200069533062  7.68261550285161 12.2723973498422  C 7.60899226096092 11.828649991901  7.30334425674804 7.92640399499048  8.32380700949967 6.88553198718381  C 10.7489119772326 4.41238004559158  11.8470137850689 2.28739910792243  14.0164453127814 1.18918128770491  C 9.75923712563522 2.75026173666726  6.73756079785469 6.673898631858  6.73756079785469 11.2683905071568  C 6.73756079785469 11.3457618413619  6.74202281251474 11.4222229245764  6.74380761837875 11.4995942587815  C 3.30984113601033 13.358326781686  0.992716923050458 16.8664340996456  0.992716923050458 20.893384482275  C 0.992716923050458 26.8578040984999  6.08253704576051 31.6953329883019  12.3614840753718 31.6953329883019  C 12.7188914496412 31.6953329883019  13.0713906077845 31.6775830939842  13.4203201541998 31.6479999367882  C 15.5058658063035 34.0469664226425  18.6609563724193 35.5798290908948  22.1921947743766 35.5798290908948  C 27.9954910412274 35.5798290908948  32.7796631597245 31.4468344678548  33.4712754320311 26.1091226586915  C 37.0805990905392 24.2981783127961  39.5414001755524 20.6963151427996  39.5414001755524 16.5505770058906  Z " stroke-width="2" stroke="#797979" fill="none" transform="matrix(1 0 0 1 284 366 )" mask="url(#clip217)" />
  </g>
</svg>