<?xml version="1.0" encoding="utf-8"?>
<svg version="1.1" xmlns:xlink="http://www.w3.org/1999/xlink" width="8px" height="26px" xmlns="http://www.w3.org/2000/svg">
  <defs>
    <mask fill="white" id="clip220">
      <path d="M 7.27031147086694 24.8980040491515  C 7.27031147086694 24.8980040491515  -1.53528323152648 12.1723159286381  5.04626488371555 1.15034872482615  C 5.04626488371555 1.15034872482615  -3.63146122713438 12.7361888339816  3.03807781720367 24.8980040491515  L 7.27031147086694 24.8980040491515  Z " fill-rule="evenodd" />
    </mask>
  </defs>
  <g transform="matrix(1 0 0 1 -304 -388 )">
    <path d="M 7.27031147086694 24.8980040491515  C 7.27031147086694 24.8980040491515  -1.53528323152648 12.1723159286381  5.04626488371555 1.15034872482615  C 5.04626488371555 1.15034872482615  -3.63146122713438 12.7361888339816  3.03807781720367 24.8980040491515  L 7.27031147086694 24.8980040491515  Z " fill-rule="nonzero" fill="#6e6e96" stroke="none" transform="matrix(1 0 0 1 304 388 )" />
    <path d="M 7.27031147086694 24.8980040491515  C 7.27031147086694 24.8980040491515  -1.53528323152648 12.1723159286381  5.04626488371555 1.15034872482615  C 5.04626488371555 1.15034872482615  -3.63146122713438 12.7361888339816  3.03807781720367 24.8980040491515  L 7.27031147086694 24.8980040491515  Z " stroke-width="2" stroke="#797979" fill="none" transform="matrix(1 0 0 1 304 388 )" mask="url(#clip220)" />
  </g>
</svg>