<?xml version="1.0" encoding="utf-8"?>
<svg version="1.1" xmlns:xlink="http://www.w3.org/1999/xlink" width="110px" height="76px" xmlns="http://www.w3.org/2000/svg">
  <defs>
    <mask fill="white" id="clip221">
      <path d="M 109.124972187196 28.4653438429659  C 97.9462749923318 13.2738711248158  91.8684936215268 -4.03215731262617  79.0063566180269 22.3473193720691  C 72.4044143155058 35.8863309753987  62.4253843504715 0.119037589336161  50.9510976716763 0.119037589336161  C 33.5765608436566 0.119037589336161  37.6100701979633 28.9702249848884  18.2014693986861 16.9422537304883  C 8.7310663834797 11.0728415614123  3.23603124751239 16.8494745019102  0.82338194623476 23.0697362780848  C 0.360913114017819 25.2896819948878  0.115476200182916 27.5906969405453  0.115476200182916 29.9498115002153  C 0.115476200182916 48.2800145288543  14.7942014285043 63.1377522548861  32.9019422016511 63.1377522548861  C 33.9311794587635 63.1377522548861  34.9488771864731 63.0841564869211  35.9545915567261 62.991377258343  C 41.968905515816 70.3664251610915  51.0673806218115 75.0670892808464  61.2519029758251 75.0670892808464  C 77.9891027183712 75.0670892808464  91.7841662912761 62.3698465037908  93.7796172218398 45.973144583335  C 100.775235008215 42.2354027485313  106.271601628345 36.0124386647282  109.124972187196 28.4653438429659  Z " fill-rule="evenodd" />
    </mask>
  </defs>
  <g transform="matrix(1 0 0 1 -286 -345 )">
    <path d="M 109.124972187196 28.4653438429659  C 97.9462749923318 13.2738711248158  91.8684936215268 -4.03215731262617  79.0063566180269 22.3473193720691  C 72.4044143155058 35.8863309753987  62.4253843504715 0.119037589336161  50.9510976716763 0.119037589336161  C 33.5765608436566 0.119037589336161  37.6100701979633 28.9702249848884  18.2014693986861 16.9422537304883  C 8.7310663834797 11.0728415614123  3.23603124751239 16.8494745019102  0.82338194623476 23.0697362780848  C 0.360913114017819 25.2896819948878  0.115476200182916 27.5906969405453  0.115476200182916 29.9498115002153  C 0.115476200182916 48.2800145288543  14.7942014285043 63.1377522548861  32.9019422016511 63.1377522548861  C 33.9311794587635 63.1377522548861  34.9488771864731 63.0841564869211  35.9545915567261 62.991377258343  C 41.968905515816 70.3664251610915  51.0673806218115 75.0670892808464  61.2519029758251 75.0670892808464  C 77.9891027183712 75.0670892808464  91.7841662912761 62.3698465037908  93.7796172218398 45.973144583335  C 100.775235008215 42.2354027485313  106.271601628345 36.0124386647282  109.124972187196 28.4653438429659  Z " fill-rule="nonzero" fill="#6e6e96" stroke="none" transform="matrix(1 0 0 1 286 345 )" />
    <path d="M 109.124972187196 28.4653438429659  C 97.9462749923318 13.2738711248158  91.8684936215268 -4.03215731262617  79.0063566180269 22.3473193720691  C 72.4044143155058 35.8863309753987  62.4253843504715 0.119037589336161  50.9510976716763 0.119037589336161  C 33.5765608436566 0.119037589336161  37.6100701979633 28.9702249848884  18.2014693986861 16.9422537304883  C 8.7310663834797 11.0728415614123  3.23603124751239 16.8494745019102  0.82338194623476 23.0697362780848  C 0.360913114017819 25.2896819948878  0.115476200182916 27.5906969405453  0.115476200182916 29.9498115002153  C 0.115476200182916 48.2800145288543  14.7942014285043 63.1377522548861  32.9019422016511 63.1377522548861  C 33.9311794587635 63.1377522548861  34.9488771864731 63.0841564869211  35.9545915567261 62.991377258343  C 41.968905515816 70.3664251610915  51.0673806218115 75.0670892808464  61.2519029758251 75.0670892808464  C 77.9891027183712 75.0670892808464  91.7841662912761 62.3698465037908  93.7796172218398 45.973144583335  C 100.775235008215 42.2354027485313  106.271601628345 36.0124386647282  109.124972187196 28.4653438429659  Z " stroke-width="2" stroke="#797979" fill="none" transform="matrix(1 0 0 1 286 345 )" mask="url(#clip221)" />
  </g>
</svg>