<?xml version="1.0" encoding="utf-8"?>
<svg version="1.1" xmlns:xlink="http://www.w3.org/1999/xlink" width="21px" height="19px" xmlns="http://www.w3.org/2000/svg">
  <defs>
    <mask fill="white" id="clip223">
      <path d="M 17.647999080794 13.8730562348637  C 17.1055147751172 16.6699446303488  14.5346878452784 18.7367595815374  11.5204928287445 18.7367595815374  C 9.77666685103463 18.7367595815374  8.13062964294509 18.0472207516682  6.95229709317561 16.8334342418723  C 6.86999523277114 16.8365869341056  6.7872508892462 16.8383884725246  6.70450654572127 16.8383884725246  C 3.26685518291277 16.8383884725246  0.470804344762824 14.1658062279499  0.470804344762824 10.880700920918  C 0.470804344762824 8.86748173769442  1.54205597938239 6.991629858919  3.29251920389911 5.89539373096236  C 3.44650332981717 2.73999919009786  6.18104901422398 0.2182957881138  9.5200266411712 0.2182957881138  C 11.5682810057536 0.2182957881138  13.5032596914997 1.2005846110692  14.659025602126 2.80395380397208  C 18.0011006109164 2.90844303227362  20.6860881858324 5.53913950860669  20.6860881858324 8.75803827874066  C 20.6860881858324 10.8689909211945  19.5307647583265 12.7988889525397  17.647999080794 13.8730562348637  Z M 7.16557395723453 15.4669673510669  C 7.18548569765497 15.4651658126479  7.20451247183449 15.4642650434384  7.22309676289357 15.4642650434384  C 7.4120370553275 15.4642650434384  7.59345513471372 15.5466854261073  7.72000530716361 15.6921596534409  C 8.6567420731651 16.7685788587886  10.0417142401867 17.3860561518981  11.5204928287445 17.3860561518981  C 13.9966283708061 17.3860561518981  16.0895735305544 15.6484723467804  16.3886921199814 13.3434039396801  C 16.4178960059314 13.1195627911203  16.5546232901517 12.9249966418692  16.7537406943561 12.8259120288246  C 18.3603969047252 12.0215251247447  19.3581963413494 10.4631943923166  19.3581963413494 8.75848866334541  C 19.3581963413494 6.21876987717142  17.1568428170899 4.1524053105876  14.451501018633 4.1524053105876  L 14.3329155423513 4.15465723361134  C 14.1001694209924 4.16681761793952  13.8758304789221 4.04521377465757  13.7492803064722 3.84344147173046  C 12.8696238630093 2.44139419714993  11.2488081927857 1.56989998696254  9.51958415805075 1.56989998696254  C 6.81379987647345 1.56989998696254  4.61244635221393 3.63671493815113  4.61244635221393 6.17688410892985  L 4.61554373405711 6.28137333723139  C 4.61819863277983 6.53448948509977  4.4823563148004 6.76733832575449  4.26332717017558 6.88623986140795  C 2.74251268517457 7.70774138046831  1.7978112230049 9.23904903661151  1.7978112230049 10.8811513055227  C 1.7978112230049 13.4213204763014  3.99872226414398 15.4876850428853  6.70406406260082 15.4876850428853  C 6.85981812100069 15.4876850428853  7.01380224691875 15.4800285046046  7.16557395723453 15.4669673510669  Z " fill-rule="evenodd" />
    </mask>
  </defs>
  <g transform="matrix(1 0 0 1 -291 -372 )">
    <path d="M 17.647999080794 13.8730562348637  C 17.1055147751172 16.6699446303488  14.5346878452784 18.7367595815374  11.5204928287445 18.7367595815374  C 9.77666685103463 18.7367595815374  8.13062964294509 18.0472207516682  6.95229709317561 16.8334342418723  C 6.86999523277114 16.8365869341056  6.7872508892462 16.8383884725246  6.70450654572127 16.8383884725246  C 3.26685518291277 16.8383884725246  0.470804344762824 14.1658062279499  0.470804344762824 10.880700920918  C 0.470804344762824 8.86748173769442  1.54205597938239 6.991629858919  3.29251920389911 5.89539373096236  C 3.44650332981717 2.73999919009786  6.18104901422398 0.2182957881138  9.5200266411712 0.2182957881138  C 11.5682810057536 0.2182957881138  13.5032596914997 1.2005846110692  14.659025602126 2.80395380397208  C 18.0011006109164 2.90844303227362  20.6860881858324 5.53913950860669  20.6860881858324 8.75803827874066  C 20.6860881858324 10.8689909211945  19.5307647583265 12.7988889525397  17.647999080794 13.8730562348637  Z M 7.16557395723453 15.4669673510669  C 7.18548569765497 15.4651658126479  7.20451247183449 15.4642650434384  7.22309676289357 15.4642650434384  C 7.4120370553275 15.4642650434384  7.59345513471372 15.5466854261073  7.72000530716361 15.6921596534409  C 8.6567420731651 16.7685788587886  10.0417142401867 17.3860561518981  11.5204928287445 17.3860561518981  C 13.9966283708061 17.3860561518981  16.0895735305544 15.6484723467804  16.3886921199814 13.3434039396801  C 16.4178960059314 13.1195627911203  16.5546232901517 12.9249966418692  16.7537406943561 12.8259120288246  C 18.3603969047252 12.0215251247447  19.3581963413494 10.4631943923166  19.3581963413494 8.75848866334541  C 19.3581963413494 6.21876987717142  17.1568428170899 4.1524053105876  14.451501018633 4.1524053105876  L 14.3329155423513 4.15465723361134  C 14.1001694209924 4.16681761793952  13.8758304789221 4.04521377465757  13.7492803064722 3.84344147173046  C 12.8696238630093 2.44139419714993  11.2488081927857 1.56989998696254  9.51958415805075 1.56989998696254  C 6.81379987647345 1.56989998696254  4.61244635221393 3.63671493815113  4.61244635221393 6.17688410892985  L 4.61554373405711 6.28137333723139  C 4.61819863277983 6.53448948509977  4.4823563148004 6.76733832575449  4.26332717017558 6.88623986140795  C 2.74251268517457 7.70774138046831  1.7978112230049 9.23904903661151  1.7978112230049 10.8811513055227  C 1.7978112230049 13.4213204763014  3.99872226414398 15.4876850428853  6.70406406260082 15.4876850428853  C 6.85981812100069 15.4876850428853  7.01380224691875 15.4800285046046  7.16557395723453 15.4669673510669  Z " fill-rule="nonzero" fill="#6e6e96" stroke="none" transform="matrix(1 0 0 1 291 372 )" />
    <path d="M 17.647999080794 13.8730562348637  C 17.1055147751172 16.6699446303488  14.5346878452784 18.7367595815374  11.5204928287445 18.7367595815374  C 9.77666685103463 18.7367595815374  8.13062964294509 18.0472207516682  6.95229709317561 16.8334342418723  C 6.86999523277114 16.8365869341056  6.7872508892462 16.8383884725246  6.70450654572127 16.8383884725246  C 3.26685518291277 16.8383884725246  0.470804344762824 14.1658062279499  0.470804344762824 10.880700920918  C 0.470804344762824 8.86748173769442  1.54205597938239 6.991629858919  3.29251920389911 5.89539373096236  C 3.44650332981717 2.73999919009786  6.18104901422398 0.2182957881138  9.5200266411712 0.2182957881138  C 11.5682810057536 0.2182957881138  13.5032596914997 1.2005846110692  14.659025602126 2.80395380397208  C 18.0011006109164 2.90844303227362  20.6860881858324 5.53913950860669  20.6860881858324 8.75803827874066  C 20.6860881858324 10.8689909211945  19.5307647583265 12.7988889525397  17.647999080794 13.8730562348637  Z " stroke-width="2" stroke="#797979" fill="none" transform="matrix(1 0 0 1 291 372 )" mask="url(#clip223)" />
    <path d="M 7.16557395723453 15.4669673510669  C 7.18548569765497 15.4651658126479  7.20451247183449 15.4642650434384  7.22309676289357 15.4642650434384  C 7.4120370553275 15.4642650434384  7.59345513471372 15.5466854261073  7.72000530716361 15.6921596534409  C 8.6567420731651 16.7685788587886  10.0417142401867 17.3860561518981  11.5204928287445 17.3860561518981  C 13.9966283708061 17.3860561518981  16.0895735305544 15.6484723467804  16.3886921199814 13.3434039396801  C 16.4178960059314 13.1195627911203  16.5546232901517 12.9249966418692  16.7537406943561 12.8259120288246  C 18.3603969047252 12.0215251247447  19.3581963413494 10.4631943923166  19.3581963413494 8.75848866334541  C 19.3581963413494 6.21876987717142  17.1568428170899 4.1524053105876  14.451501018633 4.1524053105876  L 14.3329155423513 4.15465723361134  C 14.1001694209924 4.16681761793952  13.8758304789221 4.04521377465757  13.7492803064722 3.84344147173046  C 12.8696238630093 2.44139419714993  11.2488081927857 1.56989998696254  9.51958415805075 1.56989998696254  C 6.81379987647345 1.56989998696254  4.61244635221393 3.63671493815113  4.61244635221393 6.17688410892985  L 4.61554373405711 6.28137333723139  C 4.61819863277983 6.53448948509977  4.4823563148004 6.76733832575449  4.26332717017558 6.88623986140795  C 2.74251268517457 7.70774138046831  1.7978112230049 9.23904903661151  1.7978112230049 10.8811513055227  C 1.7978112230049 13.4213204763014  3.99872226414398 15.4876850428853  6.70406406260082 15.4876850428853  C 6.85981812100069 15.4876850428853  7.01380224691875 15.4800285046046  7.16557395723453 15.4669673510669  Z " stroke-width="2" stroke="#797979" fill="none" transform="matrix(1 0 0 1 291 372 )" mask="url(#clip223)" />
  </g>
</svg>