<?xml version="1.0" encoding="utf-8"?>
<svg version="1.1" xmlns:xlink="http://www.w3.org/1999/xlink" width="21px" height="19px" xmlns="http://www.w3.org/2000/svg">
  <defs>
    <mask fill="white" id="clip224">
      <path d="M 19.9294420498557 8.56752559093226  C 19.9285570836148 5.65083489058421  17.4347222167351 3.28631571565719  14.3585795633376 3.28631571565719  C 14.311233869449 3.28631571565719  14.26344569244 3.28856763868093  14.2160999985514 3.29036917709993  C 13.4377721896725 2.04910920641443  12.1377567817781 1.13617961259023  10.603225320043 0.822711927685619  C 11.8173990025693 1.13302692035698  12.8399774939389 1.88426844107665  13.4687460081043 2.88637418664096  C 13.5094544551861 2.88457264822197  14.0674256700788 3.86731185578211  14.108576600281 3.86731185578211  C 16.7484308969106 3.86731185578211  17.976321556171 5.31439759083743  17.976321556171 7.81763522402683  C 17.976321556171 9.55837172137787  17.3360484808738 10.6658674644532  15.8187738608364 11.4270174464773  C 15.5276199675776 13.6658793166797  13.5156492188724 15.4003104295642  11.076682258929 15.4003104295642  C 9.59170890668478 15.4003104295642  8.26558699468361 14.7589627524031  7.38814296682298 13.7514523915818  C 7.24168105395264 13.7649639297242  7.09389169172095 13.7717196987954  6.94388991388698 13.7717196987954  C 4.30403561725736 13.7717196987954  2.23055971480908 12.4984824211728  2.23055971480908 9.99479440337868  C 2.23055971480908 8.30945521241166  2.97171894156984 7.47894600125634  4.32084997583462 6.47819140950628  C 4.28545132619829 6.26245718383199  4.13544954836432 4.35327684430521  4.63545547447754 3.84344147173048  C 5.82352265289701 2.63325803877259  6.36113964424883 1.59512152482845  7.42442658270022 1.05781269136408  C 5.33856115287923 1.82076421180719  3.85801263183955 3.73895224342894  3.85801263183955 5.98592103651672  C 3.85801263183955 6.02330295871081  3.85934008120091 6.06113526550964  3.86155249680318 6.09896757230847  C 2.17878918971594 7.00784370468994  1.04293501951007 8.72155712575609  1.04293501951007 10.6910890023191  C 1.04293501951007 13.6077797026672  3.53676988638982 15.9722988775942  6.61291253978726 15.9722988775942  C 6.78813585548711 15.9722988775942  6.96114675558469 15.963741570104  7.13150275695955 15.9497796473568  C 8.1536387652087 17.1243826965396  9.69967478807559 17.870669986607  11.4288988228105 17.870669986607  C 14.2718528717286 17.870669986607  16.6161284438948 15.8497942651027  16.9555129972832 13.2402658651928  C 18.7236755466181 12.3561608860725  19.9294420498557 10.596508235322  19.9294420498557 8.56752559093226  Z " fill-rule="evenodd" />
    </mask>
  </defs>
  <g transform="matrix(1 0 0 1 -291 -372 )">
    <path d="M 19.9294420498557 8.56752559093226  C 19.9285570836148 5.65083489058421  17.4347222167351 3.28631571565719  14.3585795633376 3.28631571565719  C 14.311233869449 3.28631571565719  14.26344569244 3.28856763868093  14.2160999985514 3.29036917709993  C 13.4377721896725 2.04910920641443  12.1377567817781 1.13617961259023  10.603225320043 0.822711927685619  C 11.8173990025693 1.13302692035698  12.8399774939389 1.88426844107665  13.4687460081043 2.88637418664096  C 13.5094544551861 2.88457264822197  14.0674256700788 3.86731185578211  14.108576600281 3.86731185578211  C 16.7484308969106 3.86731185578211  17.976321556171 5.31439759083743  17.976321556171 7.81763522402683  C 17.976321556171 9.55837172137787  17.3360484808738 10.6658674644532  15.8187738608364 11.4270174464773  C 15.5276199675776 13.6658793166797  13.5156492188724 15.4003104295642  11.076682258929 15.4003104295642  C 9.59170890668478 15.4003104295642  8.26558699468361 14.7589627524031  7.38814296682298 13.7514523915818  C 7.24168105395264 13.7649639297242  7.09389169172095 13.7717196987954  6.94388991388698 13.7717196987954  C 4.30403561725736 13.7717196987954  2.23055971480908 12.4984824211728  2.23055971480908 9.99479440337868  C 2.23055971480908 8.30945521241166  2.97171894156984 7.47894600125634  4.32084997583462 6.47819140950628  C 4.28545132619829 6.26245718383199  4.13544954836432 4.35327684430521  4.63545547447754 3.84344147173048  C 5.82352265289701 2.63325803877259  6.36113964424883 1.59512152482845  7.42442658270022 1.05781269136408  C 5.33856115287923 1.82076421180719  3.85801263183955 3.73895224342894  3.85801263183955 5.98592103651672  C 3.85801263183955 6.02330295871081  3.85934008120091 6.06113526550964  3.86155249680318 6.09896757230847  C 2.17878918971594 7.00784370468994  1.04293501951007 8.72155712575609  1.04293501951007 10.6910890023191  C 1.04293501951007 13.6077797026672  3.53676988638982 15.9722988775942  6.61291253978726 15.9722988775942  C 6.78813585548711 15.9722988775942  6.96114675558469 15.963741570104  7.13150275695955 15.9497796473568  C 8.1536387652087 17.1243826965396  9.69967478807559 17.870669986607  11.4288988228105 17.870669986607  C 14.2718528717286 17.870669986607  16.6161284438948 15.8497942651027  16.9555129972832 13.2402658651928  C 18.7236755466181 12.3561608860725  19.9294420498557 10.596508235322  19.9294420498557 8.56752559093226  Z " fill-rule="nonzero" fill="#6e6e96" stroke="none" transform="matrix(1 0 0 1 291 372 )" />
    <path d="M 19.9294420498557 8.56752559093226  C 19.9285570836148 5.65083489058421  17.4347222167351 3.28631571565719  14.3585795633376 3.28631571565719  C 14.311233869449 3.28631571565719  14.26344569244 3.28856763868093  14.2160999985514 3.29036917709993  C 13.4377721896725 2.04910920641443  12.1377567817781 1.13617961259023  10.603225320043 0.822711927685619  C 11.8173990025693 1.13302692035698  12.8399774939389 1.88426844107665  13.4687460081043 2.88637418664096  C 13.5094544551861 2.88457264822197  14.0674256700788 3.86731185578211  14.108576600281 3.86731185578211  C 16.7484308969106 3.86731185578211  17.976321556171 5.31439759083743  17.976321556171 7.81763522402683  C 17.976321556171 9.55837172137787  17.3360484808738 10.6658674644532  15.8187738608364 11.4270174464773  C 15.5276199675776 13.6658793166797  13.5156492188724 15.4003104295642  11.076682258929 15.4003104295642  C 9.59170890668478 15.4003104295642  8.26558699468361 14.7589627524031  7.38814296682298 13.7514523915818  C 7.24168105395264 13.7649639297242  7.09389169172095 13.7717196987954  6.94388991388698 13.7717196987954  C 4.30403561725736 13.7717196987954  2.23055971480908 12.4984824211728  2.23055971480908 9.99479440337868  C 2.23055971480908 8.30945521241166  2.97171894156984 7.47894600125634  4.32084997583462 6.47819140950628  C 4.28545132619829 6.26245718383199  4.13544954836432 4.35327684430521  4.63545547447754 3.84344147173048  C 5.82352265289701 2.63325803877259  6.36113964424883 1.59512152482845  7.42442658270022 1.05781269136408  C 5.33856115287923 1.82076421180719  3.85801263183955 3.73895224342894  3.85801263183955 5.98592103651672  C 3.85801263183955 6.02330295871081  3.85934008120091 6.06113526550964  3.86155249680318 6.09896757230847  C 2.17878918971594 7.00784370468994  1.04293501951007 8.72155712575609  1.04293501951007 10.6910890023191  C 1.04293501951007 13.6077797026672  3.53676988638982 15.9722988775942  6.61291253978726 15.9722988775942  C 6.78813585548711 15.9722988775942  6.96114675558469 15.963741570104  7.13150275695955 15.9497796473568  C 8.1536387652087 17.1243826965396  9.69967478807559 17.870669986607  11.4288988228105 17.870669986607  C 14.2718528717286 17.870669986607  16.6161284438948 15.8497942651027  16.9555129972832 13.2402658651928  C 18.7236755466181 12.3561608860725  19.9294420498557 10.596508235322  19.9294420498557 8.56752559093226  Z " stroke-width="2" stroke="#797979" fill="none" transform="matrix(1 0 0 1 291 372 )" mask="url(#clip224)" />
  </g>
</svg>