<?xml version="1.0" encoding="utf-8"?>
<svg version="1.1" xmlns:xlink="http://www.w3.org/1999/xlink" width="21px" height="19px" xmlns="http://www.w3.org/2000/svg">
  <defs>
    <mask fill="white" id="clip225">
      <path d="M 17.1564003339694 13.3893431693644  C 16.7457759981879 16.0812919519432  14.3045966226422 18.0967630581905  11.4288988228105 18.0967630581905  C 9.73507343771193 18.0967630581905  8.14213420407689 17.4009188438548  7.03990875102554 16.183529257221  C 6.89919911872111 16.1929873339207  6.75671955393486 16.1983919491777  6.61291253978726 16.1983919491777  C 3.41951185946946 16.1983919491777  0.821693459282982 13.7284827767396  0.821693459282982 10.6919897715286  C 0.821693459282982 8.75938943255492  1.89692744198664 6.9614540904009  3.63677107161246 5.96790565232679  C 3.64517825090109 3.71328032095829  5.1350189174703 1.65682421567892  7.34964693534346 0.846582311737257  C 7.4593827492161 0.806948466519434  7.5819505735819 0.86054423448445  7.62796881810914 0.969987693438212  C 7.67398706263637 1.07988153699672  7.62796881810914 1.20688999553566  7.52265783544104 1.26048576350068  C 6.8713226821325 1.58881614036198  6.42574217983514 2.12297228159309  5.86113371813561 2.7985491887151  C 5.55714781438359 3.16245994935148  5.2133384297907 3.57411147809116  4.79165201599787 4.00332800641601  C 4.41244398176863 4.39020838189455  4.4783739667163 6.07194449602358  4.53899415421853 6.44171025652169  C 4.5527111309526 6.52593217760957  4.51863993067763 6.61060448330219  4.45094001324814 6.66059717442921  C 3.12481810124698 7.64423715119885  2.45135879191572 8.43015828648412  2.45135879191572 9.99479440337867  C 2.45135879191572 12.6133304953836  4.77218275869788 13.5465273964214  6.94344743076653 13.5465273964214  C 7.08681196179368 13.5465273964214  7.22796407721856 13.5402220119549  7.36734626016163 13.5271608584172  C 7.43637362695248 13.5226570123698  7.50628595998424 13.5487793194452  7.55274668763193 13.6019247028054  C 8.4231109855653 14.601778525346  9.70763948424377 15.1751181271902  11.0757972926881 15.1751181271902  C 13.3740546203271 15.1751181271902  15.3183254516027 13.5510312424689  15.5984172668502 11.3972920625639  C 15.6081518955002 11.3225282181758  15.653727656907 11.2576728350921  15.7196576418547 11.2247947589454  C 17.145338255958 10.5095840066056  17.7537525465825 9.49036364606089  17.7537525465825 7.81763522402681  C 17.7537525465825 5.34592451316978  16.5271893366836 4.09250415815608  14.1072491509197 4.09250415815608  C 13.963442136772 4.09250415815608  13.9501676431584 4.06998492791867  13.6006059779996 3.49799647988872  C 13.5081270058247 3.34621686808865  13.3713997216044 3.12237571952889  13.3240540277158 3.05842110565467  C 13.3072396691385 3.04400879830273  13.2926377261635 3.02689418332231  13.2806906819113 3.0079780299229  C 12.669621492564 2.03424651445771  11.6988135262876 1.33569999249357  10.5474724468658 1.04159884559311  C 10.4310993861864 1.01187346167974  10.3594171206728 0.892521541421533  10.3855236247796 0.773169621163301  C 10.4116301288864 0.653817700905076  10.5271182233249 0.577252318097918  10.6448187333657 0.602023471359061  C 12.1660757014872 0.912338464030432  13.5023747252588 1.80590151985047  14.3311456098695 3.06112341328316  C 14.3399952722786 3.06112341328316  14.3484024515672 3.06112341328316  14.3568096308558 3.06112341328316  C 17.5497678280532 3.06112341328316  20.1480287113601 5.53148297032595  20.148913677601 8.56842636014173  C 20.148913677601 10.5820959279701  19.0055372943474 12.4192147307371  17.1564003339694 13.3893431693644  Z M 7.11424591526184 15.7263888834018  C 7.11955571270729 15.725938498797  7.12575047639365 15.7254881141923  7.13150275695956 15.7254881141923  C 7.1947778431845 15.7254881141923  7.25495554756627 15.7529615750819  7.29743392712987 15.8016031123947  C 8.31735751977675 16.9739542385537  9.82312757868231 17.6463784534425  11.4288988228105 17.6463784534425  C 14.1258334419787 17.6463784534425  16.4072764110405 15.7399004215442  16.7364838526584 13.2114412504889  C 16.7462184813084 13.1366774061008  16.7917942427152 13.071822023017  16.8581667107833 13.0384935622657  C 18.6161521483477 12.1597931984023  19.7082004896286 10.4465301619409  19.7082004896286 8.56797597553703  C 19.7073155233877 5.7800952721469  17.3077295611647 3.51105763342646  14.3585795633376 3.51105763342646  L 14.2479587832241 3.5142103256597  C 14.2090202686241 3.51691263328819  14.1581347097719 3.50475224896  14.1160988133287 3.48493532635108  C 14.1532673954469 3.54528686338731  14.1886660450832 3.60113455437607  14.2160999985514 3.64302032261763  C 16.821883094906 3.68130301402121  18.1980055995185 5.12253374921481  18.1980055995185 7.81808560863161  C 18.1980055995185 9.62187595064736  17.5254312564282 10.7852193847114  16.0214311300044 11.5756443660442  C 15.6581524881116 13.8933235420774  13.5545877334724 15.625953116543  11.0771247420495 15.625953116543  C 9.62091279263476 15.625953116543  8.25010008546771 15.0291935152519  7.29787641025033 13.9847516168412  C 7.18106086645042 13.9933089243315  7.06336035640961 13.9969120011694  6.94433239700744 13.9969120011694  C 3.94650925593039 13.9969120011694  2.00976063770246 12.4259704998084  2.00976063770246 9.99479440337869  C 2.00976063770246 8.28873752059325  2.73941530333139 7.390220234121  4.08854633759618 6.37325179660001  C 4.08367902327119 6.31830487482075  4.07792674270528 6.24939603029431  4.07261694525983 6.16922757064916  C 4.05491762044166 6.22372410782368  4.01730655520306 6.27101449132221  3.96597851323037 6.29848795221184  C 2.29958708159994 7.19835639249834  1.26506154597807 8.88144366044164  1.26506154597807 10.6919897715286  C 1.26506154597807 13.479420090314  3.66464750820108 15.7480073444297  6.61379750602817 15.7480073444297  C 6.78282605804167 15.7480073444297  6.94964219445289 15.7399004215442  7.11424591526184 15.7263888834018  Z " fill-rule="evenodd" />
    </mask>
  </defs>
  <g transform="matrix(1 0 0 1 -291 -372 )">
    <path d="M 17.1564003339694 13.3893431693644  C 16.7457759981879 16.0812919519432  14.3045966226422 18.0967630581905  11.4288988228105 18.0967630581905  C 9.73507343771193 18.0967630581905  8.14213420407689 17.4009188438548  7.03990875102554 16.183529257221  C 6.89919911872111 16.1929873339207  6.75671955393486 16.1983919491777  6.61291253978726 16.1983919491777  C 3.41951185946946 16.1983919491777  0.821693459282982 13.7284827767396  0.821693459282982 10.6919897715286  C 0.821693459282982 8.75938943255492  1.89692744198664 6.9614540904009  3.63677107161246 5.96790565232679  C 3.64517825090109 3.71328032095829  5.1350189174703 1.65682421567892  7.34964693534346 0.846582311737257  C 7.4593827492161 0.806948466519434  7.5819505735819 0.86054423448445  7.62796881810914 0.969987693438212  C 7.67398706263637 1.07988153699672  7.62796881810914 1.20688999553566  7.52265783544104 1.26048576350068  C 6.8713226821325 1.58881614036198  6.42574217983514 2.12297228159309  5.86113371813561 2.7985491887151  C 5.55714781438359 3.16245994935148  5.2133384297907 3.57411147809116  4.79165201599787 4.00332800641601  C 4.41244398176863 4.39020838189455  4.4783739667163 6.07194449602358  4.53899415421853 6.44171025652169  C 4.5527111309526 6.52593217760957  4.51863993067763 6.61060448330219  4.45094001324814 6.66059717442921  C 3.12481810124698 7.64423715119885  2.45135879191572 8.43015828648412  2.45135879191572 9.99479440337867  C 2.45135879191572 12.6133304953836  4.77218275869788 13.5465273964214  6.94344743076653 13.5465273964214  C 7.08681196179368 13.5465273964214  7.22796407721856 13.5402220119549  7.36734626016163 13.5271608584172  C 7.43637362695248 13.5226570123698  7.50628595998424 13.5487793194452  7.55274668763193 13.6019247028054  C 8.4231109855653 14.601778525346  9.70763948424377 15.1751181271902  11.0757972926881 15.1751181271902  C 13.3740546203271 15.1751181271902  15.3183254516027 13.5510312424689  15.5984172668502 11.3972920625639  C 15.6081518955002 11.3225282181758  15.653727656907 11.2576728350921  15.7196576418547 11.2247947589454  C 17.145338255958 10.5095840066056  17.7537525465825 9.49036364606089  17.7537525465825 7.81763522402681  C 17.7537525465825 5.34592451316978  16.5271893366836 4.09250415815608  14.1072491509197 4.09250415815608  C 13.963442136772 4.09250415815608  13.9501676431584 4.06998492791867  13.6006059779996 3.49799647988872  C 13.5081270058247 3.34621686808865  13.3713997216044 3.12237571952889  13.3240540277158 3.05842110565467  C 13.3072396691385 3.04400879830273  13.2926377261635 3.02689418332231  13.2806906819113 3.0079780299229  C 12.669621492564 2.03424651445771  11.6988135262876 1.33569999249357  10.5474724468658 1.04159884559311  C 10.4310993861864 1.01187346167974  10.3594171206728 0.892521541421533  10.3855236247796 0.773169621163301  C 10.4116301288864 0.653817700905076  10.5271182233249 0.577252318097918  10.6448187333657 0.602023471359061  C 12.1660757014872 0.912338464030432  13.5023747252588 1.80590151985047  14.3311456098695 3.06112341328316  C 14.3399952722786 3.06112341328316  14.3484024515672 3.06112341328316  14.3568096308558 3.06112341328316  C 17.5497678280532 3.06112341328316  20.1480287113601 5.53148297032595  20.148913677601 8.56842636014173  C 20.148913677601 10.5820959279701  19.0055372943474 12.4192147307371  17.1564003339694 13.3893431693644  Z M 7.11424591526184 15.7263888834018  C 7.11955571270729 15.725938498797  7.12575047639365 15.7254881141923  7.13150275695956 15.7254881141923  C 7.1947778431845 15.7254881141923  7.25495554756627 15.7529615750819  7.29743392712987 15.8016031123947  C 8.31735751977675 16.9739542385537  9.82312757868231 17.6463784534425  11.4288988228105 17.6463784534425  C 14.1258334419787 17.6463784534425  16.4072764110405 15.7399004215442  16.7364838526584 13.2114412504889  C 16.7462184813084 13.1366774061008  16.7917942427152 13.071822023017  16.8581667107833 13.0384935622657  C 18.6161521483477 12.1597931984023  19.7082004896286 10.4465301619409  19.7082004896286 8.56797597553703  C 19.7073155233877 5.7800952721469  17.3077295611647 3.51105763342646  14.3585795633376 3.51105763342646  L 14.2479587832241 3.5142103256597  C 14.2090202686241 3.51691263328819  14.1581347097719 3.50475224896  14.1160988133287 3.48493532635108  C 14.1532673954469 3.54528686338731  14.1886660450832 3.60113455437607  14.2160999985514 3.64302032261763  C 16.821883094906 3.68130301402121  18.1980055995185 5.12253374921481  18.1980055995185 7.81808560863161  C 18.1980055995185 9.62187595064736  17.5254312564282 10.7852193847114  16.0214311300044 11.5756443660442  C 15.6581524881116 13.8933235420774  13.5545877334724 15.625953116543  11.0771247420495 15.625953116543  C 9.62091279263476 15.625953116543  8.25010008546771 15.0291935152519  7.29787641025033 13.9847516168412  C 7.18106086645042 13.9933089243315  7.06336035640961 13.9969120011694  6.94433239700744 13.9969120011694  C 3.94650925593039 13.9969120011694  2.00976063770246 12.4259704998084  2.00976063770246 9.99479440337869  C 2.00976063770246 8.28873752059325  2.73941530333139 7.390220234121  4.08854633759618 6.37325179660001  C 4.08367902327119 6.31830487482075  4.07792674270528 6.24939603029431  4.07261694525983 6.16922757064916  C 4.05491762044166 6.22372410782368  4.01730655520306 6.27101449132221  3.96597851323037 6.29848795221184  C 2.29958708159994 7.19835639249834  1.26506154597807 8.88144366044164  1.26506154597807 10.6919897715286  C 1.26506154597807 13.479420090314  3.66464750820108 15.7480073444297  6.61379750602817 15.7480073444297  C 6.78282605804167 15.7480073444297  6.94964219445289 15.7399004215442  7.11424591526184 15.7263888834018  Z " fill-rule="nonzero" fill="#6e6e96" stroke="none" transform="matrix(1 0 0 1 291 372 )" />
    <path d="M 17.1564003339694 13.3893431693644  C 16.7457759981879 16.0812919519432  14.3045966226422 18.0967630581905  11.4288988228105 18.0967630581905  C 9.73507343771193 18.0967630581905  8.14213420407689 17.4009188438548  7.03990875102554 16.183529257221  C 6.89919911872111 16.1929873339207  6.75671955393486 16.1983919491777  6.61291253978726 16.1983919491777  C 3.41951185946946 16.1983919491777  0.821693459282982 13.7284827767396  0.821693459282982 10.6919897715286  C 0.821693459282982 8.75938943255492  1.89692744198664 6.9614540904009  3.63677107161246 5.96790565232679  C 3.64517825090109 3.71328032095829  5.1350189174703 1.65682421567892  7.34964693534346 0.846582311737257  C 7.4593827492161 0.806948466519434  7.5819505735819 0.86054423448445  7.62796881810914 0.969987693438212  C 7.67398706263637 1.07988153699672  7.62796881810914 1.20688999553566  7.52265783544104 1.26048576350068  C 6.8713226821325 1.58881614036198  6.42574217983514 2.12297228159309  5.86113371813561 2.7985491887151  C 5.55714781438359 3.16245994935148  5.2133384297907 3.57411147809116  4.79165201599787 4.00332800641601  C 4.41244398176863 4.39020838189455  4.4783739667163 6.07194449602358  4.53899415421853 6.44171025652169  C 4.5527111309526 6.52593217760957  4.51863993067763 6.61060448330219  4.45094001324814 6.66059717442921  C 3.12481810124698 7.64423715119885  2.45135879191572 8.43015828648412  2.45135879191572 9.99479440337867  C 2.45135879191572 12.6133304953836  4.77218275869788 13.5465273964214  6.94344743076653 13.5465273964214  C 7.08681196179368 13.5465273964214  7.22796407721856 13.5402220119549  7.36734626016163 13.5271608584172  C 7.43637362695248 13.5226570123698  7.50628595998424 13.5487793194452  7.55274668763193 13.6019247028054  C 8.4231109855653 14.601778525346  9.70763948424377 15.1751181271902  11.0757972926881 15.1751181271902  C 13.3740546203271 15.1751181271902  15.3183254516027 13.5510312424689  15.5984172668502 11.3972920625639  C 15.6081518955002 11.3225282181758  15.653727656907 11.2576728350921  15.7196576418547 11.2247947589454  C 17.145338255958 10.5095840066056  17.7537525465825 9.49036364606089  17.7537525465825 7.81763522402681  C 17.7537525465825 5.34592451316978  16.5271893366836 4.09250415815608  14.1072491509197 4.09250415815608  C 13.963442136772 4.09250415815608  13.9501676431584 4.06998492791867  13.6006059779996 3.49799647988872  C 13.5081270058247 3.34621686808865  13.3713997216044 3.12237571952889  13.3240540277158 3.05842110565467  C 13.3072396691385 3.04400879830273  13.2926377261635 3.02689418332231  13.2806906819113 3.0079780299229  C 12.669621492564 2.03424651445771  11.6988135262876 1.33569999249357  10.5474724468658 1.04159884559311  C 10.4310993861864 1.01187346167974  10.3594171206728 0.892521541421533  10.3855236247796 0.773169621163301  C 10.4116301288864 0.653817700905076  10.5271182233249 0.577252318097918  10.6448187333657 0.602023471359061  C 12.1660757014872 0.912338464030432  13.5023747252588 1.80590151985047  14.3311456098695 3.06112341328316  C 14.3399952722786 3.06112341328316  14.3484024515672 3.06112341328316  14.3568096308558 3.06112341328316  C 17.5497678280532 3.06112341328316  20.1480287113601 5.53148297032595  20.148913677601 8.56842636014173  C 20.148913677601 10.5820959279701  19.0055372943474 12.4192147307371  17.1564003339694 13.3893431693644  Z " stroke-width="2" stroke="#797979" fill="none" transform="matrix(1 0 0 1 291 372 )" mask="url(#clip225)" />
    <path d="M 7.11424591526184 15.7263888834018  C 7.11955571270729 15.725938498797  7.12575047639365 15.7254881141923  7.13150275695956 15.7254881141923  C 7.1947778431845 15.7254881141923  7.25495554756627 15.7529615750819  7.29743392712987 15.8016031123947  C 8.31735751977675 16.9739542385537  9.82312757868231 17.6463784534425  11.4288988228105 17.6463784534425  C 14.1258334419787 17.6463784534425  16.4072764110405 15.7399004215442  16.7364838526584 13.2114412504889  C 16.7462184813084 13.1366774061008  16.7917942427152 13.071822023017  16.8581667107833 13.0384935622657  C 18.6161521483477 12.1597931984023  19.7082004896286 10.4465301619409  19.7082004896286 8.56797597553703  C 19.7073155233877 5.7800952721469  17.3077295611647 3.51105763342646  14.3585795633376 3.51105763342646  L 14.2479587832241 3.5142103256597  C 14.2090202686241 3.51691263328819  14.1581347097719 3.50475224896  14.1160988133287 3.48493532635108  C 14.1532673954469 3.54528686338731  14.1886660450832 3.60113455437607  14.2160999985514 3.64302032261763  C 16.821883094906 3.68130301402121  18.1980055995185 5.12253374921481  18.1980055995185 7.81808560863161  C 18.1980055995185 9.62187595064736  17.5254312564282 10.7852193847114  16.0214311300044 11.5756443660442  C 15.6581524881116 13.8933235420774  13.5545877334724 15.625953116543  11.0771247420495 15.625953116543  C 9.62091279263476 15.625953116543  8.25010008546771 15.0291935152519  7.29787641025033 13.9847516168412  C 7.18106086645042 13.9933089243315  7.06336035640961 13.9969120011694  6.94433239700744 13.9969120011694  C 3.94650925593039 13.9969120011694  2.00976063770246 12.4259704998084  2.00976063770246 9.99479440337869  C 2.00976063770246 8.28873752059325  2.73941530333139 7.390220234121  4.08854633759618 6.37325179660001  C 4.08367902327119 6.31830487482075  4.07792674270528 6.24939603029431  4.07261694525983 6.16922757064916  C 4.05491762044166 6.22372410782368  4.01730655520306 6.27101449132221  3.96597851323037 6.29848795221184  C 2.29958708159994 7.19835639249834  1.26506154597807 8.88144366044164  1.26506154597807 10.6919897715286  C 1.26506154597807 13.479420090314  3.66464750820108 15.7480073444297  6.61379750602817 15.7480073444297  C 6.78282605804167 15.7480073444297  6.94964219445289 15.7399004215442  7.11424591526184 15.7263888834018  Z " stroke-width="2" stroke="#797979" fill="none" transform="matrix(1 0 0 1 291 372 )" mask="url(#clip225)" />
  </g>
</svg>