<?xml version="1.0" encoding="utf-8"?>
<svg version="1.1" xmlns:xlink="http://www.w3.org/1999/xlink" width="9px" height="14px" xmlns="http://www.w3.org/2000/svg">
  <defs>
    <mask fill="white" id="clip226">
      <path d="M 8.48232808345547 0.807799028380836  C 4.56412424886514 3.12995044452435  0.576798229672437 2.07816806720477  0.576798229672437 2.07816806720477  C 0.576798229672437 2.07816806720477  3.35789945953847 2.64321901202474  3.35789945953847 5.46626132052241  C 3.35789945953847 5.46626132052241  4.10672312606423 10.2610084137639  1.21255165595356 13.6530840151656  L 7.89606955479086 13.6530840151656  C 7.82993413125155 13.5583926273884  2.05823171695302 5.56139519142005  8.48232808345547 0.807799028380836  Z " fill-rule="evenodd" />
    </mask>
  </defs>
  <g transform="matrix(1 0 0 1 -297 -382 )">
    <path d="M 8.48232808345547 0.807799028380836  C 4.56412424886514 3.12995044452435  0.576798229672437 2.07816806720477  0.576798229672437 2.07816806720477  C 0.576798229672437 2.07816806720477  3.35789945953847 2.64321901202474  3.35789945953847 5.46626132052241  C 3.35789945953847 5.46626132052241  4.10672312606423 10.2610084137639  1.21255165595356 13.6530840151656  L 7.89606955479086 13.6530840151656  C 7.82993413125155 13.5583926273884  2.05823171695302 5.56139519142005  8.48232808345547 0.807799028380836  Z " fill-rule="nonzero" fill="#ede3da" stroke="none" transform="matrix(1 0 0 1 297 382 )" />
    <path d="M 8.48232808345547 0.807799028380836  C 4.56412424886514 3.12995044452435  0.576798229672437 2.07816806720477  0.576798229672437 2.07816806720477  C 0.576798229672437 2.07816806720477  3.35789945953847 2.64321901202474  3.35789945953847 5.46626132052241  C 3.35789945953847 5.46626132052241  4.10672312606423 10.2610084137639  1.21255165595356 13.6530840151656  L 7.89606955479086 13.6530840151656  C 7.82993413125155 13.5583926273884  2.05823171695302 5.56139519142005  8.48232808345547 0.807799028380836  Z " stroke-width="2" stroke="#797979" fill="none" transform="matrix(1 0 0 1 297 382 )" mask="url(#clip226)" />
  </g>
</svg>