<?xml version="1.0" encoding="utf-8"?>
<svg version="1.1" xmlns:xlink="http://www.w3.org/1999/xlink" width="5px" height="13px" xmlns="http://www.w3.org/2000/svg">
  <defs>
    <mask fill="white" id="clip228">
      <path d="M 3.77341061643429 12.6485786127651  C 3.77293652737666 12.6485786127651  -0.984547165935128 6.36126124928934  2.57159485534357 0.915270947283822  C 2.57159485534357 0.915270947283822  -2.11714592461195 6.63916363507068  1.48593091337207 12.6485786127651  L 3.77341061643429 12.6485786127651  Z " fill-rule="evenodd" />
    </mask>
  </defs>
  <g transform="matrix(1 0 0 1 -302 -383 )">
    <path d="M 3.77341061643429 12.6485786127651  C 3.77293652737666 12.6485786127651  -0.984547165935128 6.36126124928934  2.57159485534357 0.915270947283822  C 2.57159485534357 0.915270947283822  -2.11714592461195 6.63916363507068  1.48593091337207 12.6485786127651  L 3.77341061643429 12.6485786127651  Z " fill-rule="nonzero" fill="#6e6e96" stroke="none" transform="matrix(1 0 0 1 302 383 )" />
    <path d="M 3.77341061643429 12.6485786127651  C 3.77293652737666 12.6485786127651  -0.984547165935128 6.36126124928934  2.57159485534357 0.915270947283822  C 2.57159485534357 0.915270947283822  -2.11714592461195 6.63916363507068  1.48593091337207 12.6485786127651  L 3.77341061643429 12.6485786127651  Z " stroke-width="2" stroke="#797979" fill="none" transform="matrix(1 0 0 1 302 383 )" mask="url(#clip228)" />
  </g>
</svg>