<?xml version="1.0" encoding="utf-8"?>
<svg version="1.1" xmlns:xlink="http://www.w3.org/1999/xlink" width="6px" height="13px" xmlns="http://www.w3.org/2000/svg">
  <defs>
    <mask fill="white" id="clip229">
      <path d="M 4.82338444276756 12.8731416696626  C 4.82292931727225 12.8726934400082  4.82247419177691 12.8726934400082  4.82247419177691 12.8726934400082  L 2.62649367683719 12.8726934400082  C 2.54457108767881 12.8726934400082  2.46902025545498 12.829215163523  2.42851408637112 12.7588431077687  C -1.06457409024286 6.68981358602761  3.44298881544897 0.83638252809428  3.48895649047673 0.778112673011083  C 3.56314194621459 0.684880904877983  3.69922446931655 0.663814111117144  3.79844182729725 0.731496788944529  C 3.89811431077327 0.799179466771931  3.92587696598805 0.931855444499793  3.86261452213797 1.03360357606813  C 0.573877692924606 6.27968345217286  4.91987104777632 12.3971217765985  5.0058897663926 12.5163508646918  C 5.03365242160739 12.5535539260141  5.05003693943906 12.5997215804262  5.05003693943906 12.6490268424196  C 5.05003693943906 12.7718417677488  4.94899907947707 12.8722452103537  4.82429469375821 12.8731416696626  Z M 2.28332905336267 4.0067108742741  C 1.47866717762931 6.16852249786033  0.994413650604257 9.26399649174099  2.76030057246253 12.4244637855221  L 4.39238059869546 12.4244637855221  C 4.29725937017268 12.2725139326514  4.17710623940706 12.0694658991692  4.02281869649213 11.7973904988961  C 3.22134269922604 10.3823294796837  1.78360125949659 7.2873037154575  2.28332905336267 4.0067108742741  Z " fill-rule="evenodd" />
    </mask>
  </defs>
  <g transform="matrix(1 0 0 1 -301 -383 )">
    <path d="M 4.82338444276756 12.8731416696626  C 4.82292931727225 12.8726934400082  4.82247419177691 12.8726934400082  4.82247419177691 12.8726934400082  L 2.62649367683719 12.8726934400082  C 2.54457108767881 12.8726934400082  2.46902025545498 12.829215163523  2.42851408637112 12.7588431077687  C -1.06457409024286 6.68981358602761  3.44298881544897 0.83638252809428  3.48895649047673 0.778112673011083  C 3.56314194621459 0.684880904877983  3.69922446931655 0.663814111117144  3.79844182729725 0.731496788944529  C 3.89811431077327 0.799179466771931  3.92587696598805 0.931855444499793  3.86261452213797 1.03360357606813  C 0.573877692924606 6.27968345217286  4.91987104777632 12.3971217765985  5.0058897663926 12.5163508646918  C 5.03365242160739 12.5535539260141  5.05003693943906 12.5997215804262  5.05003693943906 12.6490268424196  C 5.05003693943906 12.7718417677488  4.94899907947707 12.8722452103537  4.82429469375821 12.8731416696626  Z M 2.28332905336267 4.0067108742741  C 1.47866717762931 6.16852249786033  0.994413650604257 9.26399649174099  2.76030057246253 12.4244637855221  L 4.39238059869546 12.4244637855221  C 4.29725937017268 12.2725139326514  4.17710623940706 12.0694658991692  4.02281869649213 11.7973904988961  C 3.22134269922604 10.3823294796837  1.78360125949659 7.2873037154575  2.28332905336267 4.0067108742741  Z " fill-rule="nonzero" fill="#6e6e96" stroke="none" transform="matrix(1 0 0 1 301 383 )" />
    <path d="M 4.82338444276756 12.8731416696626  C 4.82292931727225 12.8726934400082  4.82247419177691 12.8726934400082  4.82247419177691 12.8726934400082  L 2.62649367683719 12.8726934400082  C 2.54457108767881 12.8726934400082  2.46902025545498 12.829215163523  2.42851408637112 12.7588431077687  C -1.06457409024286 6.68981358602761  3.44298881544897 0.83638252809428  3.48895649047673 0.778112673011083  C 3.56314194621459 0.684880904877983  3.69922446931655 0.663814111117144  3.79844182729725 0.731496788944529  C 3.89811431077327 0.799179466771931  3.92587696598805 0.931855444499793  3.86261452213797 1.03360357606813  C 0.573877692924606 6.27968345217286  4.91987104777632 12.3971217765985  5.0058897663926 12.5163508646918  C 5.03365242160739 12.5535539260141  5.05003693943906 12.5997215804262  5.05003693943906 12.6490268424196  C 5.05003693943906 12.7718417677488  4.94899907947707 12.8722452103537  4.82429469375821 12.8731416696626  Z " stroke-width="2" stroke="#797979" fill="none" transform="matrix(1 0 0 1 301 383 )" mask="url(#clip229)" />
    <path d="M 2.28332905336267 4.0067108742741  C 1.47866717762931 6.16852249786033  0.994413650604257 9.26399649174099  2.76030057246253 12.4244637855221  L 4.39238059869546 12.4244637855221  C 4.29725937017268 12.2725139326514  4.17710623940706 12.0694658991692  4.02281869649213 11.7973904988961  C 3.22134269922604 10.3823294796837  1.78360125949659 7.2873037154575  2.28332905336267 4.0067108742741  Z " stroke-width="2" stroke="#797979" fill="none" transform="matrix(1 0 0 1 301 383 )" mask="url(#clip229)" />
  </g>
</svg>