<?xml version="1.0" encoding="utf-8"?>
<svg version="1.1" xmlns:xlink="http://www.w3.org/1999/xlink" width="84px" height="42px" xmlns="http://www.w3.org/2000/svg">
  <defs>
    <mask fill="white" id="clip230">
      <path d="M 0.645626660134764 19.9025810198446  C 6.52622733097078 25.7318283639582  14.5267646319028 29.3250441495435  23.3494355706386 29.3250441495435  C 24.3755539269718 29.3250441495435  25.3901677221733 29.2708842155999  26.3928344731224 29.1766732380678  C 32.388923238397 36.6293532240031  41.4598272077076 41.3799531441982  51.6134873727696 41.3799531441982  C 66.6468513902003 41.3799531441982  79.2947889052625 30.9630408072156  83.1089934035775 16.7849713768731  C 72.7973667645134 6.6743584982439  58.7905635865364 0.454613479142068  43.3567523450947 0.454613479142068  C 26.3919495068815 0.454613479142068  11.1488484903556 7.96600465397425  0.645626660134764 19.9025810198446  Z " fill-rule="evenodd" />
    </mask>
  </defs>
  <g transform="matrix(1 0 0 1 -295 -379 )">
    <path d="M 0.645626660134764 19.9025810198446  C 6.52622733097078 25.7318283639582  14.5267646319028 29.3250441495435  23.3494355706386 29.3250441495435  C 24.3755539269718 29.3250441495435  25.3901677221733 29.2708842155999  26.3928344731224 29.1766732380678  C 32.388923238397 36.6293532240031  41.4598272077076 41.3799531441982  51.6134873727696 41.3799531441982  C 66.6468513902003 41.3799531441982  79.2947889052625 30.9630408072156  83.1089934035775 16.7849713768731  C 72.7973667645134 6.6743584982439  58.7905635865364 0.454613479142068  43.3567523450947 0.454613479142068  C 26.3919495068815 0.454613479142068  11.1488484903556 7.96600465397425  0.645626660134764 19.9025810198446  Z " fill-rule="nonzero" fill="#ffd9bd" stroke="none" transform="matrix(1 0 0 1 295 379 )" />
    <path d="M 0.645626660134764 19.9025810198446  C 6.52622733097078 25.7318283639582  14.5267646319028 29.3250441495435  23.3494355706386 29.3250441495435  C 24.3755539269718 29.3250441495435  25.3901677221733 29.2708842155999  26.3928344731224 29.1766732380678  C 32.388923238397 36.6293532240031  41.4598272077076 41.3799531441982  51.6134873727696 41.3799531441982  C 66.6468513902003 41.3799531441982  79.2947889052625 30.9630408072156  83.1089934035775 16.7849713768731  C 72.7973667645134 6.6743584982439  58.7905635865364 0.454613479142068  43.3567523450947 0.454613479142068  C 26.3919495068815 0.454613479142068  11.1488484903556 7.96600465397425  0.645626660134764 19.9025810198446  Z " stroke-width="2" stroke="#797979" fill="none" transform="matrix(1 0 0 1 295 379 )" mask="url(#clip230)" />
  </g>
</svg>