<?xml version="1.0" encoding="utf-8"?>
<svg version="1.1" xmlns:xlink="http://www.w3.org/1999/xlink" width="42px" height="24px" xmlns="http://www.w3.org/2000/svg">
  <defs>
    <mask fill="white" id="clip231">
      <path d="M 41.770007875146 0.477369753908286  C 40.3766285288358 0.515145170020202  38.9960811930188 0.609356147552325  37.6288083508154 0.747714298130919  C 30.868108753396 1.633388512032  16.6139575110851 5.2825847335422  0.74695529471877 19.9995227503487  C 1.92661529384961 21.1587273869396  3.19255950146901 22.2250864224845  4.53018597460198 23.1949588530206  L 5.15320220820147 23.1480809270021  C 5.15320220820147 23.1480809270021  18.7316817255788 6.30934785099382  41.770007875146 0.477369753908286  Z " fill-rule="evenodd" />
    </mask>
  </defs>
  <g transform="matrix(1 0 0 1 -295 -379 )">
    <path d="M 41.770007875146 0.477369753908286  C 40.3766285288358 0.515145170020202  38.9960811930188 0.609356147552325  37.6288083508154 0.747714298130919  C 30.868108753396 1.633388512032  16.6139575110851 5.2825847335422  0.74695529471877 19.9995227503487  C 1.92661529384961 21.1587273869396  3.19255950146901 22.2250864224845  4.53018597460198 23.1949588530206  L 5.15320220820147 23.1480809270021  C 5.15320220820147 23.1480809270021  18.7316817255788 6.30934785099382  41.770007875146 0.477369753908286  Z " fill-rule="nonzero" fill="#ffffff" stroke="none" transform="matrix(1 0 0 1 295 379 )" />
    <path d="M 41.770007875146 0.477369753908286  C 40.3766285288358 0.515145170020202  38.9960811930188 0.609356147552325  37.6288083508154 0.747714298130919  C 30.868108753396 1.633388512032  16.6139575110851 5.2825847335422  0.74695529471877 19.9995227503487  C 1.92661529384961 21.1587273869396  3.19255950146901 22.2250864224845  4.53018597460198 23.1949588530206  L 5.15320220820147 23.1480809270021  C 5.15320220820147 23.1480809270021  18.7316817255788 6.30934785099382  41.770007875146 0.477369753908286  Z " stroke-width="2" stroke="#797979" fill="none" transform="matrix(1 0 0 1 295 379 )" mask="url(#clip231)" />
  </g>
</svg>