<?xml version="1.0" encoding="utf-8"?>
<svg version="1.1" xmlns:xlink="http://www.w3.org/1999/xlink" width="13px" height="42px" xmlns="http://www.w3.org/2000/svg">
  <defs>
    <mask fill="white" id="clip234">
      <path d="M 2.2442648692466 41.6302721666265  C 2.2057171189608 41.638009300047  2.16627290936601 41.640740053019  2.12772515908022 41.640740053019  C 1.80768918577718 41.640740053019  1.52395981448751 41.4077157994129  1.46613818905881 41.0763844388168  C -1.04349964640858 26.5883745461585  1.70325167628193 16.5674213901081  4.44910653966348 10.7122318927611  C 7.44552177990272 4.32318018939859  11.0152227482296 1.41538339977166  11.1658279121369 1.29477514351072  C 11.4571771875529 1.06175088990468  11.8798577517332 1.11181469439036  12.110247794139 1.40764626635114  C 12.3401896068904 1.70347783831193  12.2904361152424 2.13220605490742  11.999535069481 2.36568543400878  C 11.8601356469358 2.47810143135389  -1.87541388513469 13.9067577444423  2.7902085884106 40.8397191812482  C 2.8547536586566 41.2106464599375  2.61046849696169 41.5651892207951  2.2442648692466 41.6302721666265  Z " fill-rule="evenodd" />
    </mask>
  </defs>
  <g transform="matrix(1 0 0 1 -339 -379 )">
    <path d="M 2.2442648692466 41.6302721666265  C 2.2057171189608 41.638009300047  2.16627290936601 41.640740053019  2.12772515908022 41.640740053019  C 1.80768918577718 41.640740053019  1.52395981448751 41.4077157994129  1.46613818905881 41.0763844388168  C -1.04349964640858 26.5883745461585  1.70325167628193 16.5674213901081  4.44910653966348 10.7122318927611  C 7.44552177990272 4.32318018939859  11.0152227482296 1.41538339977166  11.1658279121369 1.29477514351072  C 11.4571771875529 1.06175088990468  11.8798577517332 1.11181469439036  12.110247794139 1.40764626635114  C 12.3401896068904 1.70347783831193  12.2904361152424 2.13220605490742  11.999535069481 2.36568543400878  C 11.8601356469358 2.47810143135389  -1.87541388513469 13.9067577444423  2.7902085884106 40.8397191812482  C 2.8547536586566 41.2106464599375  2.61046849696169 41.5651892207951  2.2442648692466 41.6302721666265  Z " fill-rule="nonzero" fill="#6e6e96" stroke="none" transform="matrix(1 0 0 1 339 379 )" />
    <path d="M 2.2442648692466 41.6302721666265  C 2.2057171189608 41.638009300047  2.16627290936601 41.640740053019  2.12772515908022 41.640740053019  C 1.80768918577718 41.640740053019  1.52395981448751 41.4077157994129  1.46613818905881 41.0763844388168  C -1.04349964640858 26.5883745461585  1.70325167628193 16.5674213901081  4.44910653966348 10.7122318927611  C 7.44552177990272 4.32318018939859  11.0152227482296 1.41538339977166  11.1658279121369 1.29477514351072  C 11.4571771875529 1.06175088990468  11.8798577517332 1.11181469439036  12.110247794139 1.40764626635114  C 12.3401896068904 1.70347783831193  12.2904361152424 2.13220605490742  11.999535069481 2.36568543400878  C 11.8601356469358 2.47810143135389  -1.87541388513469 13.9067577444423  2.7902085884106 40.8397191812482  C 2.8547536586566 41.2106464599375  2.61046849696169 41.5651892207951  2.2442648692466 41.6302721666265  Z " stroke-width="2" stroke="#797979" fill="none" transform="matrix(1 0 0 1 339 379 )" mask="url(#clip234)" />
  </g>
</svg>