<?xml version="1.0" encoding="utf-8"?>
<svg version="1.1" xmlns:xlink="http://www.w3.org/1999/xlink" width="23px" height="31px" xmlns="http://www.w3.org/2000/svg">
  <defs>
    <mask fill="white" id="clip235">
      <path d="M 1.35389888865623 30.3302752056589  C 1.28585762710524 30.6454641985266  1.01587339056641 30.8598108019976  0.716230142582281 30.8598108019976  C 0.668688491883201 30.8598108019976  0.620274517318075 30.8543843057072  0.571860542752949 30.8435313131264  C 0.219441700873501 30.7607772446977  -0.00212856110020461 30.398106409289  0.0772529107092712 30.0327223257351  C 5.78050634686725 3.76441040795668  20.5101309868559 1.20219974283708  21.1342787130062 1.1058794336824  C 21.4954207935461 1.04799680658475  21.8247230529755 1.30620758840319  21.8774986468708 1.67701816824753  C 21.9307104026992 2.04692433204349  21.6847150724764 2.3919590545084  21.3279346112667 2.44758064148505  C 21.1613207528534 2.47471312293708  6.84125216796975 5.0559165250731  1.35389888865623 30.3302752056589  Z " fill-rule="evenodd" />
    </mask>
  </defs>
  <g transform="matrix(1 0 0 1 -321 -378 )">
    <path d="M 1.35389888865623 30.3302752056589  C 1.28585762710524 30.6454641985266  1.01587339056641 30.8598108019976  0.716230142582281 30.8598108019976  C 0.668688491883201 30.8598108019976  0.620274517318075 30.8543843057072  0.571860542752949 30.8435313131264  C 0.219441700873501 30.7607772446977  -0.00212856110020461 30.398106409289  0.0772529107092712 30.0327223257351  C 5.78050634686725 3.76441040795668  20.5101309868559 1.20219974283708  21.1342787130062 1.1058794336824  C 21.4954207935461 1.04799680658475  21.8247230529755 1.30620758840319  21.8774986468708 1.67701816824753  C 21.9307104026992 2.04692433204349  21.6847150724764 2.3919590545084  21.3279346112667 2.44758064148505  C 21.1613207528534 2.47471312293708  6.84125216796975 5.0559165250731  1.35389888865623 30.3302752056589  Z " fill-rule="nonzero" fill="#6e6e96" stroke="none" transform="matrix(1 0 0 1 321 378 )" />
    <path d="M 1.35389888865623 30.3302752056589  C 1.28585762710524 30.6454641985266  1.01587339056641 30.8598108019976  0.716230142582281 30.8598108019976  C 0.668688491883201 30.8598108019976  0.620274517318075 30.8543843057072  0.571860542752949 30.8435313131264  C 0.219441700873501 30.7607772446977  -0.00212856110020461 30.398106409289  0.0772529107092712 30.0327223257351  C 5.78050634686725 3.76441040795668  20.5101309868559 1.20219974283708  21.1342787130062 1.1058794336824  C 21.4954207935461 1.04799680658475  21.8247230529755 1.30620758840319  21.8774986468708 1.67701816824753  C 21.9307104026992 2.04692433204349  21.6847150724764 2.3919590545084  21.3279346112667 2.44758064148505  C 21.1613207528534 2.47471312293708  6.84125216796975 5.0559165250731  1.35389888865623 30.3302752056589  Z " stroke-width="2" stroke="#797979" fill="none" transform="matrix(1 0 0 1 321 378 )" mask="url(#clip235)" />
  </g>
</svg>