<?xml version="1.0" encoding="utf-8"?>
<svg version="1.1" xmlns:xlink="http://www.w3.org/1999/xlink" width="9px" height="10px" xmlns="http://www.w3.org/2000/svg">
  <defs>
    <mask fill="white" id="clip236">
      <path d="M 2.06410301362611 8.62267251903269  C 1.95700629550761 8.88531785695944  1.72361225243661 9.04176724597717  1.47955120556897 9.04176724597717  C 1.39165509428446 9.04176724597717  1.30247894254435 9.02185550555673  1.21756959232291 8.97918749037007  C 0.895426077663683 8.81799721077606  0.751208186332793 8.39700612760108  0.896279437967416 8.03906888909083  C 3.2788614059901 2.15277914956325  7.57169041391926 0.529498216239928  7.75302947846254 0.463599837229429  C 8.09010679843709 0.338914415072873  8.45065152676431 0.544669066084058  8.56073500594588 0.91730306538083  C 8.6712451652793 1.2899370646776  8.48862606028042 1.69101640743214  8.1536821410652 1.81427956241579  C 8.09992044193002 1.83466539189387  4.2004905340218 3.34369086232848  2.06410301362611 8.62267251903269  Z " fill-rule="evenodd" />
    </mask>
  </defs>
  <g transform="matrix(1 0 0 1 -338 -379 )">
    <path d="M 2.06410301362611 8.62267251903269  C 1.95700629550761 8.88531785695944  1.72361225243661 9.04176724597717  1.47955120556897 9.04176724597717  C 1.39165509428446 9.04176724597717  1.30247894254435 9.02185550555673  1.21756959232291 8.97918749037007  C 0.895426077663683 8.81799721077606  0.751208186332793 8.39700612760108  0.896279437967416 8.03906888909083  C 3.2788614059901 2.15277914956325  7.57169041391926 0.529498216239928  7.75302947846254 0.463599837229429  C 8.09010679843709 0.338914415072873  8.45065152676431 0.544669066084058  8.56073500594588 0.91730306538083  C 8.6712451652793 1.2899370646776  8.48862606028042 1.69101640743214  8.1536821410652 1.81427956241579  C 8.09992044193002 1.83466539189387  4.2004905340218 3.34369086232848  2.06410301362611 8.62267251903269  Z " fill-rule="nonzero" fill="#6e6e96" stroke="none" transform="matrix(1 0 0 1 338 379 )" />
    <path d="M 2.06410301362611 8.62267251903269  C 1.95700629550761 8.88531785695944  1.72361225243661 9.04176724597717  1.47955120556897 9.04176724597717  C 1.39165509428446 9.04176724597717  1.30247894254435 9.02185550555673  1.21756959232291 8.97918749037007  C 0.895426077663683 8.81799721077606  0.751208186332793 8.39700612760108  0.896279437967416 8.03906888909083  C 3.2788614059901 2.15277914956325  7.57169041391926 0.529498216239928  7.75302947846254 0.463599837229429  C 8.09010679843709 0.338914415072873  8.45065152676431 0.544669066084058  8.56073500594588 0.91730306538083  C 8.6712451652793 1.2899370646776  8.48862606028042 1.69101640743214  8.1536821410652 1.81427956241579  C 8.09992044193002 1.83466539189387  4.2004905340218 3.34369086232848  2.06410301362611 8.62267251903269  Z " stroke-width="2" stroke="#797979" fill="none" transform="matrix(1 0 0 1 338 379 )" mask="url(#clip236)" />
  </g>
</svg>