<?xml version="1.0" encoding="utf-8"?>
<svg version="1.1" xmlns:xlink="http://www.w3.org/1999/xlink" width="5px" height="11px" xmlns="http://www.w3.org/2000/svg">
  <defs>
    <mask fill="white" id="clip237">
      <path d="M 2.0052855991498 9.88059496420847  C 2.0052855991498 10.2644174652653  1.68717184148042 10.575925582065  1.29415201270558 10.575925582065  C 0.901132183930748 10.575925582065  0.583018426261361 10.2644174652653  0.583018426261361 9.88059496420847  C 0.583018426261361 5.76516481398808  2.76240582418406 0.846859577015999  2.85532727947944 0.639187499149487  C 3.01272484661243 0.287813760259305  3.43229366261451 0.126497056916588  3.79165316829766 0.281324007825979  C 4.15148676303843 0.435223851244894  4.31552157697823 0.845005362035048  4.15859809890287 1.19684265467047  C 4.13726409130954 1.2450522441752  2.0052855991498 6.05952144221404  2.0052855991498 9.88059496420847  Z " fill-rule="evenodd" />
    </mask>
  </defs>
  <g transform="matrix(1 0 0 1 -332 -393 )">
    <path d="M 2.0052855991498 9.88059496420847  C 2.0052855991498 10.2644174652653  1.68717184148042 10.575925582065  1.29415201270558 10.575925582065  C 0.901132183930748 10.575925582065  0.583018426261361 10.2644174652653  0.583018426261361 9.88059496420847  C 0.583018426261361 5.76516481398808  2.76240582418406 0.846859577015999  2.85532727947944 0.639187499149487  C 3.01272484661243 0.287813760259305  3.43229366261451 0.126497056916588  3.79165316829766 0.281324007825979  C 4.15148676303843 0.435223851244894  4.31552157697823 0.845005362035048  4.15859809890287 1.19684265467047  C 4.13726409130954 1.2450522441752  2.0052855991498 6.05952144221404  2.0052855991498 9.88059496420847  Z " fill-rule="nonzero" fill="#6e6e96" stroke="none" transform="matrix(1 0 0 1 332 393 )" />
    <path d="M 2.0052855991498 9.88059496420847  C 2.0052855991498 10.2644174652653  1.68717184148042 10.575925582065  1.29415201270558 10.575925582065  C 0.901132183930748 10.575925582065  0.583018426261361 10.2644174652653  0.583018426261361 9.88059496420847  C 0.583018426261361 5.76516481398808  2.76240582418406 0.846859577015999  2.85532727947944 0.639187499149487  C 3.01272484661243 0.287813760259305  3.43229366261451 0.126497056916588  3.79165316829766 0.281324007825979  C 4.15148676303843 0.435223851244894  4.31552157697823 0.845005362035048  4.15859809890287 1.19684265467047  C 4.13726409130954 1.2450522441752  2.0052855991498 6.05952144221404  2.0052855991498 9.88059496420847  Z " stroke-width="2" stroke="#797979" fill="none" transform="matrix(1 0 0 1 332 393 )" mask="url(#clip237)" />
  </g>
</svg>