<?xml version="1.0" encoding="utf-8"?>
<svg version="1.1" xmlns:xlink="http://www.w3.org/1999/xlink" width="2px" height="11px" xmlns="http://www.w3.org/2000/svg">
  <defs>
    <mask fill="white" id="clip238">
      <path d="M 1.34770284097867 9.25282247603546  C 1.34770284097867 9.63664497709229  1.09321183484317 9.94815309389203  0.7787959718233 9.94815309389203  C 0.464380108803432 9.94815309389203  0.20988910266793 9.63664497709229  0.20988910266793 9.25282247603546  L 0.20988910266793 1.04282209413038  C 0.20988910266793 0.658999593073552  0.464380108803432 0.34749147627382  0.7787959718233 0.34749147627382  C 1.09321183484317 0.34749147627382  1.34770284097867 0.658999593073552  1.34770284097867 1.04282209413038  L 1.34770284097867 9.25282247603546  Z " fill-rule="evenodd" />
    </mask>
  </defs>
  <g transform="matrix(1 0 0 1 -331 -408 )">
    <path d="M 1.34770284097867 9.25282247603546  C 1.34770284097867 9.63664497709229  1.09321183484317 9.94815309389203  0.7787959718233 9.94815309389203  C 0.464380108803432 9.94815309389203  0.20988910266793 9.63664497709229  0.20988910266793 9.25282247603546  L 0.20988910266793 1.04282209413038  C 0.20988910266793 0.658999593073552  0.464380108803432 0.34749147627382  0.7787959718233 0.34749147627382  C 1.09321183484317 0.34749147627382  1.34770284097867 0.658999593073552  1.34770284097867 1.04282209413038  L 1.34770284097867 9.25282247603546  Z " fill-rule="nonzero" fill="#6e6e96" stroke="none" transform="matrix(1 0 0 1 331 408 )" />
    <path d="M 1.34770284097867 9.25282247603546  C 1.34770284097867 9.63664497709229  1.09321183484317 9.94815309389203  0.7787959718233 9.94815309389203  C 0.464380108803432 9.94815309389203  0.20988910266793 9.63664497709229  0.20988910266793 9.25282247603546  L 0.20988910266793 1.04282209413038  C 0.20988910266793 0.658999593073552  0.464380108803432 0.34749147627382  0.7787959718233 0.34749147627382  C 1.09321183484317 0.34749147627382  1.34770284097867 0.658999593073552  1.34770284097867 1.04282209413038  L 1.34770284097867 9.25282247603546  Z " stroke-width="2" stroke="#797979" fill="none" transform="matrix(1 0 0 1 331 408 )" mask="url(#clip238)" />
  </g>
</svg>