<?xml version="1.0" encoding="utf-8"?>
<svg version="1.1" xmlns:xlink="http://www.w3.org/1999/xlink" width="30px" height="25px" xmlns="http://www.w3.org/2000/svg">
  <defs>
    <mask fill="white" id="clip239">
      <path d="M 28.8923934841929 16.6420074510997  C 28.8945815875358 13.5103105904158  26.9616110944133 10.8057453949867  24.1652150221804 9.54015336781015  C 24.1652150221804 9.49680808254116  24.1691536081976 9.45481733743684  24.1691536081976 9.41056902539142  C 24.1691536081976 4.85615347843092  20.273454416489 1.16051639586211  15.4666289927948 1.16051639586211  C 11.3311136747038 1.16051639586211  7.86865894489049 3.89804206863117  6.98641567703107 7.56749137468331  C 6.84987802843379 7.55665505336606  6.71290275916792 7.55033386593101  6.57461462789631 7.55033386593101  C 3.71476355871911 7.55033386593101  1.39712449791385 9.74784952639068  1.39712449791385 12.4578328824784  C 1.39712449791385 13.0384790997275  1.50565442372195 13.5960981341774  1.7008332419091 14.1117264235229  C 0.898236935731447 15.1863282874831  0.424731372326747 16.5011352739755  0.424731372326747 17.9166297460407  C 0.424731372326747 21.5097732894839  3.45569212291913 24.429258857705  7.22448132073917 24.5073706738668  L 7.22448132073917 24.5109827809725  L 20.5937927458904 24.5109827809725  C 25.1774316286084 24.5109827809725  28.8923934841929 20.9878238127032  28.8923934841929 16.6420074510997  Z " fill-rule="evenodd" />
    </mask>
  </defs>
  <g transform="matrix(1 0 0 1 -287 -319 )">
    <path d="M 28.8923934841929 16.6420074510997  C 28.8945815875358 13.5103105904158  26.9616110944133 10.8057453949867  24.1652150221804 9.54015336781015  C 24.1652150221804 9.49680808254116  24.1691536081976 9.45481733743684  24.1691536081976 9.41056902539142  C 24.1691536081976 4.85615347843092  20.273454416489 1.16051639586211  15.4666289927948 1.16051639586211  C 11.3311136747038 1.16051639586211  7.86865894489049 3.89804206863117  6.98641567703107 7.56749137468331  C 6.84987802843379 7.55665505336606  6.71290275916792 7.55033386593101  6.57461462789631 7.55033386593101  C 3.71476355871911 7.55033386593101  1.39712449791385 9.74784952639068  1.39712449791385 12.4578328824784  C 1.39712449791385 13.0384790997275  1.50565442372195 13.5960981341774  1.7008332419091 14.1117264235229  C 0.898236935731447 15.1863282874831  0.424731372326747 16.5011352739755  0.424731372326747 17.9166297460407  C 0.424731372326747 21.5097732894839  3.45569212291913 24.429258857705  7.22448132073917 24.5073706738668  L 7.22448132073917 24.5109827809725  L 20.5937927458904 24.5109827809725  C 25.1774316286084 24.5109827809725  28.8923934841929 20.9878238127032  28.8923934841929 16.6420074510997  Z " fill-rule="nonzero" fill="#ffffff" stroke="none" transform="matrix(1 0 0 1 287 319 )" />
    <path d="M 28.8923934841929 16.6420074510997  C 28.8945815875358 13.5103105904158  26.9616110944133 10.8057453949867  24.1652150221804 9.54015336781015  C 24.1652150221804 9.49680808254116  24.1691536081976 9.45481733743684  24.1691536081976 9.41056902539142  C 24.1691536081976 4.85615347843092  20.273454416489 1.16051639586211  15.4666289927948 1.16051639586211  C 11.3311136747038 1.16051639586211  7.86865894489049 3.89804206863117  6.98641567703107 7.56749137468331  C 6.84987802843379 7.55665505336606  6.71290275916792 7.55033386593101  6.57461462789631 7.55033386593101  C 3.71476355871911 7.55033386593101  1.39712449791385 9.74784952639068  1.39712449791385 12.4578328824784  C 1.39712449791385 13.0384790997275  1.50565442372195 13.5960981341774  1.7008332419091 14.1117264235229  C 0.898236935731447 15.1863282874831  0.424731372326747 16.5011352739755  0.424731372326747 17.9166297460407  C 0.424731372326747 21.5097732894839  3.45569212291913 24.429258857705  7.22448132073917 24.5073706738668  L 7.22448132073917 24.5109827809725  L 20.5937927458904 24.5109827809725  C 25.1774316286084 24.5109827809725  28.8923934841929 20.9878238127032  28.8923934841929 16.6420074510997  Z " stroke-width="2" stroke="#797979" fill="none" transform="matrix(1 0 0 1 287 319 )" mask="url(#clip239)" />
  </g>
</svg>