<?xml version="1.0" encoding="utf-8"?>
<svg version="1.1" xmlns:xlink="http://www.w3.org/1999/xlink" width="32px" height="26px" xmlns="http://www.w3.org/2000/svg">
  <defs>
    <mask fill="white" id="clip240">
      <path d="M 31.5365703373305 16.5214228992916  C 31.5365703373305 21.1991475735081  27.4100991797235 25.0050655697491  22.3383155118281 25.0050655697491  L 8.60588698624072 25.0050655697491  C 8.57621954654551 25.0050655697491  8.5465521068503 25.0032726511312  8.51778368047918 24.9992385842408  C 4.33647271010229 24.8782165775296  0.947192478255178 21.6567900507383  0.947192478255178 17.7863269842513  C 0.947192478255178 16.3959185960355  1.37197627389119 15.0592977663581  2.17884073226858 13.8974865019303  C 2.02421044052384 13.4003998151053  1.94554677466531 12.8871768607187  1.94554677466531 12.3672304615149  C 1.94554677466531 9.33540507857128  4.58909545417365 6.86431499338969  7.85566036728147 6.82352609483146  C 9.05359562164122 3.06198283438453  12.762924596867 0.479731794890399  17.0718954592657 0.479731794890399  C 22.2636974059281 0.479731794890399  26.5070402956677 4.2937179249122  26.6796508538944 9.04226288453741  C 29.6468443300778 10.5102150029792  31.5388178706407 13.4017445040687  31.5365703373305 16.5214228992916  Z M 8.61937218610218 23.6567907690551  C 8.63870097257028 23.6572389987095  8.65802975903838 23.658583687673  8.67690903884442 23.6603766062909  L 22.3383155118281 23.6603766062909  C 26.666615160695 23.6603766062909  30.1880503511844 20.4573274953336  30.1880503511844 16.5209746696372  C 30.1898483778326 13.795738370362  28.4426159824493 11.2704124969876  25.7361363702542 10.0866379794899  C 25.4911552394377 9.97951109206774  25.3329288943965 9.73791530829976  25.3329288943965 9.47077043422607  L 25.3356259343688 9.37619397712952  C 25.3365249476929 5.19690067870159  21.6289939991153 1.82442075834855  17.0718954592657 1.82442075834855  C 13.2470432718934 1.82442075834855  9.85911156003247 4.28475333182247  9.01583706202913 7.67471420870047  C 8.93672388950856 7.99340549304005  8.63690294592208 8.20765926788439  8.30876308262654 8.18300663688765  C 8.18604776388725 8.17359381414344  8.06288293848591 8.16776682863513  7.93836959309842 8.16776682863513  C 5.37753013940705 8.16776682863513  3.29451626747343 10.05167606644  3.29451626747343 12.3672304615149  C 3.29451626747343 12.8441468138881  3.38396809322112 13.3138914917895  3.5601747047442 13.7643622945479  C 3.6460304771955 13.9839948252461  3.61051945089365 14.2323140538314  3.46622781237603 14.4192258197521  C 2.70026846024506 15.4102615858207  2.29571246440124 16.5747622281755  2.29571246440124 17.7863269842513  C 2.29571246440124 20.9535177228497  5.13254900859051 23.5868669429552  8.61937218610218 23.6567907690551  Z " fill-rule="evenodd" />
    </mask>
  </defs>
  <g transform="matrix(1 0 0 1 -286 -319 )">
    <path d="M 31.5365703373305 16.5214228992916  C 31.5365703373305 21.1991475735081  27.4100991797235 25.0050655697491  22.3383155118281 25.0050655697491  L 8.60588698624072 25.0050655697491  C 8.57621954654551 25.0050655697491  8.5465521068503 25.0032726511312  8.51778368047918 24.9992385842408  C 4.33647271010229 24.8782165775296  0.947192478255178 21.6567900507383  0.947192478255178 17.7863269842513  C 0.947192478255178 16.3959185960355  1.37197627389119 15.0592977663581  2.17884073226858 13.8974865019303  C 2.02421044052384 13.4003998151053  1.94554677466531 12.8871768607187  1.94554677466531 12.3672304615149  C 1.94554677466531 9.33540507857128  4.58909545417365 6.86431499338969  7.85566036728147 6.82352609483146  C 9.05359562164122 3.06198283438453  12.762924596867 0.479731794890399  17.0718954592657 0.479731794890399  C 22.2636974059281 0.479731794890399  26.5070402956677 4.2937179249122  26.6796508538944 9.04226288453741  C 29.6468443300778 10.5102150029792  31.5388178706407 13.4017445040687  31.5365703373305 16.5214228992916  Z M 8.61937218610218 23.6567907690551  C 8.63870097257028 23.6572389987095  8.65802975903838 23.658583687673  8.67690903884442 23.6603766062909  L 22.3383155118281 23.6603766062909  C 26.666615160695 23.6603766062909  30.1880503511844 20.4573274953336  30.1880503511844 16.5209746696372  C 30.1898483778326 13.795738370362  28.4426159824493 11.2704124969876  25.7361363702542 10.0866379794899  C 25.4911552394377 9.97951109206774  25.3329288943965 9.73791530829976  25.3329288943965 9.47077043422607  L 25.3356259343688 9.37619397712952  C 25.3365249476929 5.19690067870159  21.6289939991153 1.82442075834855  17.0718954592657 1.82442075834855  C 13.2470432718934 1.82442075834855  9.85911156003247 4.28475333182247  9.01583706202913 7.67471420870047  C 8.93672388950856 7.99340549304005  8.63690294592208 8.20765926788439  8.30876308262654 8.18300663688765  C 8.18604776388725 8.17359381414344  8.06288293848591 8.16776682863513  7.93836959309842 8.16776682863513  C 5.37753013940705 8.16776682863513  3.29451626747343 10.05167606644  3.29451626747343 12.3672304615149  C 3.29451626747343 12.8441468138881  3.38396809322112 13.3138914917895  3.5601747047442 13.7643622945479  C 3.6460304771955 13.9839948252461  3.61051945089365 14.2323140538314  3.46622781237603 14.4192258197521  C 2.70026846024506 15.4102615858207  2.29571246440124 16.5747622281755  2.29571246440124 17.7863269842513  C 2.29571246440124 20.9535177228497  5.13254900859051 23.5868669429552  8.61937218610218 23.6567907690551  Z " fill-rule="nonzero" fill="#d0d0e3" stroke="none" transform="matrix(1 0 0 1 286 319 )" />
    <path d="M 31.5365703373305 16.5214228992916  C 31.5365703373305 21.1991475735081  27.4100991797235 25.0050655697491  22.3383155118281 25.0050655697491  L 8.60588698624072 25.0050655697491  C 8.57621954654551 25.0050655697491  8.5465521068503 25.0032726511312  8.51778368047918 24.9992385842408  C 4.33647271010229 24.8782165775296  0.947192478255178 21.6567900507383  0.947192478255178 17.7863269842513  C 0.947192478255178 16.3959185960355  1.37197627389119 15.0592977663581  2.17884073226858 13.8974865019303  C 2.02421044052384 13.4003998151053  1.94554677466531 12.8871768607187  1.94554677466531 12.3672304615149  C 1.94554677466531 9.33540507857128  4.58909545417365 6.86431499338969  7.85566036728147 6.82352609483146  C 9.05359562164122 3.06198283438453  12.762924596867 0.479731794890399  17.0718954592657 0.479731794890399  C 22.2636974059281 0.479731794890399  26.5070402956677 4.2937179249122  26.6796508538944 9.04226288453741  C 29.6468443300778 10.5102150029792  31.5388178706407 13.4017445040687  31.5365703373305 16.5214228992916  Z " stroke-width="2" stroke="#797979" fill="none" transform="matrix(1 0 0 1 286 319 )" mask="url(#clip240)" />
    <path d="M 8.61937218610218 23.6567907690551  C 8.63870097257028 23.6572389987095  8.65802975903838 23.658583687673  8.67690903884442 23.6603766062909  L 22.3383155118281 23.6603766062909  C 26.666615160695 23.6603766062909  30.1880503511844 20.4573274953336  30.1880503511844 16.5209746696372  C 30.1898483778326 13.795738370362  28.4426159824493 11.2704124969876  25.7361363702542 10.0866379794899  C 25.4911552394377 9.97951109206774  25.3329288943965 9.73791530829976  25.3329288943965 9.47077043422607  L 25.3356259343688 9.37619397712952  C 25.3365249476929 5.19690067870159  21.6289939991153 1.82442075834855  17.0718954592657 1.82442075834855  C 13.2470432718934 1.82442075834855  9.85911156003247 4.28475333182247  9.01583706202913 7.67471420870047  C 8.93672388950856 7.99340549304005  8.63690294592208 8.20765926788439  8.30876308262654 8.18300663688765  C 8.18604776388725 8.17359381414344  8.06288293848591 8.16776682863513  7.93836959309842 8.16776682863513  C 5.37753013940705 8.16776682863513  3.29451626747343 10.05167606644  3.29451626747343 12.3672304615149  C 3.29451626747343 12.8441468138881  3.38396809322112 13.3138914917895  3.5601747047442 13.7643622945479  C 3.6460304771955 13.9839948252461  3.61051945089365 14.2323140538314  3.46622781237603 14.4192258197521  C 2.70026846024506 15.4102615858207  2.29571246440124 16.5747622281755  2.29571246440124 17.7863269842513  C 2.29571246440124 20.9535177228497  5.13254900859051 23.5868669429552  8.61937218610218 23.6567907690551  Z " stroke-width="2" stroke="#797979" fill="none" transform="matrix(1 0 0 1 286 319 )" mask="url(#clip240)" />
  </g>
</svg>