<?xml version="1.0" encoding="utf-8"?>
<svg version="1.1" xmlns:xlink="http://www.w3.org/1999/xlink" width="40px" height="34px" xmlns="http://www.w3.org/2000/svg">
  <defs>
    <mask fill="white" id="clip247">
      <path d="M 38.9457816415519 15.74606237023  C 38.9962024072104 15.5730885253692  39.052869993393 15.4023379947096  39.1015059531874 15.2266961728071  C 32.2349115928486 8.70349230620214  23.7428052918564 3.84021482228541  14.2855652198971 1.28740545635637  C 13.7032723067616 1.14778132451493  13.1169635804321 1.01349314675659  12.5190536159865 0.890321540004751  C 12.5190536159865 0.890321540004751  -1.94322830014209 9.69197780009874  1.36133975708512 33.1314900986909  C 1.36133975708512 33.1314900986909  4.66546161284631 5.87988327055515  16.7129011949601 7.21387179133326  C 25.8805565154826 8.22859239280515  32.6132904360202 10.9041287026458  38.9457816415519 15.74606237023  Z " fill-rule="evenodd" />
    </mask>
  </defs>
  <g transform="matrix(1 0 0 1 -339 -381 )">
    <path d="M 38.9457816415519 15.74606237023  C 38.9962024072104 15.5730885253692  39.052869993393 15.4023379947096  39.1015059531874 15.2266961728071  C 32.2349115928486 8.70349230620214  23.7428052918564 3.84021482228541  14.2855652198971 1.28740545635637  C 13.7032723067616 1.14778132451493  13.1169635804321 1.01349314675659  12.5190536159865 0.890321540004751  C 12.5190536159865 0.890321540004751  -1.94322830014209 9.69197780009874  1.36133975708512 33.1314900986909  C 1.36133975708512 33.1314900986909  4.66546161284631 5.87988327055515  16.7129011949601 7.21387179133326  C 25.8805565154826 8.22859239280515  32.6132904360202 10.9041287026458  38.9457816415519 15.74606237023  Z " fill-rule="nonzero" fill="#6e6e96" stroke="none" transform="matrix(1 0 0 1 339 381 )" />
    <path d="M 38.9457816415519 15.74606237023  C 38.9962024072104 15.5730885253692  39.052869993393 15.4023379947096  39.1015059531874 15.2266961728071  C 32.2349115928486 8.70349230620214  23.7428052918564 3.84021482228541  14.2855652198971 1.28740545635637  C 13.7032723067616 1.14778132451493  13.1169635804321 1.01349314675659  12.5190536159865 0.890321540004751  C 12.5190536159865 0.890321540004751  -1.94322830014209 9.69197780009874  1.36133975708512 33.1314900986909  C 1.36133975708512 33.1314900986909  4.66546161284631 5.87988327055515  16.7129011949601 7.21387179133326  C 25.8805565154826 8.22859239280515  32.6132904360202 10.9041287026458  38.9457816415519 15.74606237023  Z " stroke-width="2" stroke="#797979" fill="none" transform="matrix(1 0 0 1 339 381 )" mask="url(#clip247)" />
  </g>
</svg>