<?xml version="1.0" encoding="utf-8"?>
<svg version="1.1" xmlns:xlink="http://www.w3.org/1999/xlink" width="57px" height="12px" xmlns="http://www.w3.org/2000/svg">
  <defs>
    <mask fill="white" id="clip252">
      <path d="M 56.1200105250996 7.42434368296085  C 56.1204517181818 3.86025592907628  53.2937276405128 0.944722006028833  49.8383034207058 0.944722006028833  L 6.81094807894356 0.944722006028833  C 3.35596505221873 0.944722006028833  0.529682167631925 3.8607110545716  0.529682167631925 7.42434368296085  L 0.529682167631925 11.9601243693628  L 56.1200105250996 11.9601243693628  L 56.1200105250996 7.42434368296085  Z " fill-rule="evenodd" />
    </mask>
  </defs>
  <g transform="matrix(1 0 0 1 -312 -324 )">
    <path d="M 56.1200105250996 7.42434368296085  C 56.1204517181818 3.86025592907628  53.2937276405128 0.944722006028833  49.8383034207058 0.944722006028833  L 6.81094807894356 0.944722006028833  C 3.35596505221873 0.944722006028833  0.529682167631925 3.8607110545716  0.529682167631925 7.42434368296085  L 0.529682167631925 11.9601243693628  L 56.1200105250996 11.9601243693628  L 56.1200105250996 7.42434368296085  Z " fill-rule="nonzero" fill="#ff7f9f" stroke="none" transform="matrix(1 0 0 1 312 324 )" />
    <path d="M 56.1200105250996 7.42434368296085  C 56.1204517181818 3.86025592907628  53.2937276405128 0.944722006028833  49.8383034207058 0.944722006028833  L 6.81094807894356 0.944722006028833  C 3.35596505221873 0.944722006028833  0.529682167631925 3.8607110545716  0.529682167631925 7.42434368296085  L 0.529682167631925 11.9601243693628  L 56.1200105250996 11.9601243693628  L 56.1200105250996 7.42434368296085  Z " stroke-width="2" stroke="#797979" fill="none" transform="matrix(1 0 0 1 312 324 )" mask="url(#clip252)" />
  </g>
</svg>