<?xml version="1.0" encoding="utf-8"?>
<svg version="1.1" xmlns:xlink="http://www.w3.org/1999/xlink" width="58px" height="13px" xmlns="http://www.w3.org/2000/svg">
  <defs>
    <mask fill="white" id="clip253">
      <path d="M 57.7828525938598 11.7789103637664  C 57.7828525938598 12.1504927473353  57.4872030720971 12.4512548454955  57.1229206256395 12.4512548454955  L 1.68863529514019 12.4512548454955  C 1.32391289403715 12.4512548454955  1.02870332691996 12.1504927473353  1.02870332691996 11.7789103637664  L 1.02870332691996 7.31185362715841  C 1.02870332691996 3.42256491518296  4.13478312400985 0.258063554511442  7.95226958284114 0.258063554511442  L 50.8588463832931 0.258063554511442  C 54.6767727967699 0.258063554511442  57.7828525938598 3.42256491518296  57.7828525938598 7.31185362715841  L 57.7828525938598 11.7789103637664  Z M 2.34812730871494 7.31185362715841  L 2.34812730871493 11  L 56.4625487027738 11  L 56.4625487027738 7.31185362715841  C 56.4625487027738 4.16393676370288  53.9482079038548 1.60275251796959  50.8584064286476 1.60275251796959  L 7.95182962819565 1.60275251796959  C 4.86202815298853 1.60275251796959  2.34812730871494 4.16393676370288  2.34812730871494 7.31185362715841  Z " fill-rule="evenodd" />
    </mask>
  </defs>
  <g transform="matrix(1 0 0 1 -311 -324 )">
    <path d="M 57.7828525938598 11.7789103637664  C 57.7828525938598 12.1504927473353  57.4872030720971 12.4512548454955  57.1229206256395 12.4512548454955  L 1.68863529514019 12.4512548454955  C 1.32391289403715 12.4512548454955  1.02870332691996 12.1504927473353  1.02870332691996 11.7789103637664  L 1.02870332691996 7.31185362715841  C 1.02870332691996 3.42256491518296  4.13478312400985 0.258063554511442  7.95226958284114 0.258063554511442  L 50.8588463832931 0.258063554511442  C 54.6767727967699 0.258063554511442  57.7828525938598 3.42256491518296  57.7828525938598 7.31185362715841  L 57.7828525938598 11.7789103637664  Z M 2.34812730871494 7.31185362715841  L 2.34812730871493 11  L 56.4625487027738 11  L 56.4625487027738 7.31185362715841  C 56.4625487027738 4.16393676370288  53.9482079038548 1.60275251796959  50.8584064286476 1.60275251796959  L 7.95182962819565 1.60275251796959  C 4.86202815298853 1.60275251796959  2.34812730871494 4.16393676370288  2.34812730871494 7.31185362715841  Z " fill-rule="nonzero" fill="#6e6e96" stroke="none" transform="matrix(1 0 0 1 311 324 )" />
    <path d="M 57.7828525938598 11.7789103637664  C 57.7828525938598 12.1504927473353  57.4872030720971 12.4512548454955  57.1229206256395 12.4512548454955  L 1.68863529514019 12.4512548454955  C 1.32391289403715 12.4512548454955  1.02870332691996 12.1504927473353  1.02870332691996 11.7789103637664  L 1.02870332691996 7.31185362715841  C 1.02870332691996 3.42256491518296  4.13478312400985 0.258063554511442  7.95226958284114 0.258063554511442  L 50.8588463832931 0.258063554511442  C 54.6767727967699 0.258063554511442  57.7828525938598 3.42256491518296  57.7828525938598 7.31185362715841  L 57.7828525938598 11.7789103637664  Z " stroke-width="2" stroke="#797979" fill="none" transform="matrix(1 0 0 1 311 324 )" mask="url(#clip253)" />
    <path d="M 2.34812730871494 7.31185362715841  L 2.34812730871493 11  L 56.4625487027738 11  L 56.4625487027738 7.31185362715841  C 56.4625487027738 4.16393676370288  53.9482079038548 1.60275251796959  50.8584064286476 1.60275251796959  L 7.95182962819565 1.60275251796959  C 4.86202815298853 1.60275251796959  2.34812730871494 4.16393676370288  2.34812730871494 7.31185362715841  Z " stroke-width="2" stroke="#797979" fill="none" transform="matrix(1 0 0 1 311 324 )" mask="url(#clip253)" />
  </g>
</svg>