<?xml version="1.0" encoding="utf-8"?>
<svg version="1.1" xmlns:xlink="http://www.w3.org/1999/xlink" width="13px" height="20px" xmlns="http://www.w3.org/2000/svg">
  <defs>
    <mask fill="white" id="clip255">
      <path d="M 0.34947672420264 4.03541817095047  L 0.34947672420264 0.720141278539176  L 12.5933179661436 0.720141278539176  L 12.5933179661436 3.30097055790754  C 11.582111865623 4.2924302153689  10.5543212678865 5.71536669045634  9.50994617293406 7.57067238610185  C 8.46467461867258 9.42597808174737  7.66817052265087 11.398188561486  7.12088211452341 13.4859652209197  C 6.57269724708695 15.5746342832854  6.30331122474084 17.439756411183  6.31093112886712 19.0831164104765  L 2.86180393759696 19.0831164104765  C 2.92141848164362 16.5094263545642  3.45346708151854 13.8857617344595  4.45929442618524 11.2103377442982  C 5.46601823016091 8.53491375413697  6.8093625046556 6.14327389635439  8.49022370897828 4.03497196948448  L 0.34947672420264 4.03541817095047  Z " fill-rule="evenodd" />
    </mask>
  </defs>
  <g transform="matrix(1 0 0 1 -342 -344 )">
    <path d="M 0.34947672420264 4.03541817095047  L 0.34947672420264 0.720141278539176  L 12.5933179661436 0.720141278539176  L 12.5933179661436 3.30097055790754  C 11.582111865623 4.2924302153689  10.5543212678865 5.71536669045634  9.50994617293406 7.57067238610185  C 8.46467461867258 9.42597808174737  7.66817052265087 11.398188561486  7.12088211452341 13.4859652209197  C 6.57269724708695 15.5746342832854  6.30331122474084 17.439756411183  6.31093112886712 19.0831164104765  L 2.86180393759696 19.0831164104765  C 2.92141848164362 16.5094263545642  3.45346708151854 13.8857617344595  4.45929442618524 11.2103377442982  C 5.46601823016091 8.53491375413697  6.8093625046556 6.14327389635439  8.49022370897828 4.03497196948448  L 0.34947672420264 4.03541817095047  Z " fill-rule="nonzero" fill="#6e6e96" stroke="none" transform="matrix(1 0 0 1 342 344 )" />
    <path d="M 0.34947672420264 4.03541817095047  L 0.34947672420264 0.720141278539176  L 12.5933179661436 0.720141278539176  L 12.5933179661436 3.30097055790754  C 11.582111865623 4.2924302153689  10.5543212678865 5.71536669045634  9.50994617293406 7.57067238610185  C 8.46467461867258 9.42597808174737  7.66817052265087 11.398188561486  7.12088211452341 13.4859652209197  C 6.57269724708695 15.5746342832854  6.30331122474084 17.439756411183  6.31093112886712 19.0831164104765  L 2.86180393759696 19.0831164104765  C 2.92141848164362 16.5094263545642  3.45346708151854 13.8857617344595  4.45929442618524 11.2103377442982  C 5.46601823016091 8.53491375413697  6.8093625046556 6.14327389635439  8.49022370897828 4.03497196948448  L 0.34947672420264 4.03541817095047  Z " stroke-width="2" stroke="#797979" fill="none" transform="matrix(1 0 0 1 342 344 )" mask="url(#clip255)" />
  </g>
</svg>