<?xml version="1.0" encoding="utf-8"?>
<svg version="1.1" xmlns:xlink="http://www.w3.org/1999/xlink" width="15px" height="14px" xmlns="http://www.w3.org/2000/svg">
  <defs>
    <mask fill="white" id="clip256">
      <path d="M 14.902602442053 1.23010416666667  C 14.9045426324503 1.87177083333333  14.3457677980132 2.39677083333333  13.6628207781457 2.39677083333333  L 1.24754242549669 2.39677083333333  C 0.564595405629139 2.39677083333333  0.00582057119205333 1.87177083333333  0.00582057119205333 1.23010416666667  C 0.00582057119205333 0.588437500000001  0.564595405629139 0.0634375000000003  1.24754242549669 0.0634375000000003  L 13.6608805877483 0.0634375000000003  C 14.3438276076159 0.0634375000000003  14.902602442053 0.588437500000001  14.902602442053 1.23010416666667  Z M 14.9045426324503 6.94130208333333  C 14.9045426324503 7.58296875  14.3457677980132 8.10796875  13.6628207781457 8  L 1.32126966059603 8  C 0.638322640728476 8.10796875  0.0795478062913907 7.58296875  0.0795478062913907 6.94130208333333  C 0.0795478062913907 6.29963541666667  0.638322640728477 5.77463541666667  1.32126966059603 6  L 13.6628207781457 6  C 14.3457677980132 5.77463541666667  14.9045426324503 6.29963541666667  14.9045426324503 6.94130208333333  Z M 14.902602442053 12.75640625  C 14.9045426324503 13.3980729166667  14.3457677980132 13.9230729166667  13.6628207781457 13.9230729166667  L 1.24754242549669 13.9230729166667  C 0.564595405629139 13.9230729166667  0.00582057119205333 13.3980729166667  0.00582057119205333 12.75640625  C 0.00582057119205333 12.1147395833333  0.564595405629139 11.5897395833333  1.24754242549669 11.5897395833333  L 13.6608805877483 11.5897395833333  C 14.3438276076159 11.5897395833333  14.902602442053 12.1147395833333  14.902602442053 12.75640625  Z " fill-rule="evenodd" />
    </mask>
  </defs>
  <g transform="matrix(1 0 0 1 -255 -56 )">
    <path d="M 14.902602442053 1.23010416666667  C 14.9045426324503 1.87177083333333  14.3457677980132 2.39677083333333  13.6628207781457 2.39677083333333  L 1.24754242549669 2.39677083333333  C 0.564595405629139 2.39677083333333  0.00582057119205333 1.87177083333333  0.00582057119205333 1.23010416666667  C 0.00582057119205333 0.588437500000001  0.564595405629139 0.0634375000000003  1.24754242549669 0.0634375000000003  L 13.6608805877483 0.0634375000000003  C 14.3438276076159 0.0634375000000003  14.902602442053 0.588437500000001  14.902602442053 1.23010416666667  Z M 14.9045426324503 6.94130208333333  C 14.9045426324503 7.58296875  14.3457677980132 8.10796875  13.6628207781457 8  L 1.32126966059603 8  C 0.638322640728476 8.10796875  0.0795478062913907 7.58296875  0.0795478062913907 6.94130208333333  C 0.0795478062913907 6.29963541666667  0.638322640728477 5.77463541666667  1.32126966059603 6  L 13.6628207781457 6  C 14.3457677980132 5.77463541666667  14.9045426324503 6.29963541666667  14.9045426324503 6.94130208333333  Z M 14.902602442053 12.75640625  C 14.9045426324503 13.3980729166667  14.3457677980132 13.9230729166667  13.6628207781457 13.9230729166667  L 1.24754242549669 13.9230729166667  C 0.564595405629139 13.9230729166667  0.00582057119205333 13.3980729166667  0.00582057119205333 12.75640625  C 0.00582057119205333 12.1147395833333  0.564595405629139 11.5897395833333  1.24754242549669 11.5897395833333  L 13.6608805877483 11.5897395833333  C 14.3438276076159 11.5897395833333  14.902602442053 12.1147395833333  14.902602442053 12.75640625  Z " fill-rule="nonzero" fill="#ffffff" stroke="none" transform="matrix(1 0 0 1 255 56 )" />
    <path d="M 14.902602442053 1.23010416666667  C 14.9045426324503 1.87177083333333  14.3457677980132 2.39677083333333  13.6628207781457 2.39677083333333  L 1.24754242549669 2.39677083333333  C 0.564595405629139 2.39677083333333  0.00582057119205333 1.87177083333333  0.00582057119205333 1.23010416666667  C 0.00582057119205333 0.588437500000001  0.564595405629139 0.0634375000000003  1.24754242549669 0.0634375000000003  L 13.6608805877483 0.0634375000000003  C 14.3438276076159 0.0634375000000003  14.902602442053 0.588437500000001  14.902602442053 1.23010416666667  Z " stroke-width="2" stroke="#ffffff" fill="none" transform="matrix(1 0 0 1 255 56 )" mask="url(#clip256)" />
    <path d="M 14.9045426324503 6.94130208333333  C 14.9045426324503 7.58296875  14.3457677980132 8.10796875  13.6628207781457 8  L 1.32126966059603 8  C 0.638322640728476 8.10796875  0.0795478062913907 7.58296875  0.0795478062913907 6.94130208333333  C 0.0795478062913907 6.29963541666667  0.638322640728477 5.77463541666667  1.32126966059603 6  L 13.6628207781457 6  C 14.3457677980132 5.77463541666667  14.9045426324503 6.29963541666667  14.9045426324503 6.94130208333333  Z " stroke-width="2" stroke="#ffffff" fill="none" transform="matrix(1 0 0 1 255 56 )" mask="url(#clip256)" />
    <path d="M 14.902602442053 12.75640625  C 14.9045426324503 13.3980729166667  14.3457677980132 13.9230729166667  13.6628207781457 13.9230729166667  L 1.24754242549669 13.9230729166667  C 0.564595405629139 13.9230729166667  0.00582057119205333 13.3980729166667  0.00582057119205333 12.75640625  C 0.00582057119205333 12.1147395833333  0.564595405629139 11.5897395833333  1.24754242549669 11.5897395833333  L 13.6608805877483 11.5897395833333  C 14.3438276076159 11.5897395833333  14.902602442053 12.1147395833333  14.902602442053 12.75640625  Z " stroke-width="2" stroke="#ffffff" fill="none" transform="matrix(1 0 0 1 255 56 )" mask="url(#clip256)" />
  </g>
</svg>