<?xml version="1.0" encoding="utf-8"?>
<svg version="1.1" xmlns:xlink="http://www.w3.org/1999/xlink" width="27px" height="22px" xmlns="http://www.w3.org/2000/svg">
  <defs>
    <mask fill="white" id="clip258">
      <path d="M 26.5259376137535 21.6522217099472  C 26.959554038247 21.3034805567782  27.0442836914062 20.658049081206  26.7103492015797 20.2052060244278  L 22.4389780316362 14.380707537412  C 23.954143542883 12.871230721831  24.9061060740041 10.7579631739657  24.9061060740041 8.40526137488997  C 24.9061060740041 3.8456003631162  21.3424766923506 0.134369423965673  16.9664394939045 0.134369423965673  C 12.5854182016226 0.134369423965673  9.02677291380496 3.8456003631162  9.02677291380496 8.40526137488997  C 9.02677291380496 12.9649223866637  12.5904022954585 16.6761533258143  16.9664394939045 16.6761533258143  C 18.3769389476734 16.6761533258143  19.6977246834219 16.2857713990977  20.8490510838772 15.6143144476232  L 25.1353745353279 21.4596332911532  C 25.3297543108258 21.7250930182659  25.6238160499656 21.865630515515  25.9278459767772 21.865630515515  C 26.1371780627576 21.865630515515  26.3514942135989 21.7979643265845  26.5259376137535 21.6522217099472  Z M 8.01500119870366 3.21578421544894  C 8.01500119870366 3.78313929357395  7.57141658653848 4.24639252860916  7.02316588792064 4.24639252860916  L 1.07713811705867 4.24639252860916  C 0.528887447415855 4.24639252860916  0.085302806275763 3.78313929357395  0.085302806275763 3.21578421544894  C 0.085302806275763 2.64842913732394  0.528887447415855 2.18517590228873  1.07713811705867 2.18517590228873  L 7.02316588792064 2.18517590228873  C 7.57141655756357 2.18517590228873  8.01500119870366 2.64842913732394  8.01500119870366 3.21578421544894  Z M 7.77576454970813 13.4229705325704  C 7.77576454970813 13.9903256409551  7.33217990856804 14.4535788457306  6.78392923892511 14.4535788457306  L 1.07713811705867 14.4535788457306  C 0.528887447415855 14.4535788457306  0.085302806275763 13.9903256106954  0.085302806275763 13.4229705325704  C 0.085302806275763 12.8556154544454  0.528887447415855 12.3923622194102  1.07713811705867 12.3923622194102  L 6.78392923892511 12.3923622194102  C 7.33217990856804 12.3923622194102  7.77576454970813 12.8556154544454  7.77576454970813 13.4229705325704  Z M 6.60450174493474 8.30115956205986  C 6.59951765109895 8.87371972931338  6.15593300995874 9.33697296434859  5.61266643415183 9.33697296434859  L 1.07713811705867 9.33697296434859  C 0.528887447415855 9.33697296434859  0.085302806275763 8.87371972931338  0.085302806275763 8.30115956205986  C 0.085302806275763 7.72859939480634  0.528887447415855 7.26534615977113  1.07713811705867 7.26534615977113  L 5.61266643415183 7.26534615977113  C 6.16091710379465 7.26534615977113  6.60450174493474 7.72859939480634  6.60450174493474 8.30115956205986  Z M 12.989130034126 18.7165495956206  C 12.9891300631009 19.2891097628741  12.5455454219609 19.7523629979093  11.9972947523179 19.7523629979093  L 1.07713811705867 19.7523629979093  C 0.528887447415855 19.7523629979093  0.085302806275763 19.2891097628741  0.085302806275763 18.7165495956206  C 0.085302806275763 18.1439894283671  0.528887447415855 17.6807361933319  1.07713811705867 17.6807361933319  L 11.997294723343 17.6807361933319  C 12.545545392986 17.6807361933319  12.989130034126 18.1439894283671  12.989130034126 18.7165495956206  Z M 16.9664394939045 14.7554742270026  C 13.6021740105598 14.7554742270026  10.8659047272064 11.9082886278609  10.8659047272064 8.40526140514964  C 10.8659047272064 4.90223418243838  13.6021740105598 2.05504858329665  16.9664394939045 2.05504858329665  C 20.3307049772493 2.05504858329665  23.0669742606026 4.9022341521787  23.0669742606026 8.40526140514964  C 23.0669742606026 11.9082886581206  20.3307049772493 14.7554742270026  16.9664394939045 14.7554742270026  Z " fill-rule="evenodd" />
    </mask>
  </defs>
  <g transform="matrix(1 0 0 1 -1013 -54 )">
    <path d="M 26.5259376137535 21.6522217099472  C 26.959554038247 21.3034805567782  27.0442836914062 20.658049081206  26.7103492015797 20.2052060244278  L 22.4389780316362 14.380707537412  C 23.954143542883 12.871230721831  24.9061060740041 10.7579631739657  24.9061060740041 8.40526137488997  C 24.9061060740041 3.8456003631162  21.3424766923506 0.134369423965673  16.9664394939045 0.134369423965673  C 12.5854182016226 0.134369423965673  9.02677291380496 3.8456003631162  9.02677291380496 8.40526137488997  C 9.02677291380496 12.9649223866637  12.5904022954585 16.6761533258143  16.9664394939045 16.6761533258143  C 18.3769389476734 16.6761533258143  19.6977246834219 16.2857713990977  20.8490510838772 15.6143144476232  L 25.1353745353279 21.4596332911532  C 25.3297543108258 21.7250930182659  25.6238160499656 21.865630515515  25.9278459767772 21.865630515515  C 26.1371780627576 21.865630515515  26.3514942135989 21.7979643265845  26.5259376137535 21.6522217099472  Z M 8.01500119870366 3.21578421544894  C 8.01500119870366 3.78313929357395  7.57141658653848 4.24639252860916  7.02316588792064 4.24639252860916  L 1.07713811705867 4.24639252860916  C 0.528887447415855 4.24639252860916  0.085302806275763 3.78313929357395  0.085302806275763 3.21578421544894  C 0.085302806275763 2.64842913732394  0.528887447415855 2.18517590228873  1.07713811705867 2.18517590228873  L 7.02316588792064 2.18517590228873  C 7.57141655756357 2.18517590228873  8.01500119870366 2.64842913732394  8.01500119870366 3.21578421544894  Z M 7.77576454970813 13.4229705325704  C 7.77576454970813 13.9903256409551  7.33217990856804 14.4535788457306  6.78392923892511 14.4535788457306  L 1.07713811705867 14.4535788457306  C 0.528887447415855 14.4535788457306  0.085302806275763 13.9903256106954  0.085302806275763 13.4229705325704  C 0.085302806275763 12.8556154544454  0.528887447415855 12.3923622194102  1.07713811705867 12.3923622194102  L 6.78392923892511 12.3923622194102  C 7.33217990856804 12.3923622194102  7.77576454970813 12.8556154544454  7.77576454970813 13.4229705325704  Z M 6.60450174493474 8.30115956205986  C 6.59951765109895 8.87371972931338  6.15593300995874 9.33697296434859  5.61266643415183 9.33697296434859  L 1.07713811705867 9.33697296434859  C 0.528887447415855 9.33697296434859  0.085302806275763 8.87371972931338  0.085302806275763 8.30115956205986  C 0.085302806275763 7.72859939480634  0.528887447415855 7.26534615977113  1.07713811705867 7.26534615977113  L 5.61266643415183 7.26534615977113  C 6.16091710379465 7.26534615977113  6.60450174493474 7.72859939480634  6.60450174493474 8.30115956205986  Z M 12.989130034126 18.7165495956206  C 12.9891300631009 19.2891097628741  12.5455454219609 19.7523629979093  11.9972947523179 19.7523629979093  L 1.07713811705867 19.7523629979093  C 0.528887447415855 19.7523629979093  0.085302806275763 19.2891097628741  0.085302806275763 18.7165495956206  C 0.085302806275763 18.1439894283671  0.528887447415855 17.6807361933319  1.07713811705867 17.6807361933319  L 11.997294723343 17.6807361933319  C 12.545545392986 17.6807361933319  12.989130034126 18.1439894283671  12.989130034126 18.7165495956206  Z M 16.9664394939045 14.7554742270026  C 13.6021740105598 14.7554742270026  10.8659047272064 11.9082886278609  10.8659047272064 8.40526140514964  C 10.8659047272064 4.90223418243838  13.6021740105598 2.05504858329665  16.9664394939045 2.05504858329665  C 20.3307049772493 2.05504858329665  23.0669742606026 4.9022341521787  23.0669742606026 8.40526140514964  C 23.0669742606026 11.9082886581206  20.3307049772493 14.7554742270026  16.9664394939045 14.7554742270026  Z " fill-rule="nonzero" fill="#ffffff" stroke="none" transform="matrix(1 0 0 1 1013 54 )" />
    <path d="M 26.5259376137535 21.6522217099472  C 26.959554038247 21.3034805567782  27.0442836914062 20.658049081206  26.7103492015797 20.2052060244278  L 22.4389780316362 14.380707537412  C 23.954143542883 12.871230721831  24.9061060740041 10.7579631739657  24.9061060740041 8.40526137488997  C 24.9061060740041 3.8456003631162  21.3424766923506 0.134369423965673  16.9664394939045 0.134369423965673  C 12.5854182016226 0.134369423965673  9.02677291380496 3.8456003631162  9.02677291380496 8.40526137488997  C 9.02677291380496 12.9649223866637  12.5904022954585 16.6761533258143  16.9664394939045 16.6761533258143  C 18.3769389476734 16.6761533258143  19.6977246834219 16.2857713990977  20.8490510838772 15.6143144476232  L 25.1353745353279 21.4596332911532  C 25.3297543108258 21.7250930182659  25.6238160499656 21.865630515515  25.9278459767772 21.865630515515  C 26.1371780627576 21.865630515515  26.3514942135989 21.7979643265845  26.5259376137535 21.6522217099472  Z " stroke-width="2" stroke="#ffffff" fill="none" transform="matrix(1 0 0 1 1013 54 )" mask="url(#clip258)" />
    <path d="M 8.01500119870366 3.21578421544894  C 8.01500119870366 3.78313929357395  7.57141658653848 4.24639252860916  7.02316588792064 4.24639252860916  L 1.07713811705867 4.24639252860916  C 0.528887447415855 4.24639252860916  0.085302806275763 3.78313929357395  0.085302806275763 3.21578421544894  C 0.085302806275763 2.64842913732394  0.528887447415855 2.18517590228873  1.07713811705867 2.18517590228873  L 7.02316588792064 2.18517590228873  C 7.57141655756357 2.18517590228873  8.01500119870366 2.64842913732394  8.01500119870366 3.21578421544894  Z " stroke-width="2" stroke="#ffffff" fill="none" transform="matrix(1 0 0 1 1013 54 )" mask="url(#clip258)" />
    <path d="M 7.77576454970813 13.4229705325704  C 7.77576454970813 13.9903256409551  7.33217990856804 14.4535788457306  6.78392923892511 14.4535788457306  L 1.07713811705867 14.4535788457306  C 0.528887447415855 14.4535788457306  0.085302806275763 13.9903256106954  0.085302806275763 13.4229705325704  C 0.085302806275763 12.8556154544454  0.528887447415855 12.3923622194102  1.07713811705867 12.3923622194102  L 6.78392923892511 12.3923622194102  C 7.33217990856804 12.3923622194102  7.77576454970813 12.8556154544454  7.77576454970813 13.4229705325704  Z " stroke-width="2" stroke="#ffffff" fill="none" transform="matrix(1 0 0 1 1013 54 )" mask="url(#clip258)" />
    <path d="M 6.60450174493474 8.30115956205986  C 6.59951765109895 8.87371972931338  6.15593300995874 9.33697296434859  5.61266643415183 9.33697296434859  L 1.07713811705867 9.33697296434859  C 0.528887447415855 9.33697296434859  0.085302806275763 8.87371972931338  0.085302806275763 8.30115956205986  C 0.085302806275763 7.72859939480634  0.528887447415855 7.26534615977113  1.07713811705867 7.26534615977113  L 5.61266643415183 7.26534615977113  C 6.16091710379465 7.26534615977113  6.60450174493474 7.72859939480634  6.60450174493474 8.30115956205986  Z " stroke-width="2" stroke="#ffffff" fill="none" transform="matrix(1 0 0 1 1013 54 )" mask="url(#clip258)" />
    <path d="M 12.989130034126 18.7165495956206  C 12.9891300631009 19.2891097628741  12.5455454219609 19.7523629979093  11.9972947523179 19.7523629979093  L 1.07713811705867 19.7523629979093  C 0.528887447415855 19.7523629979093  0.085302806275763 19.2891097628741  0.085302806275763 18.7165495956206  C 0.085302806275763 18.1439894283671  0.528887447415855 17.6807361933319  1.07713811705867 17.6807361933319  L 11.997294723343 17.6807361933319  C 12.545545392986 17.6807361933319  12.989130034126 18.1439894283671  12.989130034126 18.7165495956206  Z " stroke-width="2" stroke="#ffffff" fill="none" transform="matrix(1 0 0 1 1013 54 )" mask="url(#clip258)" />
    <path d="M 16.9664394939045 14.7554742270026  C 13.6021740105598 14.7554742270026  10.8659047272064 11.9082886278609  10.8659047272064 8.40526140514964  C 10.8659047272064 4.90223418243838  13.6021740105598 2.05504858329665  16.9664394939045 2.05504858329665  C 20.3307049772493 2.05504858329665  23.0669742606026 4.9022341521787  23.0669742606026 8.40526140514964  C 23.0669742606026 11.9082886581206  20.3307049772493 14.7554742270026  16.9664394939045 14.7554742270026  Z " stroke-width="2" stroke="#ffffff" fill="none" transform="matrix(1 0 0 1 1013 54 )" mask="url(#clip258)" />
  </g>
</svg>