<?xml version="1.0" encoding="utf-8"?>
<svg version="1.1" xmlns:xlink="http://www.w3.org/1999/xlink" width="11px" height="13px" xmlns="http://www.w3.org/2000/svg">
  <g transform="matrix(1 0 0 1 -242 -82 )">
    <path d="M 6.51345755693582 11.6192384769539  C 6.58937198067633 11.7060788243153  6.62732919254658 11.8059452237809  6.62732919254658 11.9188376753507  C 6.62732919254658 12.0317301269205  6.58937198067633 12.1315965263861  6.51345755693582 12.2184368737475  L 5.94409937888199 12.8697394789579  C 5.86818495514148 12.9565798263193  5.78088336783989 13  5.68219461697723 13  C 5.58350586611456 13  5.49620427881298 12.9565798263193  5.42028985507246 12.8697394789579  L 0.113871635610766 6.79959919839679  C 0.0379572118702554 6.7127588510354  0 6.61289245156981  0 6.5  C 0 6.38710754843019  0.0379572118702554 6.2872411489646  0.113871635610766 6.20040080160321  L 5.42028985507246 0.130260521042084  C 5.49620427881298 0.0434201736806943  5.58350586611456 0  5.68219461697723 0  C 5.78088336783989 0  5.86818495514148 0.0434201736806943  5.94409937888199 0.130260521042084  L 6.51345755693582 0.781563126252504  C 6.58937198067633 0.868403473613893  6.62732919254658 0.968269873079491  6.62732919254658 1.0811623246493  C 6.62732919254658 1.1940547762191  6.58937198067633 1.2939211756847  6.51345755693582 1.38076152304609  L 2.03830227743271 6.5  L 6.51345755693582 11.6192384769539  Z M 10.8861283643892 11.6192384769539  C 10.9620427881297 11.7060788243153  11 11.8059452237809  11 11.9188376753507  C 11 12.0317301269205  10.9620427881297 12.1315965263861  10.8861283643892 12.2184368737475  L 10.3167701863354 12.8697394789579  C 10.2408557625949 12.9565798263193  10.1535541752933 13  10.0548654244306 13  C 9.95617667356798 13  9.86887508626639 12.9565798263193  9.79296066252588 12.8697394789579  L 4.48654244306418 6.79959919839679  C 4.41062801932367 6.7127588510354  4.37267080745342 6.61289245156981  4.37267080745342 6.5  C 4.37267080745342 6.38710754843019  4.41062801932367 6.2872411489646  4.48654244306418 6.20040080160321  L 9.79296066252588 0.130260521042084  C 9.86887508626639 0.0434201736806943  9.95617667356798 0  10.0548654244306 0  C 10.1535541752933 0  10.2408557625949 0.0434201736806943  10.3167701863354 0.130260521042084  L 10.8861283643892 0.781563126252504  C 10.9620427881297 0.868403473613893  11 0.968269873079491  11 1.0811623246493  C 11 1.1940547762191  10.9620427881297 1.2939211756847  10.8861283643892 1.38076152304609  L 6.41097308488613 6.5  L 10.8861283643892 11.6192384769539  Z " fill-rule="nonzero" fill="#7f7f7f" stroke="none" transform="matrix(1 0 0 1 242 82 )" />
  </g>
</svg>