<?xml version="1.0" encoding="utf-8"?>
<svg version="1.1" xmlns:xlink="http://www.w3.org/1999/xlink" width="11px" height="7px" xmlns="http://www.w3.org/2000/svg">
  <g transform="matrix(1 0 0 1 -1163 -165 )">
    <path d="M 10.9704200634058 0.633958899456522  C 10.9704200634058 0.313115658967391  10.6979732789855 0.0532014266304348  10.3620074728261 0.0532014266304348  L 9.73055366847826 0.0532014266304348  L 9.73055366847826 2.92667289402174  C 9.73055366847826 3.24736752717391  9.45810688405797 3.50743036684783  9.12214107789855 3.50743036684783  L 1.8490574048913 3.50743036684783  C 1.51309159873188 3.50743036684783  1.24064481431159 3.24736752717391  1.24064481431159 2.92667289402174  L 1.24064481431159 0.0532014266304348  L 0.609191009963769 0.0532014266304348  C 0.273225203804348 0.0532014266304348  0.000778419384058537 0.313264266304348  0.000778419384058537 0.633958899456522  L 0.000778419384058537 6.38075322690217  C 0.000778419384058537 6.70144786005435  0.273225203804348 6.96151069972826  0.609191009963769 6.96151069972826  L 10.3620074728261 6.96151069972826  C 10.6979732789855 6.96151069972826  10.9704200634058 6.70144786005435  10.9704200634058 6.38075322690217  L 10.9704200634058 0.633958899456522  Z " fill-rule="nonzero" fill="#ffffff" stroke="none" transform="matrix(1 0 0 1 1163 165 )" />
  </g>
</svg>