<?xml version="1.0" encoding="utf-8"?>
<svg version="1.1" xmlns:xlink="http://www.w3.org/1999/xlink" width="7px" height="7px" xmlns="http://www.w3.org/2000/svg">
  <g transform="matrix(1 0 0 1 -1165 -160 )">
    <path d="M 0.0210895944148936 6.37337239583333  C 0.0210895944148936 6.68070475260417  0.275619182180851 6.929931640625  0.589490525265957 6.929931640625  L 6.38360206117021 6.929931640625  C 6.69747340425532 6.929931640625  6.95200299202128 6.68070475260417  6.95200299202128 6.37337239583333  L 6.95200299202128 0.558125813802083  C 6.95200299202128 0.25079345703125  6.69747340425532 0.00156656901041667  6.38360206117021 0.00156656901041667  L 0.589490525265957 0.00156656901041667  C 0.275619182180851 0.00156656901041667  0.0210895944148936 0.25079345703125  0.0210895944148936 0.558125813802083  L 0.0210895944148936 6.37337239583333  Z M 1.26624833776596 2.34202067057292  C 1.11789394946809 2.34202067057292  0.997755984042553 2.2242431640625  0.997755984042553 2.07912190755208  C 0.997755984042553 1.93400065104167  1.11789394946809 1.81622314453125  1.26624833776596 1.81622314453125  L 5.70698969414894 1.81622314453125  C 5.85519863696809 1.81622314453125  5.97548204787234 1.93385823567708  5.97548204787234 2.07912190755208  C 5.97548204787234 2.2242431640625  5.85534408244681 2.34202067057292  5.70698969414894 2.34202067057292  L 1.26624833776596 2.34202067057292  Z M 0.997755984042553 3.51509602864583  C 0.997755984042553 3.36983235677083  1.11789394946809 3.252197265625  1.26624833776596 3.252197265625  L 5.70698969414894 3.252197265625  C 5.85519863696809 3.252197265625  5.97548204787234 3.36983235677083  5.97548204787234 3.51509602864583  C 5.97548204787234 3.66035970052083  5.85534408244681 3.77799479166667  5.70698969414894 3.77799479166667  L 1.26624833776596 3.77799479166667  C 1.11803939494681 3.77799479166667  0.997755984042553 3.66035970052083  0.997755984042553 3.51509602864583  Z M 0.997755984042553 4.85237630208333  C 0.997755984042553 4.70725504557292  1.11789394946809 4.5894775390625  1.26624833776596 4.5894775390625  L 5.70698969414894 4.5894775390625  C 5.85519863696809 4.5894775390625  5.97548204787234 4.70711263020833  5.97548204787234 4.85237630208333  C 5.97548204787234 4.99749755859375  5.85534408244681 5.11527506510417  5.70698969414894 5.11527506510417  L 1.26624833776596 5.11527506510417  C 1.11803939494681 5.11527506510417  0.997755984042553 4.99763997395833  0.997755984042553 4.85237630208333  Z " fill-rule="nonzero" fill="#ffffff" stroke="none" transform="matrix(1 0 0 1 1165 160 )" />
  </g>
</svg>