<?xml version="1.0" encoding="utf-8"?>
<svg version="1.1" xmlns:xlink="http://www.w3.org/1999/xlink" width="125px" height="139px" xmlns="http://www.w3.org/2000/svg">
  <g transform="matrix(1 0 0 1 -245 -480 )">
    <path d="M 1 124.824451627323  L 0.558180270451691 124  L 124 124  L 124 138  L 1 138  L 1 124.824451627323  Z M 124 97.1832326360484  C 124.812003323806 92.1117376884422  120.701095800312 87.9995688033189  115.630014805552 88  L 85.4834499913386 88  C 82.765138067862 84.790216045343  80.8342736347495 81.1522482782128  80.5180810434801 77.073122418293  C 79.2235120014291 60.3884258686845  97.1998328623706 52.3995703478633  97.1998328623706 31.9367763955436  C 97.1998328623706 14.5572325396362  83.9693664468841 0.541467025047715  62.6853614503486 0.541467025047715  C 41.4009519401498 0.541467025047715  28.1703507318869 14.5572325396362  28.1703507318869 31.9367763955436  C 28.1703507318869 52.3995702124966  46.1468065209389 60.3888303445522  44.8523721363302 77.073122418293  C 44.5357750313975 81.152383103502  42.6053151119484 84.7903508706322  39.8870033238058 88  L 9.73989906781863 88  C 4.66935737949851 87.9995689386857  0.558584784115025 92.1117376884422  1 97.1832326360484  L 1 115  L 124 115  L 124 97.1832326360484  Z " fill-rule="nonzero" fill="#d9001b" stroke="none" transform="matrix(1 0 0 1 245 480 )" />
  </g>
</svg>