<?xml version="1.0" encoding="utf-8"?>
<svg version="1.1" xmlns:xlink="http://www.w3.org/1999/xlink" width="14px" height="12px" xmlns="http://www.w3.org/2000/svg">
  <g transform="matrix(1 0 0 1 -322 -207 )">
    <path d="M 3.79650135869565 5.38239397321429  C 3.99089461616848 5.51120256696429  4.25919030230978 5.38067801339286  4.25919030230978 5.15732421875  L 4.25919030230978 3.64609375  L 10.1715926460598 3.64609375  C 10.7977645210598 3.64609375  11.3411918308424 3.97844587053571  11.6128757642663 4.46545758928571  C 11.8169730808424 4.1939453125  11.9369437839674 3.8626953125  11.9369437839674 3.50510602678571  C 11.9369437839674 2.5841796875  11.1417162024457 1.83761160714286  10.1606997282609 1.83761160714286  L 4.25920516304348 1.83761160714286  L 4.25920516304348 0.320396205357143  C 4.25920516304348 0.0970145089285714  3.99087975543478 -0.0334960937500002  3.79650135869565 0.095326450892857  L 0.14697265625 2.51378348214286  C -0.0186650815217391 2.62354910714286  -0.0186650815217391 2.85415736607143  0.14697265625 2.96392299107143  L 3.79650135869565 5.38239397321429  Z M 13.8383152173913 9.48649553571429  C 14.0039380944293 9.37670200892857  14.0039380944293 9.14609375  13.8383152173913 9.03634207589286  L 10.188771654212 6.61788504464286  C 9.99439325747283 6.48904854910714  9.72608271059783 6.61955915178571  9.72608271059783 6.84294084821428  L 9.72608271059783 8.35421316964286  L 3.81371008831522 8.35421316964286  C 3.18750849184783 8.35421316964286  2.64408118206522 8.02186104910714  2.372412109375 7.53484933035714  C 2.16829993206522 7.80636160714286  2.04834408967391 8.13761160714286  2.04834408967391 8.49517299107143  C 2.04834408967391 9.41612723214286  2.84358653192935 10.1626813616071  3.82457328464674 10.1626813616071  L 9.72608271059783 10.1626813616071  L 9.72608271059783 11.6798967633929  C 9.72608271059783 11.9032645089286  9.99440811820652 12.0337751116071  10.188771654212 11.9049525669643  L 13.8383152173913 9.48649553571429  Z " fill-rule="nonzero" fill="#ffffff" stroke="none" transform="matrix(1 0 0 1 322 207 )" />
  </g>
</svg>