<?xml version="1.0" encoding="utf-8"?>
<svg version="1.1" xmlns:xlink="http://www.w3.org/1999/xlink" width="10px" height="231px" preserveAspectRatio="xMidYMin meet" viewBox="946 598  8 231" xmlns="http://www.w3.org/2000/svg">
  <defs>
    <mask fill="white" id="clip4">
      <path d="M 929 703  L 971 703  L 971 725  L 929 725  Z M 929 594  L 971 594  L 971 833  L 929 833  Z " fill-rule="evenodd" />
    </mask>
  </defs>
  <path d="M 940 824.5  L 945 824.5  A 5 5 0 0 0 950.5 819.5 L 950.5 608  A 5 5 0 0 0 945.5 603.5 L 944 603.5  " stroke-width="1" stroke="#0054cc" fill="none" mask="url(#clip4)" />
  <path d="M 942 821.5  A 3 3 0 0 0 939 824.5 A 3 3 0 0 0 942 827.5 A 3 3 0 0 0 945 824.5 A 3 3 0 0 0 942 821.5 Z M 945 597.2  L 939 603.5  L 945 609.8  L 945 597.2  Z " fill-rule="nonzero" fill="#0054cc" stroke="none" mask="url(#clip4)" />
</svg>