<?xml version="1.0" encoding="utf-8"?>
<svg version="1.1" xmlns:xlink="http://www.w3.org/1999/xlink" width="10px" height="65px" preserveAspectRatio="xMidYMin meet" viewBox="873 855  8 65" xmlns="http://www.w3.org/2000/svg">
  <defs>
    <mask fill="white" id="clip8">
      <path d="M 856 874  L 898 874  L 898 896  L 856 896  Z M 856 846  L 898 846  L 898 924  L 856 924  Z " fill-rule="evenodd" />
    </mask>
  </defs>
  <path d="M 877.5 874  L 877.5 856  M 877.5 896  L 877.5 910  " stroke-width="1" stroke="#0054cc" fill="none" />
  <path d="M 877.5 855  A 3 3 0 0 0 874.5 858 A 3 3 0 0 0 877.5 861 A 3 3 0 0 0 880.5 858 A 3 3 0 0 0 877.5 855 Z M 871.2 909  L 877.5 915  L 883.8 909  L 871.2 909  Z " fill-rule="nonzero" fill="#0054cc" stroke="none" mask="url(#clip8)" />
</svg>