<?xml version="1.0" encoding="utf-8"?>
<svg version="1.1" xmlns:xlink="http://www.w3.org/1999/xlink" width="18px" height="18px" xmlns="http://www.w3.org/2000/svg">
  <g transform="matrix(1 0 0 1 -420 -1363 )">
    <path d="M 4.82781456953642 4.82781456953642  C 5.94653903039929 3.71033302036293  7.46346579755642 3.08319368553118  9.04470198675497 3.08443708609271  C 10.6227455922797 3.07720802164376  12.1372569107019 3.70556910056358  13.2466887417219 4.82781456953642  C 15.5675163537116 7.15426975879546  15.5675163537116 10.9202335524628  13.2466887417219 13.2466887417219  C 10.9202335524628 15.5675163537116  7.15426975879546 15.5675163537116  4.82781456953642 13.2466887417219  C 2.50698695754664 10.9202335524628  2.50698695754664 7.15426975879546  4.82781456953642 4.82781456953642  Z M 15.362582781457 2.71192052980132  C 13.6851044085652 1.04025518600764  11.412907051437 0.102437880589179  9.04470198675497 0.104304635761589  C 4.10981033562683 0.10819460063516  0.111351967963621 4.10980602492481  0.111351967963621 9.04469920919951  C 0.111351967963621 13.9823443235808  4.11410420457573 17.9850965601929  9.051749318957 17.9850965601929  C 13.9893944333383 17.9850965601929  17.9921466699504 13.9823443235808  17.9921466699504 9.04469920919951  C 17.9921466699504 6.66818074429773  17.0459492891048 4.38945360397556  15.362582781457 2.71192052980132  Z " fill-rule="nonzero" fill="#cccccc" stroke="none" transform="matrix(1 0 0 1 420 1363 )" />
  </g>
</svg>