<?xml version="1.0" encoding="utf-8"?>
<svg version="1.1" xmlns:xlink="http://www.w3.org/1999/xlink" width="16px" height="16px" xmlns="http://www.w3.org/2000/svg">
  <g transform="matrix(1 0 0 1 -227 -53 )">
    <path d="M 4.29139072847682 4.29139072847682  C 5.28581247146604 3.29807379587816  6.63419182005015 2.74061660936105  8.03973509933775 2.74172185430464  C 9.44244052647088 2.7352960192389  10.7886728095128 3.29383920050096  11.7748344370861 4.29139072847682  C 13.8377923144103 6.35935089670708  13.8377923144103 9.70687426885584  11.7748344370861 11.7748344370861  C 9.70687426885584 13.8377923144103  6.35935089670707 13.8377923144103  4.29139072847682 11.7748344370861  C 2.22843285115257 9.70687426885584  2.22843285115257 6.35935089670708  4.29139072847682 4.29139072847682  Z M 13.6556291390728 2.41059602649007  C 12.1645372520579 0.924671276451235  10.144806267944 0.0910558938570482  8.03973509933775 0.0927152317880795  C 3.65316474277941 0.0961729783423643  0.0989795270787741 3.65316091104428  0.0989795270787741 8.03973263039957  C 0.0989795270787741 12.4287505098496  3.65698151517843 15.9867524979492  8.04599939462844 15.9867524979492  C 12.4350172740785 15.9867524979492  15.9930192621781 12.4287505098496  15.9930192621781 8.03973263039957  C 15.9930192621781 5.9272717727091  15.1519549236487 3.90173653686717  13.6556291390728 2.41059602649007  Z " fill-rule="nonzero" fill="#cccccc" stroke="none" transform="matrix(1 0 0 1 227 53 )" />
  </g>
</svg>