<?xml version="1.0" encoding="utf-8"?>
<svg version="1.1" xmlns:xlink="http://www.w3.org/1999/xlink" width="124px" height="32px" xmlns="http://www.w3.org/2000/svg">
  <g transform="matrix(1 0 0 1 -751 -53 )">
    <path d="M 751.5 56  A 2.5 2.5 0 0 1 754 53.5 L 872 53.5  A 2.5 2.5 0 0 1 874.5 56 L 874.5 82  A 2.5 2.5 0 0 1 872 84.5 L 754 84.5  A 2.5 2.5 0 0 1 751.5 82 L 751.5 56  Z " fill-rule="nonzero" fill="#ffffff" stroke="none" />
    <path d="M 751.5 56  A 2.5 2.5 0 0 1 754 53.5 L 872 53.5  A 2.5 2.5 0 0 1 874.5 56 L 874.5 82  A 2.5 2.5 0 0 1 872 84.5 L 754 84.5  A 2.5 2.5 0 0 1 751.5 82 L 751.5 56  Z " stroke-width="1" stroke="#0079fe" fill="none" />
  </g>
</svg>