<?xml version="1.0" encoding="utf-8"?>
<svg version="1.1" xmlns:xlink="http://www.w3.org/1999/xlink" width="10px" height="11px" preserveAspectRatio="xMidYMin meet" viewBox="1346 936  8 11" xmlns="http://www.w3.org/2000/svg">
  <defs>
    <mask fill="white" id="clip138">
      <path d="M 1334.5 931  L 1365.5 931  L 1365.5 953  L 1334.5 953  Z M 1041 931  L 1660 931  L 1660 953  L 1041 953  Z " fill-rule="evenodd" />
    </mask>
  </defs>
  <path d="M 1051 941.5  L 1349.5 941.5  A 0.5 0.5 0 0 1 1350.5 942 A 0.5 0.5 0 0 0 1351 942.5 L 1646 942.5  " stroke-width="1" stroke="#0054cc" fill="none" mask="url(#clip138)" />
  <path d="M 1053 938.5  A 3 3 0 0 0 1050 941.5 A 3 3 0 0 0 1053 944.5 A 3 3 0 0 0 1056 941.5 A 3 3 0 0 0 1053 938.5 Z M 1645 948.8  L 1651 942.5  L 1645 936.2  L 1645 948.8  Z " fill-rule="nonzero" fill="#0054cc" stroke="none" mask="url(#clip138)" />
</svg>