<?xml version="1.0" encoding="utf-8"?>
<svg version="1.1" xmlns:xlink="http://www.w3.org/1999/xlink" width="668px" height="10px" preserveAspectRatio="xMinYMid meet" viewBox="1050 1166  668 8" xmlns="http://www.w3.org/2000/svg">
  <defs>
    <mask fill="white" id="clip148">
      <path d="M 1406.5 1159  L 1437.5 1159  L 1437.5 1181  L 1406.5 1181  Z M 1041 1080  L 1722 1080  L 1722 1181  L 1041 1181  Z " fill-rule="evenodd" />
    </mask>
  </defs>
  <path d="M 1713.5 1090  L 1713.5 1165  A 5 5 0 0 1 1708.5 1170.5 L 1055 1170.5  " stroke-width="1" stroke="#0054cc" fill="none" mask="url(#clip148)" />
  <path d="M 1713.5 1089  A 3 3 0 0 0 1710.5 1092 A 3 3 0 0 0 1713.5 1095 A 3 3 0 0 0 1716.5 1092 A 3 3 0 0 0 1713.5 1089 Z M 1056 1164.2  L 1050 1170.5  L 1056 1176.8  L 1056 1164.2  Z " fill-rule="nonzero" fill="#0054cc" stroke="none" mask="url(#clip148)" />
</svg>