<?xml version="1.0" encoding="utf-8"?>
<svg version="1.1" xmlns:xlink="http://www.w3.org/1999/xlink" width="130px" height="38px" xmlns="http://www.w3.org/2000/svg">
  <defs>
    <filter x="748px" y="50px" width="130px" height="38px" filterUnits="userSpaceOnUse" id="filter273">
      <feOffset dx="0" dy="0" in="SourceAlpha" result="shadowOffsetInner" />
      <feGaussianBlur stdDeviation="1.5" in="shadowOffsetInner" result="shadowGaussian" />
      <feComposite in2="shadowGaussian" operator="atop" in="SourceAlpha" result="shadowComposite" />
      <feColorMatrix type="matrix" values="0 0 0 0 0  0 0 0 0 0.474509803921569  0 0 0 0 0.996078431372549  0 0 0 0.8 0  " in="shadowComposite" />
    </filter>
    <g id="widget274">
      <path d="M 751.5 56  A 2.5 2.5 0 0 1 754 53.5 L 872 53.5  A 2.5 2.5 0 0 1 874.5 56 L 874.5 82  A 2.5 2.5 0 0 1 872 84.5 L 754 84.5  A 2.5 2.5 0 0 1 751.5 82 L 751.5 56  Z " fill-rule="nonzero" fill="#ffffff" stroke="none" />
      <path d="M 751.5 56  A 2.5 2.5 0 0 1 754 53.5 L 872 53.5  A 2.5 2.5 0 0 1 874.5 56 L 874.5 82  A 2.5 2.5 0 0 1 872 84.5 L 754 84.5  A 2.5 2.5 0 0 1 751.5 82 L 751.5 56  Z " stroke-width="1" stroke="#0079fe" fill="none" />
    </g>
  </defs>
  <g transform="matrix(1 0 0 1 -748 -50 )">
    <use xlink:href="#widget274" filter="url(#filter273)" />
    <use xlink:href="#widget274" />
  </g>
</svg>