<?xml version="1.0" encoding="utf-8"?>
<svg version="1.1" xmlns:xlink="http://www.w3.org/1999/xlink" width="6px" height="10px" xmlns="http://www.w3.org/2000/svg">
  <g transform="matrix(1 0 0 1 -120 -57 )">
    <path d="M 5.89690721649483 4.76953907815631  C 5.96563573883163 4.83633934535738  6 4.91315965263861  6 5  C 6 5.08684034736139  5.96563573883163 5.16366065464261  5.89690721649483 5.23046092184368  L 1.09278350515465 9.8997995991984  C 1.02405498281785 9.96659986639946  0.945017182130582 10  0.855670103092796 10  C 0.766323024054966 10  0.687285223367696 9.96659986639946  0.618556701030941 9.8997995991984  L 0.103092783505169 9.39879759519038  C 0.0343642611683699 9.33199732798931  0 9.25517702070808  0 9.16833667334669  C 0 9.08149632598531  0.0343642611683699 9.00467601870408  0.103092783505169 8.93787575150301  L 4.15463917525772 5  L 0.103092783505169 1.06212424849699  C 0.0343642611683699 0.995323981295922  0 0.918503674014694  0 0.831663326653306  C 0 0.744822979291921  0.0343642611683699 0.668002672010694  0.103092783505169 0.601202404809623  L 0.618556701030941 0.100200400801604  C 0.687285223367696 0.0334001336005372  0.766323024054966 0  0.855670103092796 0  C 0.945017182130582 0  1.02405498281785 0.0334001336005372  1.09278350515465 0.100200400801604  L 5.89690721649483 4.76953907815631  Z " fill-rule="nonzero" fill="#cccccc" stroke="none" transform="matrix(1 0 0 1 120 57 )" />
  </g>
</svg>