<?xml version="1.0" encoding="utf-8"?>
<svg version="1.1" xmlns:xlink="http://www.w3.org/1999/xlink" width="13px" height="13px" xmlns="http://www.w3.org/2000/svg">
  <g transform="matrix(1 0 0 1 -235 -205 )">
    <path d="M 12.3865625 1.392625  L 11.20925 1.392625  L 9.8109375 1.392625  L 7.97225 0  L 5.0285625 0  L 3.1890625 1.392625  L 1.79075 1.392625  L 0.612625 1.392625  C 0.287625 1.392625  0 1.7590625  0 2.0840625  L 0 2.673125  C 0 2.998125  0.287625 3.25  0.612625 3.25  L 1.16025 3.25  L 1.16025 12.3865625  C 1.16025 12.7115625  1.4649375 13  1.7899375 13  L 11.20925 13  C 11.53425 13  11.8389375 12.7115625  11.8389375 12.3865625  L 11.8389375 3.25  L 12.3865625 3.25  C 12.712375 3.25  13 2.998125  13 2.6739375  L 13 2.084875  C 13 1.7590625  12.712375 1.392625  12.3865625 1.392625  Z M 4.1786875 10.7680625  C 4.1786875 11.0118125  3.947125 11.142625  3.703375 11.142625  L 3.40925 11.142625  C 3.1655 11.142625  3.017625 11.0118125  3.017625 10.7680625  L 3.017625 3.703375  C 3.017625 3.459625  3.1655 3.25  3.40925 3.25  L 3.703375 3.25  C 3.947125 3.25  4.177875 3.459625  4.177875 3.703375  L 4.177875 10.7680625  Z M 7.1963125 10.7680625  C 7.1963125 11.0118125  6.8908125 11.142625  6.6470625 11.142625  L 6.3529375 11.142625  C 6.1091875 11.142625  5.8036875 11.0118125  5.8036875 10.7680625  L 5.8036875 3.703375  C 5.8036875 3.459625  6.1091875 3.25  6.3529375 3.25  L 6.647875 3.25  C 6.891625 3.25  7.197125 3.459625  7.197125 3.703375  L 7.197125 10.7680625  Z M 9.982375 3.703375  L 9.982375 10.7680625  C 9.982375 11.0118125  9.8345 11.142625  9.59075 11.142625  L 9.2958125 11.142625  C 9.0520625 11.142625  8.8213125 11.0118125  8.8213125 10.7680625  L 8.8213125 3.703375  C 8.8213125 3.459625  9.0520625 3.25  9.296625 3.25  L 9.5915625 3.25  C 9.8345 3.25  9.982375 3.459625  9.982375 3.703375  Z " fill-rule="nonzero" fill="#ffffff" stroke="none" transform="matrix(1 0 0 1 235 205 )" />
  </g>
</svg>