<?xml version="1.0" encoding="utf-8"?>
<svg version="1.1" xmlns:xlink="http://www.w3.org/1999/xlink" width="13px" height="13px" xmlns="http://www.w3.org/2000/svg">
  <g transform="matrix(1 0 0 1 -15 0 )">
    <path d="M 7.78617021276596 5.18617021276596  L 11.6723404255319 5.18617021276596  C 11.8475177304965 5.18617021276596  12.015780141844 5.22074468085106  12.1771276595745 5.28989361702128  C 12.338475177305 5.35904255319149  12.4767730496454 5.45124113475177  12.5920212765957 5.56648936170213  C 12.7072695035461 5.68173758865248  12.7994680851064 5.82003546099291  12.8686170212766 5.9813829787234  C 12.9377659574468 6.1427304964539  12.9723404255319 6.31099290780142  12.9723404255319 6.48617021276596  C 12.9723404255319 6.67056737588652  12.9377659574468 6.84113475177305  12.8686170212766 6.99787234042553  C 12.7994680851064 7.15460992907802  12.7072695035461 7.29060283687943  12.5920212765957 7.40585106382979  C 12.4767730496454 7.52109929078014  12.338475177305 7.61329787234042  12.1771276595745 7.68244680851064  C 12.015780141844 7.75159574468085  11.8475177304965 7.78617021276596  11.6723404255319 7.78617021276596  L 7.78617021276596 7.78617021276596  L 7.78617021276596 11.6723404255319  C 7.78617021276596 11.8567375886525  7.75159574468085 12.027304964539  7.68244680851064 12.1840425531915  C 7.61329787234043 12.340780141844  7.52109929078015 12.4767730496454  7.40585106382979 12.5920212765957  C 7.29060283687943 12.7072695035461  7.15230496453901 12.7994680851064  6.99095744680851 12.8686170212766  C 6.82960992907802 12.9377659574468  6.6613475177305 12.9723404255319  6.48617021276596 12.9723404255319  C 6.30177304964539 12.9723404255319  6.13120567375887 12.9377659574468  5.97446808510638 12.8686170212766  C 5.8177304964539 12.7994680851064  5.68173758865248 12.7072695035461  5.56648936170213 12.5920212765957  C 5.45124113475177 12.4767730496454  5.35904255319149 12.340780141844  5.28989361702128 12.1840425531915  C 5.22074468085107 12.027304964539  5.18617021276596 11.8567375886525  5.18617021276596 11.6723404255319  L 5.18617021276596 7.78617021276596  L 1.3 7.78617021276596  C 1.11560283687943 7.78617021276596  0.945035460992908 7.75159574468085  0.788297872340425 7.68244680851064  C 0.631560283687943 7.61329787234042  0.495567375886525 7.52109929078014  0.38031914893617 7.40585106382979  C 0.265070921985816 7.29060283687943  0.172872340425532 7.15460992907801  0.103723404255319 6.99787234042553  C 0.0345744680851063 6.84113475177305  0 6.67056737588653  0 6.48617021276596  C 0 6.31099290780142  0.0345744680851064 6.1427304964539  0.103723404255319 5.98138297872341  C 0.172872340425532 5.82003546099291  0.265070921985816 5.68173758865248  0.38031914893617 5.56648936170213  C 0.495567375886525 5.45124113475177  0.631560283687944 5.35904255319149  0.788297872340425 5.28989361702128  C 0.945035460992908 5.22074468085106  1.11560283687943 5.18617021276596  1.3 5.18617021276596  L 5.18617021276596 5.18617021276596  L 5.18617021276596 1.3  C 5.18617021276596 1.12482269503546  5.22074468085106 0.956560283687944  5.28989361702128 0.795212765957447  C 5.35904255319149 0.633865248226951  5.45124113475177 0.495567375886525  5.56648936170213 0.380319148936171  C 5.68173758865248 0.265070921985816  5.8177304964539 0.172872340425532  5.97446808510638 0.10372340425532  C 6.13120567375887 0.0345744680851065  6.30177304964539 0  6.48617021276596 0  C 6.84574468085107 0  7.15230496453901 0.12677304964539  7.40585106382979 0.380319148936171  C 7.65939716312057 0.633865248226951  7.78617021276596 0.940425531914894  7.78617021276596 1.3  L 7.78617021276596 5.18617021276596  Z " fill-rule="nonzero" fill="#000000" stroke="none" transform="matrix(1 0 0 1 15 0 )" />
  </g>
</svg>