<?xml version="1.0" encoding="utf-8"?>
<svg version="1.1" xmlns:xlink="http://www.w3.org/1999/xlink" width="9px" height="9px" xmlns="http://www.w3.org/2000/svg">
  <g transform="matrix(1 0 0 1 -259 -212 )">
    <path d="M 8.90465777853261 4.5059230638587  C 8.90786827032365 3.33136966015968  8.44105583982916 2.20434616363351  7.60827105978261 1.37606148097826  C 6.77814554977642 0.545889632314605  5.65222593191511 0.0795000484471654  4.47821841035629 0.0795000484471654  C 2.03356345124518 0.0795000484471654  0.0517790421497741 2.06128445754257  0.0517790421497741 4.50593941665369  C 0.0517790421497741 6.9505943757648  2.03356345124518 8.93237878486021  4.47821841035629 8.93237878486021  C 6.92287336946741 8.93237878486021  8.90465777856282 6.9505943757648  8.90465777856282 4.50593941665369  Z M 7.98696501358696 4.5059230638587  C 7.98696501358696 6.4408542798913  6.41276749320652 8.01524286684783  4.47764521059783 8.01524286684783  C 2.54271399456522 8.01524286684783  0.968516474184783 6.44104534646739  0.968516474184783 4.5059230638587  C 0.968516474184783 2.57080078125  2.54271399456522 0.996603260869565  4.47764521059783 0.996603260869565  C 6.41257642663043 0.996603260869565  7.98696501358696 2.57099184782609  7.98696501358696 4.5059230638587  Z " fill-rule="nonzero" fill="#ffffff" stroke="none" transform="matrix(1 0 0 1 259 212 )" />
  </g>
</svg>