<?xml version="1.0" encoding="utf-8"?>
<svg version="1.1" xmlns:xlink="http://www.w3.org/1999/xlink" width="11px" height="11px" xmlns="http://www.w3.org/2000/svg">
  <g transform="matrix(1 0 0 1 -255 -207 )">
    <path d="M 3.65530031536697 7.72420828683036  L 0.499265338302752 7.72420828683036  C 0.238006784053667 7.72420828683036  0.0262148795871552 7.9303271938558  0.0262148795871552 8.18458775111607  C 0.0262148795871552 8.43884830837634  0.238006784053667 8.64496721540178  0.499265338302752 8.64496721540178  L 3.65530031536697 8.64496721540178  C 3.91655886961606 8.64496721540178  4.12835077408257 8.43884830837634  4.12835077408257 8.18458775111607  C 4.12835077408257 7.9303271938558  3.91655886961606 7.72420828683036  3.65530031536697 7.72420828683036  Z M 3.65530031536697 9.90985979352678  L 0.499265338302752 9.90985979352678  C 0.238006812249672 9.90985979352678  0.0262149077831598 10.1159787005522  0.0262149077831598 10.3702392578125  C 0.0262149077831598 10.6244998150728  0.238006812249672 10.8306187220982  0.499265366498756 10.8306187220982  L 3.65530031536697 10.8306187220982  C 3.91655889781206 10.8306187220982  4.12835080227857 10.6244998150728  4.12835080227857 10.3702392578125  C 4.12835080227857 10.1159787005522  3.91655889781206 9.90985979352678  3.65530034356298 9.90985979352678  Z M 6.09978856077982 3.1783447265625  C 6.2392508127113 3.04563198243893  6.33045349173571 2.8722878270414  6.3595721043578 2.68458775111607  C 6.43026649810458 2.21054130238654  6.09336234489633 1.7702502933431  5.60643635321101 1.70033482142857  L 4.50895928899082 1.54438127790179  L 4.01876075114679 0.577008928571429  C 3.93166135631892 0.405930887663535  3.7893008023549 0.267383562823553  3.61351419151376 0.1826171875  C 3.17198179629053 -0.0291857596705465  2.63762055549729 0.147369503567103  2.41985020068807 0.577008928571429  L 1.92886324541284 1.54457310267857  L 0.832765911697247 1.699951171875  C 0.394332605345359 1.76153097108141  0.068943113519465 2.12718787538323  0.068943113519465 2.55829812785564  C 0.068943113519465 2.79214141801201  0.165976781453723 3.01607493640714  0.338033973623853 3.17930385044643  L 1.13177322247706 3.93259974888393  L 0.944326978211009 4.99684361049107  C 0.912007993785509 5.18421753323892  0.943282641999512 5.37673787729664  1.03341814793578 5.54527064732143  C 1.18750058287256 5.83072443957581  1.49150374973083 6.00950190992926  1.82282284030769 6.00950190992926  C 1.96745539466232 6.00950190992926  2.10991730602648 5.97526294240461  2.23792287844037 5.90973772321429  L 3.21930547591743 5.40773228236607  L 4.2000967603211 5.90973772321429  C 4.32812910636834 5.97521634183087  4.470564671981 6.00950940474456  4.61519853784404 6.00967843191964  C 5.10715468634381 6.00941759247011  5.50582186198425 5.62121756749145  5.50582186198425 5.14243874477362  C 5.50582186198425 5.09312727878736  5.50150032760895 5.04390565340424  5.49290424311927 4.99530901227679  L 5.30545799885321 3.93202427455357  L 6.09978856077982 3.1783447265625  Z M 5.35926748853211 2.59615652901786  L 4.28899082568807 3.61148507254464  L 4.54187571674312 5.04537527901786  L 3.21871416284404 4.36842564174107  L 1.89515840022936 5.04537527901786  L 2.14764908256881 3.61148507254464  L 1.07816083715596 2.59596470424107  L 2.5564435206422 2.3861083984375  L 3.21851705848624 1.08169991629464  L 3.87980217889908 2.3861083984375  L 5.35926748853211 2.59615652901786  Z M 10.9469789277523 9.93364606584822  C 10.9468701708252 9.71491990164262  10.7647045792755 9.53763374558083  10.5399584288991 9.53752790178572  L 10.3302393922018 9.53752790178572  C 10.0816907970183 9.477294921875  9.86329916857798 9.32076590401786  9.74385392775229 9.106689453125  C 9.57473838876147 8.80398995535714  9.62756235665138 8.62712751116072  9.85541499426606 8.34476143973214  L 9.93425673738532 8.25920758928571  C 10.2415424311927 7.92140415736607  10.1863532110092 7.45354352678571  9.80574469610092 7.16714913504464  C 9.42513618119266 6.88075474330357  8.83756809059633 6.86598423549107  8.43488388761468 7.13223702566964  C 8.03219968463303 7.39848981584821  7.93956063646789 7.86251395089286  8.21925172018349 8.21527971540178  L 8.37989177178899 8.37506975446428  C 8.53757525802752 8.4661865234375  8.64953053325688 8.7857666015625  8.47075688073394 9.106689453125  C 8.35052322247706 9.32076590401786  8.13252580275229 9.47767857142857  7.88318879013761 9.53752790178572  L 7.67386396215596 9.53752790178572  C 7.44904084159814 9.53752787615511  7.26675517942925 9.71484501879308  7.26664635894496 9.93364606584822  L 7.26664635894496 10.546142578125  C 7.26675517942925 10.7649436251801  7.44904084159814 10.9422607678181  7.67386396215596 10.9422607421875  L 10.5399584288991 10.9422607421875  C 10.7647045792755 10.9421548983924  10.9468701708252 10.7648687423306  10.9469789277523 10.546142578125  L 10.9469789277523 9.93364606584822  Z " fill-rule="nonzero" fill="#ffffff" stroke="none" transform="matrix(1 0 0 1 255 207 )" />
  </g>
</svg>