<?xml version="1.0" encoding="utf-8"?>
<svg version="1.1" xmlns:xlink="http://www.w3.org/1999/xlink" width="16px" height="16px" xmlns="http://www.w3.org/2000/svg">
  <g transform="matrix(1 0 0 1 -52 -205 )">
    <path d="M 12.51990625 2.4558125  C 12.51990625 2.11675  12.239640625 1.841890625  11.893890625 1.841890625  L 10.3289375 1.841890625  L 10.3289375 2.4558125  C 10.3289375 2.79490625  10.048671875 3.06978125  9.702921875 3.06978125  L 4.38196875 3.06978125  C 4.036265625 3.06978125  3.756 2.794921875  3.756 2.4558125  L 3.756 1.841890625  L 1.878 1.841890625  C 1.532296875 1.841890625  1.251984375 2.11675  1.251984375 2.4558125  L 1.251984375 14.120984375  C 1.251984375 14.460078125  1.53228125 14.734984375  1.878 14.734984375  L 6.8859375 14.734984375  L 8.137953125 15.962875  L 1.252 15.962875  C 0.56053125 15.962859375  0 15.413140625  0 14.734984375  L 0 1.841890625  C 0 1.163734375  0.56053125 0.613921875  1.252 0.613921875  L 3.756 0.613921875  C 3.756 0.274859375  4.036265625 0  4.38196875 0  L 9.702921875 0  C 10.048671875 0  10.3289375 0.274859375  10.3289375 0.613921875  L 12.519921875 0.613921875  C 13.211375 0.613921875  13.77190625 1.163734375  13.77190625 1.841890625  L 13.77190625 7.475984375  L 12.519921875 8.75115625  L 12.519921875 2.4558125  Z M 10.015953125 6.44653125  C 10.015953125 6.616078125  9.87578125 6.753546875  9.702921875 6.753546875  L 4.068984375 6.753546875  C 3.89609375 6.753546875  3.756 6.616078125  3.756 6.44653125  L 3.756 6.13959375  C 3.756 5.97  3.89609375 5.832609375  4.068984375 5.832609375  L 9.702921875 5.832609375  C 9.87578125 5.832609375  10.015953125 5.97  10.015953125 6.13959375  L 10.015953125 6.44653125  Z M 10.015953125 9.516296875  L 10.015953125 9.8233125  C 10.015953125 9.992828125  9.87578125 10.13025  9.702921875 10.13025  L 4.068984375 10.13025  C 3.89609375 10.13025  3.756 9.9928125  3.756 9.8233125  L 3.756 9.516296875  C 3.756 9.34678125  3.89609375 9.209359375  4.068984375 9.209359375  L 9.702921875 9.209359375  C 9.87578125 9.209359375  10.015953125 9.346796875  10.015953125 9.516296875  Z M 6.461171875 12.54225  L 7.287703125 11.732484375  L 9.6040625 13.712296875  L 15.962875 7.36746875  L 9.69071875 15.962859375  L 6.461171875 12.54225  Z " fill-rule="nonzero" fill="#ffffff" stroke="none" transform="matrix(1 0 0 1 52 205 )" />
  </g>
</svg>