<?xml version="1.0" encoding="utf-8"?>
<svg version="1.1" xmlns:xlink="http://www.w3.org/1999/xlink" width="260px" height="40px" xmlns="http://www.w3.org/2000/svg">
  <defs>
    <mask fill="white" id="clip270">
      <path d="M 0 37  L 0 3  C 0 1.31999999999999  1.32000000000005 0  3 0  L 154.313725490196 0  L 257 0  C 258.68 0  260 1.31999999999999  260 3  L 260 37  C 260 38.68  258.68 40  257 40  L 3 40  C 1.32000000000005 40  0 38.68  0 37  Z " fill-rule="evenodd" />
    </mask>
  </defs>
  <g transform="matrix(1 0 0 1 -580 -280 )">
    <path d="M 0 37  L 0 3  C 0 1.31999999999999  1.32000000000005 0  3 0  L 154.313725490196 0  L 257 0  C 258.68 0  260 1.31999999999999  260 3  L 260 37  C 260 38.68  258.68 40  257 40  L 3 40  C 1.32000000000005 40  0 38.68  0 37  Z " fill-rule="nonzero" fill="#ffffff" stroke="none" transform="matrix(1 0 0 1 580 280 )" />
    <path d="M 0 37  L 0 3  C 0 1.31999999999999  1.32000000000005 0  3 0  L 154.313725490196 0  L 257 0  C 258.68 0  260 1.31999999999999  260 3  L 260 37  C 260 38.68  258.68 40  257 40  L 3 40  C 1.32000000000005 40  0 38.68  0 37  Z " stroke-width="2" stroke="#d7d7d7" fill="none" transform="matrix(1 0 0 1 580 280 )" mask="url(#clip270)" />
  </g>
</svg>