<?xml version="1.0" encoding="utf-8"?>
<svg version="1.1" xmlns:xlink="http://www.w3.org/1999/xlink" width="18px" height="18px" preserveAspectRatio="xMinYMid meet" viewBox="979 1274  18 16" xmlns="http://www.w3.org/2000/svg">
  <defs>
    <mask fill="white" id="clip126">
      <path d="M 972.5 1293  L 1003.5 1293  L 1003.5 1315  L 972.5 1315  Z M 972.5 1270  L 1003.5 1270  L 1003.5 1338  L 972.5 1338  Z " fill-rule="evenodd" />
    </mask>
  </defs>
  <path d="M 988.5 1293  L 988.5 1280  M 988.5 1315  L 988.5 1324  " stroke-width="1" stroke="#0054cc" fill="none" />
  <path d="M 988.5 1279  A 3 3 0 0 0 985.5 1282 A 3 3 0 0 0 988.5 1285 A 3 3 0 0 0 991.5 1282 A 3 3 0 0 0 988.5 1279 Z M 982.2 1323  L 988.5 1329  L 994.8 1323  L 982.2 1323  Z " fill-rule="nonzero" fill="#0054cc" stroke="none" mask="url(#clip126)" />
</svg>