<?xml version="1.0" encoding="utf-8"?>
<svg version="1.1" xmlns:xlink="http://www.w3.org/1999/xlink" width="6px" height="6px" xmlns="http://www.w3.org/2000/svg">
  <g transform="matrix(1 0 0 1 -3 -7 )">
    <path d="M 5.89161290322581 0.828282828282828  C 5.96387096774194 0.92255892255892  6 1.03703703703703  6 1.17171717171717  C 6 1.3063973063973  5.96387096774194 1.42087542087542  5.89161290322581 1.51515151515152  L 3.08903225806452 5.17171717171717  L 2.56258064516129 5.85858585858586  C 2.49032258064516 5.95286195286195  2.40258064516129 6  2.29935483870968 6  C 2.19612903225806 6  2.10838709677419 5.95286195286195  2.03612903225807 5.85858585858586  L 1.50967741935484 5.17171717171717  L 0.108387096774194 3.34343434343434  C 0.0361290322580646 3.24915824915825  0 3.13468013468014  0 3  C 0 2.86531986531987  0.0361290322580646 2.75084175084175  0.108387096774194 2.65656565656566  L 0.63483870967742 1.96969696969697  C 0.70709677419355 1.87542087542088  0.794838709677419 1.82828282828282  0.898064516129033 1.82828282828283  C 1.00129032258065 1.82828282828282  1.08903225806452 1.87542087542088  1.16129032258065 1.96969696969697  L 2.29935483870968 3.45959595959596  L 4.83870967741936 0.14141414141414  C 4.91096774193548 0.0471380471380461  4.99870967741936 0  5.10193548387097 0  C 5.20516129032258 0  5.29290322580645 0.0471380471380461  5.36516129032258 0.14141414141414  L 5.89161290322581 0.828282828282828  Z " fill-rule="nonzero" fill="#cccccc" stroke="none" transform="matrix(1 0 0 1 3 7 )" />
  </g>
</svg>