<?xml version="1.0" encoding="utf-8"?>
<svg version="1.1" xmlns:xlink="http://www.w3.org/1999/xlink" width="12px" height="12px" xmlns="http://www.w3.org/2000/svg">
  <g transform="matrix(1 0 0 1 -213 -118 )">
    <path d="M 3.21854304635762 3.21854304635762  C 3.96435935359953 2.47355534690862  4.97564386503761 2.05546245702079  6.02980132450331 2.05629139072848  C 7.08183039485316 2.05147201442918  8.09150460713458 2.47037940037572  8.83112582781457 3.21854304635762  C 10.3783442358078 4.76951317253031  10.3783442358078 7.28015570164188  8.83112582781457 8.83112582781457  C 7.28015570164188 10.3783442358078  4.76951317253031 10.3783442358078  3.21854304635762 8.83112582781457  C 1.67132463836443 7.28015570164188  1.67132463836443 4.76951317253031  3.21854304635762 3.21854304635762  Z M 10.2417218543046 1.80794701986755  C 9.12340293904344 0.693503457338426  7.608604700958 0.0682919203927862  6.02980132450331 0.0695364238410596  C 2.73987355708455 0.0721297337567732  0.0742346453090806 2.73987068328321  0.0742346453090806 6.02979947279967  C 0.0742346453090806 9.32156288238718  2.74273613638382 11.9900643734619  6.03449954597133 11.9900643734619  C 9.32626295555884 11.9900643734619  11.9947644466336 9.32156288238718  11.9947644466336 6.02979947279967  C 11.9947644466336 4.44545382953182  11.3639661927366 2.92630240265038  10.2417218543046 1.80794701986755  Z " fill-rule="nonzero" fill="#cccccc" stroke="none" transform="matrix(1 0 0 1 213 118 )" />
  </g>
</svg>