<?xml version="1.0" encoding="utf-8"?>
<svg version="1.1" xmlns:xlink="http://www.w3.org/1999/xlink" width="11px" height="11px" xmlns="http://www.w3.org/2000/svg">
  <g transform="matrix(1 0 0 1 -80 -142 )">
    <path d="M 5.7591211928934 2.35979140228426  C 5.79292909263959 2.32598350253807  5.82128410532995 2.28781329314721  5.84854854060914 2.25618654822335  C 6.83988340736041 3.24643083756345  7.81595019035533 4.22031646573604  8.82582487309645 5.22800999365482  C 8.79310755076142 5.24764038705584  8.74294098984772 5.26618020304569  8.70804251269035 5.30107868020305  C 7.23031012055838 6.76245241116751  5.75148715101523 8.22273556472081  4.28247937817259 9.69174333756345  C 4.09053775380711 9.88368496192893  3.88441862309645 10.0058296319797  3.62486119923858 10.0788983185279  C 2.6171676713198 10.3646296002538  1.61274587563452 10.665628965736  0.607233502538071 10.9600848667513  C 0.382574555837564 11.0255195114213  0.206991592639594 10.9666283312183  0.0946621192893402 10.7921359454315  C 0.0205028553299494 10.6787158946701  0.0205028553299494 10.5522089149746  0.0564919098984773 10.4278830901015  C 0.378212246192894 9.32858105964467  0.69993258248731 8.22927902918782  1.0260152284264 7.13106757614213  C 1.05000793147208 7.0514554251269  1.10017449238579 6.97075269670051  1.15906567258883 6.91295209390863  C 2.69132693527919 5.39377776015228  4.22576935279188 3.87678458121827  5.7591211928934 2.35979140228426  Z M 1.79596288071066 7.64363895939086  C 1.78941941624365 7.63164260786802  1.77524190989848 7.62509914340102  1.75015862944162 7.60546875  C 1.73489054568528 7.65127300126904  1.72289419416244 7.68399032360406  1.71307899746193 7.71779822335025  C 1.57675682106599 8.17802189086294  1.45788388324873 8.64478902284264  1.29975015862944 9.09737864847716  C 1.21686627538071 9.33294336928934  1.23976840101523 9.49980171319797  1.44588753172589 9.63939562182741  C 1.48405774111675 9.66556947969543  1.51677506345178 9.70155853426396  1.54513007614213 9.73863816624366  C 1.58984375 9.7975293464467  1.64001031091371 9.79861992385787  1.70653553299492 9.77898953045685  C 2.08278473984772 9.66556947969543  2.46121510152284 9.55542116116751  2.8385548857868 9.44418226522843  C 3.02722477791878 9.38856281725888  3.21589467005076 9.33403394670051  3.41874206852792 9.27405218908629  C 3.38711532360406 9.23806313451777  3.36966608502538 9.20970812182741  3.34567338197969 9.19225888324873  C 3.19081138959391 9.07992940989848  3.12101443527919 8.93052030456853  3.13519194162437 8.73857868020305  C 3.1406448286802 8.66660057106599  3.1308296319797 8.59462246192893  3.12646732233503 8.52155377538071  C 3.11447097081218 8.32088753172589  3.10138404187817 8.12022128807107  3.08829711294416 7.91519273477157  C 2.81238102791878 7.89229060913706  2.54955187182741 7.86502617385787  2.28672271573604 7.85193924492386  C 2.09478109137056 7.84212404822335  1.91374524111675 7.82249365482234  1.79596288071066 7.64363895939086  Z M 10.6710818527919 3.16790926395939  C 10.5402125634518 3.30314086294416  10.404980964467 3.43182899746193  10.2773834073604 3.55833597715736  C 9.33948683375634 2.62262055837563  8.40377141497462 1.68690513959391  7.45824079949239 0.742465101522843  C 7.6861714784264 0.535255393401015  7.86938848350254 0.264792195431472  8.16820669416244 0.12083597715736  C 8.52809723984772 -0.0525658312182742  8.97632455583756 0.0292274746192892  9.29586373730965 0.343313769035533  C 9.75935913705584 0.800265704314721  10.2217639593909 1.25830821700508  10.6765347398477 1.72507534898477  C 11.0964070431472 2.15585342639594  11.0898635786802 2.73713118654822  10.6710818527919 3.16790926395939  Z M 6.94894114847716 1.16779029187817  C 7.93264197335025 2.14930996192893  8.90979933375634 3.12646732233503  9.89459073604061 4.11234930203046  C 9.68410929568528 4.30974381345178  9.46490323604061 4.51477236675127  9.25115006345178 4.71434803299492  C 8.26744923857868 3.73064720812183  7.29029187817259 2.75348984771574  6.30659105329949 1.77087960025381  C 6.52252538071066 1.56912277918782  6.74064086294416 1.36409422588832  6.94894114847716 1.16779029187817  Z " fill-rule="nonzero" fill="#ffffff" stroke="none" transform="matrix(1 0 0 1 80 142 )" />
  </g>
</svg>