<?xml version="1.0" encoding="utf-8"?>
<svg version="1.1" xmlns:xlink="http://www.w3.org/1999/xlink" width="14px" height="11px" xmlns="http://www.w3.org/2000/svg">
  <g transform="matrix(1 0 0 1 -56 -275 )">
    <path d="M 13.751098885831 2.6085236529182  C 14.0175545942827 2.33830098805147  14.0175545942827 1.90019949592142  13.751098885831 1.62997681525735  L 12.3902828835227 0.249991855755974  C 12.1238112815163 -0.0202146484375006  11.691806443093 -0.0202146484375006  11.4253507501776 0.249991855755974  L 5.19389612482244 6.56941316923254  L 2.55762215687145 3.8959125674977  C 2.29118234197443 3.62572222397748  1.85914571644176 3.62572222397748  1.59270591708097 3.8959125674977  L 0.242223817027699 5.26547076487822  C -0.0242159978693185 5.53566110839844  -0.0242159978693185 5.97381109834559  0.242223817027699 6.24401760253906  L 4.69626307040128 10.7609683507583  C 4.83602513316761 10.9026913732192  5.02128815917969 10.9699560762293  5.20434131303267 10.9630533992992  C 5.38731498357599 10.969891417739  5.57246672363281 10.9026267147289  5.71214928755327 10.7609683507583  L 13.751098885831 2.6085236529182  Z " fill-rule="nonzero" fill="#ffffff" stroke="none" transform="matrix(1 0 0 1 56 275 )" />
  </g>
</svg>