<?xml version="1.0" encoding="utf-8"?>
<svg version="1.1" xmlns:xlink="http://www.w3.org/1999/xlink" width="5px" height="5px" xmlns="http://www.w3.org/2000/svg">
  <g transform="matrix(1 0 0 1 -147 -279 )">
    <path d="M 4.81158088235294 1.05497472426471  C 5.05083869485294 0.815573299632353  5.05083869485294 0.427676930147059  4.81158088235294 0.188419117647059  C 4.69195197610294 0.0687902113970588  4.53512752757353 0.00890395220588235  4.37830307904412 0.00890395220588235  C 4.22147863051471 0.00890395220588235  4.0646541819853 0.0687902113970588  3.9450252757353 0.188419117647059  L 2.50100528492647 1.63243910845588  L 1.05698529411765 0.188419117647059  C 0.937356387867647 0.0687902113970588  0.780531939338235 0.00890395220588235  0.623707490808823 0.00890395220588235  C 0.466883042279411 0.00890395220588235  0.31005859375 0.0687902113970588  0.190429687499999 0.188419117647059  C -0.048828125000001 0.42767693014706  -0.048828125000001 0.815573299632353  0.190429687499999 1.05483111213235  L 1.63444967830882 2.49885110294118  L 0.190573299632352 3.94301470588235  C -0.0486845128676481 4.18227251838235  -0.0486845128676481 4.57016888786765  0.190573299632352 4.80942670036765  C 0.310202205882352 4.92905560661765  0.467026654411764 4.98879825367647  0.623851102941175 4.98879825367647  C 0.780675551470588 4.98879825367647  0.937499999999999 4.9289119944853  1.05712890625 4.80942670036765  L 2.50114889705882 3.36540670955882  L 3.94516888786765 4.80942670036765  C 4.06479779411765 4.92905560661765  4.22162224264706 4.98879825367647  4.37844669117647 4.98879825367647  C 4.53527113970588 4.98879825367647  4.69209558823529 4.9289119944853  4.81172449448529 4.80942670036765  C 5.05098230698529 4.57016888786765  5.05098230698529 4.18227251838235  4.81172449448529 3.94301470588235  L 3.36756089154412 2.49899471507353  L 4.81158088235294 1.05497472426471  Z " fill-rule="nonzero" fill="#ffffff" stroke="none" transform="matrix(1 0 0 1 147 279 )" />
  </g>
</svg>