<?xml version="1.0" encoding="utf-8"?>
<svg version="1.1" xmlns:xlink="http://www.w3.org/1999/xlink" width="18px" height="18px" preserveAspectRatio="xMinYMid meet" viewBox="868 406  18 16" xmlns="http://www.w3.org/2000/svg">
  <path d="M 877.5 412  L 877.5 425  A 5 5 0 0 0 882.5 430.5 L 979 430.5  A 5 5 0 0 1 984.5 435.5 L 984.5 457  " stroke-width="1" stroke="#0054cc" fill="none" />
  <path d="M 877.5 411  A 3 3 0 0 0 874.5 414 A 3 3 0 0 0 877.5 417 A 3 3 0 0 0 880.5 414 A 3 3 0 0 0 877.5 411 Z M 978.2 456  L 984.5 462  L 990.8 456  L 978.2 456  Z " fill-rule="nonzero" fill="#0054cc" stroke="none" />
</svg>