<?xml version="1.0" encoding="utf-8"?>
<svg version="1.1" xmlns:xlink="http://www.w3.org/1999/xlink" width="18px" height="19px" preserveAspectRatio="xMidYMin meet" viewBox="1650 1407  16 19" xmlns="http://www.w3.org/2000/svg">
  <defs>
    <mask fill="white" id="clip51">
      <path d="M 1642.5 1372  L 1673.5 1372  L 1673.5 1394  L 1642.5 1394  Z M 1642.5 1336  L 1673.5 1336  L 1673.5 1429  L 1642.5 1429  Z " fill-rule="evenodd" />
    </mask>
  </defs>
  <path d="M 1658.5 1372  L 1658.5 1346  M 1658.5 1394  L 1658.5 1415  " stroke-width="1" stroke="#0054cc" fill="none" />
  <path d="M 1658.5 1345  A 3 3 0 0 0 1655.5 1348 A 3 3 0 0 0 1658.5 1351 A 3 3 0 0 0 1661.5 1348 A 3 3 0 0 0 1658.5 1345 Z M 1652.2 1414  L 1658.5 1420  L 1664.8 1414  L 1652.2 1414  Z " fill-rule="nonzero" fill="#0054cc" stroke="none" mask="url(#clip51)" />
</svg>